<svg xmlns="http://www.w3.org/2000/svg" width="840" height="254" viewBox="0 0 840 254">
  <rect width="840" height="254" rx="12" fill="#24283b" stroke="#414868" stroke-width="1"/>
  <text x="24" y="34" fill="#a9b1d6" font-size="14" font-family="-apple-system, BlinkMacSystemFont, 'Segoe UI', Helvetica, Arial, sans-serif" font-weight="700">When I Code</text><text x="132" y="34" fill="#565f89" font-size="10" font-family="-apple-system, BlinkMacSystemFont, 'Segoe UI', Helvetica, Arial, sans-serif">(public events, America/New_York)</text><text x="66.0" y="52" fill="#565f89" font-size="9" font-family="-apple-system, BlinkMacSystemFont, 'Segoe UI', Helvetica, Arial, sans-serif" text-anchor="middle">00</text><text x="108.0" y="52" fill="#565f89" font-size="9" font-family="-apple-system, BlinkMacSystemFont, 'Segoe UI', Helvetica, Arial, sans-serif" text-anchor="middle">03</text><text x="150.0" y="52" fill="#565f89" font-size="9" font-family="-apple-system, BlinkMacSystemFont, 'Segoe UI', Helvetica, Arial, sans-serif" text-anchor="middle">06</text><text x="192.0" y="52" fill="#565f89" font-size="9" font-family="-apple-system, BlinkMacSystemFont, 'Segoe UI', Helvetica, Arial, sans-serif" text-anchor="middle">09</text><text x="234.0" y="52" fill="#565f89" font-size="9" font-family="-apple-system, BlinkMacSystemFont, 'Segoe UI', Helvetica, Arial, sans-serif" text-anchor="middle">12</text><text x="276.0" y="52" fill="#565f89" font-size="9" font-family="-apple-system, BlinkMacSystemFont, 'Segoe UI', Helvetica, Arial, sans-serif" text-anchor="middle">15</text><text x="318.0" y="52" fill="#565f89" font-size="9" font-family="-apple-system, BlinkMacSystemFont, 'Segoe UI', Helvetica, Arial, sans-serif" text-anchor="middle">18</text><text x="360.0" y="52" fill="#565f89" font-size="9" font-family="-apple-system, BlinkMacSystemFont, 'Segoe UI', Helvetica, Arial, sans-serif" text-anchor="middle">21</text><text x="24" y="69" fill="#565f89" font-size="10" font-family="-apple-system, BlinkMacSystemFont, 'Segoe UI', Helvetica, Arial, sans-serif">Mon</text><rect x="60" y="58" width="12" height="12" rx="2" fill="#1e2030"><title>Mon 00:00 (America/New_York) - 0 events</title></rect><rect x="74" y="58" width="12" height="12" rx="2" fill="#2d4a3e"><title>Mon 01:00 (America/New_York) - 8 events</title></rect><rect x="88" y="58" width="12" height="12" rx="2" fill="#2d4a3e"><title>Mon 02:00 (America/New_York) - 1 events</title></rect><rect x="102" y="58" width="12" height="12" rx="2" fill="#1e2030"><title>Mon 03:00 (America/New_York) - 0 events</title></rect><rect x="116" y="58" width="12" height="12" rx="2" fill="#2d4a3e"><title>Mon 04:00 (America/New_York) - 2 events</title></rect><rect x="130" y="58" width="12" height="12" rx="2" fill="#1e2030"><title>Mon 05:00 (America/New_York) - 0 events</title></rect><rect x="144" y="58" width="12" height="12" rx="2" fill="#1e2030"><title>Mon 06:00 (America/New_York) - 0 events</title></rect><rect x="158" y="58" width="12" height="12" rx="2" fill="#1e2030"><title>Mon 07:00 (America/New_York) - 0 events</title></rect><rect x="172" y="58" width="12" height="12" rx="2" fill="#2d4a3e"><title>Mon 08:00 (America/New_York) - 3 events</title></rect><rect x="186" y="58" width="12" height="12" rx="2" fill="#2d4a3e"><title>Mon 09:00 (America/New_York) - 5 events</title></rect><rect x="200" y="58" width="12" height="12" rx="2" fill="#2d4a3e"><title>Mon 10:00 (America/New_York) - 3 events</title></rect><rect x="214" y="58" width="12" height="12" rx="2" fill="#1e2030"><title>Mon 11:00 (America/New_York) - 0 events</title></rect><rect x="228" y="58" width="12" height="12" rx="2" fill="#2d4a3e"><title>Mon 12:00 (America/New_York) - 5 events</title></rect><rect x="242" y="58" width="12" height="12" rx="2" fill="#2d4a3e"><title>Mon 13:00 (America/New_York) - 2 events</title></rect><rect x="256" y="58" width="12" height="12" rx="2" fill="#2d4a3e"><title>Mon 14:00 (America/New_York) - 1 events</title></rect><rect x="270" y="58" width="12" height="12" rx="2" fill="#1e2030"><title>Mon 15:00 (America/New_York) - 0 events</title></rect><rect x="284" y="58" width="12" height="12" rx="2" fill="#1e2030"><title>Mon 16:00 (America/New_York) - 0 events</title></rect><rect x="298" y="58" width="12" height="12" rx="2" fill="#1e2030"><title>Mon 17:00 (America/New_York) - 0 events</title></rect><rect x="312" y="58" width="12" height="12" rx="2" fill="#2d4a3e"><title>Mon 18:00 (America/New_York) - 3 events</title></rect><rect x="326" y="58" width="12" height="12" rx="2" fill="#2d4a3e"><title>Mon 19:00 (America/New_York) - 2 events</title></rect><rect x="340" y="58" width="12" height="12" rx="2" fill="#1e2030"><title>Mon 20:00 (America/New_York) - 0 events</title></rect><rect x="354" y="58" width="12" height="12" rx="2" fill="#1e2030"><title>Mon 21:00 (America/New_York) - 0 events</title></rect><rect x="368" y="58" width="12" height="12" rx="2" fill="#1e2030"><title>Mon 22:00 (America/New_York) - 0 events</title></rect><rect x="382" y="58" width="12" height="12" rx="2" fill="#2d4a3e"><title>Mon 23:00 (America/New_York) - 2 events</title></rect><text x="24" y="83" fill="#565f89" font-size="10" font-family="-apple-system, BlinkMacSystemFont, 'Segoe UI', Helvetica, Arial, sans-serif">Tue</text><rect x="60" y="72" width="12" height="12" rx="2" fill="#1e2030"><title>Tue 00:00 (America/New_York) - 0 events</title></rect><rect x="74" y="72" width="12" height="12" rx="2" fill="#2d4a3e"><title>Tue 01:00 (America/New_York) - 2 events</title></rect><rect x="88" y="72" width="12" height="12" rx="2" fill="#3b6b4f"><title>Tue 02:00 (America/New_York) - 9 events</title></rect><rect x="102" y="72" width="12" height="12" rx="2" fill="#1e2030"><title>Tue 03:00 (America/New_York) - 0 events</title></rect><rect x="116" y="72" width="12" height="12" rx="2" fill="#1e2030"><title>Tue 04:00 (America/New_York) - 0 events</title></rect><rect x="130" y="72" width="12" height="12" rx="2" fill="#1e2030"><title>Tue 05:00 (America/New_York) - 0 events</title></rect><rect x="144" y="72" width="12" height="12" rx="2" fill="#1e2030"><title>Tue 06:00 (America/New_York) - 0 events</title></rect><rect x="158" y="72" width="12" height="12" rx="2" fill="#2d4a3e"><title>Tue 07:00 (America/New_York) - 3 events</title></rect><rect x="172" y="72" width="12" height="12" rx="2" fill="#2d4a3e"><title>Tue 08:00 (America/New_York) - 3 events</title></rect><rect x="186" y="72" width="12" height="12" rx="2" fill="#1e2030"><title>Tue 09:00 (America/New_York) - 0 events</title></rect><rect x="200" y="72" width="12" height="12" rx="2" fill="#2d4a3e"><title>Tue 10:00 (America/New_York) - 3 events</title></rect><rect x="214" y="72" width="12" height="12" rx="2" fill="#2d4a3e"><title>Tue 11:00 (America/New_York) - 3 events</title></rect><rect x="228" y="72" width="12" height="12" rx="2" fill="#1e2030"><title>Tue 12:00 (America/New_York) - 0 events</title></rect><rect x="242" y="72" width="12" height="12" rx="2" fill="#2d4a3e"><title>Tue 13:00 (America/New_York) - 3 events</title></rect><rect x="256" y="72" width="12" height="12" rx="2" fill="#2d4a3e"><title>Tue 14:00 (America/New_York) - 7 events</title></rect><rect x="270" y="72" width="12" height="12" rx="2" fill="#1e2030"><title>Tue 15:00 (America/New_York) - 0 events</title></rect><rect x="284" y="72" width="12" height="12" rx="2" fill="#1e2030"><title>Tue 16:00 (America/New_York) - 0 events</title></rect><rect x="298" y="72" width="12" height="12" rx="2" fill="#1e2030"><title>Tue 17:00 (America/New_York) - 0 events</title></rect><rect x="312" y="72" width="12" height="12" rx="2" fill="#2d4a3e"><title>Tue 18:00 (America/New_York) - 1 events</title></rect><rect x="326" y="72" width="12" height="12" rx="2" fill="#3b6b4f"><title>Tue 19:00 (America/New_York) - 13 events</title></rect><rect x="340" y="72" width="12" height="12" rx="2" fill="#2d4a3e"><title>Tue 20:00 (America/New_York) - 2 events</title></rect><rect x="354" y="72" width="12" height="12" rx="2" fill="#2d4a3e"><title>Tue 21:00 (America/New_York) - 4 events</title></rect><rect x="368" y="72" width="12" height="12" rx="2" fill="#1e2030"><title>Tue 22:00 (America/New_York) - 0 events</title></rect><rect x="382" y="72" width="12" height="12" rx="2" fill="#1e2030"><title>Tue 23:00 (America/New_York) - 0 events</title></rect><text x="24" y="97" fill="#565f89" font-size="10" font-family="-apple-system, BlinkMacSystemFont, 'Segoe UI', Helvetica, Arial, sans-serif">Wed</text><rect x="60" y="86" width="12" height="12" rx="2" fill="#1e2030"><title>Wed 00:00 (America/New_York) - 0 events</title></rect><rect x="74" y="86" width="12" height="12" rx="2" fill="#1e2030"><title>Wed 01:00 (America/New_York) - 0 events</title></rect><rect x="88" y="86" width="12" height="12" rx="2" fill="#1e2030"><title>Wed 02:00 (America/New_York) - 0 events</title></rect><rect x="102" y="86" width="12" height="12" rx="2" fill="#1e2030"><title>Wed 03:00 (America/New_York) - 0 events</title></rect><rect x="116" y="86" width="12" height="12" rx="2" fill="#1e2030"><title>Wed 04:00 (America/New_York) - 0 events</title></rect><rect x="130" y="86" width="12" height="12" rx="2" fill="#1e2030"><title>Wed 05:00 (America/New_York) - 0 events</title></rect><rect x="144" y="86" width="12" height="12" rx="2" fill="#2d4a3e"><title>Wed 06:00 (America/New_York) - 2 events</title></rect><rect x="158" y="86" width="12" height="12" rx="2" fill="#1e2030"><title>Wed 07:00 (America/New_York) - 0 events</title></rect><rect x="172" y="86" width="12" height="12" rx="2" fill="#1e2030"><title>Wed 08:00 (America/New_York) - 0 events</title></rect><rect x="186" y="86" width="12" height="12" rx="2" fill="#1e2030"><title>Wed 09:00 (America/New_York) - 0 events</title></rect><rect x="200" y="86" width="12" height="12" rx="2" fill="#1e2030"><title>Wed 10:00 (America/New_York) - 0 events</title></rect><rect x="214" y="86" width="12" height="12" rx="2" fill="#1e2030"><title>Wed 11:00 (America/New_York) - 0 events</title></rect><rect x="228" y="86" width="12" height="12" rx="2" fill="#1e2030"><title>Wed 12:00 (America/New_York) - 0 events</title></rect><rect x="242" y="86" width="12" height="12" rx="2" fill="#3b6b4f"><title>Wed 13:00 (America/New_York) - 11 events</title></rect><rect x="256" y="86" width="12" height="12" rx="2" fill="#1e2030"><title>Wed 14:00 (America/New_York) - 0 events</title></rect><rect x="270" y="86" width="12" height="12" rx="2" fill="#1e2030"><title>Wed 15:00 (America/New_York) - 0 events</title></rect><rect x="284" y="86" width="12" height="12" rx="2" fill="#1e2030"><title>Wed 16:00 (America/New_York) - 0 events</title></rect><rect x="298" y="86" width="12" height="12" rx="2" fill="#1e2030"><title>Wed 17:00 (America/New_York) - 0 events</title></rect><rect x="312" y="86" width="12" height="12" rx="2" fill="#1e2030"><title>Wed 18:00 (America/New_York) - 0 events</title></rect><rect x="326" y="86" width="12" height="12" rx="2" fill="#2d4a3e"><title>Wed 19:00 (America/New_York) - 1 events</title></rect><rect x="340" y="86" width="12" height="12" rx="2" fill="#1e2030"><title>Wed 20:00 (America/New_York) - 0 events</title></rect><rect x="354" y="86" width="12" height="12" rx="2" fill="#1e2030"><title>Wed 21:00 (America/New_York) - 0 events</title></rect><rect x="368" y="86" width="12" height="12" rx="2" fill="#1e2030"><title>Wed 22:00 (America/New_York) - 0 events</title></rect><rect x="382" y="86" width="12" height="12" rx="2" fill="#1e2030"><title>Wed 23:00 (America/New_York) - 0 events</title></rect><text x="24" y="111" fill="#565f89" font-size="10" font-family="-apple-system, BlinkMacSystemFont, 'Segoe UI', Helvetica, Arial, sans-serif">Thu</text><rect x="60" y="100" width="12" height="12" rx="2" fill="#1e2030"><title>Thu 00:00 (America/New_York) - 0 events</title></rect><rect x="74" y="100" width="12" height="12" rx="2" fill="#1e2030"><title>Thu 01:00 (America/New_York) - 0 events</title></rect><rect x="88" y="100" width="12" height="12" rx="2" fill="#1e2030"><title>Thu 02:00 (America/New_York) - 0 events</title></rect><rect x="102" y="100" width="12" height="12" rx="2" fill="#1e2030"><title>Thu 03:00 (America/New_York) - 0 events</title></rect><rect x="116" y="100" width="12" height="12" rx="2" fill="#1e2030"><title>Thu 04:00 (America/New_York) - 0 events</title></rect><rect x="130" y="100" width="12" height="12" rx="2" fill="#1e2030"><title>Thu 05:00 (America/New_York) - 0 events</title></rect><rect x="144" y="100" width="12" height="12" rx="2" fill="#1e2030"><title>Thu 06:00 (America/New_York) - 0 events</title></rect><rect x="158" y="100" width="12" height="12" rx="2" fill="#1e2030"><title>Thu 07:00 (America/New_York) - 0 events</title></rect><rect x="172" y="100" width="12" height="12" rx="2" fill="#1e2030"><title>Thu 08:00 (America/New_York) - 0 events</title></rect><rect x="186" y="100" width="12" height="12" rx="2" fill="#1e2030"><title>Thu 09:00 (America/New_York) - 0 events</title></rect><rect x="200" y="100" width="12" height="12" rx="2" fill="#1e2030"><title>Thu 10:00 (America/New_York) - 0 events</title></rect><rect x="214" y="100" width="12" height="12" rx="2" fill="#1e2030"><title>Thu 11:00 (America/New_York) - 0 events</title></rect><rect x="228" y="100" width="12" height="12" rx="2" fill="#1e2030"><title>Thu 12:00 (America/New_York) - 0 events</title></rect><rect x="242" y="100" width="12" height="12" rx="2" fill="#1e2030"><title>Thu 13:00 (America/New_York) - 0 events</title></rect><rect x="256" y="100" width="12" height="12" rx="2" fill="#1e2030"><title>Thu 14:00 (America/New_York) - 0 events</title></rect><rect x="270" y="100" width="12" height="12" rx="2" fill="#1e2030"><title>Thu 15:00 (America/New_York) - 0 events</title></rect><rect x="284" y="100" width="12" height="12" rx="2" fill="#1e2030"><title>Thu 16:00 (America/New_York) - 0 events</title></rect><rect x="298" y="100" width="12" height="12" rx="2" fill="#2d4a3e"><title>Thu 17:00 (America/New_York) - 3 events</title></rect><rect x="312" y="100" width="12" height="12" rx="2" fill="#1e2030"><title>Thu 18:00 (America/New_York) - 0 events</title></rect><rect x="326" y="100" width="12" height="12" rx="2" fill="#2d4a3e"><title>Thu 19:00 (America/New_York) - 2 events</title></rect><rect x="340" y="100" width="12" height="12" rx="2" fill="#1e2030"><title>Thu 20:00 (America/New_York) - 0 events</title></rect><rect x="354" y="100" width="12" height="12" rx="2" fill="#1e2030"><title>Thu 21:00 (America/New_York) - 0 events</title></rect><rect x="368" y="100" width="12" height="12" rx="2" fill="#2d4a3e"><title>Thu 22:00 (America/New_York) - 7 events</title></rect><rect x="382" y="100" width="12" height="12" rx="2" fill="#6aa05e"><title>Thu 23:00 (America/New_York) - 17 events</title></rect><text x="24" y="125" fill="#565f89" font-size="10" font-family="-apple-system, BlinkMacSystemFont, 'Segoe UI', Helvetica, Arial, sans-serif">Fri</text><rect x="60" y="114" width="12" height="12" rx="2" fill="#3b6b4f"><title>Fri 00:00 (America/New_York) - 13 events</title></rect><rect x="74" y="114" width="12" height="12" rx="2" fill="#2d4a3e"><title>Fri 01:00 (America/New_York) - 7 events</title></rect><rect x="88" y="114" width="12" height="12" rx="2" fill="#9ece6a"><title>Fri 02:00 (America/New_York) - 34 events</title></rect><rect x="102" y="114" width="12" height="12" rx="2" fill="#3b6b4f"><title>Fri 03:00 (America/New_York) - 10 events</title></rect><rect x="116" y="114" width="12" height="12" rx="2" fill="#2d4a3e"><title>Fri 04:00 (America/New_York) - 8 events</title></rect><rect x="130" y="114" width="12" height="12" rx="2" fill="#2d4a3e"><title>Fri 05:00 (America/New_York) - 1 events</title></rect><rect x="144" y="114" width="12" height="12" rx="2" fill="#1e2030"><title>Fri 06:00 (America/New_York) - 0 events</title></rect><rect x="158" y="114" width="12" height="12" rx="2" fill="#1e2030"><title>Fri 07:00 (America/New_York) - 0 events</title></rect><rect x="172" y="114" width="12" height="12" rx="2" fill="#1e2030"><title>Fri 08:00 (America/New_York) - 0 events</title></rect><rect x="186" y="114" width="12" height="12" rx="2" fill="#1e2030"><title>Fri 09:00 (America/New_York) - 0 events</title></rect><rect x="200" y="114" width="12" height="12" rx="2" fill="#1e2030"><title>Fri 10:00 (America/New_York) - 0 events</title></rect><rect x="214" y="114" width="12" height="12" rx="2" fill="#1e2030"><title>Fri 11:00 (America/New_York) - 0 events</title></rect><rect x="228" y="114" width="12" height="12" rx="2" fill="#2d4a3e"><title>Fri 12:00 (America/New_York) - 4 events</title></rect><rect x="242" y="114" width="12" height="12" rx="2" fill="#1e2030"><title>Fri 13:00 (America/New_York) - 0 events</title></rect><rect x="256" y="114" width="12" height="12" rx="2" fill="#1e2030"><title>Fri 14:00 (America/New_York) - 0 events</title></rect><rect x="270" y="114" width="12" height="12" rx="2" fill="#1e2030"><title>Fri 15:00 (America/New_York) - 0 events</title></rect><rect x="284" y="114" width="12" height="12" rx="2" fill="#1e2030"><title>Fri 16:00 (America/New_York) - 0 events</title></rect><rect x="298" y="114" width="12" height="12" rx="2" fill="#2d4a3e"><title>Fri 17:00 (America/New_York) - 3 events</title></rect><rect x="312" y="114" width="12" height="12" rx="2" fill="#1e2030"><title>Fri 18:00 (America/New_York) - 0 events</title></rect><rect x="326" y="114" width="12" height="12" rx="2" fill="#1e2030"><title>Fri 19:00 (America/New_York) - 0 events</title></rect><rect x="340" y="114" width="12" height="12" rx="2" fill="#1e2030"><title>Fri 20:00 (America/New_York) - 0 events</title></rect><rect x="354" y="114" width="12" height="12" rx="2" fill="#1e2030"><title>Fri 21:00 (America/New_York) - 0 events</title></rect><rect x="368" y="114" width="12" height="12" rx="2" fill="#1e2030"><title>Fri 22:00 (America/New_York) - 0 events</title></rect><rect x="382" y="114" width="12" height="12" rx="2" fill="#1e2030"><title>Fri 23:00 (America/New_York) - 0 events</title></rect><text x="24" y="139" fill="#565f89" font-size="10" font-family="-apple-system, BlinkMacSystemFont, 'Segoe UI', Helvetica, Arial, sans-serif">Sat</text><rect x="60" y="128" width="12" height="12" rx="2" fill="#1e2030"><title>Sat 00:00 (America/New_York) - 0 events</title></rect><rect x="74" y="128" width="12" height="12" rx="2" fill="#1e2030"><title>Sat 01:00 (America/New_York) - 0 events</title></rect><rect x="88" y="128" width="12" height="12" rx="2" fill="#1e2030"><title>Sat 02:00 (America/New_York) - 0 events</title></rect><rect x="102" y="128" width="12" height="12" rx="2" fill="#2d4a3e"><title>Sat 03:00 (America/New_York) - 2 events</title></rect><rect x="116" y="128" width="12" height="12" rx="2" fill="#2d4a3e"><title>Sat 04:00 (America/New_York) - 6 events</title></rect><rect x="130" y="128" width="12" height="12" rx="2" fill="#2d4a3e"><title>Sat 05:00 (America/New_York) - 2 events</title></rect><rect x="144" y="128" width="12" height="12" rx="2" fill="#1e2030"><title>Sat 06:00 (America/New_York) - 0 events</title></rect><rect x="158" y="128" width="12" height="12" rx="2" fill="#1e2030"><title>Sat 07:00 (America/New_York) - 0 events</title></rect><rect x="172" y="128" width="12" height="12" rx="2" fill="#1e2030"><title>Sat 08:00 (America/New_York) - 0 events</title></rect><rect x="186" y="128" width="12" height="12" rx="2" fill="#1e2030"><title>Sat 09:00 (America/New_York) - 0 events</title></rect><rect x="200" y="128" width="12" height="12" rx="2" fill="#1e2030"><title>Sat 10:00 (America/New_York) - 0 events</title></rect><rect x="214" y="128" width="12" height="12" rx="2" fill="#1e2030"><title>Sat 11:00 (America/New_York) - 0 events</title></rect><rect x="228" y="128" width="12" height="12" rx="2" fill="#1e2030"><title>Sat 12:00 (America/New_York) - 0 events</title></rect><rect x="242" y="128" width="12" height="12" rx="2" fill="#1e2030"><title>Sat 13:00 (America/New_York) - 0 events</title></rect><rect x="256" y="128" width="12" height="12" rx="2" fill="#1e2030"><title>Sat 14:00 (America/New_York) - 0 events</title></rect><rect x="270" y="128" width="12" height="12" rx="2" fill="#1e2030"><title>Sat 15:00 (America/New_York) - 0 events</title></rect><rect x="284" y="128" width="12" height="12" rx="2" fill="#1e2030"><title>Sat 16:00 (America/New_York) - 0 events</title></rect><rect x="298" y="128" width="12" height="12" rx="2" fill="#1e2030"><title>Sat 17:00 (America/New_York) - 0 events</title></rect><rect x="312" y="128" width="12" height="12" rx="2" fill="#1e2030"><title>Sat 18:00 (America/New_York) - 0 events</title></rect><rect x="326" y="128" width="12" height="12" rx="2" fill="#1e2030"><title>Sat 19:00 (America/New_York) - 0 events</title></rect><rect x="340" y="128" width="12" height="12" rx="2" fill="#1e2030"><title>Sat 20:00 (America/New_York) - 0 events</title></rect><rect x="354" y="128" width="12" height="12" rx="2" fill="#1e2030"><title>Sat 21:00 (America/New_York) - 0 events</title></rect><rect x="368" y="128" width="12" height="12" rx="2" fill="#1e2030"><title>Sat 22:00 (America/New_York) - 0 events</title></rect><rect x="382" y="128" width="12" height="12" rx="2" fill="#1e2030"><title>Sat 23:00 (America/New_York) - 0 events</title></rect><text x="24" y="153" fill="#565f89" font-size="10" font-family="-apple-system, BlinkMacSystemFont, 'Segoe UI', Helvetica, Arial, sans-serif">Sun</text><rect x="60" y="142" width="12" height="12" rx="2" fill="#1e2030"><title>Sun 00:00 (America/New_York) - 0 events</title></rect><rect x="74" y="142" width="12" height="12" rx="2" fill="#1e2030"><title>Sun 01:00 (America/New_York) - 0 events</title></rect><rect x="88" y="142" width="12" height="12" rx="2" fill="#1e2030"><title>Sun 02:00 (America/New_York) - 0 events</title></rect><rect x="102" y="142" width="12" height="12" rx="2" fill="#1e2030"><title>Sun 03:00 (America/New_York) - 0 events</title></rect><rect x="116" y="142" width="12" height="12" rx="2" fill="#1e2030"><title>Sun 04:00 (America/New_York) - 0 events</title></rect><rect x="130" y="142" width="12" height="12" rx="2" fill="#1e2030"><title>Sun 05:00 (America/New_York) - 0 events</title></rect><rect x="144" y="142" width="12" height="12" rx="2" fill="#2d4a3e"><title>Sun 06:00 (America/New_York) - 1 events</title></rect><rect x="158" y="142" width="12" height="12" rx="2" fill="#2d4a3e"><title>Sun 07:00 (America/New_York) - 3 events</title></rect><rect x="172" y="142" width="12" height="12" rx="2" fill="#1e2030"><title>Sun 08:00 (America/New_York) - 0 events</title></rect><rect x="186" y="142" width="12" height="12" rx="2" fill="#2d4a3e"><title>Sun 09:00 (America/New_York) - 4 events</title></rect><rect x="200" y="142" width="12" height="12" rx="2" fill="#1e2030"><title>Sun 10:00 (America/New_York) - 0 events</title></rect><rect x="214" y="142" width="12" height="12" rx="2" fill="#2d4a3e"><title>Sun 11:00 (America/New_York) - 3 events</title></rect><rect x="228" y="142" width="12" height="12" rx="2" fill="#1e2030"><title>Sun 12:00 (America/New_York) - 0 events</title></rect><rect x="242" y="142" width="12" height="12" rx="2" fill="#2d4a3e"><title>Sun 13:00 (America/New_York) - 2 events</title></rect><rect x="256" y="142" width="12" height="12" rx="2" fill="#1e2030"><title>Sun 14:00 (America/New_York) - 0 events</title></rect><rect x="270" y="142" width="12" height="12" rx="2" fill="#1e2030"><title>Sun 15:00 (America/New_York) - 0 events</title></rect><rect x="284" y="142" width="12" height="12" rx="2" fill="#1e2030"><title>Sun 16:00 (America/New_York) - 0 events</title></rect><rect x="298" y="142" width="12" height="12" rx="2" fill="#3b6b4f"><title>Sun 17:00 (America/New_York) - 12 events</title></rect><rect x="312" y="142" width="12" height="12" rx="2" fill="#1e2030"><title>Sun 18:00 (America/New_York) - 0 events</title></rect><rect x="326" y="142" width="12" height="12" rx="2" fill="#1e2030"><title>Sun 19:00 (America/New_York) - 0 events</title></rect><rect x="340" y="142" width="12" height="12" rx="2" fill="#2d4a3e"><title>Sun 20:00 (America/New_York) - 6 events</title></rect><rect x="354" y="142" width="12" height="12" rx="2" fill="#2d4a3e"><title>Sun 21:00 (America/New_York) - 5 events</title></rect><rect x="368" y="142" width="12" height="12" rx="2" fill="#1e2030"><title>Sun 22:00 (America/New_York) - 0 events</title></rect><rect x="382" y="142" width="12" height="12" rx="2" fill="#1e2030"><title>Sun 23:00 (America/New_York) - 0 events</title></rect><text x="428" y="34" fill="#a9b1d6" font-size="12" font-family="-apple-system, BlinkMacSystemFont, 'Segoe UI', Helvetica, Arial, sans-serif" font-weight="600">By Time Block</text><text x="428" y="70" fill="#565f89" font-size="10" font-family="-apple-system, BlinkMacSystemFont, 'Segoe UI', Helvetica, Arial, sans-serif">Night</text><rect x="492" y="60" width="258.0" height="12" rx="2" fill="#9ece6a" opacity="0.75"/><text x="756.0" y="70" fill="#565f89" font-size="10" font-family="-apple-system, BlinkMacSystemFont, 'Segoe UI', Helvetica, Arial, sans-serif">105 (41%)</text><text x="428" y="88" fill="#565f89" font-size="10" font-family="-apple-system, BlinkMacSystemFont, 'Segoe UI', Helvetica, Arial, sans-serif">Morning</text><rect x="492" y="78" width="88.5" height="12" rx="2" fill="#9ece6a" opacity="0.75"/><text x="586.5" y="88" fill="#565f89" font-size="10" font-family="-apple-system, BlinkMacSystemFont, 'Segoe UI', Helvetica, Arial, sans-serif">36 (14%)</text><text x="428" y="106" fill="#565f89" font-size="10" font-family="-apple-system, BlinkMacSystemFont, 'Segoe UI', Helvetica, Arial, sans-serif">Afternoon</text><rect x="492" y="96" width="130.2" height="12" rx="2" fill="#9ece6a" opacity="0.75"/><text x="628.2" y="106" fill="#565f89" font-size="10" font-family="-apple-system, BlinkMacSystemFont, 'Segoe UI', Helvetica, Arial, sans-serif">53 (20%)</text><text x="428" y="124" fill="#565f89" font-size="10" font-family="-apple-system, BlinkMacSystemFont, 'Segoe UI', Helvetica, Arial, sans-serif">Evening</text><rect x="492" y="114" width="159.7" height="12" rx="2" fill="#9ece6a" opacity="0.75"/><text x="657.7" y="124" fill="#565f89" font-size="10" font-family="-apple-system, BlinkMacSystemFont, 'Segoe UI', Helvetica, Arial, sans-serif">65 (25%)</text><text x="428" y="154" fill="#a9b1d6" font-size="12" font-family="-apple-system, BlinkMacSystemFont, 'Segoe UI', Helvetica, Arial, sans-serif" font-weight="600">Event Mix</text><text x="428" y="172" fill="#565f89" font-size="10" font-family="-apple-system, BlinkMacSystemFont, 'Segoe UI', Helvetica, Arial, sans-serif">push</text><rect x="500" y="162" width="258.0" height="10" rx="2" fill="#9ece6a" opacity="0.55"/><text x="764.0" y="171" fill="#565f89" font-size="9" font-family="-apple-system, BlinkMacSystemFont, 'Segoe UI', Helvetica, Arial, sans-serif">230 (89%)</text><text x="428" y="188" fill="#565f89" font-size="10" font-family="-apple-system, BlinkMacSystemFont, 'Segoe UI', Helvetica, Arial, sans-serif">create</text><rect x="500" y="178" width="13.5" height="10" rx="2" fill="#9ece6a" opacity="0.55"/><text x="519.5" y="187" fill="#565f89" font-size="9" font-family="-apple-system, BlinkMacSystemFont, 'Segoe UI', Helvetica, Arial, sans-serif">12 (5%)</text><text x="428" y="204" fill="#565f89" font-size="10" font-family="-apple-system, BlinkMacSystemFont, 'Segoe UI', Helvetica, Arial, sans-serif">release</text><rect x="500" y="194" width="12.3" height="10" rx="2" fill="#9ece6a" opacity="0.55"/><text x="518.3" y="203" fill="#565f89" font-size="9" font-family="-apple-system, BlinkMacSystemFont, 'Segoe UI', Helvetica, Arial, sans-serif">11 (4%)</text><text x="428" y="220" fill="#565f89" font-size="10" font-family="-apple-system, BlinkMacSystemFont, 'Segoe UI', Helvetica, Arial, sans-serif">pull request</text><rect x="500" y="210" width="6.7" height="10" rx="2" fill="#9ece6a" opacity="0.55"/><text x="512.7" y="219" fill="#565f89" font-size="9" font-family="-apple-system, BlinkMacSystemFont, 'Segoe UI', Helvetica, Arial, sans-serif">6 (2%)</text>
</svg>