<svg xmlns="http://www.w3.org/2000/svg" width="840" height="186" viewBox="0 0 840 186">
  <rect width="840" height="186" rx="12" fill="#24283b" stroke="#414868" stroke-width="1"/>
  <text x="30" y="36" fill="#a9b1d6" font-size="14" font-family="-apple-system, BlinkMacSystemFont, 'Segoe UI', Helvetica, Arial, sans-serif" font-weight="700">When I Code</text><text x="72.0" y="54" fill="#565f89" font-size="9" font-family="-apple-system, BlinkMacSystemFont, 'Segoe UI', Helvetica, Arial, sans-serif" text-anchor="middle">00</text><text x="114.0" y="54" fill="#565f89" font-size="9" font-family="-apple-system, BlinkMacSystemFont, 'Segoe UI', Helvetica, Arial, sans-serif" text-anchor="middle">03</text><text x="156.0" y="54" fill="#565f89" font-size="9" font-family="-apple-system, BlinkMacSystemFont, 'Segoe UI', Helvetica, Arial, sans-serif" text-anchor="middle">06</text><text x="198.0" y="54" fill="#565f89" font-size="9" font-family="-apple-system, BlinkMacSystemFont, 'Segoe UI', Helvetica, Arial, sans-serif" text-anchor="middle">09</text><text x="240.0" y="54" fill="#565f89" font-size="9" font-family="-apple-system, BlinkMacSystemFont, 'Segoe UI', Helvetica, Arial, sans-serif" text-anchor="middle">12</text><text x="282.0" y="54" fill="#565f89" font-size="9" font-family="-apple-system, BlinkMacSystemFont, 'Segoe UI', Helvetica, Arial, sans-serif" text-anchor="middle">15</text><text x="324.0" y="54" fill="#565f89" font-size="9" font-family="-apple-system, BlinkMacSystemFont, 'Segoe UI', Helvetica, Arial, sans-serif" text-anchor="middle">18</text><text x="366.0" y="54" fill="#565f89" font-size="9" font-family="-apple-system, BlinkMacSystemFont, 'Segoe UI', Helvetica, Arial, sans-serif" text-anchor="middle">21</text><text x="30" y="71" fill="#565f89" font-size="10" font-family="-apple-system, BlinkMacSystemFont, 'Segoe UI', Helvetica, Arial, sans-serif">Mon</text><rect x="66" y="60" width="12" height="12" rx="2" fill="#3b6b4f"><title>Mon 00:00 - 2 events</title></rect><rect x="80" y="60" width="12" height="12" rx="2" fill="#1e2030"><title>Mon 01:00 - 0 events</title></rect><rect x="94" y="60" width="12" height="12" rx="2" fill="#2d4a3e"><title>Mon 02:00 - 1 events</title></rect><rect x="108" y="60" width="12" height="12" rx="2" fill="#2d4a3e"><title>Mon 03:00 - 1 events</title></rect><rect x="122" y="60" width="12" height="12" rx="2" fill="#1e2030"><title>Mon 04:00 - 0 events</title></rect><rect x="136" y="60" width="12" height="12" rx="2" fill="#3b6b4f"><title>Mon 05:00 - 2 events</title></rect><rect x="150" y="60" width="12" height="12" rx="2" fill="#3b6b4f"><title>Mon 06:00 - 2 events</title></rect><rect x="164" y="60" width="12" height="12" rx="2" fill="#3b6b4f"><title>Mon 07:00 - 2 events</title></rect><rect x="178" y="60" width="12" height="12" rx="2" fill="#9ece6a"><title>Mon 08:00 - 4 events</title></rect><rect x="192" y="60" width="12" height="12" rx="2" fill="#2d4a3e"><title>Mon 09:00 - 1 events</title></rect><rect x="206" y="60" width="12" height="12" rx="2" fill="#2d4a3e"><title>Mon 10:00 - 1 events</title></rect><rect x="220" y="60" width="12" height="12" rx="2" fill="#3b6b4f"><title>Mon 11:00 - 2 events</title></rect><rect x="234" y="60" width="12" height="12" rx="2" fill="#2d4a3e"><title>Mon 12:00 - 1 events</title></rect><rect x="248" y="60" width="12" height="12" rx="2" fill="#2d4a3e"><title>Mon 13:00 - 1 events</title></rect><rect x="262" y="60" width="12" height="12" rx="2" fill="#3b6b4f"><title>Mon 14:00 - 2 events</title></rect><rect x="276" y="60" width="12" height="12" rx="2" fill="#3b6b4f"><title>Mon 15:00 - 2 events</title></rect><rect x="290" y="60" width="12" height="12" rx="2" fill="#1e2030"><title>Mon 16:00 - 0 events</title></rect><rect x="304" y="60" width="12" height="12" rx="2" fill="#1e2030"><title>Mon 17:00 - 0 events</title></rect><rect x="318" y="60" width="12" height="12" rx="2" fill="#2d4a3e"><title>Mon 18:00 - 1 events</title></rect><rect x="332" y="60" width="12" height="12" rx="2" fill="#3b6b4f"><title>Mon 19:00 - 2 events</title></rect><rect x="346" y="60" width="12" height="12" rx="2" fill="#2d4a3e"><title>Mon 20:00 - 1 events</title></rect><rect x="360" y="60" width="12" height="12" rx="2" fill="#3b6b4f"><title>Mon 21:00 - 2 events</title></rect><rect x="374" y="60" width="12" height="12" rx="2" fill="#2d4a3e"><title>Mon 22:00 - 1 events</title></rect><rect x="388" y="60" width="12" height="12" rx="2" fill="#1e2030"><title>Mon 23:00 - 0 events</title></rect><text x="30" y="85" fill="#565f89" font-size="10" font-family="-apple-system, BlinkMacSystemFont, 'Segoe UI', Helvetica, Arial, sans-serif">Tue</text><rect x="66" y="74" width="12" height="12" rx="2" fill="#1e2030"><title>Tue 00:00 - 0 events</title></rect><rect x="80" y="74" width="12" height="12" rx="2" fill="#2d4a3e"><title>Tue 01:00 - 1 events</title></rect><rect x="94" y="74" width="12" height="12" rx="2" fill="#1e2030"><title>Tue 02:00 - 0 events</title></rect><rect x="108" y="74" width="12" height="12" rx="2" fill="#9ece6a"><title>Tue 03:00 - 4 events</title></rect><rect x="122" y="74" width="12" height="12" rx="2" fill="#2d4a3e"><title>Tue 04:00 - 1 events</title></rect><rect x="136" y="74" width="12" height="12" rx="2" fill="#1e2030"><title>Tue 05:00 - 0 events</title></rect><rect x="150" y="74" width="12" height="12" rx="2" fill="#2d4a3e"><title>Tue 06:00 - 1 events</title></rect><rect x="164" y="74" width="12" height="12" rx="2" fill="#1e2030"><title>Tue 07:00 - 0 events</title></rect><rect x="178" y="74" width="12" height="12" rx="2" fill="#1e2030"><title>Tue 08:00 - 0 events</title></rect><rect x="192" y="74" width="12" height="12" rx="2" fill="#1e2030"><title>Tue 09:00 - 0 events</title></rect><rect x="206" y="74" width="12" height="12" rx="2" fill="#2d4a3e"><title>Tue 10:00 - 1 events</title></rect><rect x="220" y="74" width="12" height="12" rx="2" fill="#1e2030"><title>Tue 11:00 - 0 events</title></rect><rect x="234" y="74" width="12" height="12" rx="2" fill="#1e2030"><title>Tue 12:00 - 0 events</title></rect><rect x="248" y="74" width="12" height="12" rx="2" fill="#3b6b4f"><title>Tue 13:00 - 2 events</title></rect><rect x="262" y="74" width="12" height="12" rx="2" fill="#2d4a3e"><title>Tue 14:00 - 1 events</title></rect><rect x="276" y="74" width="12" height="12" rx="2" fill="#1e2030"><title>Tue 15:00 - 0 events</title></rect><rect x="290" y="74" width="12" height="12" rx="2" fill="#2d4a3e"><title>Tue 16:00 - 1 events</title></rect><rect x="304" y="74" width="12" height="12" rx="2" fill="#2d4a3e"><title>Tue 17:00 - 1 events</title></rect><rect x="318" y="74" width="12" height="12" rx="2" fill="#2d4a3e"><title>Tue 18:00 - 1 events</title></rect><rect x="332" y="74" width="12" height="12" rx="2" fill="#1e2030"><title>Tue 19:00 - 0 events</title></rect><rect x="346" y="74" width="12" height="12" rx="2" fill="#2d4a3e"><title>Tue 20:00 - 1 events</title></rect><rect x="360" y="74" width="12" height="12" rx="2" fill="#1e2030"><title>Tue 21:00 - 0 events</title></rect><rect x="374" y="74" width="12" height="12" rx="2" fill="#2d4a3e"><title>Tue 22:00 - 1 events</title></rect><rect x="388" y="74" width="12" height="12" rx="2" fill="#2d4a3e"><title>Tue 23:00 - 1 events</title></rect><text x="30" y="99" fill="#565f89" font-size="10" font-family="-apple-system, BlinkMacSystemFont, 'Segoe UI', Helvetica, Arial, sans-serif">Wed</text><rect x="66" y="88" width="12" height="12" rx="2" fill="#2d4a3e"><title>Wed 00:00 - 1 events</title></rect><rect x="80" y="88" width="12" height="12" rx="2" fill="#1e2030"><title>Wed 01:00 - 0 events</title></rect><rect x="94" y="88" width="12" height="12" rx="2" fill="#2d4a3e"><title>Wed 02:00 - 1 events</title></rect><rect x="108" y="88" width="12" height="12" rx="2" fill="#1e2030"><title>Wed 03:00 - 0 events</title></rect><rect x="122" y="88" width="12" height="12" rx="2" fill="#6aa05e"><title>Wed 04:00 - 3 events</title></rect><rect x="136" y="88" width="12" height="12" rx="2" fill="#1e2030"><title>Wed 05:00 - 0 events</title></rect><rect x="150" y="88" width="12" height="12" rx="2" fill="#3b6b4f"><title>Wed 06:00 - 2 events</title></rect><rect x="164" y="88" width="12" height="12" rx="2" fill="#2d4a3e"><title>Wed 07:00 - 1 events</title></rect><rect x="178" y="88" width="12" height="12" rx="2" fill="#1e2030"><title>Wed 08:00 - 0 events</title></rect><rect x="192" y="88" width="12" height="12" rx="2" fill="#6aa05e"><title>Wed 09:00 - 3 events</title></rect><rect x="206" y="88" width="12" height="12" rx="2" fill="#1e2030"><title>Wed 10:00 - 0 events</title></rect><rect x="220" y="88" width="12" height="12" rx="2" fill="#6aa05e"><title>Wed 11:00 - 3 events</title></rect><rect x="234" y="88" width="12" height="12" rx="2" fill="#2d4a3e"><title>Wed 12:00 - 1 events</title></rect><rect x="248" y="88" width="12" height="12" rx="2" fill="#1e2030"><title>Wed 13:00 - 0 events</title></rect><rect x="262" y="88" width="12" height="12" rx="2" fill="#6aa05e"><title>Wed 14:00 - 3 events</title></rect><rect x="276" y="88" width="12" height="12" rx="2" fill="#2d4a3e"><title>Wed 15:00 - 1 events</title></rect><rect x="290" y="88" width="12" height="12" rx="2" fill="#2d4a3e"><title>Wed 16:00 - 1 events</title></rect><rect x="304" y="88" width="12" height="12" rx="2" fill="#3b6b4f"><title>Wed 17:00 - 2 events</title></rect><rect x="318" y="88" width="12" height="12" rx="2" fill="#3b6b4f"><title>Wed 18:00 - 2 events</title></rect><rect x="332" y="88" width="12" height="12" rx="2" fill="#2d4a3e"><title>Wed 19:00 - 1 events</title></rect><rect x="346" y="88" width="12" height="12" rx="2" fill="#1e2030"><title>Wed 20:00 - 0 events</title></rect><rect x="360" y="88" width="12" height="12" rx="2" fill="#6aa05e"><title>Wed 21:00 - 3 events</title></rect><rect x="374" y="88" width="12" height="12" rx="2" fill="#6aa05e"><title>Wed 22:00 - 3 events</title></rect><rect x="388" y="88" width="12" height="12" rx="2" fill="#2d4a3e"><title>Wed 23:00 - 1 events</title></rect><text x="30" y="113" fill="#565f89" font-size="10" font-family="-apple-system, BlinkMacSystemFont, 'Segoe UI', Helvetica, Arial, sans-serif">Thu</text><rect x="66" y="102" width="12" height="12" rx="2" fill="#3b6b4f"><title>Thu 00:00 - 2 events</title></rect><rect x="80" y="102" width="12" height="12" rx="2" fill="#1e2030"><title>Thu 01:00 - 0 events</title></rect><rect x="94" y="102" width="12" height="12" rx="2" fill="#2d4a3e"><title>Thu 02:00 - 1 events</title></rect><rect x="108" y="102" width="12" height="12" rx="2" fill="#3b6b4f"><title>Thu 03:00 - 2 events</title></rect><rect x="122" y="102" width="12" height="12" rx="2" fill="#2d4a3e"><title>Thu 04:00 - 1 events</title></rect><rect x="136" y="102" width="12" height="12" rx="2" fill="#2d4a3e"><title>Thu 05:00 - 1 events</title></rect><rect x="150" y="102" width="12" height="12" rx="2" fill="#2d4a3e"><title>Thu 06:00 - 1 events</title></rect><rect x="164" y="102" width="12" height="12" rx="2" fill="#3b6b4f"><title>Thu 07:00 - 2 events</title></rect><rect x="178" y="102" width="12" height="12" rx="2" fill="#1e2030"><title>Thu 08:00 - 0 events</title></rect><rect x="192" y="102" width="12" height="12" rx="2" fill="#1e2030"><title>Thu 09:00 - 0 events</title></rect><rect x="206" y="102" width="12" height="12" rx="2" fill="#2d4a3e"><title>Thu 10:00 - 1 events</title></rect><rect x="220" y="102" width="12" height="12" rx="2" fill="#2d4a3e"><title>Thu 11:00 - 1 events</title></rect><rect x="234" y="102" width="12" height="12" rx="2" fill="#2d4a3e"><title>Thu 12:00 - 1 events</title></rect><rect x="248" y="102" width="12" height="12" rx="2" fill="#2d4a3e"><title>Thu 13:00 - 1 events</title></rect><rect x="262" y="102" width="12" height="12" rx="2" fill="#2d4a3e"><title>Thu 14:00 - 1 events</title></rect><rect x="276" y="102" width="12" height="12" rx="2" fill="#1e2030"><title>Thu 15:00 - 0 events</title></rect><rect x="290" y="102" width="12" height="12" rx="2" fill="#6aa05e"><title>Thu 16:00 - 3 events</title></rect><rect x="304" y="102" width="12" height="12" rx="2" fill="#1e2030"><title>Thu 17:00 - 0 events</title></rect><rect x="318" y="102" width="12" height="12" rx="2" fill="#3b6b4f"><title>Thu 18:00 - 2 events</title></rect><rect x="332" y="102" width="12" height="12" rx="2" fill="#3b6b4f"><title>Thu 19:00 - 2 events</title></rect><rect x="346" y="102" width="12" height="12" rx="2" fill="#3b6b4f"><title>Thu 20:00 - 2 events</title></rect><rect x="360" y="102" width="12" height="12" rx="2" fill="#2d4a3e"><title>Thu 21:00 - 1 events</title></rect><rect x="374" y="102" width="12" height="12" rx="2" fill="#2d4a3e"><title>Thu 22:00 - 1 events</title></rect><rect x="388" y="102" width="12" height="12" rx="2" fill="#2d4a3e"><title>Thu 23:00 - 1 events</title></rect><text x="30" y="127" fill="#565f89" font-size="10" font-family="-apple-system, BlinkMacSystemFont, 'Segoe UI', Helvetica, Arial, sans-serif">Fri</text><rect x="66" y="116" width="12" height="12" rx="2" fill="#6aa05e"><title>Fri 00:00 - 3 events</title></rect><rect x="80" y="116" width="12" height="12" rx="2" fill="#2d4a3e"><title>Fri 01:00 - 1 events</title></rect><rect x="94" y="116" width="12" height="12" rx="2" fill="#2d4a3e"><title>Fri 02:00 - 1 events</title></rect><rect x="108" y="116" width="12" height="12" rx="2" fill="#1e2030"><title>Fri 03:00 - 0 events</title></rect><rect x="122" y="116" width="12" height="12" rx="2" fill="#1e2030"><title>Fri 04:00 - 0 events</title></rect><rect x="136" y="116" width="12" height="12" rx="2" fill="#6aa05e"><title>Fri 05:00 - 3 events</title></rect><rect x="150" y="116" width="12" height="12" rx="2" fill="#2d4a3e"><title>Fri 06:00 - 1 events</title></rect><rect x="164" y="116" width="12" height="12" rx="2" fill="#1e2030"><title>Fri 07:00 - 0 events</title></rect><rect x="178" y="116" width="12" height="12" rx="2" fill="#1e2030"><title>Fri 08:00 - 0 events</title></rect><rect x="192" y="116" width="12" height="12" rx="2" fill="#1e2030"><title>Fri 09:00 - 0 events</title></rect><rect x="206" y="116" width="12" height="12" rx="2" fill="#9ece6a"><title>Fri 10:00 - 5 events</title></rect><rect x="220" y="116" width="12" height="12" rx="2" fill="#2d4a3e"><title>Fri 11:00 - 1 events</title></rect><rect x="234" y="116" width="12" height="12" rx="2" fill="#6aa05e"><title>Fri 12:00 - 3 events</title></rect><rect x="248" y="116" width="12" height="12" rx="2" fill="#1e2030"><title>Fri 13:00 - 0 events</title></rect><rect x="262" y="116" width="12" height="12" rx="2" fill="#9ece6a"><title>Fri 14:00 - 4 events</title></rect><rect x="276" y="116" width="12" height="12" rx="2" fill="#2d4a3e"><title>Fri 15:00 - 1 events</title></rect><rect x="290" y="116" width="12" height="12" rx="2" fill="#1e2030"><title>Fri 16:00 - 0 events</title></rect><rect x="304" y="116" width="12" height="12" rx="2" fill="#1e2030"><title>Fri 17:00 - 0 events</title></rect><rect x="318" y="116" width="12" height="12" rx="2" fill="#2d4a3e"><title>Fri 18:00 - 1 events</title></rect><rect x="332" y="116" width="12" height="12" rx="2" fill="#3b6b4f"><title>Fri 19:00 - 2 events</title></rect><rect x="346" y="116" width="12" height="12" rx="2" fill="#1e2030"><title>Fri 20:00 - 0 events</title></rect><rect x="360" y="116" width="12" height="12" rx="2" fill="#2d4a3e"><title>Fri 21:00 - 1 events</title></rect><rect x="374" y="116" width="12" height="12" rx="2" fill="#6aa05e"><title>Fri 22:00 - 3 events</title></rect><rect x="388" y="116" width="12" height="12" rx="2" fill="#3b6b4f"><title>Fri 23:00 - 2 events</title></rect><text x="30" y="141" fill="#565f89" font-size="10" font-family="-apple-system, BlinkMacSystemFont, 'Segoe UI', Helvetica, Arial, sans-serif">Sat</text><rect x="66" y="130" width="12" height="12" rx="2" fill="#6aa05e"><title>Sat 00:00 - 3 events</title></rect><rect x="80" y="130" width="12" height="12" rx="2" fill="#2d4a3e"><title>Sat 01:00 - 1 events</title></rect><rect x="94" y="130" width="12" height="12" rx="2" fill="#3b6b4f"><title>Sat 02:00 - 2 events</title></rect><rect x="108" y="130" width="12" height="12" rx="2" fill="#6aa05e"><title>Sat 03:00 - 3 events</title></rect><rect x="122" y="130" width="12" height="12" rx="2" fill="#2d4a3e"><title>Sat 04:00 - 1 events</title></rect><rect x="136" y="130" width="12" height="12" rx="2" fill="#3b6b4f"><title>Sat 05:00 - 2 events</title></rect><rect x="150" y="130" width="12" height="12" rx="2" fill="#1e2030"><title>Sat 06:00 - 0 events</title></rect><rect x="164" y="130" width="12" height="12" rx="2" fill="#2d4a3e"><title>Sat 07:00 - 1 events</title></rect><rect x="178" y="130" width="12" height="12" rx="2" fill="#6aa05e"><title>Sat 08:00 - 3 events</title></rect><rect x="192" y="130" width="12" height="12" rx="2" fill="#2d4a3e"><title>Sat 09:00 - 1 events</title></rect><rect x="206" y="130" width="12" height="12" rx="2" fill="#1e2030"><title>Sat 10:00 - 0 events</title></rect><rect x="220" y="130" width="12" height="12" rx="2" fill="#9ece6a"><title>Sat 11:00 - 5 events</title></rect><rect x="234" y="130" width="12" height="12" rx="2" fill="#2d4a3e"><title>Sat 12:00 - 1 events</title></rect><rect x="248" y="130" width="12" height="12" rx="2" fill="#3b6b4f"><title>Sat 13:00 - 2 events</title></rect><rect x="262" y="130" width="12" height="12" rx="2" fill="#2d4a3e"><title>Sat 14:00 - 1 events</title></rect><rect x="276" y="130" width="12" height="12" rx="2" fill="#1e2030"><title>Sat 15:00 - 0 events</title></rect><rect x="290" y="130" width="12" height="12" rx="2" fill="#2d4a3e"><title>Sat 16:00 - 1 events</title></rect><rect x="304" y="130" width="12" height="12" rx="2" fill="#6aa05e"><title>Sat 17:00 - 3 events</title></rect><rect x="318" y="130" width="12" height="12" rx="2" fill="#1e2030"><title>Sat 18:00 - 0 events</title></rect><rect x="332" y="130" width="12" height="12" rx="2" fill="#1e2030"><title>Sat 19:00 - 0 events</title></rect><rect x="346" y="130" width="12" height="12" rx="2" fill="#3b6b4f"><title>Sat 20:00 - 2 events</title></rect><rect x="360" y="130" width="12" height="12" rx="2" fill="#9ece6a"><title>Sat 21:00 - 4 events</title></rect><rect x="374" y="130" width="12" height="12" rx="2" fill="#9ece6a"><title>Sat 22:00 - 4 events</title></rect><rect x="388" y="130" width="12" height="12" rx="2" fill="#1e2030"><title>Sat 23:00 - 0 events</title></rect><text x="30" y="155" fill="#565f89" font-size="10" font-family="-apple-system, BlinkMacSystemFont, 'Segoe UI', Helvetica, Arial, sans-serif">Sun</text><rect x="66" y="144" width="12" height="12" rx="2" fill="#3b6b4f"><title>Sun 00:00 - 2 events</title></rect><rect x="80" y="144" width="12" height="12" rx="2" fill="#2d4a3e"><title>Sun 01:00 - 1 events</title></rect><rect x="94" y="144" width="12" height="12" rx="2" fill="#1e2030"><title>Sun 02:00 - 0 events</title></rect><rect x="108" y="144" width="12" height="12" rx="2" fill="#1e2030"><title>Sun 03:00 - 0 events</title></rect><rect x="122" y="144" width="12" height="12" rx="2" fill="#1e2030"><title>Sun 04:00 - 0 events</title></rect><rect x="136" y="144" width="12" height="12" rx="2" fill="#2d4a3e"><title>Sun 05:00 - 1 events</title></rect><rect x="150" y="144" width="12" height="12" rx="2" fill="#2d4a3e"><title>Sun 06:00 - 1 events</title></rect><rect x="164" y="144" width="12" height="12" rx="2" fill="#2d4a3e"><title>Sun 07:00 - 1 events</title></rect><rect x="178" y="144" width="12" height="12" rx="2" fill="#2d4a3e"><title>Sun 08:00 - 1 events</title></rect><rect x="192" y="144" width="12" height="12" rx="2" fill="#6aa05e"><title>Sun 09:00 - 3 events</title></rect><rect x="206" y="144" width="12" height="12" rx="2" fill="#3b6b4f"><title>Sun 10:00 - 2 events</title></rect><rect x="220" y="144" width="12" height="12" rx="2" fill="#2d4a3e"><title>Sun 11:00 - 1 events</title></rect><rect x="234" y="144" width="12" height="12" rx="2" fill="#1e2030"><title>Sun 12:00 - 0 events</title></rect><rect x="248" y="144" width="12" height="12" rx="2" fill="#2d4a3e"><title>Sun 13:00 - 1 events</title></rect><rect x="262" y="144" width="12" height="12" rx="2" fill="#1e2030"><title>Sun 14:00 - 0 events</title></rect><rect x="276" y="144" width="12" height="12" rx="2" fill="#1e2030"><title>Sun 15:00 - 0 events</title></rect><rect x="290" y="144" width="12" height="12" rx="2" fill="#2d4a3e"><title>Sun 16:00 - 1 events</title></rect><rect x="304" y="144" width="12" height="12" rx="2" fill="#3b6b4f"><title>Sun 17:00 - 2 events</title></rect><rect x="318" y="144" width="12" height="12" rx="2" fill="#1e2030"><title>Sun 18:00 - 0 events</title></rect><rect x="332" y="144" width="12" height="12" rx="2" fill="#2d4a3e"><title>Sun 19:00 - 1 events</title></rect><rect x="346" y="144" width="12" height="12" rx="2" fill="#2d4a3e"><title>Sun 20:00 - 1 events</title></rect><rect x="360" y="144" width="12" height="12" rx="2" fill="#2d4a3e"><title>Sun 21:00 - 1 events</title></rect><rect x="374" y="144" width="12" height="12" rx="2" fill="#1e2030"><title>Sun 22:00 - 0 events</title></rect><rect x="388" y="144" width="12" height="12" rx="2" fill="#2d4a3e"><title>Sun 23:00 - 1 events</title></rect><text x="440" y="36" fill="#a9b1d6" font-size="12" font-family="-apple-system, BlinkMacSystemFont, 'Segoe UI', Helvetica, Arial, sans-serif" font-weight="600">By Day</text><rect x="440" y="60" width="243.7" height="12" rx="2" fill="#9ece6a" opacity="0.7"/><text x="689.7" y="71" fill="#565f89" font-size="10" font-family="-apple-system, BlinkMacSystemFont, 'Segoe UI', Helvetica, Arial, sans-serif">31</text><rect x="440" y="74" width="133.7" height="12" rx="2" fill="#9ece6a" opacity="0.7"/><text x="579.7" y="85" fill="#565f89" font-size="10" font-family="-apple-system, BlinkMacSystemFont, 'Segoe UI', Helvetica, Arial, sans-serif">17</text><rect x="440" y="88" width="251.6" height="12" rx="2" fill="#9ece6a" opacity="0.7"/><text x="697.6" y="99" fill="#565f89" font-size="10" font-family="-apple-system, BlinkMacSystemFont, 'Segoe UI', Helvetica, Arial, sans-serif">32</text><rect x="440" y="102" width="212.3" height="12" rx="2" fill="#9ece6a" opacity="0.7"/><text x="658.3" y="113" fill="#565f89" font-size="10" font-family="-apple-system, BlinkMacSystemFont, 'Segoe UI', Helvetica, Arial, sans-serif">27</text><rect x="440" y="116" width="251.6" height="12" rx="2" fill="#9ece6a" opacity="0.7"/><text x="697.6" y="127" fill="#565f89" font-size="10" font-family="-apple-system, BlinkMacSystemFont, 'Segoe UI', Helvetica, Arial, sans-serif">32</text><rect x="440" y="130" width="314.5" height="12" rx="2" fill="#9ece6a" opacity="0.7"/><text x="760.5" y="141" fill="#565f89" font-size="10" font-family="-apple-system, BlinkMacSystemFont, 'Segoe UI', Helvetica, Arial, sans-serif">40</text><rect x="440" y="144" width="165.1" height="12" rx="2" fill="#9ece6a" opacity="0.7"/><text x="611.1" y="155" fill="#565f89" font-size="10" font-family="-apple-system, BlinkMacSystemFont, 'Segoe UI', Helvetica, Arial, sans-serif">21</text>
</svg>