<svg xmlns="http://www.w3.org/2000/svg" width="840" height="350" viewBox="0 0 840 350"><defs><linearGradient id="gk-sheen" x1="0" y1="0" x2="0" y2="1"><stop offset="0" stop-color="#ffffff" stop-opacity="0.20"/><stop offset="0.06" stop-color="#ffffff" stop-opacity="0.06"/><stop offset="0.5" stop-color="#ffffff" stop-opacity="0"/><stop offset="1" stop-color="#05060e" stop-opacity="0.10"/></linearGradient><linearGradient id="gk-tile" x1="0" y1="0" x2="0" y2="1"><stop offset="0" stop-color="#ffffff" stop-opacity="0.08"/><stop offset="1" stop-color="#05060e" stop-opacity="0.22"/></linearGradient><linearGradient id="gk-rim" x1="0" y1="0" x2="0" y2="1"><stop offset="0" stop-color="#ffffff" stop-opacity="0.45"/><stop offset="0.4" stop-color="#c0caf5" stop-opacity="0.12"/><stop offset="1" stop-color="#c0caf5" stop-opacity="0.05"/></linearGradient><filter id="gk-shadow" x="-40%" y="-40%" width="180%" height="180%"><feDropShadow dx="0" dy="10" stdDeviation="16" flood-color="#03040c" flood-opacity="0.55"/></filter><filter id="gk-blob" x="-80%" y="-80%" width="260%" height="260%"><feGaussianBlur stdDeviation="34"/></filter><filter id="gk-grain" x="0%" y="0%" width="100%" height="100%"><feTurbulence type="fractalNoise" baseFrequency="0.9" numOctaves="2" stitchTiles="stitch" result="n"/><feColorMatrix in="n" type="matrix" values="0 0 0 0 1  0 0 0 0 1  0 0 0 0 1  0 0 0 0.04 0"/></filter></defs><clipPath id="gk-clip"><rect x="12" y="12" width="816" height="326" rx="18"/></clipPath><rect x="12" y="12" width="816" height="326" rx="18" fill="#0c0e18" filter="url(#gk-shadow)"/><g clip-path="url(#gk-clip)" filter="url(#gk-blob)"><ellipse cx="77.28" cy="44.6" rx="202.12" ry="165.74" fill="#7aa2f7" fill-opacity="0.3"/><ellipse cx="795.36" cy="324.96" rx="228.2" ry="187.12" fill="#bb9af7" fill-opacity="0.26"/><ellipse cx="517.92" cy="-14.08" rx="146.7" ry="120.29" fill="#7dcfff" fill-opacity="0.2"/></g><rect x="12" y="12" width="816" height="326" rx="18" fill="#1b1e2e" fill-opacity="0.74"/><rect x="12" y="12" width="816" height="326" rx="18" fill="url(#gk-sheen)"/><g clip-path="url(#gk-clip)"><rect x="12" y="12" width="816" height="326" filter="url(#gk-grain)"/></g><rect x="12.5" y="12.5" width="815" height="325" rx="18" fill="none" stroke="url(#gk-rim)" stroke-width="1"/><rect x="30" y="13.5" width="780" height="1" fill="#ffffff" fill-opacity="0.0"/><text x="24" y="36" fill="#8a94bd" font-size="10" font-family="-apple-system, BlinkMacSystemFont, 'Segoe UI', Helvetica, Arial, sans-serif" font-weight="600" letter-spacing="1.2" text-transform="uppercase">ACTIVITY RHYTHM</text><text x="24" y="58" fill="#c0caf5" font-size="18" font-family="-apple-system, BlinkMacSystemFont, 'Segoe UI', Helvetica, Arial, sans-serif" font-weight="700">When I Code</text><rect x="724.44" y="33" width="91.56" height="22" rx="7" fill="#8a94bd" fill-opacity="0.16"/><g transform="translate(733.44,38) scale(0.5)" fill="none" stroke="#a9b1d6" stroke-width="2" stroke-linecap="round" stroke-linejoin="round"><circle cx="12" cy="12" r="9"/><path d="M3 12h18M12 3c2.6 2.4 2.6 15.6 0 18M12 3c-2.6 2.4-2.6 15.6 0 18"/></g><text x="749.44" y="47.74" fill="#a9b1d6" font-size="11" font-family="-apple-system, BlinkMacSystemFont, 'Segoe UI', Helvetica, Arial, sans-serif" font-weight="500">New York</text><rect x="24" y="78" width="460" height="254" rx="13" fill="#232843" fill-opacity="0.55"/><rect x="24" y="78" width="460" height="254" rx="13" fill="url(#gk-tile)"/><rect x="24.5" y="78.5" width="459" height="253" rx="13" fill="none" stroke="#c0caf5" stroke-opacity="0.14" stroke-width="1"/><rect x="30.5" y="79" width="447" height="1" rx="0.5" fill="#ffffff" fill-opacity="0.14"/><text x="75.0" y="107.0" fill="#8a94bd" font-size="8.5" font-family="-apple-system, BlinkMacSystemFont, 'Segoe UI', Helvetica, Arial, sans-serif" text-anchor="middle">00</text><text x="126.0" y="107.0" fill="#8a94bd" font-size="8.5" font-family="-apple-system, BlinkMacSystemFont, 'Segoe UI', Helvetica, Arial, sans-serif" text-anchor="middle">03</text><text x="177.0" y="107.0" fill="#8a94bd" font-size="8.5" font-family="-apple-system, BlinkMacSystemFont, 'Segoe UI', Helvetica, Arial, sans-serif" text-anchor="middle">06</text><text x="228.0" y="107.0" fill="#8a94bd" font-size="8.5" font-family="-apple-system, BlinkMacSystemFont, 'Segoe UI', Helvetica, Arial, sans-serif" text-anchor="middle">09</text><text x="279.0" y="107.0" fill="#8a94bd" font-size="8.5" font-family="-apple-system, BlinkMacSystemFont, 'Segoe UI', Helvetica, Arial, sans-serif" text-anchor="middle">12</text><text x="330.0" y="107.0" fill="#8a94bd" font-size="8.5" font-family="-apple-system, BlinkMacSystemFont, 'Segoe UI', Helvetica, Arial, sans-serif" text-anchor="middle">15</text><text x="381.0" y="107.0" fill="#8a94bd" font-size="8.5" font-family="-apple-system, BlinkMacSystemFont, 'Segoe UI', Helvetica, Arial, sans-serif" text-anchor="middle">18</text><text x="432.0" y="107.0" fill="#8a94bd" font-size="8.5" font-family="-apple-system, BlinkMacSystemFont, 'Segoe UI', Helvetica, Arial, sans-serif" text-anchor="middle">21</text><rect x="338.0" y="133.0" width="18" height="18" rx="5" fill="#7dcfff" fill-opacity="0.20"/><rect x="355.0" y="218.0" width="18" height="18" rx="5" fill="#7dcfff" fill-opacity="0.20"/><rect x="68.0" y="118.0" width="14" height="14" rx="3.2" fill="#c0caf5" fill-opacity="0.06"><title>Mon 00:00 (America/New_York) - 0 events</title></rect><rect x="85.0" y="118.0" width="14" height="14" rx="3.2" fill="#c0caf5" fill-opacity="0.06"><title>Mon 01:00 (America/New_York) - 0 events</title></rect><rect x="102.0" y="118.0" width="14" height="14" rx="3.2" fill="#c0caf5" fill-opacity="0.06"><title>Mon 02:00 (America/New_York) - 0 events</title></rect><rect x="119.0" y="118.0" width="14" height="14" rx="3.2" fill="#c0caf5" fill-opacity="0.06"><title>Mon 03:00 (America/New_York) - 0 events</title></rect><rect x="136.0" y="118.0" width="14" height="14" rx="3.2" fill="#c0caf5" fill-opacity="0.06"><title>Mon 04:00 (America/New_York) - 0 events</title></rect><rect x="153.0" y="118.0" width="14" height="14" rx="3.2" fill="#c0caf5" fill-opacity="0.06"><title>Mon 05:00 (America/New_York) - 0 events</title></rect><rect x="170.0" y="118.0" width="14" height="14" rx="3.2" fill="#c0caf5" fill-opacity="0.06"><title>Mon 06:00 (America/New_York) - 0 events</title></rect><rect x="187.0" y="118.0" width="14" height="14" rx="3.2" fill="#c0caf5" fill-opacity="0.06"><title>Mon 07:00 (America/New_York) - 0 events</title></rect><rect x="204.0" y="118.0" width="14" height="14" rx="3.2" fill="#c0caf5" fill-opacity="0.06"><title>Mon 08:00 (America/New_York) - 0 events</title></rect><rect x="221.0" y="118.0" width="14" height="14" rx="3.2" fill="#c0caf5" fill-opacity="0.06"><title>Mon 09:00 (America/New_York) - 0 events</title></rect><rect x="238.0" y="118.0" width="14" height="14" rx="3.2" fill="#c0caf5" fill-opacity="0.06"><title>Mon 10:00 (America/New_York) - 0 events</title></rect><rect x="255.0" y="118.0" width="14" height="14" rx="3.2" fill="#c0caf5" fill-opacity="0.06"><title>Mon 11:00 (America/New_York) - 0 events</title></rect><rect x="272.0" y="118.0" width="14" height="14" rx="3.2" fill="#c0caf5" fill-opacity="0.06"><title>Mon 12:00 (America/New_York) - 0 events</title></rect><rect x="289.0" y="118.0" width="14" height="14" rx="3.2" fill="#c0caf5" fill-opacity="0.06"><title>Mon 13:00 (America/New_York) - 0 events</title></rect><rect x="306.0" y="118.0" width="14" height="14" rx="3.2" fill="#c0caf5" fill-opacity="0.06"><title>Mon 14:00 (America/New_York) - 0 events</title></rect><rect x="323.0" y="118.0" width="14" height="14" rx="3.2" fill="#c0caf5" fill-opacity="0.06"><title>Mon 15:00 (America/New_York) - 0 events</title></rect><rect x="340.0" y="118.0" width="14" height="14" rx="3.2" fill="#c0caf5" fill-opacity="0.06"><title>Mon 16:00 (America/New_York) - 0 events</title></rect><rect x="357.0" y="118.0" width="14" height="14" rx="3.2" fill="#c0caf5" fill-opacity="0.06"><title>Mon 17:00 (America/New_York) - 0 events</title></rect><rect x="374.0" y="118.0" width="14" height="14" rx="3.2" fill="#c0caf5" fill-opacity="0.06"><title>Mon 18:00 (America/New_York) - 0 events</title></rect><rect x="391.0" y="118.0" width="14" height="14" rx="3.2" fill="#c0caf5" fill-opacity="0.06"><title>Mon 19:00 (America/New_York) - 0 events</title></rect><rect x="408.0" y="118.0" width="14" height="14" rx="3.2" fill="#c0caf5" fill-opacity="0.06"><title>Mon 20:00 (America/New_York) - 0 events</title></rect><rect x="425.0" y="118.0" width="14" height="14" rx="3.2" fill="#35507a" fill-opacity="0.92"><title>Mon 21:00 (America/New_York) - 1 events</title></rect><rect x="442.0" y="118.0" width="14" height="14" rx="3.2" fill="#c0caf5" fill-opacity="0.06"><title>Mon 22:00 (America/New_York) - 0 events</title></rect><rect x="459.0" y="118.0" width="14" height="14" rx="3.2" fill="#c0caf5" fill-opacity="0.06"><title>Mon 23:00 (America/New_York) - 0 events</title></rect><rect x="68.0" y="135.0" width="14" height="14" rx="3.2" fill="#4574b8" fill-opacity="0.96"><title>Tue 00:00 (America/New_York) - 2 events</title></rect><rect x="85.0" y="135.0" width="14" height="14" rx="3.2" fill="#c0caf5" fill-opacity="0.06"><title>Tue 01:00 (America/New_York) - 0 events</title></rect><rect x="102.0" y="135.0" width="14" height="14" rx="3.2" fill="#c0caf5" fill-opacity="0.06"><title>Tue 02:00 (America/New_York) - 0 events</title></rect><rect x="119.0" y="135.0" width="14" height="14" rx="3.2" fill="#c0caf5" fill-opacity="0.06"><title>Tue 03:00 (America/New_York) - 0 events</title></rect><rect x="136.0" y="135.0" width="14" height="14" rx="3.2" fill="#c0caf5" fill-opacity="0.06"><title>Tue 04:00 (America/New_York) - 0 events</title></rect><rect x="153.0" y="135.0" width="14" height="14" rx="3.2" fill="#c0caf5" fill-opacity="0.06"><title>Tue 05:00 (America/New_York) - 0 events</title></rect><rect x="170.0" y="135.0" width="14" height="14" rx="3.2" fill="#c0caf5" fill-opacity="0.06"><title>Tue 06:00 (America/New_York) - 0 events</title></rect><rect x="187.0" y="135.0" width="14" height="14" rx="3.2" fill="#c0caf5" fill-opacity="0.06"><title>Tue 07:00 (America/New_York) - 0 events</title></rect><rect x="204.0" y="135.0" width="14" height="14" rx="3.2" fill="#c0caf5" fill-opacity="0.06"><title>Tue 08:00 (America/New_York) - 0 events</title></rect><rect x="221.0" y="135.0" width="14" height="14" rx="3.2" fill="#c0caf5" fill-opacity="0.06"><title>Tue 09:00 (America/New_York) - 0 events</title></rect><rect x="238.0" y="135.0" width="14" height="14" rx="3.2" fill="#4574b8" fill-opacity="0.96"><title>Tue 10:00 (America/New_York) - 2 events</title></rect><rect x="255.0" y="135.0" width="14" height="14" rx="3.2" fill="#c0caf5" fill-opacity="0.06"><title>Tue 11:00 (America/New_York) - 0 events</title></rect><rect x="272.0" y="135.0" width="14" height="14" rx="3.2" fill="#c0caf5" fill-opacity="0.06"><title>Tue 12:00 (America/New_York) - 0 events</title></rect><rect x="289.0" y="135.0" width="14" height="14" rx="3.2" fill="#c0caf5" fill-opacity="0.06"><title>Tue 13:00 (America/New_York) - 0 events</title></rect><rect x="306.0" y="135.0" width="14" height="14" rx="3.2" fill="#c0caf5" fill-opacity="0.06"><title>Tue 14:00 (America/New_York) - 0 events</title></rect><rect x="323.0" y="135.0" width="14" height="14" rx="3.2" fill="#c0caf5" fill-opacity="0.06"><title>Tue 15:00 (America/New_York) - 0 events</title></rect><rect x="340.0" y="135.0" width="14" height="14" rx="3.2" fill="#7dcfff" fill-opacity="1.0"><title>Tue 16:00 (America/New_York) - 4 events</title></rect><rect x="357.0" y="135.0" width="14" height="14" rx="3.2" fill="#c0caf5" fill-opacity="0.06"><title>Tue 17:00 (America/New_York) - 0 events</title></rect><rect x="374.0" y="135.0" width="14" height="14" rx="3.2" fill="#c0caf5" fill-opacity="0.06"><title>Tue 18:00 (America/New_York) - 0 events</title></rect><rect x="391.0" y="135.0" width="14" height="14" rx="3.2" fill="#c0caf5" fill-opacity="0.06"><title>Tue 19:00 (America/New_York) - 0 events</title></rect><rect x="408.0" y="135.0" width="14" height="14" rx="3.2" fill="#c0caf5" fill-opacity="0.06"><title>Tue 20:00 (America/New_York) - 0 events</title></rect><rect x="425.0" y="135.0" width="14" height="14" rx="3.2" fill="#c0caf5" fill-opacity="0.06"><title>Tue 21:00 (America/New_York) - 0 events</title></rect><rect x="442.0" y="135.0" width="14" height="14" rx="3.2" fill="#c0caf5" fill-opacity="0.06"><title>Tue 22:00 (America/New_York) - 0 events</title></rect><rect x="459.0" y="135.0" width="14" height="14" rx="3.2" fill="#c0caf5" fill-opacity="0.06"><title>Tue 23:00 (America/New_York) - 0 events</title></rect><rect x="68.0" y="152.0" width="14" height="14" rx="3.2" fill="#c0caf5" fill-opacity="0.06"><title>Wed 00:00 (America/New_York) - 0 events</title></rect><rect x="85.0" y="152.0" width="14" height="14" rx="3.2" fill="#c0caf5" fill-opacity="0.06"><title>Wed 01:00 (America/New_York) - 0 events</title></rect><rect x="102.0" y="152.0" width="14" height="14" rx="3.2" fill="#c0caf5" fill-opacity="0.06"><title>Wed 02:00 (America/New_York) - 0 events</title></rect><rect x="119.0" y="152.0" width="14" height="14" rx="3.2" fill="#c0caf5" fill-opacity="0.06"><title>Wed 03:00 (America/New_York) - 0 events</title></rect><rect x="136.0" y="152.0" width="14" height="14" rx="3.2" fill="#c0caf5" fill-opacity="0.06"><title>Wed 04:00 (America/New_York) - 0 events</title></rect><rect x="153.0" y="152.0" width="14" height="14" rx="3.2" fill="#c0caf5" fill-opacity="0.06"><title>Wed 05:00 (America/New_York) - 0 events</title></rect><rect x="170.0" y="152.0" width="14" height="14" rx="3.2" fill="#c0caf5" fill-opacity="0.06"><title>Wed 06:00 (America/New_York) - 0 events</title></rect><rect x="187.0" y="152.0" width="14" height="14" rx="3.2" fill="#c0caf5" fill-opacity="0.06"><title>Wed 07:00 (America/New_York) - 0 events</title></rect><rect x="204.0" y="152.0" width="14" height="14" rx="3.2" fill="#c0caf5" fill-opacity="0.06"><title>Wed 08:00 (America/New_York) - 0 events</title></rect><rect x="221.0" y="152.0" width="14" height="14" rx="3.2" fill="#c0caf5" fill-opacity="0.06"><title>Wed 09:00 (America/New_York) - 0 events</title></rect><rect x="238.0" y="152.0" width="14" height="14" rx="3.2" fill="#c0caf5" fill-opacity="0.06"><title>Wed 10:00 (America/New_York) - 0 events</title></rect><rect x="255.0" y="152.0" width="14" height="14" rx="3.2" fill="#c0caf5" fill-opacity="0.06"><title>Wed 11:00 (America/New_York) - 0 events</title></rect><rect x="272.0" y="152.0" width="14" height="14" rx="3.2" fill="#35507a" fill-opacity="0.92"><title>Wed 12:00 (America/New_York) - 1 events</title></rect><rect x="289.0" y="152.0" width="14" height="14" rx="3.2" fill="#c0caf5" fill-opacity="0.06"><title>Wed 13:00 (America/New_York) - 0 events</title></rect><rect x="306.0" y="152.0" width="14" height="14" rx="3.2" fill="#35507a" fill-opacity="0.92"><title>Wed 14:00 (America/New_York) - 1 events</title></rect><rect x="323.0" y="152.0" width="14" height="14" rx="3.2" fill="#c0caf5" fill-opacity="0.06"><title>Wed 15:00 (America/New_York) - 0 events</title></rect><rect x="340.0" y="152.0" width="14" height="14" rx="3.2" fill="#c0caf5" fill-opacity="0.06"><title>Wed 16:00 (America/New_York) - 0 events</title></rect><rect x="357.0" y="152.0" width="14" height="14" rx="3.2" fill="#c0caf5" fill-opacity="0.06"><title>Wed 17:00 (America/New_York) - 0 events</title></rect><rect x="374.0" y="152.0" width="14" height="14" rx="3.2" fill="#c0caf5" fill-opacity="0.06"><title>Wed 18:00 (America/New_York) - 0 events</title></rect><rect x="391.0" y="152.0" width="14" height="14" rx="3.2" fill="#c0caf5" fill-opacity="0.06"><title>Wed 19:00 (America/New_York) - 0 events</title></rect><rect x="408.0" y="152.0" width="14" height="14" rx="3.2" fill="#c0caf5" fill-opacity="0.06"><title>Wed 20:00 (America/New_York) - 0 events</title></rect><rect x="425.0" y="152.0" width="14" height="14" rx="3.2" fill="#c0caf5" fill-opacity="0.06"><title>Wed 21:00 (America/New_York) - 0 events</title></rect><rect x="442.0" y="152.0" width="14" height="14" rx="3.2" fill="#c0caf5" fill-opacity="0.06"><title>Wed 22:00 (America/New_York) - 0 events</title></rect><rect x="459.0" y="152.0" width="14" height="14" rx="3.2" fill="#c0caf5" fill-opacity="0.06"><title>Wed 23:00 (America/New_York) - 0 events</title></rect><rect x="68.0" y="169.0" width="14" height="14" rx="3.2" fill="#c0caf5" fill-opacity="0.06"><title>Thu 00:00 (America/New_York) - 0 events</title></rect><rect x="85.0" y="169.0" width="14" height="14" rx="3.2" fill="#c0caf5" fill-opacity="0.06"><title>Thu 01:00 (America/New_York) - 0 events</title></rect><rect x="102.0" y="169.0" width="14" height="14" rx="3.2" fill="#c0caf5" fill-opacity="0.06"><title>Thu 02:00 (America/New_York) - 0 events</title></rect><rect x="119.0" y="169.0" width="14" height="14" rx="3.2" fill="#c0caf5" fill-opacity="0.06"><title>Thu 03:00 (America/New_York) - 0 events</title></rect><rect x="136.0" y="169.0" width="14" height="14" rx="3.2" fill="#c0caf5" fill-opacity="0.06"><title>Thu 04:00 (America/New_York) - 0 events</title></rect><rect x="153.0" y="169.0" width="14" height="14" rx="3.2" fill="#c0caf5" fill-opacity="0.06"><title>Thu 05:00 (America/New_York) - 0 events</title></rect><rect x="170.0" y="169.0" width="14" height="14" rx="3.2" fill="#c0caf5" fill-opacity="0.06"><title>Thu 06:00 (America/New_York) - 0 events</title></rect><rect x="187.0" y="169.0" width="14" height="14" rx="3.2" fill="#c0caf5" fill-opacity="0.06"><title>Thu 07:00 (America/New_York) - 0 events</title></rect><rect x="204.0" y="169.0" width="14" height="14" rx="3.2" fill="#c0caf5" fill-opacity="0.06"><title>Thu 08:00 (America/New_York) - 0 events</title></rect><rect x="221.0" y="169.0" width="14" height="14" rx="3.2" fill="#c0caf5" fill-opacity="0.06"><title>Thu 09:00 (America/New_York) - 0 events</title></rect><rect x="238.0" y="169.0" width="14" height="14" rx="3.2" fill="#c0caf5" fill-opacity="0.06"><title>Thu 10:00 (America/New_York) - 0 events</title></rect><rect x="255.0" y="169.0" width="14" height="14" rx="3.2" fill="#c0caf5" fill-opacity="0.06"><title>Thu 11:00 (America/New_York) - 0 events</title></rect><rect x="272.0" y="169.0" width="14" height="14" rx="3.2" fill="#c0caf5" fill-opacity="0.06"><title>Thu 12:00 (America/New_York) - 0 events</title></rect><rect x="289.0" y="169.0" width="14" height="14" rx="3.2" fill="#c0caf5" fill-opacity="0.06"><title>Thu 13:00 (America/New_York) - 0 events</title></rect><rect x="306.0" y="169.0" width="14" height="14" rx="3.2" fill="#c0caf5" fill-opacity="0.06"><title>Thu 14:00 (America/New_York) - 0 events</title></rect><rect x="323.0" y="169.0" width="14" height="14" rx="3.2" fill="#c0caf5" fill-opacity="0.06"><title>Thu 15:00 (America/New_York) - 0 events</title></rect><rect x="340.0" y="169.0" width="14" height="14" rx="3.2" fill="#c0caf5" fill-opacity="0.06"><title>Thu 16:00 (America/New_York) - 0 events</title></rect><rect x="357.0" y="169.0" width="14" height="14" rx="3.2" fill="#c0caf5" fill-opacity="0.06"><title>Thu 17:00 (America/New_York) - 0 events</title></rect><rect x="374.0" y="169.0" width="14" height="14" rx="3.2" fill="#c0caf5" fill-opacity="0.06"><title>Thu 18:00 (America/New_York) - 0 events</title></rect><rect x="391.0" y="169.0" width="14" height="14" rx="3.2" fill="#c0caf5" fill-opacity="0.06"><title>Thu 19:00 (America/New_York) - 0 events</title></rect><rect x="408.0" y="169.0" width="14" height="14" rx="3.2" fill="#c0caf5" fill-opacity="0.06"><title>Thu 20:00 (America/New_York) - 0 events</title></rect><rect x="425.0" y="169.0" width="14" height="14" rx="3.2" fill="#c0caf5" fill-opacity="0.06"><title>Thu 21:00 (America/New_York) - 0 events</title></rect><rect x="442.0" y="169.0" width="14" height="14" rx="3.2" fill="#c0caf5" fill-opacity="0.06"><title>Thu 22:00 (America/New_York) - 0 events</title></rect><rect x="459.0" y="169.0" width="14" height="14" rx="3.2" fill="#c0caf5" fill-opacity="0.06"><title>Thu 23:00 (America/New_York) - 0 events</title></rect><rect x="68.0" y="186.0" width="14" height="14" rx="3.2" fill="#c0caf5" fill-opacity="0.06"><title>Fri 00:00 (America/New_York) - 0 events</title></rect><rect x="85.0" y="186.0" width="14" height="14" rx="3.2" fill="#c0caf5" fill-opacity="0.06"><title>Fri 01:00 (America/New_York) - 0 events</title></rect><rect x="102.0" y="186.0" width="14" height="14" rx="3.2" fill="#c0caf5" fill-opacity="0.06"><title>Fri 02:00 (America/New_York) - 0 events</title></rect><rect x="119.0" y="186.0" width="14" height="14" rx="3.2" fill="#c0caf5" fill-opacity="0.06"><title>Fri 03:00 (America/New_York) - 0 events</title></rect><rect x="136.0" y="186.0" width="14" height="14" rx="3.2" fill="#c0caf5" fill-opacity="0.06"><title>Fri 04:00 (America/New_York) - 0 events</title></rect><rect x="153.0" y="186.0" width="14" height="14" rx="3.2" fill="#c0caf5" fill-opacity="0.06"><title>Fri 05:00 (America/New_York) - 0 events</title></rect><rect x="170.0" y="186.0" width="14" height="14" rx="3.2" fill="#c0caf5" fill-opacity="0.06"><title>Fri 06:00 (America/New_York) - 0 events</title></rect><rect x="187.0" y="186.0" width="14" height="14" rx="3.2" fill="#c0caf5" fill-opacity="0.06"><title>Fri 07:00 (America/New_York) - 0 events</title></rect><rect x="204.0" y="186.0" width="14" height="14" rx="3.2" fill="#c0caf5" fill-opacity="0.06"><title>Fri 08:00 (America/New_York) - 0 events</title></rect><rect x="221.0" y="186.0" width="14" height="14" rx="3.2" fill="#c0caf5" fill-opacity="0.06"><title>Fri 09:00 (America/New_York) - 0 events</title></rect><rect x="238.0" y="186.0" width="14" height="14" rx="3.2" fill="#c0caf5" fill-opacity="0.06"><title>Fri 10:00 (America/New_York) - 0 events</title></rect><rect x="255.0" y="186.0" width="14" height="14" rx="3.2" fill="#c0caf5" fill-opacity="0.06"><title>Fri 11:00 (America/New_York) - 0 events</title></rect><rect x="272.0" y="186.0" width="14" height="14" rx="3.2" fill="#c0caf5" fill-opacity="0.06"><title>Fri 12:00 (America/New_York) - 0 events</title></rect><rect x="289.0" y="186.0" width="14" height="14" rx="3.2" fill="#c0caf5" fill-opacity="0.06"><title>Fri 13:00 (America/New_York) - 0 events</title></rect><rect x="306.0" y="186.0" width="14" height="14" rx="3.2" fill="#c0caf5" fill-opacity="0.06"><title>Fri 14:00 (America/New_York) - 0 events</title></rect><rect x="323.0" y="186.0" width="14" height="14" rx="3.2" fill="#c0caf5" fill-opacity="0.06"><title>Fri 15:00 (America/New_York) - 0 events</title></rect><rect x="340.0" y="186.0" width="14" height="14" rx="3.2" fill="#c0caf5" fill-opacity="0.06"><title>Fri 16:00 (America/New_York) - 0 events</title></rect><rect x="357.0" y="186.0" width="14" height="14" rx="3.2" fill="#c0caf5" fill-opacity="0.06"><title>Fri 17:00 (America/New_York) - 0 events</title></rect><rect x="374.0" y="186.0" width="14" height="14" rx="3.2" fill="#c0caf5" fill-opacity="0.06"><title>Fri 18:00 (America/New_York) - 0 events</title></rect><rect x="391.0" y="186.0" width="14" height="14" rx="3.2" fill="#c0caf5" fill-opacity="0.06"><title>Fri 19:00 (America/New_York) - 0 events</title></rect><rect x="408.0" y="186.0" width="14" height="14" rx="3.2" fill="#c0caf5" fill-opacity="0.06"><title>Fri 20:00 (America/New_York) - 0 events</title></rect><rect x="425.0" y="186.0" width="14" height="14" rx="3.2" fill="#c0caf5" fill-opacity="0.06"><title>Fri 21:00 (America/New_York) - 0 events</title></rect><rect x="442.0" y="186.0" width="14" height="14" rx="3.2" fill="#c0caf5" fill-opacity="0.06"><title>Fri 22:00 (America/New_York) - 0 events</title></rect><rect x="459.0" y="186.0" width="14" height="14" rx="3.2" fill="#c0caf5" fill-opacity="0.06"><title>Fri 23:00 (America/New_York) - 0 events</title></rect><rect x="68.0" y="203.0" width="14" height="14" rx="3.2" fill="#c0caf5" fill-opacity="0.06"><title>Sat 00:00 (America/New_York) - 0 events</title></rect><rect x="85.0" y="203.0" width="14" height="14" rx="3.2" fill="#c0caf5" fill-opacity="0.06"><title>Sat 01:00 (America/New_York) - 0 events</title></rect><rect x="102.0" y="203.0" width="14" height="14" rx="3.2" fill="#c0caf5" fill-opacity="0.06"><title>Sat 02:00 (America/New_York) - 0 events</title></rect><rect x="119.0" y="203.0" width="14" height="14" rx="3.2" fill="#c0caf5" fill-opacity="0.06"><title>Sat 03:00 (America/New_York) - 0 events</title></rect><rect x="136.0" y="203.0" width="14" height="14" rx="3.2" fill="#c0caf5" fill-opacity="0.06"><title>Sat 04:00 (America/New_York) - 0 events</title></rect><rect x="153.0" y="203.0" width="14" height="14" rx="3.2" fill="#c0caf5" fill-opacity="0.06"><title>Sat 05:00 (America/New_York) - 0 events</title></rect><rect x="170.0" y="203.0" width="14" height="14" rx="3.2" fill="#c0caf5" fill-opacity="0.06"><title>Sat 06:00 (America/New_York) - 0 events</title></rect><rect x="187.0" y="203.0" width="14" height="14" rx="3.2" fill="#c0caf5" fill-opacity="0.06"><title>Sat 07:00 (America/New_York) - 0 events</title></rect><rect x="204.0" y="203.0" width="14" height="14" rx="3.2" fill="#c0caf5" fill-opacity="0.06"><title>Sat 08:00 (America/New_York) - 0 events</title></rect><rect x="221.0" y="203.0" width="14" height="14" rx="3.2" fill="#c0caf5" fill-opacity="0.06"><title>Sat 09:00 (America/New_York) - 0 events</title></rect><rect x="238.0" y="203.0" width="14" height="14" rx="3.2" fill="#c0caf5" fill-opacity="0.06"><title>Sat 10:00 (America/New_York) - 0 events</title></rect><rect x="255.0" y="203.0" width="14" height="14" rx="3.2" fill="#c0caf5" fill-opacity="0.06"><title>Sat 11:00 (America/New_York) - 0 events</title></rect><rect x="272.0" y="203.0" width="14" height="14" rx="3.2" fill="#c0caf5" fill-opacity="0.06"><title>Sat 12:00 (America/New_York) - 0 events</title></rect><rect x="289.0" y="203.0" width="14" height="14" rx="3.2" fill="#c0caf5" fill-opacity="0.06"><title>Sat 13:00 (America/New_York) - 0 events</title></rect><rect x="306.0" y="203.0" width="14" height="14" rx="3.2" fill="#c0caf5" fill-opacity="0.06"><title>Sat 14:00 (America/New_York) - 0 events</title></rect><rect x="323.0" y="203.0" width="14" height="14" rx="3.2" fill="#c0caf5" fill-opacity="0.06"><title>Sat 15:00 (America/New_York) - 0 events</title></rect><rect x="340.0" y="203.0" width="14" height="14" rx="3.2" fill="#c0caf5" fill-opacity="0.06"><title>Sat 16:00 (America/New_York) - 0 events</title></rect><rect x="357.0" y="203.0" width="14" height="14" rx="3.2" fill="#c0caf5" fill-opacity="0.06"><title>Sat 17:00 (America/New_York) - 0 events</title></rect><rect x="374.0" y="203.0" width="14" height="14" rx="3.2" fill="#c0caf5" fill-opacity="0.06"><title>Sat 18:00 (America/New_York) - 0 events</title></rect><rect x="391.0" y="203.0" width="14" height="14" rx="3.2" fill="#c0caf5" fill-opacity="0.06"><title>Sat 19:00 (America/New_York) - 0 events</title></rect><rect x="408.0" y="203.0" width="14" height="14" rx="3.2" fill="#c0caf5" fill-opacity="0.06"><title>Sat 20:00 (America/New_York) - 0 events</title></rect><rect x="425.0" y="203.0" width="14" height="14" rx="3.2" fill="#c0caf5" fill-opacity="0.06"><title>Sat 21:00 (America/New_York) - 0 events</title></rect><rect x="442.0" y="203.0" width="14" height="14" rx="3.2" fill="#c0caf5" fill-opacity="0.06"><title>Sat 22:00 (America/New_York) - 0 events</title></rect><rect x="459.0" y="203.0" width="14" height="14" rx="3.2" fill="#c0caf5" fill-opacity="0.06"><title>Sat 23:00 (America/New_York) - 0 events</title></rect><rect x="68.0" y="220.0" width="14" height="14" rx="3.2" fill="#c0caf5" fill-opacity="0.06"><title>Sun 00:00 (America/New_York) - 0 events</title></rect><rect x="85.0" y="220.0" width="14" height="14" rx="3.2" fill="#c0caf5" fill-opacity="0.06"><title>Sun 01:00 (America/New_York) - 0 events</title></rect><rect x="102.0" y="220.0" width="14" height="14" rx="3.2" fill="#c0caf5" fill-opacity="0.06"><title>Sun 02:00 (America/New_York) - 0 events</title></rect><rect x="119.0" y="220.0" width="14" height="14" rx="3.2" fill="#c0caf5" fill-opacity="0.06"><title>Sun 03:00 (America/New_York) - 0 events</title></rect><rect x="136.0" y="220.0" width="14" height="14" rx="3.2" fill="#c0caf5" fill-opacity="0.06"><title>Sun 04:00 (America/New_York) - 0 events</title></rect><rect x="153.0" y="220.0" width="14" height="14" rx="3.2" fill="#c0caf5" fill-opacity="0.06"><title>Sun 05:00 (America/New_York) - 0 events</title></rect><rect x="170.0" y="220.0" width="14" height="14" rx="3.2" fill="#c0caf5" fill-opacity="0.06"><title>Sun 06:00 (America/New_York) - 0 events</title></rect><rect x="187.0" y="220.0" width="14" height="14" rx="3.2" fill="#c0caf5" fill-opacity="0.06"><title>Sun 07:00 (America/New_York) - 0 events</title></rect><rect x="204.0" y="220.0" width="14" height="14" rx="3.2" fill="#c0caf5" fill-opacity="0.06"><title>Sun 08:00 (America/New_York) - 0 events</title></rect><rect x="221.0" y="220.0" width="14" height="14" rx="3.2" fill="#c0caf5" fill-opacity="0.06"><title>Sun 09:00 (America/New_York) - 0 events</title></rect><rect x="238.0" y="220.0" width="14" height="14" rx="3.2" fill="#c0caf5" fill-opacity="0.06"><title>Sun 10:00 (America/New_York) - 0 events</title></rect><rect x="255.0" y="220.0" width="14" height="14" rx="3.2" fill="#c0caf5" fill-opacity="0.06"><title>Sun 11:00 (America/New_York) - 0 events</title></rect><rect x="272.0" y="220.0" width="14" height="14" rx="3.2" fill="#c0caf5" fill-opacity="0.06"><title>Sun 12:00 (America/New_York) - 0 events</title></rect><rect x="289.0" y="220.0" width="14" height="14" rx="3.2" fill="#c0caf5" fill-opacity="0.06"><title>Sun 13:00 (America/New_York) - 0 events</title></rect><rect x="306.0" y="220.0" width="14" height="14" rx="3.2" fill="#c0caf5" fill-opacity="0.06"><title>Sun 14:00 (America/New_York) - 0 events</title></rect><rect x="323.0" y="220.0" width="14" height="14" rx="3.2" fill="#c0caf5" fill-opacity="0.06"><title>Sun 15:00 (America/New_York) - 0 events</title></rect><rect x="340.0" y="220.0" width="14" height="14" rx="3.2" fill="#4574b8" fill-opacity="0.96"><title>Sun 16:00 (America/New_York) - 2 events</title></rect><rect x="357.0" y="220.0" width="14" height="14" rx="3.2" fill="#7dcfff" fill-opacity="1.0"><title>Sun 17:00 (America/New_York) - 4 events</title></rect><rect x="374.0" y="220.0" width="14" height="14" rx="3.2" fill="#c0caf5" fill-opacity="0.06"><title>Sun 18:00 (America/New_York) - 0 events</title></rect><rect x="391.0" y="220.0" width="14" height="14" rx="3.2" fill="#c0caf5" fill-opacity="0.06"><title>Sun 19:00 (America/New_York) - 0 events</title></rect><rect x="408.0" y="220.0" width="14" height="14" rx="3.2" fill="#35507a" fill-opacity="0.92"><title>Sun 20:00 (America/New_York) - 1 events</title></rect><rect x="425.0" y="220.0" width="14" height="14" rx="3.2" fill="#c0caf5" fill-opacity="0.06"><title>Sun 21:00 (America/New_York) - 0 events</title></rect><rect x="442.0" y="220.0" width="14" height="14" rx="3.2" fill="#c0caf5" fill-opacity="0.06"><title>Sun 22:00 (America/New_York) - 0 events</title></rect><rect x="459.0" y="220.0" width="14" height="14" rx="3.2" fill="#c0caf5" fill-opacity="0.06"><title>Sun 23:00 (America/New_York) - 0 events</title></rect><text x="56.0" y="130.0" fill="#a9b1d6" font-size="10" font-family="-apple-system, BlinkMacSystemFont, 'Segoe UI', Helvetica, Arial, sans-serif" text-anchor="end">Mon</text><text x="56.0" y="147.0" fill="#a9b1d6" font-size="10" font-family="-apple-system, BlinkMacSystemFont, 'Segoe UI', Helvetica, Arial, sans-serif" text-anchor="end">Tue</text><text x="56.0" y="164.0" fill="#a9b1d6" font-size="10" font-family="-apple-system, BlinkMacSystemFont, 'Segoe UI', Helvetica, Arial, sans-serif" text-anchor="end">Wed</text><text x="56.0" y="181.0" fill="#a9b1d6" font-size="10" font-family="-apple-system, BlinkMacSystemFont, 'Segoe UI', Helvetica, Arial, sans-serif" text-anchor="end">Thu</text><text x="56.0" y="198.0" fill="#a9b1d6" font-size="10" font-family="-apple-system, BlinkMacSystemFont, 'Segoe UI', Helvetica, Arial, sans-serif" text-anchor="end">Fri</text><text x="56.0" y="215.0" fill="#a9b1d6" font-size="10" font-family="-apple-system, BlinkMacSystemFont, 'Segoe UI', Helvetica, Arial, sans-serif" text-anchor="end">Sat</text><text x="56.0" y="232.0" fill="#a9b1d6" font-size="10" font-family="-apple-system, BlinkMacSystemFont, 'Segoe UI', Helvetica, Arial, sans-serif" text-anchor="end">Sun</text><text x="56.0" y="265.0" fill="#8a94bd" font-size="9" font-family="-apple-system, BlinkMacSystemFont, 'Segoe UI', Helvetica, Arial, sans-serif">Less</text><rect x="86.0" y="256.0" width="11" height="11" rx="2.5" fill="#c0caf5" fill-opacity="0.06"/><rect x="101.0" y="256.0" width="11" height="11" rx="2.5" fill="#35507a" fill-opacity="0.92"/><rect x="116.0" y="256.0" width="11" height="11" rx="2.5" fill="#4574b8" fill-opacity="0.96"/><rect x="131.0" y="256.0" width="11" height="11" rx="2.5" fill="#5ea6e8" fill-opacity="1.0"/><rect x="146.0" y="256.0" width="11" height="11" rx="2.5" fill="#7dcfff" fill-opacity="1.0"/><text x="163.0" y="265.0" fill="#8a94bd" font-size="9" font-family="-apple-system, BlinkMacSystemFont, 'Segoe UI', Helvetica, Arial, sans-serif">More</text><rect x="40" y="281.0" width="428" height="1" fill="#c0caf5" fill-opacity="0.10"/><rect x="40" y="296" width="128.14" height="23" rx="7" fill="#8a94bd" fill-opacity="0.16"/><g transform="translate(49,301.5) scale(0.5)" fill="none" stroke="#a9b1d6" stroke-width="2" stroke-linecap="round" stroke-linejoin="round"><circle cx="12" cy="12" r="9"/><path d="M12 7v5.2l3.4 1.8"/></g><text x="65" y="311.07" fill="#a9b1d6" font-size="10.5" font-family="-apple-system, BlinkMacSystemFont, 'Segoe UI', Helvetica, Arial, sans-serif" font-weight="500">Peak Tue 16:00</text><rect x="178.14" y="296" width="95.59" height="23" rx="7" fill="#8a94bd" fill-opacity="0.16"/><g transform="translate(187.14,301.5) scale(0.5)" fill="#a9b1d6"><path d="M12.5 2c.6 2.8 3.5 4 3.5 7.5a4 4 0 0 1-8 .3c0-1.4.5-2.4 1.2-3.2.1 1 .7 1.7 1.5 1.8-.7-2.3.6-4.6 1.8-6.4z"/></g><text x="203.14" y="311.07" fill="#a9b1d6" font-size="10.5" font-family="-apple-system, BlinkMacSystemFont, 'Segoe UI', Helvetica, Arial, sans-serif" font-weight="500">Afternoon</text><rect x="283.73" y="296" width="95.59" height="23" rx="7" fill="#8a94bd" fill-opacity="0.16"/><g transform="translate(292.73,301.5) scale(0.5)" fill="#a9b1d6"><path d="M13 2L4 14h6.5L9 22l9.5-12.5H12L13 2z"/></g><text x="308.73" y="311.07" fill="#a9b1d6" font-size="10.5" font-family="-apple-system, BlinkMacSystemFont, 'Segoe UI', Helvetica, Arial, sans-serif" font-weight="500">18 events</text><rect x="500" y="78" width="316" height="118" rx="13" fill="#232843" fill-opacity="0.55"/><rect x="500" y="78" width="316" height="118" rx="13" fill="url(#gk-tile)"/><rect x="500.5" y="78.5" width="315" height="117" rx="13" fill="none" stroke="#c0caf5" stroke-opacity="0.14" stroke-width="1"/><rect x="506.5" y="79" width="303" height="1" rx="0.5" fill="#ffffff" fill-opacity="0.14"/><g transform="translate(516,94) scale(0.58)" fill="none" stroke="#7aa2f7" stroke-width="2" stroke-linecap="round" stroke-linejoin="round"><circle cx="12" cy="12" r="9"/><path d="M12 7v5.2l3.4 1.8"/></g><text x="538.0" y="105.0" fill="#c0caf5" font-size="12.5" font-family="-apple-system, BlinkMacSystemFont, 'Segoe UI', Helvetica, Arial, sans-serif" font-weight="700">By Time Block</text><text x="516.0" y="127.5" fill="#a9b1d6" font-size="10.5" font-family="-apple-system, BlinkMacSystemFont, 'Segoe UI', Helvetica, Arial, sans-serif">Night</text><rect x="596" y="120" width="134" height="8" rx="4" fill="#c0caf5" fill-opacity="0.14"/><rect x="596" y="120" width="22.33" height="8" rx="4" fill="#7aa2f7"/><text x="768.0" y="127.5" fill="#c0caf5" font-size="12" font-family="-apple-system, BlinkMacSystemFont, 'Segoe UI', Helvetica, Arial, sans-serif" font-weight="700" text-anchor="end">2</text><text x="800.0" y="127.5" fill="#8a94bd" font-size="9.5" font-family="-apple-system, BlinkMacSystemFont, 'Segoe UI', Helvetica, Arial, sans-serif" text-anchor="end">11%</text><text x="516.0" y="145.5" fill="#a9b1d6" font-size="10.5" font-family="-apple-system, BlinkMacSystemFont, 'Segoe UI', Helvetica, Arial, sans-serif">Morning</text><rect x="596" y="138" width="134" height="8" rx="4" fill="#c0caf5" fill-opacity="0.14"/><rect x="596" y="138" width="22.33" height="8" rx="4" fill="#7aa2f7"/><text x="768.0" y="145.5" fill="#c0caf5" font-size="12" font-family="-apple-system, BlinkMacSystemFont, 'Segoe UI', Helvetica, Arial, sans-serif" font-weight="700" text-anchor="end">2</text><text x="800.0" y="145.5" fill="#8a94bd" font-size="9.5" font-family="-apple-system, BlinkMacSystemFont, 'Segoe UI', Helvetica, Arial, sans-serif" text-anchor="end">11%</text><text x="516.0" y="163.5" fill="#a9b1d6" font-size="10.5" font-family="-apple-system, BlinkMacSystemFont, 'Segoe UI', Helvetica, Arial, sans-serif">Afternoon</text><rect x="596" y="156" width="134" height="8" rx="4" fill="#c0caf5" fill-opacity="0.14"/><rect x="596" y="156" width="134" height="8" rx="4" fill="#7aa2f7"/><text x="768.0" y="163.5" fill="#c0caf5" font-size="12" font-family="-apple-system, BlinkMacSystemFont, 'Segoe UI', Helvetica, Arial, sans-serif" font-weight="700" text-anchor="end">12</text><text x="800.0" y="163.5" fill="#8a94bd" font-size="9.5" font-family="-apple-system, BlinkMacSystemFont, 'Segoe UI', Helvetica, Arial, sans-serif" text-anchor="end">67%</text><text x="516.0" y="181.5" fill="#a9b1d6" font-size="10.5" font-family="-apple-system, BlinkMacSystemFont, 'Segoe UI', Helvetica, Arial, sans-serif">Evening</text><rect x="596" y="174" width="134" height="8" rx="4" fill="#c0caf5" fill-opacity="0.14"/><rect x="596" y="174" width="22.33" height="8" rx="4" fill="#7aa2f7"/><text x="768.0" y="181.5" fill="#c0caf5" font-size="12" font-family="-apple-system, BlinkMacSystemFont, 'Segoe UI', Helvetica, Arial, sans-serif" font-weight="700" text-anchor="end">2</text><text x="800.0" y="181.5" fill="#8a94bd" font-size="9.5" font-family="-apple-system, BlinkMacSystemFont, 'Segoe UI', Helvetica, Arial, sans-serif" text-anchor="end">11%</text><rect x="500" y="210" width="316" height="122" rx="13" fill="#232843" fill-opacity="0.55"/><rect x="500" y="210" width="316" height="122" rx="13" fill="url(#gk-tile)"/><rect x="500.5" y="210.5" width="315" height="121" rx="13" fill="none" stroke="#c0caf5" stroke-opacity="0.14" stroke-width="1"/><rect x="506.5" y="211" width="303" height="1" rx="0.5" fill="#ffffff" fill-opacity="0.14"/><g transform="translate(516,226) scale(0.58)" fill="#7dcfff"><path d="M13 2L4 14h6.5L9 22l9.5-12.5H12L13 2z"/></g><text x="538.0" y="237.0" fill="#c0caf5" font-size="12.5" font-family="-apple-system, BlinkMacSystemFont, 'Segoe UI', Helvetica, Arial, sans-serif" font-weight="700">Event Mix</text><text x="516.0" y="259.5" fill="#a9b1d6" font-size="10.5" font-family="-apple-system, BlinkMacSystemFont, 'Segoe UI', Helvetica, Arial, sans-serif">push</text><rect x="596" y="252" width="134" height="8" rx="4" fill="#c0caf5" fill-opacity="0.14"/><rect x="596" y="252" width="134" height="8" rx="4" fill="#7dcfff"/><text x="768.0" y="259.5" fill="#c0caf5" font-size="12" font-family="-apple-system, BlinkMacSystemFont, 'Segoe UI', Helvetica, Arial, sans-serif" font-weight="700" text-anchor="end">15</text><text x="800.0" y="259.5" fill="#8a94bd" font-size="9.5" font-family="-apple-system, BlinkMacSystemFont, 'Segoe UI', Helvetica, Arial, sans-serif" text-anchor="end">83%</text><text x="516.0" y="277.5" fill="#a9b1d6" font-size="10.5" font-family="-apple-system, BlinkMacSystemFont, 'Segoe UI', Helvetica, Arial, sans-serif">comment</text><rect x="596" y="270" width="134" height="8" rx="4" fill="#c0caf5" fill-opacity="0.14"/><rect x="596" y="270" width="8.93" height="8" rx="4" fill="#7dcfff"/><text x="768.0" y="277.5" fill="#c0caf5" font-size="12" font-family="-apple-system, BlinkMacSystemFont, 'Segoe UI', Helvetica, Arial, sans-serif" font-weight="700" text-anchor="end">1</text><text x="800.0" y="277.5" fill="#8a94bd" font-size="9.5" font-family="-apple-system, BlinkMacSystemFont, 'Segoe UI', Helvetica, Arial, sans-serif" text-anchor="end">6%</text><text x="516.0" y="295.5" fill="#a9b1d6" font-size="10.5" font-family="-apple-system, BlinkMacSystemFont, 'Segoe UI', Helvetica, Arial, sans-serif">pull request</text><rect x="596" y="288" width="134" height="8" rx="4" fill="#c0caf5" fill-opacity="0.14"/><rect x="596" y="288" width="8.93" height="8" rx="4" fill="#7dcfff"/><text x="768.0" y="295.5" fill="#c0caf5" font-size="12" font-family="-apple-system, BlinkMacSystemFont, 'Segoe UI', Helvetica, Arial, sans-serif" font-weight="700" text-anchor="end">1</text><text x="800.0" y="295.5" fill="#8a94bd" font-size="9.5" font-family="-apple-system, BlinkMacSystemFont, 'Segoe UI', Helvetica, Arial, sans-serif" text-anchor="end">6%</text><text x="516.0" y="313.5" fill="#a9b1d6" font-size="10.5" font-family="-apple-system, BlinkMacSystemFont, 'Segoe UI', Helvetica, Arial, sans-serif">create</text><rect x="596" y="306" width="134" height="8" rx="4" fill="#c0caf5" fill-opacity="0.14"/><rect x="596" y="306" width="8.93" height="8" rx="4" fill="#7dcfff"/><text x="768.0" y="313.5" fill="#c0caf5" font-size="12" font-family="-apple-system, BlinkMacSystemFont, 'Segoe UI', Helvetica, Arial, sans-serif" font-weight="700" text-anchor="end">1</text><text x="800.0" y="313.5" fill="#8a94bd" font-size="9.5" font-family="-apple-system, BlinkMacSystemFont, 'Segoe UI', Helvetica, Arial, sans-serif" text-anchor="end">6%</text></svg>