<svg xmlns="http://www.w3.org/2000/svg" width="840" height="214" viewBox="0 0 840 214">
  <rect width="840" height="214" rx="14" fill="#24283b" stroke="#414868" stroke-width="1"/>
  <text x="24" y="30" fill="#c0caf5" font-size="16" font-family="-apple-system, BlinkMacSystemFont, 'Segoe UI', Helvetica, Arial, sans-serif" font-weight="700">When I Code</text><text x="816" y="30" fill="#a9b1d6" font-size="11" font-family="-apple-system, BlinkMacSystemFont, 'Segoe UI', Helvetica, Arial, sans-serif" text-anchor="end">public events (America/New_York)</text><rect x="24" y="35" width="260.0" height="3" rx="2" fill="#7aa2f7" /><rect x="290.0" y="35" width="260.0" height="3" rx="2" fill="#7dcfff" /><rect x="556.0" y="35" width="260.0" height="3" rx="2" fill="#ff9e64" /><text x="66.0" y="60" fill="#a9b1d6" font-size="9" font-family="-apple-system, BlinkMacSystemFont, 'Segoe UI', Helvetica, Arial, sans-serif" text-anchor="middle">00</text><text x="108.0" y="60" fill="#a9b1d6" font-size="9" font-family="-apple-system, BlinkMacSystemFont, 'Segoe UI', Helvetica, Arial, sans-serif" text-anchor="middle">03</text><text x="150.0" y="60" fill="#a9b1d6" font-size="9" font-family="-apple-system, BlinkMacSystemFont, 'Segoe UI', Helvetica, Arial, sans-serif" text-anchor="middle">06</text><text x="192.0" y="60" fill="#a9b1d6" font-size="9" font-family="-apple-system, BlinkMacSystemFont, 'Segoe UI', Helvetica, Arial, sans-serif" text-anchor="middle">09</text><text x="234.0" y="60" fill="#a9b1d6" font-size="9" font-family="-apple-system, BlinkMacSystemFont, 'Segoe UI', Helvetica, Arial, sans-serif" text-anchor="middle">12</text><text x="276.0" y="60" fill="#a9b1d6" font-size="9" font-family="-apple-system, BlinkMacSystemFont, 'Segoe UI', Helvetica, Arial, sans-serif" text-anchor="middle">15</text><text x="318.0" y="60" fill="#a9b1d6" font-size="9" font-family="-apple-system, BlinkMacSystemFont, 'Segoe UI', Helvetica, Arial, sans-serif" text-anchor="middle">18</text><text x="360.0" y="60" fill="#a9b1d6" font-size="9" font-family="-apple-system, BlinkMacSystemFont, 'Segoe UI', Helvetica, Arial, sans-serif" text-anchor="middle">21</text><text x="24" y="77" fill="#a9b1d6" font-size="10" font-family="-apple-system, BlinkMacSystemFont, 'Segoe UI', Helvetica, Arial, sans-serif">Mon</text><rect x="60" y="66" width="12" height="12" rx="2" fill="#2d4a3e"><title>Mon 00:00 (America/New_York) - 2 events</title></rect><rect x="74" y="66" width="12" height="12" rx="2" fill="#2d4a3e"><title>Mon 01:00 (America/New_York) - 1 events</title></rect><rect x="88" y="66" width="12" height="12" rx="2" fill="#1e2030"><title>Mon 02:00 (America/New_York) - 0 events</title></rect><rect x="102" y="66" width="12" height="12" rx="2" fill="#1e2030"><title>Mon 03:00 (America/New_York) - 0 events</title></rect><rect x="116" y="66" width="12" height="12" rx="2" fill="#1e2030"><title>Mon 04:00 (America/New_York) - 0 events</title></rect><rect x="130" y="66" width="12" height="12" rx="2" fill="#1e2030"><title>Mon 05:00 (America/New_York) - 0 events</title></rect><rect x="144" y="66" width="12" height="12" rx="2" fill="#1e2030"><title>Mon 06:00 (America/New_York) - 0 events</title></rect><rect x="158" y="66" width="12" height="12" rx="2" fill="#1e2030"><title>Mon 07:00 (America/New_York) - 0 events</title></rect><rect x="172" y="66" width="12" height="12" rx="2" fill="#2d4a3e"><title>Mon 08:00 (America/New_York) - 1 events</title></rect><rect x="186" y="66" width="12" height="12" rx="2" fill="#1e2030"><title>Mon 09:00 (America/New_York) - 0 events</title></rect><rect x="200" y="66" width="12" height="12" rx="2" fill="#1e2030"><title>Mon 10:00 (America/New_York) - 0 events</title></rect><rect x="214" y="66" width="12" height="12" rx="2" fill="#1e2030"><title>Mon 11:00 (America/New_York) - 0 events</title></rect><rect x="228" y="66" width="12" height="12" rx="2" fill="#1e2030"><title>Mon 12:00 (America/New_York) - 0 events</title></rect><rect x="242" y="66" width="12" height="12" rx="2" fill="#1e2030"><title>Mon 13:00 (America/New_York) - 0 events</title></rect><rect x="256" y="66" width="12" height="12" rx="2" fill="#1e2030"><title>Mon 14:00 (America/New_York) - 0 events</title></rect><rect x="270" y="66" width="12" height="12" rx="2" fill="#1e2030"><title>Mon 15:00 (America/New_York) - 0 events</title></rect><rect x="284" y="66" width="12" height="12" rx="2" fill="#1e2030"><title>Mon 16:00 (America/New_York) - 0 events</title></rect><rect x="298" y="66" width="12" height="12" rx="2" fill="#1e2030"><title>Mon 17:00 (America/New_York) - 0 events</title></rect><rect x="312" y="66" width="12" height="12" rx="2" fill="#1e2030"><title>Mon 18:00 (America/New_York) - 0 events</title></rect><rect x="326" y="66" width="12" height="12" rx="2" fill="#2d4a3e"><title>Mon 19:00 (America/New_York) - 1 events</title></rect><rect x="340" y="66" width="12" height="12" rx="2" fill="#1e2030"><title>Mon 20:00 (America/New_York) - 0 events</title></rect><rect x="354" y="66" width="12" height="12" rx="2" fill="#1e2030"><title>Mon 21:00 (America/New_York) - 0 events</title></rect><rect x="368" y="66" width="12" height="12" rx="2" fill="#1e2030"><title>Mon 22:00 (America/New_York) - 0 events</title></rect><rect x="382" y="66" width="12" height="12" rx="2" fill="#1e2030"><title>Mon 23:00 (America/New_York) - 0 events</title></rect><text x="24" y="91" fill="#a9b1d6" font-size="10" font-family="-apple-system, BlinkMacSystemFont, 'Segoe UI', Helvetica, Arial, sans-serif">Tue</text><rect x="60" y="80" width="12" height="12" rx="2" fill="#1e2030"><title>Tue 00:00 (America/New_York) - 0 events</title></rect><rect x="74" y="80" width="12" height="12" rx="2" fill="#1e2030"><title>Tue 01:00 (America/New_York) - 0 events</title></rect><rect x="88" y="80" width="12" height="12" rx="2" fill="#1e2030"><title>Tue 02:00 (America/New_York) - 0 events</title></rect><rect x="102" y="80" width="12" height="12" rx="2" fill="#1e2030"><title>Tue 03:00 (America/New_York) - 0 events</title></rect><rect x="116" y="80" width="12" height="12" rx="2" fill="#1e2030"><title>Tue 04:00 (America/New_York) - 0 events</title></rect><rect x="130" y="80" width="12" height="12" rx="2" fill="#1e2030"><title>Tue 05:00 (America/New_York) - 0 events</title></rect><rect x="144" y="80" width="12" height="12" rx="2" fill="#1e2030"><title>Tue 06:00 (America/New_York) - 0 events</title></rect><rect x="158" y="80" width="12" height="12" rx="2" fill="#1e2030"><title>Tue 07:00 (America/New_York) - 0 events</title></rect><rect x="172" y="80" width="12" height="12" rx="2" fill="#1e2030"><title>Tue 08:00 (America/New_York) - 0 events</title></rect><rect x="186" y="80" width="12" height="12" rx="2" fill="#1e2030"><title>Tue 09:00 (America/New_York) - 0 events</title></rect><rect x="200" y="80" width="12" height="12" rx="2" fill="#1e2030"><title>Tue 10:00 (America/New_York) - 0 events</title></rect><rect x="214" y="80" width="12" height="12" rx="2" fill="#2d4a3e"><title>Tue 11:00 (America/New_York) - 1 events</title></rect><rect x="228" y="80" width="12" height="12" rx="2" fill="#1e2030"><title>Tue 12:00 (America/New_York) - 0 events</title></rect><rect x="242" y="80" width="12" height="12" rx="2" fill="#2d4a3e"><title>Tue 13:00 (America/New_York) - 2 events</title></rect><rect x="256" y="80" width="12" height="12" rx="2" fill="#2d4a3e"><title>Tue 14:00 (America/New_York) - 1 events</title></rect><rect x="270" y="80" width="12" height="12" rx="2" fill="#1e2030"><title>Tue 15:00 (America/New_York) - 0 events</title></rect><rect x="284" y="80" width="12" height="12" rx="2" fill="#1e2030"><title>Tue 16:00 (America/New_York) - 0 events</title></rect><rect x="298" y="80" width="12" height="12" rx="2" fill="#2d4a3e"><title>Tue 17:00 (America/New_York) - 3 events</title></rect><rect x="312" y="80" width="12" height="12" rx="2" fill="#2d4a3e"><title>Tue 18:00 (America/New_York) - 1 events</title></rect><rect x="326" y="80" width="12" height="12" rx="2" fill="#2d4a3e"><title>Tue 19:00 (America/New_York) - 1 events</title></rect><rect x="340" y="80" width="12" height="12" rx="2" fill="#2d4a3e"><title>Tue 20:00 (America/New_York) - 1 events</title></rect><rect x="354" y="80" width="12" height="12" rx="2" fill="#1e2030"><title>Tue 21:00 (America/New_York) - 0 events</title></rect><rect x="368" y="80" width="12" height="12" rx="2" fill="#2d4a3e"><title>Tue 22:00 (America/New_York) - 2 events</title></rect><rect x="382" y="80" width="12" height="12" rx="2" fill="#1e2030"><title>Tue 23:00 (America/New_York) - 0 events</title></rect><text x="24" y="105" fill="#a9b1d6" font-size="10" font-family="-apple-system, BlinkMacSystemFont, 'Segoe UI', Helvetica, Arial, sans-serif">Wed</text><rect x="60" y="94" width="12" height="12" rx="2" fill="#2d4a3e"><title>Wed 00:00 (America/New_York) - 1 events</title></rect><rect x="74" y="94" width="12" height="12" rx="2" fill="#1e2030"><title>Wed 01:00 (America/New_York) - 0 events</title></rect><rect x="88" y="94" width="12" height="12" rx="2" fill="#1e2030"><title>Wed 02:00 (America/New_York) - 0 events</title></rect><rect x="102" y="94" width="12" height="12" rx="2" fill="#1e2030"><title>Wed 03:00 (America/New_York) - 0 events</title></rect><rect x="116" y="94" width="12" height="12" rx="2" fill="#1e2030"><title>Wed 04:00 (America/New_York) - 0 events</title></rect><rect x="130" y="94" width="12" height="12" rx="2" fill="#1e2030"><title>Wed 05:00 (America/New_York) - 0 events</title></rect><rect x="144" y="94" width="12" height="12" rx="2" fill="#1e2030"><title>Wed 06:00 (America/New_York) - 0 events</title></rect><rect x="158" y="94" width="12" height="12" rx="2" fill="#1e2030"><title>Wed 07:00 (America/New_York) - 0 events</title></rect><rect x="172" y="94" width="12" height="12" rx="2" fill="#1e2030"><title>Wed 08:00 (America/New_York) - 0 events</title></rect><rect x="186" y="94" width="12" height="12" rx="2" fill="#1e2030"><title>Wed 09:00 (America/New_York) - 0 events</title></rect><rect x="200" y="94" width="12" height="12" rx="2" fill="#2d4a3e"><title>Wed 10:00 (America/New_York) - 1 events</title></rect><rect x="214" y="94" width="12" height="12" rx="2" fill="#1e2030"><title>Wed 11:00 (America/New_York) - 0 events</title></rect><rect x="228" y="94" width="12" height="12" rx="2" fill="#1e2030"><title>Wed 12:00 (America/New_York) - 0 events</title></rect><rect x="242" y="94" width="12" height="12" rx="2" fill="#2d4a3e"><title>Wed 13:00 (America/New_York) - 1 events</title></rect><rect x="256" y="94" width="12" height="12" rx="2" fill="#1e2030"><title>Wed 14:00 (America/New_York) - 0 events</title></rect><rect x="270" y="94" width="12" height="12" rx="2" fill="#2d4a3e"><title>Wed 15:00 (America/New_York) - 1 events</title></rect><rect x="284" y="94" width="12" height="12" rx="2" fill="#1e2030"><title>Wed 16:00 (America/New_York) - 0 events</title></rect><rect x="298" y="94" width="12" height="12" rx="2" fill="#1e2030"><title>Wed 17:00 (America/New_York) - 0 events</title></rect><rect x="312" y="94" width="12" height="12" rx="2" fill="#1e2030"><title>Wed 18:00 (America/New_York) - 0 events</title></rect><rect x="326" y="94" width="12" height="12" rx="2" fill="#1e2030"><title>Wed 19:00 (America/New_York) - 0 events</title></rect><rect x="340" y="94" width="12" height="12" rx="2" fill="#2d4a3e"><title>Wed 20:00 (America/New_York) - 1 events</title></rect><rect x="354" y="94" width="12" height="12" rx="2" fill="#2d4a3e"><title>Wed 21:00 (America/New_York) - 1 events</title></rect><rect x="368" y="94" width="12" height="12" rx="2" fill="#2d4a3e"><title>Wed 22:00 (America/New_York) - 1 events</title></rect><rect x="382" y="94" width="12" height="12" rx="2" fill="#1e2030"><title>Wed 23:00 (America/New_York) - 0 events</title></rect><text x="24" y="119" fill="#a9b1d6" font-size="10" font-family="-apple-system, BlinkMacSystemFont, 'Segoe UI', Helvetica, Arial, sans-serif">Thu</text><rect x="60" y="108" width="12" height="12" rx="2" fill="#2d4a3e"><title>Thu 00:00 (America/New_York) - 1 events</title></rect><rect x="74" y="108" width="12" height="12" rx="2" fill="#1e2030"><title>Thu 01:00 (America/New_York) - 0 events</title></rect><rect x="88" y="108" width="12" height="12" rx="2" fill="#1e2030"><title>Thu 02:00 (America/New_York) - 0 events</title></rect><rect x="102" y="108" width="12" height="12" rx="2" fill="#2d4a3e"><title>Thu 03:00 (America/New_York) - 1 events</title></rect><rect x="116" y="108" width="12" height="12" rx="2" fill="#1e2030"><title>Thu 04:00 (America/New_York) - 0 events</title></rect><rect x="130" y="108" width="12" height="12" rx="2" fill="#2d4a3e"><title>Thu 05:00 (America/New_York) - 1 events</title></rect><rect x="144" y="108" width="12" height="12" rx="2" fill="#1e2030"><title>Thu 06:00 (America/New_York) - 0 events</title></rect><rect x="158" y="108" width="12" height="12" rx="2" fill="#1e2030"><title>Thu 07:00 (America/New_York) - 0 events</title></rect><rect x="172" y="108" width="12" height="12" rx="2" fill="#2d4a3e"><title>Thu 08:00 (America/New_York) - 1 events</title></rect><rect x="186" y="108" width="12" height="12" rx="2" fill="#2d4a3e"><title>Thu 09:00 (America/New_York) - 1 events</title></rect><rect x="200" y="108" width="12" height="12" rx="2" fill="#1e2030"><title>Thu 10:00 (America/New_York) - 0 events</title></rect><rect x="214" y="108" width="12" height="12" rx="2" fill="#1e2030"><title>Thu 11:00 (America/New_York) - 0 events</title></rect><rect x="228" y="108" width="12" height="12" rx="2" fill="#1e2030"><title>Thu 12:00 (America/New_York) - 0 events</title></rect><rect x="242" y="108" width="12" height="12" rx="2" fill="#1e2030"><title>Thu 13:00 (America/New_York) - 0 events</title></rect><rect x="256" y="108" width="12" height="12" rx="2" fill="#2d4a3e"><title>Thu 14:00 (America/New_York) - 1 events</title></rect><rect x="270" y="108" width="12" height="12" rx="2" fill="#2d4a3e"><title>Thu 15:00 (America/New_York) - 1 events</title></rect><rect x="284" y="108" width="12" height="12" rx="2" fill="#2d4a3e"><title>Thu 16:00 (America/New_York) - 3 events</title></rect><rect x="298" y="108" width="12" height="12" rx="2" fill="#2d4a3e"><title>Thu 17:00 (America/New_York) - 4 events</title></rect><rect x="312" y="108" width="12" height="12" rx="2" fill="#2d4a3e"><title>Thu 18:00 (America/New_York) - 6 events</title></rect><rect x="326" y="108" width="12" height="12" rx="2" fill="#2d4a3e"><title>Thu 19:00 (America/New_York) - 3 events</title></rect><rect x="340" y="108" width="12" height="12" rx="2" fill="#2d4a3e"><title>Thu 20:00 (America/New_York) - 3 events</title></rect><rect x="354" y="108" width="12" height="12" rx="2" fill="#2d4a3e"><title>Thu 21:00 (America/New_York) - 6 events</title></rect><rect x="368" y="108" width="12" height="12" rx="2" fill="#3b6b4f"><title>Thu 22:00 (America/New_York) - 7 events</title></rect><rect x="382" y="108" width="12" height="12" rx="2" fill="#2d4a3e"><title>Thu 23:00 (America/New_York) - 6 events</title></rect><text x="24" y="133" fill="#a9b1d6" font-size="10" font-family="-apple-system, BlinkMacSystemFont, 'Segoe UI', Helvetica, Arial, sans-serif">Fri</text><rect x="60" y="122" width="12" height="12" rx="2" fill="#3b6b4f"><title>Fri 00:00 (America/New_York) - 7 events</title></rect><rect x="74" y="122" width="12" height="12" rx="2" fill="#2d4a3e"><title>Fri 01:00 (America/New_York) - 3 events</title></rect><rect x="88" y="122" width="12" height="12" rx="2" fill="#2d4a3e"><title>Fri 02:00 (America/New_York) - 1 events</title></rect><rect x="102" y="122" width="12" height="12" rx="2" fill="#2d4a3e"><title>Fri 03:00 (America/New_York) - 1 events</title></rect><rect x="116" y="122" width="12" height="12" rx="2" fill="#2d4a3e"><title>Fri 04:00 (America/New_York) - 3 events</title></rect><rect x="130" y="122" width="12" height="12" rx="2" fill="#1e2030"><title>Fri 05:00 (America/New_York) - 0 events</title></rect><rect x="144" y="122" width="12" height="12" rx="2" fill="#2d4a3e"><title>Fri 06:00 (America/New_York) - 1 events</title></rect><rect x="158" y="122" width="12" height="12" rx="2" fill="#1e2030"><title>Fri 07:00 (America/New_York) - 0 events</title></rect><rect x="172" y="122" width="12" height="12" rx="2" fill="#1e2030"><title>Fri 08:00 (America/New_York) - 0 events</title></rect><rect x="186" y="122" width="12" height="12" rx="2" fill="#1e2030"><title>Fri 09:00 (America/New_York) - 0 events</title></rect><rect x="200" y="122" width="12" height="12" rx="2" fill="#1e2030"><title>Fri 10:00 (America/New_York) - 0 events</title></rect><rect x="214" y="122" width="12" height="12" rx="2" fill="#1e2030"><title>Fri 11:00 (America/New_York) - 0 events</title></rect><rect x="228" y="122" width="12" height="12" rx="2" fill="#2d4a3e"><title>Fri 12:00 (America/New_York) - 4 events</title></rect><rect x="242" y="122" width="12" height="12" rx="2" fill="#2d4a3e"><title>Fri 13:00 (America/New_York) - 1 events</title></rect><rect x="256" y="122" width="12" height="12" rx="2" fill="#2d4a3e"><title>Fri 14:00 (America/New_York) - 2 events</title></rect><rect x="270" y="122" width="12" height="12" rx="2" fill="#2d4a3e"><title>Fri 15:00 (America/New_York) - 2 events</title></rect><rect x="284" y="122" width="12" height="12" rx="2" fill="#2d4a3e"><title>Fri 16:00 (America/New_York) - 4 events</title></rect><rect x="298" y="122" width="12" height="12" rx="2" fill="#2d4a3e"><title>Fri 17:00 (America/New_York) - 3 events</title></rect><rect x="312" y="122" width="12" height="12" rx="2" fill="#2d4a3e"><title>Fri 18:00 (America/New_York) - 3 events</title></rect><rect x="326" y="122" width="12" height="12" rx="2" fill="#2d4a3e"><title>Fri 19:00 (America/New_York) - 2 events</title></rect><rect x="340" y="122" width="12" height="12" rx="2" fill="#2d4a3e"><title>Fri 20:00 (America/New_York) - 4 events</title></rect><rect x="354" y="122" width="12" height="12" rx="2" fill="#2d4a3e"><title>Fri 21:00 (America/New_York) - 4 events</title></rect><rect x="368" y="122" width="12" height="12" rx="2" fill="#3b6b4f"><title>Fri 22:00 (America/New_York) - 8 events</title></rect><rect x="382" y="122" width="12" height="12" rx="2" fill="#3b6b4f"><title>Fri 23:00 (America/New_York) - 9 events</title></rect><text x="24" y="147" fill="#a9b1d6" font-size="10" font-family="-apple-system, BlinkMacSystemFont, 'Segoe UI', Helvetica, Arial, sans-serif">Sat</text><rect x="60" y="136" width="12" height="12" rx="2" fill="#2d4a3e"><title>Sat 00:00 (America/New_York) - 5 events</title></rect><rect x="74" y="136" width="12" height="12" rx="2" fill="#2d4a3e"><title>Sat 01:00 (America/New_York) - 1 events</title></rect><rect x="88" y="136" width="12" height="12" rx="2" fill="#2d4a3e"><title>Sat 02:00 (America/New_York) - 3 events</title></rect><rect x="102" y="136" width="12" height="12" rx="2" fill="#2d4a3e"><title>Sat 03:00 (America/New_York) - 1 events</title></rect><rect x="116" y="136" width="12" height="12" rx="2" fill="#2d4a3e"><title>Sat 04:00 (America/New_York) - 1 events</title></rect><rect x="130" y="136" width="12" height="12" rx="2" fill="#2d4a3e"><title>Sat 05:00 (America/New_York) - 1 events</title></rect><rect x="144" y="136" width="12" height="12" rx="2" fill="#1e2030"><title>Sat 06:00 (America/New_York) - 0 events</title></rect><rect x="158" y="136" width="12" height="12" rx="2" fill="#1e2030"><title>Sat 07:00 (America/New_York) - 0 events</title></rect><rect x="172" y="136" width="12" height="12" rx="2" fill="#1e2030"><title>Sat 08:00 (America/New_York) - 0 events</title></rect><rect x="186" y="136" width="12" height="12" rx="2" fill="#2d4a3e"><title>Sat 09:00 (America/New_York) - 2 events</title></rect><rect x="200" y="136" width="12" height="12" rx="2" fill="#2d4a3e"><title>Sat 10:00 (America/New_York) - 1 events</title></rect><rect x="214" y="136" width="12" height="12" rx="2" fill="#2d4a3e"><title>Sat 11:00 (America/New_York) - 3 events</title></rect><rect x="228" y="136" width="12" height="12" rx="2" fill="#2d4a3e"><title>Sat 12:00 (America/New_York) - 1 events</title></rect><rect x="242" y="136" width="12" height="12" rx="2" fill="#1e2030"><title>Sat 13:00 (America/New_York) - 0 events</title></rect><rect x="256" y="136" width="12" height="12" rx="2" fill="#1e2030"><title>Sat 14:00 (America/New_York) - 0 events</title></rect><rect x="270" y="136" width="12" height="12" rx="2" fill="#2d4a3e"><title>Sat 15:00 (America/New_York) - 1 events</title></rect><rect x="284" y="136" width="12" height="12" rx="2" fill="#1e2030"><title>Sat 16:00 (America/New_York) - 0 events</title></rect><rect x="298" y="136" width="12" height="12" rx="2" fill="#2d4a3e"><title>Sat 17:00 (America/New_York) - 1 events</title></rect><rect x="312" y="136" width="12" height="12" rx="2" fill="#2d4a3e"><title>Sat 18:00 (America/New_York) - 4 events</title></rect><rect x="326" y="136" width="12" height="12" rx="2" fill="#2d4a3e"><title>Sat 19:00 (America/New_York) - 4 events</title></rect><rect x="340" y="136" width="12" height="12" rx="2" fill="#2d4a3e"><title>Sat 20:00 (America/New_York) - 1 events</title></rect><rect x="354" y="136" width="12" height="12" rx="2" fill="#2d4a3e"><title>Sat 21:00 (America/New_York) - 1 events</title></rect><rect x="368" y="136" width="12" height="12" rx="2" fill="#3b6b4f"><title>Sat 22:00 (America/New_York) - 7 events</title></rect><rect x="382" y="136" width="12" height="12" rx="2" fill="#9ece6a"><title>Sat 23:00 (America/New_York) - 28 events</title></rect><text x="24" y="161" fill="#a9b1d6" font-size="10" font-family="-apple-system, BlinkMacSystemFont, 'Segoe UI', Helvetica, Arial, sans-serif">Sun</text><rect x="60" y="150" width="12" height="12" rx="2" fill="#3b6b4f"><title>Sun 00:00 (America/New_York) - 11 events</title></rect><rect x="74" y="150" width="12" height="12" rx="2" fill="#3b6b4f"><title>Sun 01:00 (America/New_York) - 8 events</title></rect><rect x="88" y="150" width="12" height="12" rx="2" fill="#2d4a3e"><title>Sun 02:00 (America/New_York) - 6 events</title></rect><rect x="102" y="150" width="12" height="12" rx="2" fill="#2d4a3e"><title>Sun 03:00 (America/New_York) - 6 events</title></rect><rect x="116" y="150" width="12" height="12" rx="2" fill="#3b6b4f"><title>Sun 04:00 (America/New_York) - 7 events</title></rect><rect x="130" y="150" width="12" height="12" rx="2" fill="#2d4a3e"><title>Sun 05:00 (America/New_York) - 6 events</title></rect><rect x="144" y="150" width="12" height="12" rx="2" fill="#2d4a3e"><title>Sun 06:00 (America/New_York) - 3 events</title></rect><rect x="158" y="150" width="12" height="12" rx="2" fill="#3b6b4f"><title>Sun 07:00 (America/New_York) - 7 events</title></rect><rect x="172" y="150" width="12" height="12" rx="2" fill="#1e2030"><title>Sun 08:00 (America/New_York) - 0 events</title></rect><rect x="186" y="150" width="12" height="12" rx="2" fill="#1e2030"><title>Sun 09:00 (America/New_York) - 0 events</title></rect><rect x="200" y="150" width="12" height="12" rx="2" fill="#1e2030"><title>Sun 10:00 (America/New_York) - 0 events</title></rect><rect x="214" y="150" width="12" height="12" rx="2" fill="#1e2030"><title>Sun 11:00 (America/New_York) - 0 events</title></rect><rect x="228" y="150" width="12" height="12" rx="2" fill="#2d4a3e"><title>Sun 12:00 (America/New_York) - 2 events</title></rect><rect x="242" y="150" width="12" height="12" rx="2" fill="#2d4a3e"><title>Sun 13:00 (America/New_York) - 1 events</title></rect><rect x="256" y="150" width="12" height="12" rx="2" fill="#2d4a3e"><title>Sun 14:00 (America/New_York) - 2 events</title></rect><rect x="270" y="150" width="12" height="12" rx="2" fill="#2d4a3e"><title>Sun 15:00 (America/New_York) - 1 events</title></rect><rect x="284" y="150" width="12" height="12" rx="2" fill="#2d4a3e"><title>Sun 16:00 (America/New_York) - 1 events</title></rect><rect x="298" y="150" width="12" height="12" rx="2" fill="#2d4a3e"><title>Sun 17:00 (America/New_York) - 5 events</title></rect><rect x="312" y="150" width="12" height="12" rx="2" fill="#2d4a3e"><title>Sun 18:00 (America/New_York) - 2 events</title></rect><rect x="326" y="150" width="12" height="12" rx="2" fill="#2d4a3e"><title>Sun 19:00 (America/New_York) - 5 events</title></rect><rect x="340" y="150" width="12" height="12" rx="2" fill="#2d4a3e"><title>Sun 20:00 (America/New_York) - 2 events</title></rect><rect x="354" y="150" width="12" height="12" rx="2" fill="#2d4a3e"><title>Sun 21:00 (America/New_York) - 2 events</title></rect><rect x="368" y="150" width="12" height="12" rx="2" fill="#2d4a3e"><title>Sun 22:00 (America/New_York) - 1 events</title></rect><rect x="382" y="150" width="12" height="12" rx="2" fill="#2d4a3e"><title>Sun 23:00 (America/New_York) - 3 events</title></rect><text x="428" y="56" fill="#c0caf5" font-size="12" font-family="-apple-system, BlinkMacSystemFont, 'Segoe UI', Helvetica, Arial, sans-serif" font-weight="600">By Time Block</text><text x="428" y="78" fill="#a9b1d6" font-size="10" font-family="-apple-system, BlinkMacSystemFont, 'Segoe UI', Helvetica, Arial, sans-serif">Night</text><rect x="492" y="68" width="154.8" height="12" rx="2" fill="#7dcfff" opacity="0.72"/><text x="652.8" y="78" fill="#a9b1d6" font-size="10" font-family="-apple-system, BlinkMacSystemFont, 'Segoe UI', Helvetica, Arial, sans-serif">78 (28%)</text><text x="428" y="96" fill="#a9b1d6" font-size="10" font-family="-apple-system, BlinkMacSystemFont, 'Segoe UI', Helvetica, Arial, sans-serif">Morning</text><rect x="492" y="86" width="43.7" height="12" rx="2" fill="#7dcfff" opacity="0.72"/><text x="541.7" y="96" fill="#a9b1d6" font-size="10" font-family="-apple-system, BlinkMacSystemFont, 'Segoe UI', Helvetica, Arial, sans-serif">22 (8%)</text><text x="428" y="114" fill="#a9b1d6" font-size="10" font-family="-apple-system, BlinkMacSystemFont, 'Segoe UI', Helvetica, Arial, sans-serif">Afternoon</text><rect x="492" y="104" width="95.3" height="12" rx="2" fill="#7dcfff" opacity="0.72"/><text x="593.3" y="114" fill="#a9b1d6" font-size="10" font-family="-apple-system, BlinkMacSystemFont, 'Segoe UI', Helvetica, Arial, sans-serif">48 (17%)</text><text x="428" y="132" fill="#a9b1d6" font-size="10" font-family="-apple-system, BlinkMacSystemFont, 'Segoe UI', Helvetica, Arial, sans-serif">Evening</text><rect x="492" y="122" width="258.0" height="12" rx="2" fill="#7dcfff" opacity="0.72"/><text x="756.0" y="132" fill="#a9b1d6" font-size="10" font-family="-apple-system, BlinkMacSystemFont, 'Segoe UI', Helvetica, Arial, sans-serif">130 (47%)</text><text x="428" y="162" fill="#c0caf5" font-size="12" font-family="-apple-system, BlinkMacSystemFont, 'Segoe UI', Helvetica, Arial, sans-serif" font-weight="600">Event Mix</text><text x="428" y="180" fill="#a9b1d6" font-size="10" font-family="-apple-system, BlinkMacSystemFont, 'Segoe UI', Helvetica, Arial, sans-serif">push</text><rect x="500" y="170" width="258.0" height="10" rx="2" fill="#7dcfff" opacity="0.48"/><text x="764.0" y="179" fill="#a9b1d6" font-size="9" font-family="-apple-system, BlinkMacSystemFont, 'Segoe UI', Helvetica, Arial, sans-serif">278 (100%)</text>
</svg>