<svg xmlns="http://www.w3.org/2000/svg" width="840" height="405" viewBox="0 0 840 405"><defs><linearGradient id="gk-sheen" x1="0" y1="0" x2="0" y2="1"><stop offset="0" stop-color="#ffffff" stop-opacity="0.20"/><stop offset="0.06" stop-color="#ffffff" stop-opacity="0.06"/><stop offset="0.5" stop-color="#ffffff" stop-opacity="0"/><stop offset="1" stop-color="#05060e" stop-opacity="0.10"/></linearGradient><linearGradient id="gk-tile" x1="0" y1="0" x2="0" y2="1"><stop offset="0" stop-color="#ffffff" stop-opacity="0.08"/><stop offset="1" stop-color="#05060e" stop-opacity="0.22"/></linearGradient><linearGradient id="gk-rim" x1="0" y1="0" x2="0" y2="1"><stop offset="0" stop-color="#ffffff" stop-opacity="0.45"/><stop offset="0.4" stop-color="#c0caf5" stop-opacity="0.12"/><stop offset="1" stop-color="#c0caf5" stop-opacity="0.05"/></linearGradient><filter id="gk-shadow" x="-40%" y="-40%" width="180%" height="180%"><feDropShadow dx="0" dy="10" stdDeviation="16" flood-color="#03040c" flood-opacity="0.55"/></filter><filter id="gk-blob" x="-80%" y="-80%" width="260%" height="260%"><feGaussianBlur stdDeviation="34"/></filter><filter id="gk-grain" x="0%" y="0%" width="100%" height="100%"><feTurbulence type="fractalNoise" baseFrequency="0.9" numOctaves="2" stitchTiles="stitch" result="n"/><feColorMatrix in="n" type="matrix" values="0 0 0 0 1  0 0 0 0 1  0 0 0 0 1  0 0 0 0.04 0"/></filter></defs><clipPath id="gk-clip"><rect x="12" y="12" width="816" height="381" rx="18"/></clipPath><rect x="12" y="12" width="816" height="381" rx="18" fill="#0c0e18" filter="url(#gk-shadow)"/><g clip-path="url(#gk-clip)" filter="url(#gk-blob)"><ellipse cx="77.28" cy="50.1" rx="236.22" ry="193.7" fill="#7aa2f7" fill-opacity="0.3"/><ellipse cx="795.36" cy="377.76" rx="266.7" ry="218.69" fill="#bb9af7" fill-opacity="0.26"/><ellipse cx="517.92" cy="-18.48" rx="171.45" ry="140.59" fill="#7dcfff" fill-opacity="0.2"/></g><rect x="12" y="12" width="816" height="381" rx="18" fill="#1b1e2e" fill-opacity="0.74"/><rect x="12" y="12" width="816" height="381" rx="18" fill="url(#gk-sheen)"/><g clip-path="url(#gk-clip)"><rect x="12" y="12" width="816" height="381" filter="url(#gk-grain)"/></g><rect x="12.5" y="12.5" width="815" height="380" rx="18" fill="none" stroke="url(#gk-rim)" stroke-width="1"/><rect x="30" y="13.5" width="780" height="1" fill="#ffffff" fill-opacity="0.0"/><text x="28" y="46" fill="#8a94bd" font-size="11" font-family="-apple-system, BlinkMacSystemFont, 'Segoe UI', Helvetica, Arial, sans-serif" font-weight="600" letter-spacing="1.2">ACTIVITY RHYTHM</text><text x="28" y="70" fill="#c0caf5" font-size="20" font-family="-apple-system, BlinkMacSystemFont, 'Segoe UI', Helvetica, Arial, sans-serif" font-weight="600">When I Code</text><text x="812" y="68" fill="#8a94bd" font-size="12" font-family="-apple-system, BlinkMacSystemFont, 'Segoe UI', Helvetica, Arial, sans-serif" font-weight="400" text-anchor="end">87 events · New York</text><rect x="28" y="82" width="784" height="1" fill="#c0caf5" fill-opacity="0.14"/><rect x="28" y="91" width="452" height="296" rx="13" fill="#232843" fill-opacity="0.55"/><rect x="28" y="91" width="452" height="296" rx="13" fill="url(#gk-tile)"/><rect x="28.5" y="91.5" width="451" height="295" rx="13" fill="none" stroke="#c0caf5" stroke-opacity="0.14" stroke-width="1"/><rect x="34.5" y="92" width="439" height="1" rx="0.5" fill="#ffffff" fill-opacity="0.14"/><text x="79.0" y="123.0" fill="#8a94bd" font-size="11" font-family="-apple-system, BlinkMacSystemFont, 'Segoe UI', Helvetica, Arial, sans-serif" text-anchor="middle">00</text><text x="130.0" y="123.0" fill="#8a94bd" font-size="11" font-family="-apple-system, BlinkMacSystemFont, 'Segoe UI', Helvetica, Arial, sans-serif" text-anchor="middle">03</text><text x="181.0" y="123.0" fill="#8a94bd" font-size="11" font-family="-apple-system, BlinkMacSystemFont, 'Segoe UI', Helvetica, Arial, sans-serif" text-anchor="middle">06</text><text x="232.0" y="123.0" fill="#8a94bd" font-size="11" font-family="-apple-system, BlinkMacSystemFont, 'Segoe UI', Helvetica, Arial, sans-serif" text-anchor="middle">09</text><text x="283.0" y="123.0" fill="#8a94bd" font-size="11" font-family="-apple-system, BlinkMacSystemFont, 'Segoe UI', Helvetica, Arial, sans-serif" text-anchor="middle">12</text><text x="334.0" y="123.0" fill="#8a94bd" font-size="11" font-family="-apple-system, BlinkMacSystemFont, 'Segoe UI', Helvetica, Arial, sans-serif" text-anchor="middle">15</text><text x="385.0" y="123.0" fill="#8a94bd" font-size="11" font-family="-apple-system, BlinkMacSystemFont, 'Segoe UI', Helvetica, Arial, sans-serif" text-anchor="middle">18</text><text x="436.0" y="123.0" fill="#8a94bd" font-size="11" font-family="-apple-system, BlinkMacSystemFont, 'Segoe UI', Helvetica, Arial, sans-serif" text-anchor="middle">21</text><text x="60.0" y="146.0" fill="#8a94bd" font-size="11" font-family="-apple-system, BlinkMacSystemFont, 'Segoe UI', Helvetica, Arial, sans-serif" text-anchor="end">Mon</text><text x="60.0" y="163.0" fill="#8a94bd" font-size="11" font-family="-apple-system, BlinkMacSystemFont, 'Segoe UI', Helvetica, Arial, sans-serif" text-anchor="end">Tue</text><text x="60.0" y="180.0" fill="#8a94bd" font-size="11" font-family="-apple-system, BlinkMacSystemFont, 'Segoe UI', Helvetica, Arial, sans-serif" text-anchor="end">Wed</text><text x="60.0" y="197.0" fill="#8a94bd" font-size="11" font-family="-apple-system, BlinkMacSystemFont, 'Segoe UI', Helvetica, Arial, sans-serif" text-anchor="end">Thu</text><text x="60.0" y="214.0" fill="#8a94bd" font-size="11" font-family="-apple-system, BlinkMacSystemFont, 'Segoe UI', Helvetica, Arial, sans-serif" text-anchor="end">Fri</text><text x="60.0" y="231.0" fill="#8a94bd" font-size="11" font-family="-apple-system, BlinkMacSystemFont, 'Segoe UI', Helvetica, Arial, sans-serif" text-anchor="end">Sat</text><text x="60.0" y="248.0" fill="#8a94bd" font-size="11" font-family="-apple-system, BlinkMacSystemFont, 'Segoe UI', Helvetica, Arial, sans-serif" text-anchor="end">Sun</text><rect x="72.0" y="135.0" width="14" height="14" rx="3" fill="#c0caf5" fill-opacity="0.06"><title>Mon 00:00 — 0 events</title></rect><rect x="89.0" y="135.0" width="14" height="14" rx="3" fill="#c0caf5" fill-opacity="0.06"><title>Mon 01:00 — 0 events</title></rect><rect x="106.0" y="135.0" width="14" height="14" rx="3" fill="#c0caf5" fill-opacity="0.06"><title>Mon 02:00 — 0 events</title></rect><rect x="123.0" y="135.0" width="14" height="14" rx="3" fill="#c0caf5" fill-opacity="0.06"><title>Mon 03:00 — 0 events</title></rect><rect x="140.0" y="135.0" width="14" height="14" rx="3" fill="#c0caf5" fill-opacity="0.06"><title>Mon 04:00 — 0 events</title></rect><rect x="157.0" y="135.0" width="14" height="14" rx="3" fill="#c0caf5" fill-opacity="0.06"><title>Mon 05:00 — 0 events</title></rect><rect x="174.0" y="135.0" width="14" height="14" rx="3" fill="#c0caf5" fill-opacity="0.06"><title>Mon 06:00 — 0 events</title></rect><rect x="191.0" y="135.0" width="14" height="14" rx="3" fill="#c0caf5" fill-opacity="0.06"><title>Mon 07:00 — 0 events</title></rect><rect x="208.0" y="135.0" width="14" height="14" rx="3" fill="#c0caf5" fill-opacity="0.06"><title>Mon 08:00 — 0 events</title></rect><rect x="225.0" y="135.0" width="14" height="14" rx="3" fill="#c0caf5" fill-opacity="0.06"><title>Mon 09:00 — 0 events</title></rect><rect x="242.0" y="135.0" width="14" height="14" rx="3" fill="#c0caf5" fill-opacity="0.06"><title>Mon 10:00 — 0 events</title></rect><rect x="259.0" y="135.0" width="14" height="14" rx="3" fill="#c0caf5" fill-opacity="0.06"><title>Mon 11:00 — 0 events</title></rect><rect x="276.0" y="135.0" width="14" height="14" rx="3" fill="#c0caf5" fill-opacity="0.06"><title>Mon 12:00 — 0 events</title></rect><rect x="293.0" y="135.0" width="14" height="14" rx="3" fill="#c0caf5" fill-opacity="0.06"><title>Mon 13:00 — 0 events</title></rect><rect x="310.0" y="135.0" width="14" height="14" rx="3" fill="#c0caf5" fill-opacity="0.06"><title>Mon 14:00 — 0 events</title></rect><rect x="327.0" y="135.0" width="14" height="14" rx="3" fill="#c0caf5" fill-opacity="0.06"><title>Mon 15:00 — 0 events</title></rect><rect x="344.0" y="135.0" width="14" height="14" rx="3" fill="#c0caf5" fill-opacity="0.06"><title>Mon 16:00 — 0 events</title></rect><rect x="361.0" y="135.0" width="14" height="14" rx="3" fill="#c0caf5" fill-opacity="0.06"><title>Mon 17:00 — 0 events</title></rect><rect x="378.0" y="135.0" width="14" height="14" rx="3" fill="#c0caf5" fill-opacity="0.06"><title>Mon 18:00 — 0 events</title></rect><rect x="395.0" y="135.0" width="14" height="14" rx="3" fill="#c0caf5" fill-opacity="0.06"><title>Mon 19:00 — 0 events</title></rect><rect x="412.0" y="135.0" width="14" height="14" rx="3" fill="#35507a" fill-opacity="0.92"><title>Mon 20:00 — 2 events</title></rect><rect x="429.0" y="135.0" width="14" height="14" rx="3" fill="#c0caf5" fill-opacity="0.06"><title>Mon 21:00 — 0 events</title></rect><rect x="446.0" y="135.0" width="14" height="14" rx="3" fill="#4574b8" fill-opacity="0.96"><title>Mon 22:00 — 3 events</title></rect><rect x="463.0" y="135.0" width="14" height="14" rx="3" fill="#35507a" fill-opacity="0.92"><title>Mon 23:00 — 2 events</title></rect><rect x="72.0" y="152.0" width="14" height="14" rx="3" fill="#35507a" fill-opacity="0.92"><title>Tue 00:00 — 2 events</title></rect><rect x="89.0" y="152.0" width="14" height="14" rx="3" fill="#c0caf5" fill-opacity="0.06"><title>Tue 01:00 — 0 events</title></rect><rect x="106.0" y="152.0" width="14" height="14" rx="3" fill="#c0caf5" fill-opacity="0.06"><title>Tue 02:00 — 0 events</title></rect><rect x="123.0" y="152.0" width="14" height="14" rx="3" fill="#c0caf5" fill-opacity="0.06"><title>Tue 03:00 — 0 events</title></rect><rect x="140.0" y="152.0" width="14" height="14" rx="3" fill="#c0caf5" fill-opacity="0.06"><title>Tue 04:00 — 0 events</title></rect><rect x="157.0" y="152.0" width="14" height="14" rx="3" fill="#c0caf5" fill-opacity="0.06"><title>Tue 05:00 — 0 events</title></rect><rect x="174.0" y="152.0" width="14" height="14" rx="3" fill="#c0caf5" fill-opacity="0.06"><title>Tue 06:00 — 0 events</title></rect><rect x="191.0" y="152.0" width="14" height="14" rx="3" fill="#c0caf5" fill-opacity="0.06"><title>Tue 07:00 — 0 events</title></rect><rect x="208.0" y="152.0" width="14" height="14" rx="3" fill="#c0caf5" fill-opacity="0.06"><title>Tue 08:00 — 0 events</title></rect><rect x="225.0" y="152.0" width="14" height="14" rx="3" fill="#c0caf5" fill-opacity="0.06"><title>Tue 09:00 — 0 events</title></rect><rect x="242.0" y="152.0" width="14" height="14" rx="3" fill="#c0caf5" fill-opacity="0.06"><title>Tue 10:00 — 0 events</title></rect><rect x="259.0" y="152.0" width="14" height="14" rx="3" fill="#c0caf5" fill-opacity="0.06"><title>Tue 11:00 — 0 events</title></rect><rect x="276.0" y="152.0" width="14" height="14" rx="3" fill="#c0caf5" fill-opacity="0.06"><title>Tue 12:00 — 0 events</title></rect><rect x="293.0" y="152.0" width="14" height="14" rx="3" fill="#35507a" fill-opacity="0.92"><title>Tue 13:00 — 2 events</title></rect><rect x="310.0" y="152.0" width="14" height="14" rx="3" fill="#7dcfff" fill-opacity="1.0"><title>Tue 14:00 — 10 events</title></rect><rect x="327.0" y="152.0" width="14" height="14" rx="3" fill="#4574b8" fill-opacity="0.96"><title>Tue 15:00 — 4 events</title></rect><rect x="344.0" y="152.0" width="14" height="14" rx="3" fill="#4574b8" fill-opacity="0.96"><title>Tue 16:00 — 4 events</title></rect><rect x="361.0" y="152.0" width="14" height="14" rx="3" fill="#c0caf5" fill-opacity="0.06"><title>Tue 17:00 — 0 events</title></rect><rect x="378.0" y="152.0" width="14" height="14" rx="3" fill="#c0caf5" fill-opacity="0.06"><title>Tue 18:00 — 0 events</title></rect><rect x="395.0" y="152.0" width="14" height="14" rx="3" fill="#c0caf5" fill-opacity="0.06"><title>Tue 19:00 — 0 events</title></rect><rect x="412.0" y="152.0" width="14" height="14" rx="3" fill="#4574b8" fill-opacity="0.96"><title>Tue 20:00 — 3 events</title></rect><rect x="429.0" y="152.0" width="14" height="14" rx="3" fill="#35507a" fill-opacity="0.92"><title>Tue 21:00 — 2 events</title></rect><rect x="446.0" y="152.0" width="14" height="14" rx="3" fill="#35507a" fill-opacity="0.92"><title>Tue 22:00 — 2 events</title></rect><rect x="463.0" y="152.0" width="14" height="14" rx="3" fill="#c0caf5" fill-opacity="0.06"><title>Tue 23:00 — 0 events</title></rect><rect x="72.0" y="169.0" width="14" height="14" rx="3" fill="#4574b8" fill-opacity="0.96"><title>Wed 00:00 — 3 events</title></rect><rect x="89.0" y="169.0" width="14" height="14" rx="3" fill="#4574b8" fill-opacity="0.96"><title>Wed 01:00 — 3 events</title></rect><rect x="106.0" y="169.0" width="14" height="14" rx="3" fill="#c0caf5" fill-opacity="0.06"><title>Wed 02:00 — 0 events</title></rect><rect x="123.0" y="169.0" width="14" height="14" rx="3" fill="#c0caf5" fill-opacity="0.06"><title>Wed 03:00 — 0 events</title></rect><rect x="140.0" y="169.0" width="14" height="14" rx="3" fill="#c0caf5" fill-opacity="0.06"><title>Wed 04:00 — 0 events</title></rect><rect x="157.0" y="169.0" width="14" height="14" rx="3" fill="#c0caf5" fill-opacity="0.06"><title>Wed 05:00 — 0 events</title></rect><rect x="174.0" y="169.0" width="14" height="14" rx="3" fill="#c0caf5" fill-opacity="0.06"><title>Wed 06:00 — 0 events</title></rect><rect x="191.0" y="169.0" width="14" height="14" rx="3" fill="#c0caf5" fill-opacity="0.06"><title>Wed 07:00 — 0 events</title></rect><rect x="208.0" y="169.0" width="14" height="14" rx="3" fill="#c0caf5" fill-opacity="0.06"><title>Wed 08:00 — 0 events</title></rect><rect x="225.0" y="169.0" width="14" height="14" rx="3" fill="#c0caf5" fill-opacity="0.06"><title>Wed 09:00 — 0 events</title></rect><rect x="242.0" y="169.0" width="14" height="14" rx="3" fill="#c0caf5" fill-opacity="0.06"><title>Wed 10:00 — 0 events</title></rect><rect x="259.0" y="169.0" width="14" height="14" rx="3" fill="#c0caf5" fill-opacity="0.06"><title>Wed 11:00 — 0 events</title></rect><rect x="276.0" y="169.0" width="14" height="14" rx="3" fill="#35507a" fill-opacity="0.92"><title>Wed 12:00 — 1 events</title></rect><rect x="293.0" y="169.0" width="14" height="14" rx="3" fill="#4574b8" fill-opacity="0.96"><title>Wed 13:00 — 3 events</title></rect><rect x="310.0" y="169.0" width="14" height="14" rx="3" fill="#c0caf5" fill-opacity="0.06"><title>Wed 14:00 — 0 events</title></rect><rect x="327.0" y="169.0" width="14" height="14" rx="3" fill="#35507a" fill-opacity="0.92"><title>Wed 15:00 — 1 events</title></rect><rect x="344.0" y="169.0" width="14" height="14" rx="3" fill="#c0caf5" fill-opacity="0.06"><title>Wed 16:00 — 0 events</title></rect><rect x="361.0" y="169.0" width="14" height="14" rx="3" fill="#c0caf5" fill-opacity="0.06"><title>Wed 17:00 — 0 events</title></rect><rect x="378.0" y="169.0" width="14" height="14" rx="3" fill="#c0caf5" fill-opacity="0.06"><title>Wed 18:00 — 0 events</title></rect><rect x="395.0" y="169.0" width="14" height="14" rx="3" fill="#c0caf5" fill-opacity="0.06"><title>Wed 19:00 — 0 events</title></rect><rect x="412.0" y="169.0" width="14" height="14" rx="3" fill="#c0caf5" fill-opacity="0.06"><title>Wed 20:00 — 0 events</title></rect><rect x="429.0" y="169.0" width="14" height="14" rx="3" fill="#35507a" fill-opacity="0.92"><title>Wed 21:00 — 2 events</title></rect><rect x="446.0" y="169.0" width="14" height="14" rx="3" fill="#35507a" fill-opacity="0.92"><title>Wed 22:00 — 1 events</title></rect><rect x="463.0" y="169.0" width="14" height="14" rx="3" fill="#c0caf5" fill-opacity="0.06"><title>Wed 23:00 — 0 events</title></rect><rect x="72.0" y="186.0" width="14" height="14" rx="3" fill="#c0caf5" fill-opacity="0.06"><title>Thu 00:00 — 0 events</title></rect><rect x="89.0" y="186.0" width="14" height="14" rx="3" fill="#c0caf5" fill-opacity="0.06"><title>Thu 01:00 — 0 events</title></rect><rect x="106.0" y="186.0" width="14" height="14" rx="3" fill="#c0caf5" fill-opacity="0.06"><title>Thu 02:00 — 0 events</title></rect><rect x="123.0" y="186.0" width="14" height="14" rx="3" fill="#c0caf5" fill-opacity="0.06"><title>Thu 03:00 — 0 events</title></rect><rect x="140.0" y="186.0" width="14" height="14" rx="3" fill="#c0caf5" fill-opacity="0.06"><title>Thu 04:00 — 0 events</title></rect><rect x="157.0" y="186.0" width="14" height="14" rx="3" fill="#c0caf5" fill-opacity="0.06"><title>Thu 05:00 — 0 events</title></rect><rect x="174.0" y="186.0" width="14" height="14" rx="3" fill="#c0caf5" fill-opacity="0.06"><title>Thu 06:00 — 0 events</title></rect><rect x="191.0" y="186.0" width="14" height="14" rx="3" fill="#c0caf5" fill-opacity="0.06"><title>Thu 07:00 — 0 events</title></rect><rect x="208.0" y="186.0" width="14" height="14" rx="3" fill="#c0caf5" fill-opacity="0.06"><title>Thu 08:00 — 0 events</title></rect><rect x="225.0" y="186.0" width="14" height="14" rx="3" fill="#c0caf5" fill-opacity="0.06"><title>Thu 09:00 — 0 events</title></rect><rect x="242.0" y="186.0" width="14" height="14" rx="3" fill="#c0caf5" fill-opacity="0.06"><title>Thu 10:00 — 0 events</title></rect><rect x="259.0" y="186.0" width="14" height="14" rx="3" fill="#c0caf5" fill-opacity="0.06"><title>Thu 11:00 — 0 events</title></rect><rect x="276.0" y="186.0" width="14" height="14" rx="3" fill="#c0caf5" fill-opacity="0.06"><title>Thu 12:00 — 0 events</title></rect><rect x="293.0" y="186.0" width="14" height="14" rx="3" fill="#c0caf5" fill-opacity="0.06"><title>Thu 13:00 — 0 events</title></rect><rect x="310.0" y="186.0" width="14" height="14" rx="3" fill="#c0caf5" fill-opacity="0.06"><title>Thu 14:00 — 0 events</title></rect><rect x="327.0" y="186.0" width="14" height="14" rx="3" fill="#35507a" fill-opacity="0.92"><title>Thu 15:00 — 1 events</title></rect><rect x="344.0" y="186.0" width="14" height="14" rx="3" fill="#c0caf5" fill-opacity="0.06"><title>Thu 16:00 — 0 events</title></rect><rect x="361.0" y="186.0" width="14" height="14" rx="3" fill="#7dcfff" fill-opacity="1.0"><title>Thu 17:00 — 8 events</title></rect><rect x="378.0" y="186.0" width="14" height="14" rx="3" fill="#35507a" fill-opacity="0.92"><title>Thu 18:00 — 1 events</title></rect><rect x="395.0" y="186.0" width="14" height="14" rx="3" fill="#c0caf5" fill-opacity="0.06"><title>Thu 19:00 — 0 events</title></rect><rect x="412.0" y="186.0" width="14" height="14" rx="3" fill="#c0caf5" fill-opacity="0.06"><title>Thu 20:00 — 0 events</title></rect><rect x="429.0" y="186.0" width="14" height="14" rx="3" fill="#c0caf5" fill-opacity="0.06"><title>Thu 21:00 — 0 events</title></rect><rect x="446.0" y="186.0" width="14" height="14" rx="3" fill="#c0caf5" fill-opacity="0.06"><title>Thu 22:00 — 0 events</title></rect><rect x="463.0" y="186.0" width="14" height="14" rx="3" fill="#c0caf5" fill-opacity="0.06"><title>Thu 23:00 — 0 events</title></rect><rect x="72.0" y="203.0" width="14" height="14" rx="3" fill="#c0caf5" fill-opacity="0.06"><title>Fri 00:00 — 0 events</title></rect><rect x="89.0" y="203.0" width="14" height="14" rx="3" fill="#c0caf5" fill-opacity="0.06"><title>Fri 01:00 — 0 events</title></rect><rect x="106.0" y="203.0" width="14" height="14" rx="3" fill="#c0caf5" fill-opacity="0.06"><title>Fri 02:00 — 0 events</title></rect><rect x="123.0" y="203.0" width="14" height="14" rx="3" fill="#c0caf5" fill-opacity="0.06"><title>Fri 03:00 — 0 events</title></rect><rect x="140.0" y="203.0" width="14" height="14" rx="3" fill="#c0caf5" fill-opacity="0.06"><title>Fri 04:00 — 0 events</title></rect><rect x="157.0" y="203.0" width="14" height="14" rx="3" fill="#c0caf5" fill-opacity="0.06"><title>Fri 05:00 — 0 events</title></rect><rect x="174.0" y="203.0" width="14" height="14" rx="3" fill="#c0caf5" fill-opacity="0.06"><title>Fri 06:00 — 0 events</title></rect><rect x="191.0" y="203.0" width="14" height="14" rx="3" fill="#c0caf5" fill-opacity="0.06"><title>Fri 07:00 — 0 events</title></rect><rect x="208.0" y="203.0" width="14" height="14" rx="3" fill="#c0caf5" fill-opacity="0.06"><title>Fri 08:00 — 0 events</title></rect><rect x="225.0" y="203.0" width="14" height="14" rx="3" fill="#c0caf5" fill-opacity="0.06"><title>Fri 09:00 — 0 events</title></rect><rect x="242.0" y="203.0" width="14" height="14" rx="3" fill="#c0caf5" fill-opacity="0.06"><title>Fri 10:00 — 0 events</title></rect><rect x="259.0" y="203.0" width="14" height="14" rx="3" fill="#c0caf5" fill-opacity="0.06"><title>Fri 11:00 — 0 events</title></rect><rect x="276.0" y="203.0" width="14" height="14" rx="3" fill="#c0caf5" fill-opacity="0.06"><title>Fri 12:00 — 0 events</title></rect><rect x="293.0" y="203.0" width="14" height="14" rx="3" fill="#c0caf5" fill-opacity="0.06"><title>Fri 13:00 — 0 events</title></rect><rect x="310.0" y="203.0" width="14" height="14" rx="3" fill="#c0caf5" fill-opacity="0.06"><title>Fri 14:00 — 0 events</title></rect><rect x="327.0" y="203.0" width="14" height="14" rx="3" fill="#c0caf5" fill-opacity="0.06"><title>Fri 15:00 — 0 events</title></rect><rect x="344.0" y="203.0" width="14" height="14" rx="3" fill="#35507a" fill-opacity="0.92"><title>Fri 16:00 — 1 events</title></rect><rect x="361.0" y="203.0" width="14" height="14" rx="3" fill="#c0caf5" fill-opacity="0.06"><title>Fri 17:00 — 0 events</title></rect><rect x="378.0" y="203.0" width="14" height="14" rx="3" fill="#35507a" fill-opacity="0.92"><title>Fri 18:00 — 1 events</title></rect><rect x="395.0" y="203.0" width="14" height="14" rx="3" fill="#c0caf5" fill-opacity="0.06"><title>Fri 19:00 — 0 events</title></rect><rect x="412.0" y="203.0" width="14" height="14" rx="3" fill="#c0caf5" fill-opacity="0.06"><title>Fri 20:00 — 0 events</title></rect><rect x="429.0" y="203.0" width="14" height="14" rx="3" fill="#c0caf5" fill-opacity="0.06"><title>Fri 21:00 — 0 events</title></rect><rect x="446.0" y="203.0" width="14" height="14" rx="3" fill="#c0caf5" fill-opacity="0.06"><title>Fri 22:00 — 0 events</title></rect><rect x="463.0" y="203.0" width="14" height="14" rx="3" fill="#c0caf5" fill-opacity="0.06"><title>Fri 23:00 — 0 events</title></rect><rect x="72.0" y="220.0" width="14" height="14" rx="3" fill="#c0caf5" fill-opacity="0.06"><title>Sat 00:00 — 0 events</title></rect><rect x="89.0" y="220.0" width="14" height="14" rx="3" fill="#c0caf5" fill-opacity="0.06"><title>Sat 01:00 — 0 events</title></rect><rect x="106.0" y="220.0" width="14" height="14" rx="3" fill="#c0caf5" fill-opacity="0.06"><title>Sat 02:00 — 0 events</title></rect><rect x="123.0" y="220.0" width="14" height="14" rx="3" fill="#c0caf5" fill-opacity="0.06"><title>Sat 03:00 — 0 events</title></rect><rect x="140.0" y="220.0" width="14" height="14" rx="3" fill="#c0caf5" fill-opacity="0.06"><title>Sat 04:00 — 0 events</title></rect><rect x="157.0" y="220.0" width="14" height="14" rx="3" fill="#c0caf5" fill-opacity="0.06"><title>Sat 05:00 — 0 events</title></rect><rect x="174.0" y="220.0" width="14" height="14" rx="3" fill="#c0caf5" fill-opacity="0.06"><title>Sat 06:00 — 0 events</title></rect><rect x="191.0" y="220.0" width="14" height="14" rx="3" fill="#c0caf5" fill-opacity="0.06"><title>Sat 07:00 — 0 events</title></rect><rect x="208.0" y="220.0" width="14" height="14" rx="3" fill="#c0caf5" fill-opacity="0.06"><title>Sat 08:00 — 0 events</title></rect><rect x="225.0" y="220.0" width="14" height="14" rx="3" fill="#c0caf5" fill-opacity="0.06"><title>Sat 09:00 — 0 events</title></rect><rect x="242.0" y="220.0" width="14" height="14" rx="3" fill="#c0caf5" fill-opacity="0.06"><title>Sat 10:00 — 0 events</title></rect><rect x="259.0" y="220.0" width="14" height="14" rx="3" fill="#c0caf5" fill-opacity="0.06"><title>Sat 11:00 — 0 events</title></rect><rect x="276.0" y="220.0" width="14" height="14" rx="3" fill="#c0caf5" fill-opacity="0.06"><title>Sat 12:00 — 0 events</title></rect><rect x="293.0" y="220.0" width="14" height="14" rx="3" fill="#c0caf5" fill-opacity="0.06"><title>Sat 13:00 — 0 events</title></rect><rect x="310.0" y="220.0" width="14" height="14" rx="3" fill="#c0caf5" fill-opacity="0.06"><title>Sat 14:00 — 0 events</title></rect><rect x="327.0" y="220.0" width="14" height="14" rx="3" fill="#c0caf5" fill-opacity="0.06"><title>Sat 15:00 — 0 events</title></rect><rect x="344.0" y="220.0" width="14" height="14" rx="3" fill="#c0caf5" fill-opacity="0.06"><title>Sat 16:00 — 0 events</title></rect><rect x="361.0" y="220.0" width="14" height="14" rx="3" fill="#c0caf5" fill-opacity="0.06"><title>Sat 17:00 — 0 events</title></rect><rect x="378.0" y="220.0" width="14" height="14" rx="3" fill="#c0caf5" fill-opacity="0.06"><title>Sat 18:00 — 0 events</title></rect><rect x="395.0" y="220.0" width="14" height="14" rx="3" fill="#c0caf5" fill-opacity="0.06"><title>Sat 19:00 — 0 events</title></rect><rect x="412.0" y="220.0" width="14" height="14" rx="3" fill="#c0caf5" fill-opacity="0.06"><title>Sat 20:00 — 0 events</title></rect><rect x="429.0" y="220.0" width="14" height="14" rx="3" fill="#35507a" fill-opacity="0.92"><title>Sat 21:00 — 2 events</title></rect><rect x="446.0" y="220.0" width="14" height="14" rx="3" fill="#c0caf5" fill-opacity="0.06"><title>Sat 22:00 — 0 events</title></rect><rect x="463.0" y="220.0" width="14" height="14" rx="3" fill="#c0caf5" fill-opacity="0.06"><title>Sat 23:00 — 0 events</title></rect><rect x="72.0" y="237.0" width="14" height="14" rx="3" fill="#c0caf5" fill-opacity="0.06"><title>Sun 00:00 — 0 events</title></rect><rect x="89.0" y="237.0" width="14" height="14" rx="3" fill="#4574b8" fill-opacity="0.96"><title>Sun 01:00 — 4 events</title></rect><rect x="106.0" y="237.0" width="14" height="14" rx="3" fill="#c0caf5" fill-opacity="0.06"><title>Sun 02:00 — 0 events</title></rect><rect x="123.0" y="237.0" width="14" height="14" rx="3" fill="#35507a" fill-opacity="0.92"><title>Sun 03:00 — 1 events</title></rect><rect x="140.0" y="237.0" width="14" height="14" rx="3" fill="#4574b8" fill-opacity="0.96"><title>Sun 04:00 — 5 events</title></rect><rect x="157.0" y="237.0" width="14" height="14" rx="3" fill="#4574b8" fill-opacity="0.96"><title>Sun 05:00 — 4 events</title></rect><rect x="174.0" y="237.0" width="14" height="14" rx="3" fill="#35507a" fill-opacity="0.92"><title>Sun 06:00 — 1 events</title></rect><rect x="191.0" y="237.0" width="14" height="14" rx="3" fill="#c0caf5" fill-opacity="0.06"><title>Sun 07:00 — 0 events</title></rect><rect x="208.0" y="237.0" width="14" height="14" rx="3" fill="#c0caf5" fill-opacity="0.06"><title>Sun 08:00 — 0 events</title></rect><rect x="225.0" y="237.0" width="14" height="14" rx="3" fill="#c0caf5" fill-opacity="0.06"><title>Sun 09:00 — 0 events</title></rect><rect x="242.0" y="237.0" width="14" height="14" rx="3" fill="#c0caf5" fill-opacity="0.06"><title>Sun 10:00 — 0 events</title></rect><rect x="259.0" y="237.0" width="14" height="14" rx="3" fill="#c0caf5" fill-opacity="0.06"><title>Sun 11:00 — 0 events</title></rect><rect x="276.0" y="237.0" width="14" height="14" rx="3" fill="#c0caf5" fill-opacity="0.06"><title>Sun 12:00 — 0 events</title></rect><rect x="293.0" y="237.0" width="14" height="14" rx="3" fill="#35507a" fill-opacity="0.92"><title>Sun 13:00 — 2 events</title></rect><rect x="310.0" y="237.0" width="14" height="14" rx="3" fill="#c0caf5" fill-opacity="0.06"><title>Sun 14:00 — 0 events</title></rect><rect x="327.0" y="237.0" width="14" height="14" rx="3" fill="#4574b8" fill-opacity="0.96"><title>Sun 15:00 — 3 events</title></rect><rect x="344.0" y="237.0" width="14" height="14" rx="3" fill="#c0caf5" fill-opacity="0.06"><title>Sun 16:00 — 0 events</title></rect><rect x="361.0" y="237.0" width="14" height="14" rx="3" fill="#c0caf5" fill-opacity="0.06"><title>Sun 17:00 — 0 events</title></rect><rect x="378.0" y="237.0" width="14" height="14" rx="3" fill="#c0caf5" fill-opacity="0.06"><title>Sun 18:00 — 0 events</title></rect><rect x="395.0" y="237.0" width="14" height="14" rx="3" fill="#35507a" fill-opacity="0.92"><title>Sun 19:00 — 2 events</title></rect><rect x="412.0" y="237.0" width="14" height="14" rx="3" fill="#35507a" fill-opacity="0.92"><title>Sun 20:00 — 1 events</title></rect><rect x="429.0" y="237.0" width="14" height="14" rx="3" fill="#c0caf5" fill-opacity="0.06"><title>Sun 21:00 — 0 events</title></rect><rect x="446.0" y="237.0" width="14" height="14" rx="3" fill="#c0caf5" fill-opacity="0.06"><title>Sun 22:00 — 0 events</title></rect><rect x="463.0" y="237.0" width="14" height="14" rx="3" fill="#c0caf5" fill-opacity="0.06"><title>Sun 23:00 — 0 events</title></rect><text x="60.0" y="280.0" fill="#8a94bd" font-size="11" font-family="-apple-system, BlinkMacSystemFont, 'Segoe UI', Helvetica, Arial, sans-serif">Less</text><rect x="92.0" y="271.0" width="11" height="11" rx="2" fill="#c0caf5" fill-opacity="0.06"/><rect x="107.0" y="271.0" width="11" height="11" rx="2" fill="#35507a" fill-opacity="0.92"/><rect x="122.0" y="271.0" width="11" height="11" rx="2" fill="#4574b8" fill-opacity="0.96"/><rect x="137.0" y="271.0" width="11" height="11" rx="2" fill="#5ea6e8" fill-opacity="1.0"/><rect x="152.0" y="271.0" width="11" height="11" rx="2" fill="#7dcfff" fill-opacity="1.0"/><text x="169.0" y="280.0" fill="#8a94bd" font-size="11" font-family="-apple-system, BlinkMacSystemFont, 'Segoe UI', Helvetica, Arial, sans-serif">More</text><rect x="496" y="91" width="316" height="132" rx="13" fill="#232843" fill-opacity="0.55"/><rect x="496" y="91" width="316" height="132" rx="13" fill="url(#gk-tile)"/><rect x="496.5" y="91.5" width="315" height="131" rx="13" fill="none" stroke="#c0caf5" stroke-opacity="0.14" stroke-width="1"/><rect x="502.5" y="92" width="303" height="1" rx="0.5" fill="#ffffff" fill-opacity="0.14"/><text x="512.0" y="115.0" fill="#8a94bd" font-size="11" font-family="-apple-system, BlinkMacSystemFont, 'Segoe UI', Helvetica, Arial, sans-serif" font-weight="600">BY TIME BLOCK</text><rect x="512" y="123" width="284" height="1" fill="#c0caf5" fill-opacity="0.14"/><text x="512.0" y="147.0" fill="#a9b1d6" font-size="12" font-family="-apple-system, BlinkMacSystemFont, 'Segoe UI', Helvetica, Arial, sans-serif">Night</text><rect x="600" y="139" width="132" height="8" rx="4" fill="#c0caf5" fill-opacity="0.14"/><rect x="600" y="139" width="72.6" height="8" rx="4" fill="#7dcfff"/><text x="762.0" y="147.0" fill="#c0caf5" font-size="14" font-family="-apple-system, BlinkMacSystemFont, 'Segoe UI', Helvetica, Arial, sans-serif" font-weight="600" text-anchor="end">22</text><text x="796.0" y="147.0" fill="#8a94bd" font-size="12" font-family="-apple-system, BlinkMacSystemFont, 'Segoe UI', Helvetica, Arial, sans-serif" text-anchor="end">25%</text><text x="512.0" y="167.0" fill="#a9b1d6" font-size="12" font-family="-apple-system, BlinkMacSystemFont, 'Segoe UI', Helvetica, Arial, sans-serif">Morning</text><rect x="600" y="159" width="132" height="8" rx="4" fill="#c0caf5" fill-opacity="0.14"/><rect x="600" y="159" width="3.3" height="8" rx="4" fill="#7dcfff"/><text x="762.0" y="167.0" fill="#c0caf5" font-size="14" font-family="-apple-system, BlinkMacSystemFont, 'Segoe UI', Helvetica, Arial, sans-serif" font-weight="600" text-anchor="end">1</text><text x="796.0" y="167.0" fill="#8a94bd" font-size="12" font-family="-apple-system, BlinkMacSystemFont, 'Segoe UI', Helvetica, Arial, sans-serif" text-anchor="end">1%</text><text x="512.0" y="187.0" fill="#a9b1d6" font-size="12" font-family="-apple-system, BlinkMacSystemFont, 'Segoe UI', Helvetica, Arial, sans-serif">Afternoon</text><rect x="600" y="179" width="132" height="8" rx="4" fill="#c0caf5" fill-opacity="0.14"/><rect x="600" y="179" width="132" height="8" rx="4" fill="#7dcfff"/><text x="762.0" y="187.0" fill="#c0caf5" font-size="14" font-family="-apple-system, BlinkMacSystemFont, 'Segoe UI', Helvetica, Arial, sans-serif" font-weight="600" text-anchor="end">40</text><text x="796.0" y="187.0" fill="#8a94bd" font-size="12" font-family="-apple-system, BlinkMacSystemFont, 'Segoe UI', Helvetica, Arial, sans-serif" text-anchor="end">46%</text><text x="512.0" y="207.0" fill="#a9b1d6" font-size="12" font-family="-apple-system, BlinkMacSystemFont, 'Segoe UI', Helvetica, Arial, sans-serif">Evening</text><rect x="600" y="199" width="132" height="8" rx="4" fill="#c0caf5" fill-opacity="0.14"/><rect x="600" y="199" width="79.2" height="8" rx="4" fill="#7dcfff"/><text x="762.0" y="207.0" fill="#c0caf5" font-size="14" font-family="-apple-system, BlinkMacSystemFont, 'Segoe UI', Helvetica, Arial, sans-serif" font-weight="600" text-anchor="end">24</text><text x="796.0" y="207.0" fill="#8a94bd" font-size="12" font-family="-apple-system, BlinkMacSystemFont, 'Segoe UI', Helvetica, Arial, sans-serif" text-anchor="end">28%</text><rect x="496" y="237" width="316" height="150" rx="13" fill="#232843" fill-opacity="0.55"/><rect x="496" y="237" width="316" height="150" rx="13" fill="url(#gk-tile)"/><rect x="496.5" y="237.5" width="315" height="149" rx="13" fill="none" stroke="#c0caf5" stroke-opacity="0.14" stroke-width="1"/><rect x="502.5" y="238" width="303" height="1" rx="0.5" fill="#ffffff" fill-opacity="0.14"/><text x="512.0" y="261.0" fill="#8a94bd" font-size="11" font-family="-apple-system, BlinkMacSystemFont, 'Segoe UI', Helvetica, Arial, sans-serif" font-weight="600">EVENT MIX</text><rect x="512" y="269" width="284" height="1" fill="#c0caf5" fill-opacity="0.14"/><text x="512.0" y="293.0" fill="#a9b1d6" font-size="12" font-family="-apple-system, BlinkMacSystemFont, 'Segoe UI', Helvetica, Arial, sans-serif">push</text><rect x="600" y="285" width="132" height="8" rx="4" fill="#c0caf5" fill-opacity="0.14"/><rect x="600" y="285" width="132" height="8" rx="4" fill="#7dcfff"/><text x="762.0" y="293.0" fill="#c0caf5" font-size="14" font-family="-apple-system, BlinkMacSystemFont, 'Segoe UI', Helvetica, Arial, sans-serif" font-weight="600" text-anchor="end">59</text><text x="796.0" y="293.0" fill="#8a94bd" font-size="12" font-family="-apple-system, BlinkMacSystemFont, 'Segoe UI', Helvetica, Arial, sans-serif" text-anchor="end">68%</text><text x="512.0" y="313.5" fill="#a9b1d6" font-size="12" font-family="-apple-system, BlinkMacSystemFont, 'Segoe UI', Helvetica, Arial, sans-serif">create</text><rect x="600" y="305.5" width="132" height="8" rx="4" fill="#c0caf5" fill-opacity="0.14"/><rect x="600" y="305.5" width="29.08" height="8" rx="4" fill="#7dcfff"/><text x="762.0" y="313.5" fill="#c0caf5" font-size="14" font-family="-apple-system, BlinkMacSystemFont, 'Segoe UI', Helvetica, Arial, sans-serif" font-weight="600" text-anchor="end">13</text><text x="796.0" y="313.5" fill="#8a94bd" font-size="12" font-family="-apple-system, BlinkMacSystemFont, 'Segoe UI', Helvetica, Arial, sans-serif" text-anchor="end">15%</text><text x="512.0" y="334.0" fill="#a9b1d6" font-size="12" font-family="-apple-system, BlinkMacSystemFont, 'Segoe UI', Helvetica, Arial, sans-serif">pull request</text><rect x="600" y="326" width="132" height="8" rx="4" fill="#c0caf5" fill-opacity="0.14"/><rect x="600" y="326" width="29.08" height="8" rx="4" fill="#7dcfff"/><text x="762.0" y="334.0" fill="#c0caf5" font-size="14" font-family="-apple-system, BlinkMacSystemFont, 'Segoe UI', Helvetica, Arial, sans-serif" font-weight="600" text-anchor="end">13</text><text x="796.0" y="334.0" fill="#8a94bd" font-size="12" font-family="-apple-system, BlinkMacSystemFont, 'Segoe UI', Helvetica, Arial, sans-serif" text-anchor="end">15%</text><text x="512.0" y="354.5" fill="#a9b1d6" font-size="12" font-family="-apple-system, BlinkMacSystemFont, 'Segoe UI', Helvetica, Arial, sans-serif">comment</text><rect x="600" y="346.5" width="132" height="8" rx="4" fill="#c0caf5" fill-opacity="0.14"/><rect x="600" y="346.5" width="4.47" height="8" rx="4" fill="#7dcfff"/><text x="762.0" y="354.5" fill="#c0caf5" font-size="14" font-family="-apple-system, BlinkMacSystemFont, 'Segoe UI', Helvetica, Arial, sans-serif" font-weight="600" text-anchor="end">2</text><text x="796.0" y="354.5" fill="#8a94bd" font-size="12" font-family="-apple-system, BlinkMacSystemFont, 'Segoe UI', Helvetica, Arial, sans-serif" text-anchor="end">2%</text></svg>