<svg xmlns="http://www.w3.org/2000/svg" width="840" height="366" viewBox="0 0 840 366"><defs><linearGradient id="gk-sheen" x1="0" y1="0" x2="0" y2="1"><stop offset="0" stop-color="#ffffff" stop-opacity="0.20"/><stop offset="0.06" stop-color="#ffffff" stop-opacity="0.06"/><stop offset="0.5" stop-color="#ffffff" stop-opacity="0"/><stop offset="1" stop-color="#05060e" stop-opacity="0.10"/></linearGradient><linearGradient id="gk-tile" x1="0" y1="0" x2="0" y2="1"><stop offset="0" stop-color="#ffffff" stop-opacity="0.08"/><stop offset="1" stop-color="#05060e" stop-opacity="0.22"/></linearGradient><linearGradient id="gk-rim" x1="0" y1="0" x2="0" y2="1"><stop offset="0" stop-color="#ffffff" stop-opacity="0.45"/><stop offset="0.4" stop-color="#c0caf5" stop-opacity="0.12"/><stop offset="1" stop-color="#c0caf5" stop-opacity="0.05"/></linearGradient><filter id="gk-shadow" x="-40%" y="-40%" width="180%" height="180%"><feDropShadow dx="0" dy="10" stdDeviation="16" flood-color="#03040c" flood-opacity="0.55"/></filter><filter id="gk-blob" x="-80%" y="-80%" width="260%" height="260%"><feGaussianBlur stdDeviation="34"/></filter><filter id="gk-grain" x="0%" y="0%" width="100%" height="100%"><feTurbulence type="fractalNoise" baseFrequency="0.9" numOctaves="2" stitchTiles="stitch" result="n"/><feColorMatrix in="n" type="matrix" values="0 0 0 0 1  0 0 0 0 1  0 0 0 0 1  0 0 0 0.04 0"/></filter></defs><clipPath id="gk-clip"><rect x="12" y="12" width="816" height="342" rx="18"/></clipPath><rect x="12" y="12" width="816" height="342" rx="18" fill="#0c0e18" filter="url(#gk-shadow)"/><g clip-path="url(#gk-clip)" filter="url(#gk-blob)"><ellipse cx="77.28" cy="46.2" rx="212.04" ry="173.87" fill="#7aa2f7" fill-opacity="0.3"/><ellipse cx="795.36" cy="340.32" rx="239.4" ry="196.31" fill="#bb9af7" fill-opacity="0.26"/><ellipse cx="517.92" cy="-15.36" rx="153.9" ry="126.2" fill="#7dcfff" fill-opacity="0.2"/></g><rect x="12" y="12" width="816" height="342" rx="18" fill="#1b1e2e" fill-opacity="0.74"/><rect x="12" y="12" width="816" height="342" rx="18" fill="url(#gk-sheen)"/><g clip-path="url(#gk-clip)"><rect x="12" y="12" width="816" height="342" filter="url(#gk-grain)"/></g><rect x="12.5" y="12.5" width="815" height="341" rx="18" fill="none" stroke="url(#gk-rim)" stroke-width="1"/><rect x="30" y="13.5" width="780" height="1" fill="#ffffff" fill-opacity="0.0"/><text x="24" y="33" fill="#8a94bd" font-size="10" font-family="-apple-system, BlinkMacSystemFont, 'Segoe UI', Helvetica, Arial, sans-serif" font-weight="600" letter-spacing="1.2" text-transform="uppercase">GitHub Signals · Last 12 Months</text><text x="24" y="57" fill="#c0caf5" font-size="17" font-family="-apple-system, BlinkMacSystemFont, 'Segoe UI', Helvetica, Arial, sans-serif" font-weight="700">Builder Scorecard</text><linearGradient id="gk-ribbon" x1="0" y1="0" x2="1" y2="0"><stop offset="0" stop-color="#7aa2f7" stop-opacity="0.95"/><stop offset="0.55" stop-color="#7dcfff" stop-opacity="0.85"/><stop offset="1" stop-color="#7dcfff" stop-opacity="0"/></linearGradient><rect x="24" y="68" width="792" height="3" rx="1.5" fill="url(#gk-ribbon)"/><rect x="717" y="41" width="99" height="22" rx="7" fill="#8a94bd" fill-opacity="0.16"/><g transform="translate(726,46) scale(0.5)" fill="none" stroke="#a9b1d6" stroke-width="2" stroke-linecap="round" stroke-linejoin="round"><circle cx="12" cy="12" r="9"/><path d="M3 12h18M12 3c2.6 2.4 2.6 15.6 0 18M12 3c-2.6 2.4-2.6 15.6 0 18"/></g><text x="742" y="55.4" fill="#a9b1d6" font-size="10" font-family="-apple-system, BlinkMacSystemFont, 'Segoe UI', Helvetica, Arial, sans-serif" font-weight="500">GitHub API</text><rect x="24" y="90" width="187.5" height="120" rx="13" fill="#232843" fill-opacity="0.55"/><rect x="24" y="90" width="187.5" height="120" rx="13" fill="url(#gk-tile)"/><rect x="24.5" y="90.5" width="186.5" height="119" rx="13" fill="none" stroke="#c0caf5" stroke-opacity="0.14" stroke-width="1"/><rect x="30.5" y="91" width="174.5" height="1" rx="0.5" fill="#ffffff" fill-opacity="0.14"/><g transform="translate(40,114) scale(0.67)" fill="#8a94bd"><path d="M12.5 2c.6 2.8 3.5 4 3.5 7.5a4 4 0 0 1-8 .3c0-1.4.5-2.4 1.2-3.2.1 1 .7 1.7 1.5 1.8-.7-2.3.6-4.6 1.8-6.4z"/></g><text x="40" y="153" fill="#c0caf5" font-size="29" font-family="-apple-system, BlinkMacSystemFont, 'Segoe UI', Helvetica, Arial, sans-serif" font-weight="700">8,110</text><text x="40" y="176" fill="#a9b1d6" font-size="11.5" font-family="-apple-system, BlinkMacSystemFont, 'Segoe UI', Helvetica, Arial, sans-serif" font-weight="600">12mo Contributions</text><text x="40" y="193" fill="#8a94bd" font-size="10" font-family="-apple-system, BlinkMacSystemFont, 'Segoe UI', Helvetica, Arial, sans-serif">contribution calendar</text><rect x="225.5" y="90" width="187.5" height="120" rx="13" fill="#232843" fill-opacity="0.55"/><rect x="225.5" y="90" width="187.5" height="120" rx="13" fill="url(#gk-tile)"/><rect x="226" y="90.5" width="186.5" height="119" rx="13" fill="none" stroke="#c0caf5" stroke-opacity="0.14" stroke-width="1"/><rect x="232" y="91" width="174.5" height="1" rx="0.5" fill="#ffffff" fill-opacity="0.14"/><g transform="translate(241.5,114) scale(0.67)" fill="none" stroke="#8a94bd" stroke-width="2" stroke-linecap="round" stroke-linejoin="round"><rect x="3.5" y="5" width="17" height="15.5" rx="2.2"/><path d="M3.5 9.5h17M8 3v4M16 3v4"/></g><text x="241.5" y="153" fill="#c0caf5" font-size="29" font-family="-apple-system, BlinkMacSystemFont, 'Segoe UI', Helvetica, Arial, sans-serif" font-weight="700">288</text><text x="241.5" y="176" fill="#a9b1d6" font-size="11.5" font-family="-apple-system, BlinkMacSystemFont, 'Segoe UI', Helvetica, Arial, sans-serif" font-weight="600">Active Days</text><text x="241.5" y="193" fill="#8a94bd" font-size="10" font-family="-apple-system, BlinkMacSystemFont, 'Segoe UI', Helvetica, Arial, sans-serif">days shipped in last 12mo</text><rect x="427" y="90" width="187.5" height="120" rx="13" fill="#232843" fill-opacity="0.55"/><rect x="427" y="90" width="187.5" height="120" rx="13" fill="url(#gk-tile)"/><rect x="427.5" y="90.5" width="186.5" height="119" rx="13" fill="none" stroke="#c0caf5" stroke-opacity="0.14" stroke-width="1"/><rect x="433.5" y="91" width="174.5" height="1" rx="0.5" fill="#ffffff" fill-opacity="0.14"/><g transform="translate(443,114) scale(0.67)" fill="none" stroke="#8a94bd" stroke-width="2" stroke-linecap="round" stroke-linejoin="round"><circle cx="12" cy="12" r="3.4"/><path d="M2 12h5.2M16.8 12H22"/></g><text x="443" y="153" fill="#c0caf5" font-size="29" font-family="-apple-system, BlinkMacSystemFont, 'Segoe UI', Helvetica, Arial, sans-serif" font-weight="700">1</text><text x="443" y="176" fill="#a9b1d6" font-size="11.5" font-family="-apple-system, BlinkMacSystemFont, 'Segoe UI', Helvetica, Arial, sans-serif" font-weight="600">Active Repos (7d)</text><text x="443" y="193" fill="#8a94bd" font-size="10" font-family="-apple-system, BlinkMacSystemFont, 'Segoe UI', Helvetica, Arial, sans-serif">pushed in last week</text><rect x="628.5" y="90" width="187.5" height="120" rx="13" fill="#232843" fill-opacity="0.55"/><rect x="628.5" y="90" width="187.5" height="120" rx="13" fill="url(#gk-tile)"/><rect x="629" y="90.5" width="186.5" height="119" rx="13" fill="none" stroke="#c0caf5" stroke-opacity="0.14" stroke-width="1"/><rect x="635" y="91" width="174.5" height="1" rx="0.5" fill="#ffffff" fill-opacity="0.14"/><g transform="translate(644.5,114) scale(0.67)" fill="none" stroke="#8a94bd" stroke-width="2" stroke-linecap="round" stroke-linejoin="round"><circle cx="12" cy="12" r="9"/><path d="M8 12.4l2.6 2.6L16.4 9"/></g><circle cx="784" cy="140" r="19" fill="none" stroke="#c0caf5" stroke-opacity="0.16" stroke-width="5"/><circle cx="784" cy="140" r="19" fill="none" stroke="#ff9e64" stroke-width="5" stroke-linecap="round" stroke-dasharray="28.51 90.87" transform="rotate(-90 784 140)"/><text x="784" y="145" fill="#c0caf5" font-size="10" font-family="-apple-system, BlinkMacSystemFont, 'Segoe UI', Helvetica, Arial, sans-serif" font-weight="700" text-anchor="middle">23.9%</text><text x="644.5" y="176" fill="#a9b1d6" font-size="11.5" font-family="-apple-system, BlinkMacSystemFont, 'Segoe UI', Helvetica, Arial, sans-serif" font-weight="600">CI Coverage</text><text x="644.5" y="193" fill="#8a94bd" font-size="10" font-family="-apple-system, BlinkMacSystemFont, 'Segoe UI', Helvetica, Arial, sans-serif">repos with pipelines</text><rect x="24" y="224" width="187.5" height="120" rx="13" fill="#232843" fill-opacity="0.55"/><rect x="24" y="224" width="187.5" height="120" rx="13" fill="url(#gk-tile)"/><rect x="24.5" y="224.5" width="186.5" height="119" rx="13" fill="none" stroke="#c0caf5" stroke-opacity="0.14" stroke-width="1"/><rect x="30.5" y="225" width="174.5" height="1" rx="0.5" fill="#ffffff" fill-opacity="0.14"/><g transform="translate(40,248) scale(0.67)" fill="#8a94bd"><path d="M13 2L4 14h6.5L9 22l9.5-12.5H12L13 2z"/></g><text x="40" y="287" fill="#c0caf5" font-size="29" font-family="-apple-system, BlinkMacSystemFont, 'Segoe UI', Helvetica, Arial, sans-serif" font-weight="700">74</text><text x="40" y="310" fill="#a9b1d6" font-size="11.5" font-family="-apple-system, BlinkMacSystemFont, 'Segoe UI', Helvetica, Arial, sans-serif" font-weight="600">CI Pipelines</text><text x="40" y="327" fill="#8a94bd" font-size="10" font-family="-apple-system, BlinkMacSystemFont, 'Segoe UI', Helvetica, Arial, sans-serif">workflow files across repos</text><rect x="225.5" y="224" width="187.5" height="120" rx="13" fill="#232843" fill-opacity="0.55"/><rect x="225.5" y="224" width="187.5" height="120" rx="13" fill="url(#gk-tile)"/><rect x="226" y="224.5" width="186.5" height="119" rx="13" fill="none" stroke="#c0caf5" stroke-opacity="0.14" stroke-width="1"/><rect x="232" y="225" width="174.5" height="1" rx="0.5" fill="#ffffff" fill-opacity="0.14"/><g transform="translate(241.5,248) scale(0.67)" ><path d="M3.5 11.5V4.5a1 1 0 0 1 1-1h7l8.5 8.5a1.4 1.4 0 0 1 0 2l-6.5 6.5a1.4 1.4 0 0 1-2 0l-8-8z" fill="none" stroke="#8a94bd" stroke-width="2" stroke-linejoin="round"/><circle cx="7.5" cy="7.5" r="1.5" fill="#8a94bd"/></g><text x="241.5" y="287" fill="#c0caf5" font-size="29" font-family="-apple-system, BlinkMacSystemFont, 'Segoe UI', Helvetica, Arial, sans-serif" font-weight="700">0</text><text x="241.5" y="310" fill="#a9b1d6" font-size="11.5" font-family="-apple-system, BlinkMacSystemFont, 'Segoe UI', Helvetica, Arial, sans-serif" font-weight="600">Releases (30d)</text><text x="241.5" y="327" fill="#8a94bd" font-size="10" font-family="-apple-system, BlinkMacSystemFont, 'Segoe UI', Helvetica, Arial, sans-serif">published in last month</text><rect x="427" y="224" width="187.5" height="120" rx="13" fill="#232843" fill-opacity="0.55"/><rect x="427" y="224" width="187.5" height="120" rx="13" fill="url(#gk-tile)"/><rect x="427.5" y="224.5" width="186.5" height="119" rx="13" fill="none" stroke="#c0caf5" stroke-opacity="0.14" stroke-width="1"/><rect x="433.5" y="225" width="174.5" height="1" rx="0.5" fill="#ffffff" fill-opacity="0.14"/><g transform="translate(443,248) scale(0.67)" fill="none" stroke="#8a94bd" stroke-width="2" stroke-linecap="round" stroke-linejoin="round"><path d="M9 8l-4 4 4 4M15 8l4 4-4 4"/></g><text x="443" y="287" fill="#c0caf5" font-size="29" font-family="-apple-system, BlinkMacSystemFont, 'Segoe UI', Helvetica, Arial, sans-serif" font-weight="700">49.9%</text><text x="443" y="310" fill="#a9b1d6" font-size="11.5" font-family="-apple-system, BlinkMacSystemFont, 'Segoe UI', Helvetica, Arial, sans-serif" font-weight="600">Primary Language</text><text x="443" y="327" fill="#8a94bd" font-size="10" font-family="-apple-system, BlinkMacSystemFont, 'Segoe UI', Helvetica, Arial, sans-serif">share of code by bytes</text><rect x="628.5" y="224" width="187.5" height="120" rx="13" fill="#232843" fill-opacity="0.55"/><rect x="628.5" y="224" width="187.5" height="120" rx="13" fill="url(#gk-tile)"/><rect x="629" y="224.5" width="186.5" height="119" rx="13" fill="none" stroke="#c0caf5" stroke-opacity="0.14" stroke-width="1"/><rect x="635" y="225" width="174.5" height="1" rx="0.5" fill="#ffffff" fill-opacity="0.14"/><g transform="translate(644.5,248) scale(0.67)" fill="none" stroke="#8a94bd" stroke-width="2" stroke-linecap="round" stroke-linejoin="round"><circle cx="12" cy="12" r="9"/><path d="M12 7v5.2l3.4 1.8"/></g><text x="644.5" y="287" fill="#c0caf5" font-size="29" font-family="-apple-system, BlinkMacSystemFont, 'Segoe UI', Helvetica, Arial, sans-serif" font-weight="700">203d</text><text x="644.5" y="310" fill="#a9b1d6" font-size="11.5" font-family="-apple-system, BlinkMacSystemFont, 'Segoe UI', Helvetica, Arial, sans-serif" font-weight="600">Median Repo Freshness</text><text x="644.5" y="327" fill="#8a94bd" font-size="10" font-family="-apple-system, BlinkMacSystemFont, 'Segoe UI', Helvetica, Arial, sans-serif">median days since last push</text></svg>