<svg xmlns="http://www.w3.org/2000/svg" width="840" height="257" viewBox="0 0 840 257"><defs><linearGradient id="gk-sheen" x1="0" y1="0" x2="0" y2="1"><stop offset="0" stop-color="#ffffff" stop-opacity="0.20"/><stop offset="0.06" stop-color="#ffffff" stop-opacity="0.06"/><stop offset="0.5" stop-color="#ffffff" stop-opacity="0"/><stop offset="1" stop-color="#05060e" stop-opacity="0.10"/></linearGradient><linearGradient id="gk-tile" x1="0" y1="0" x2="0" y2="1"><stop offset="0" stop-color="#ffffff" stop-opacity="0.08"/><stop offset="1" stop-color="#05060e" stop-opacity="0.22"/></linearGradient><linearGradient id="gk-rim" x1="0" y1="0" x2="0" y2="1"><stop offset="0" stop-color="#ffffff" stop-opacity="0.45"/><stop offset="0.4" stop-color="#c0caf5" stop-opacity="0.12"/><stop offset="1" stop-color="#c0caf5" stop-opacity="0.05"/></linearGradient><filter id="gk-shadow" x="-40%" y="-40%" width="180%" height="180%"><feDropShadow dx="0" dy="10" stdDeviation="16" flood-color="#03040c" flood-opacity="0.55"/></filter><filter id="gk-blob" x="-80%" y="-80%" width="260%" height="260%"><feGaussianBlur stdDeviation="34"/></filter><filter id="gk-grain" x="0%" y="0%" width="100%" height="100%"><feTurbulence type="fractalNoise" baseFrequency="0.9" numOctaves="2" stitchTiles="stitch" result="n"/><feColorMatrix in="n" type="matrix" values="0 0 0 0 1  0 0 0 0 1  0 0 0 0 1  0 0 0 0.04 0"/></filter></defs><clipPath id="gk-clip"><rect x="12" y="12" width="816" height="233" rx="18"/></clipPath><rect x="12" y="12" width="816" height="233" rx="18" fill="#0c0e18" filter="url(#gk-shadow)"/><g clip-path="url(#gk-clip)" filter="url(#gk-blob)"><ellipse cx="77.28" cy="35.3" rx="144.46" ry="118.46" fill="#7aa2f7" fill-opacity="0.3"/><ellipse cx="795.36" cy="235.68" rx="163.1" ry="133.74" fill="#bb9af7" fill-opacity="0.26"/><ellipse cx="517.92" cy="-6.64" rx="104.85" ry="85.98" fill="#7dcfff" fill-opacity="0.2"/></g><rect x="12" y="12" width="816" height="233" rx="18" fill="#1b1e2e" fill-opacity="0.74"/><rect x="12" y="12" width="816" height="233" rx="18" fill="url(#gk-sheen)"/><g clip-path="url(#gk-clip)"><rect x="12" y="12" width="816" height="233" filter="url(#gk-grain)"/></g><rect x="12.5" y="12.5" width="815" height="232" rx="18" fill="none" stroke="url(#gk-rim)" stroke-width="1"/><rect x="30" y="13.5" width="780" height="1" fill="#ffffff" fill-opacity="0.0"/><text x="28" y="46" fill="#8a94bd" font-size="11" font-family="-apple-system, BlinkMacSystemFont, 'Segoe UI', Helvetica, Arial, sans-serif" font-weight="600" letter-spacing="1.2">GITHUB SIGNALS · LAST 12 MONTHS</text><text x="28" y="70" fill="#c0caf5" font-size="20" font-family="-apple-system, BlinkMacSystemFont, 'Segoe UI', Helvetica, Arial, sans-serif" font-weight="600">Builder Scorecard</text><text x="812" y="68" fill="#8a94bd" font-size="12" font-family="-apple-system, BlinkMacSystemFont, 'Segoe UI', Helvetica, Arial, sans-serif" font-weight="400" text-anchor="end">GitHub API</text><rect x="28" y="82" width="784" height="1" fill="#c0caf5" fill-opacity="0.14"/><text x="28" y="141" fill="#c0caf5" font-size="46" font-family="-apple-system, BlinkMacSystemFont, 'Segoe UI', Helvetica, Arial, sans-serif" font-weight="600">8,139</text><text x="28" y="165" fill="#a9b1d6" font-size="14" font-family="-apple-system, BlinkMacSystemFont, 'Segoe UI', Helvetica, Arial, sans-serif" font-weight="400">contributions</text><text x="28" y="183" fill="#8a94bd" font-size="12" font-family="-apple-system, BlinkMacSystemFont, 'Segoe UI', Helvetica, Arial, sans-serif" font-weight="400">last 12 months</text><rect x="272" y="89" width="1" height="138" fill="#8a94bd" fill-opacity="0.16"/><rect x="296" y="83" width="164" height="66" rx="13" fill="#232843" fill-opacity="0.55"/><rect x="296" y="83" width="164" height="66" rx="13" fill="url(#gk-tile)"/><rect x="296.5" y="83.5" width="163" height="65" rx="13" fill="none" stroke="#c0caf5" stroke-opacity="0.14" stroke-width="1"/><rect x="302.5" y="84" width="151" height="1" rx="0.5" fill="#ffffff" fill-opacity="0.14"/><g transform="translate(312,93) scale(0.667)" fill="none" stroke="#8a94bd" stroke-width="2.25" stroke-linecap="round" stroke-linejoin="round"><path d="M8.5 14.5A2.5 2.5 0 0 0 11 12c0-1.38-.5-2-1-3-1.072-2.143-.224-4.054 2-6 .5 2.5 2 4.9 4 6.5 2 1.6 3 3.5 3 5.5a7 7 0 1 1-14 0c0-1.153.433-2.294 1-3a2.5 2.5 0 0 0 2.5 2.5z"/></g><text x="334" y="106" fill="#8a94bd" font-size="12" font-family="-apple-system, BlinkMacSystemFont, 'Segoe UI', Helvetica, Arial, sans-serif" font-weight="400">Active Days</text><text x="312" y="139" fill="#c0caf5" font-size="26" font-family="-apple-system, BlinkMacSystemFont, 'Segoe UI', Helvetica, Arial, sans-serif" font-weight="600">286</text><rect x="472" y="83" width="164" height="66" rx="13" fill="#232843" fill-opacity="0.55"/><rect x="472" y="83" width="164" height="66" rx="13" fill="url(#gk-tile)"/><rect x="472.5" y="83.5" width="163" height="65" rx="13" fill="none" stroke="#c0caf5" stroke-opacity="0.14" stroke-width="1"/><rect x="478.5" y="84" width="151" height="1" rx="0.5" fill="#ffffff" fill-opacity="0.14"/><g transform="translate(488,93) scale(0.667)" fill="none" stroke="#8a94bd" stroke-width="2.25" stroke-linecap="round" stroke-linejoin="round"><circle cx="12" cy="12" r="3"/><line x1="3" x2="9" y1="12" y2="12"/><line x1="15" x2="21" y1="12" y2="12"/></g><text x="510" y="106" fill="#8a94bd" font-size="12" font-family="-apple-system, BlinkMacSystemFont, 'Segoe UI', Helvetica, Arial, sans-serif" font-weight="400">Active Repos (7d)</text><text x="488" y="139" fill="#c0caf5" font-size="26" font-family="-apple-system, BlinkMacSystemFont, 'Segoe UI', Helvetica, Arial, sans-serif" font-weight="600">2</text><rect x="648" y="83" width="164" height="66" rx="13" fill="#232843" fill-opacity="0.55"/><rect x="648" y="83" width="164" height="66" rx="13" fill="url(#gk-tile)"/><rect x="648.5" y="83.5" width="163" height="65" rx="13" fill="none" stroke="#c0caf5" stroke-opacity="0.14" stroke-width="1"/><rect x="654.5" y="84" width="151" height="1" rx="0.5" fill="#ffffff" fill-opacity="0.14"/><circle cx="680" cy="116" r="24" fill="none" stroke="#c0caf5" stroke-opacity="0.16" stroke-width="6"/><circle cx="680" cy="116" r="24" fill="none" stroke="#7dcfff" stroke-width="6" stroke-linecap="round" stroke-dasharray="35.48 115.31" transform="rotate(-90 680 116)"/><text x="680" y="121" fill="#c0caf5" font-size="20" font-family="-apple-system, BlinkMacSystemFont, 'Segoe UI', Helvetica, Arial, sans-serif" font-weight="600" text-anchor="middle">24%</text><text x="712" y="114" fill="#a9b1d6" font-size="12" font-family="-apple-system, BlinkMacSystemFont, 'Segoe UI', Helvetica, Arial, sans-serif" font-weight="400">CI coverage</text><text x="712" y="130" fill="#8a94bd" font-size="12" font-family="-apple-system, BlinkMacSystemFont, 'Segoe UI', Helvetica, Arial, sans-serif" font-weight="400">of public repos</text><rect x="296" y="161" width="164" height="66" rx="13" fill="#232843" fill-opacity="0.55"/><rect x="296" y="161" width="164" height="66" rx="13" fill="url(#gk-tile)"/><rect x="296.5" y="161.5" width="163" height="65" rx="13" fill="none" stroke="#c0caf5" stroke-opacity="0.14" stroke-width="1"/><rect x="302.5" y="162" width="151" height="1" rx="0.5" fill="#ffffff" fill-opacity="0.14"/><g transform="translate(312,171) scale(0.667)" fill="none" stroke="#8a94bd" stroke-width="2.25" stroke-linecap="round" stroke-linejoin="round"><rect width="8" height="8" x="3" y="3" rx="2"/><path d="M7 11v4a2 2 0 0 0 2 2h4"/><rect width="8" height="8" x="13" y="13" rx="2"/></g><text x="334" y="184" fill="#8a94bd" font-size="12" font-family="-apple-system, BlinkMacSystemFont, 'Segoe UI', Helvetica, Arial, sans-serif" font-weight="400">CI Pipelines</text><text x="312" y="217" fill="#c0caf5" font-size="26" font-family="-apple-system, BlinkMacSystemFont, 'Segoe UI', Helvetica, Arial, sans-serif" font-weight="600">74</text><rect x="472" y="161" width="164" height="66" rx="13" fill="#232843" fill-opacity="0.55"/><rect x="472" y="161" width="164" height="66" rx="13" fill="url(#gk-tile)"/><rect x="472.5" y="161.5" width="163" height="65" rx="13" fill="none" stroke="#c0caf5" stroke-opacity="0.14" stroke-width="1"/><rect x="478.5" y="162" width="151" height="1" rx="0.5" fill="#ffffff" fill-opacity="0.14"/><g transform="translate(488,171) scale(0.667)" fill="none" stroke="#8a94bd" stroke-width="2.25" stroke-linecap="round" stroke-linejoin="round"><path d="M12.586 2.586A2 2 0 0 0 11.172 2H4a2 2 0 0 0-2 2v7.172a2 2 0 0 0 .586 1.414l8.704 8.704a2.426 2.426 0 0 0 3.42 0l6.58-6.58a2.426 2.426 0 0 0 0-3.42z"/><circle cx="7.5" cy="7.5" r="1.5"/></g><text x="510" y="184" fill="#8a94bd" font-size="12" font-family="-apple-system, BlinkMacSystemFont, 'Segoe UI', Helvetica, Arial, sans-serif" font-weight="400">Releases (30d)</text><text x="488" y="217" fill="#c0caf5" font-size="26" font-family="-apple-system, BlinkMacSystemFont, 'Segoe UI', Helvetica, Arial, sans-serif" font-weight="600">0</text><rect x="648" y="161" width="164" height="66" rx="13" fill="#232843" fill-opacity="0.55"/><rect x="648" y="161" width="164" height="66" rx="13" fill="url(#gk-tile)"/><rect x="648.5" y="161.5" width="163" height="65" rx="13" fill="none" stroke="#c0caf5" stroke-opacity="0.14" stroke-width="1"/><rect x="654.5" y="162" width="151" height="1" rx="0.5" fill="#ffffff" fill-opacity="0.14"/><g transform="translate(664,171) scale(0.667)" fill="none" stroke="#8a94bd" stroke-width="2.25" stroke-linecap="round" stroke-linejoin="round"><path d="m16 18 6-6-6-6"/><path d="m8 6-6 6 6 6"/></g><text x="686" y="184" fill="#8a94bd" font-size="12" font-family="-apple-system, BlinkMacSystemFont, 'Segoe UI', Helvetica, Arial, sans-serif" font-weight="400">Python</text><text x="664" y="217" fill="#c0caf5" font-size="26" font-family="-apple-system, BlinkMacSystemFont, 'Segoe UI', Helvetica, Arial, sans-serif" font-weight="600">50.2%</text></svg>