<svg xmlns="http://www.w3.org/2000/svg" width="840" height="326" viewBox="0 0 840 326"><defs><linearGradient id="gk-sheen" x1="0" y1="0" x2="0" y2="1"><stop offset="0" stop-color="#ffffff" stop-opacity="0.20"/><stop offset="0.06" stop-color="#ffffff" stop-opacity="0.06"/><stop offset="0.5" stop-color="#ffffff" stop-opacity="0"/><stop offset="1" stop-color="#05060e" stop-opacity="0.10"/></linearGradient><linearGradient id="gk-tile" x1="0" y1="0" x2="0" y2="1"><stop offset="0" stop-color="#ffffff" stop-opacity="0.08"/><stop offset="1" stop-color="#05060e" stop-opacity="0.22"/></linearGradient><linearGradient id="gk-rim" x1="0" y1="0" x2="0" y2="1"><stop offset="0" stop-color="#ffffff" stop-opacity="0.45"/><stop offset="0.4" stop-color="#c0caf5" stop-opacity="0.12"/><stop offset="1" stop-color="#c0caf5" stop-opacity="0.05"/></linearGradient><filter id="gk-shadow" x="-40%" y="-40%" width="180%" height="180%"><feDropShadow dx="0" dy="10" stdDeviation="16" flood-color="#03040c" flood-opacity="0.55"/></filter><filter id="gk-blob" x="-80%" y="-80%" width="260%" height="260%"><feGaussianBlur stdDeviation="34"/></filter><filter id="gk-grain" x="0%" y="0%" width="100%" height="100%"><feTurbulence type="fractalNoise" baseFrequency="0.9" numOctaves="2" stitchTiles="stitch" result="n"/><feColorMatrix in="n" type="matrix" values="0 0 0 0 1  0 0 0 0 1  0 0 0 0 1  0 0 0 0.04 0"/></filter></defs><clipPath id="gk-clip"><rect x="12" y="12" width="816" height="302" rx="18"/></clipPath><rect x="12" y="12" width="816" height="302" rx="18" fill="#0c0e18" filter="url(#gk-shadow)"/><g clip-path="url(#gk-clip)" filter="url(#gk-blob)"><ellipse cx="77.28" cy="42.2" rx="187.24" ry="153.54" fill="#7aa2f7" fill-opacity="0.3"/><ellipse cx="795.36" cy="301.92" rx="211.4" ry="173.35" fill="#bb9af7" fill-opacity="0.26"/><ellipse cx="517.92" cy="-12.16" rx="135.9" ry="111.44" fill="#7dcfff" fill-opacity="0.2"/></g><rect x="12" y="12" width="816" height="302" rx="18" fill="#1b1e2e" fill-opacity="0.74"/><rect x="12" y="12" width="816" height="302" rx="18" fill="url(#gk-sheen)"/><g clip-path="url(#gk-clip)"><rect x="12" y="12" width="816" height="302" filter="url(#gk-grain)"/></g><rect x="12.5" y="12.5" width="815" height="301" rx="18" fill="none" stroke="url(#gk-rim)" stroke-width="1"/><rect x="30" y="13.5" width="780" height="1" fill="#ffffff" fill-opacity="0.0"/><g transform="translate(30,30) scale(0.67)" fill="none" stroke="#7dcfff" stroke-width="2" stroke-linecap="round" stroke-linejoin="round"><path d="M9 8l-4 4 4 4M15 8l4 4-4 4"/></g><text x="54" y="44" fill="#c0caf5" font-size="16" font-family="-apple-system, BlinkMacSystemFont, 'Segoe UI', Helvetica, Arial, sans-serif" font-weight="700">Currently Working On</text><text x="810" y="44" fill="#a9b1d6" font-size="11" font-family="-apple-system, BlinkMacSystemFont, 'Segoe UI', Helvetica, Arial, sans-serif" text-anchor="end">pushed in the last 7 days</text><linearGradient id="gk-ribbon" x1="0" y1="0" x2="1" y2="0"><stop offset="0" stop-color="#7aa2f7" stop-opacity="0.95"/><stop offset="0.55" stop-color="#7dcfff" stop-opacity="0.85"/><stop offset="1" stop-color="#7dcfff" stop-opacity="0"/></linearGradient><rect x="30" y="58" width="780" height="3" rx="1.5" fill="url(#gk-ribbon)"/><rect x="28" y="78" width="784" height="48" rx="13" fill="#232843" fill-opacity="0.55"/><rect x="28" y="78" width="784" height="48" rx="13" fill="url(#gk-tile)"/><rect x="28.5" y="78.5" width="783" height="47" rx="13" fill="none" stroke="#c0caf5" stroke-opacity="0.14" stroke-width="1"/><rect x="34.5" y="79" width="771" height="1" rx="0.5" fill="#ffffff" fill-opacity="0.14"/><circle cx="49" cy="95" r="4.5" fill="#3572A5"/><g transform="translate(64,88) scale(0.5)" ><rect x="5" y="10.5" width="14" height="9.5" rx="2.2" fill="#8a94bd"/><path d="M8 10.5V8a4 4 0 0 1 8 0v2.5" fill="none" stroke="#8a94bd" stroke-width="2"/></g><text x="82" y="99" fill="#c0caf5" font-size="13.5" font-family="-apple-system, BlinkMacSystemFont, 'Segoe UI', Helvetica, Arial, sans-serif" font-weight="700">repo-surface-scout</text><text x="794" y="99" fill="#c0caf5" font-size="12.5" font-family="-apple-system, BlinkMacSystemFont, 'Segoe UI', Helvetica, Arial, sans-serif" font-weight="700" text-anchor="end">just now</text><text x="794" y="116" fill="#8a94bd" font-size="10.5" font-family="-apple-system, BlinkMacSystemFont, 'Segoe UI', Helvetica, Arial, sans-serif" text-anchor="end">Python</text><rect x="28" y="136" width="784" height="48" rx="13" fill="#232843" fill-opacity="0.55"/><rect x="28" y="136" width="784" height="48" rx="13" fill="url(#gk-tile)"/><rect x="28.5" y="136.5" width="783" height="47" rx="13" fill="none" stroke="#c0caf5" stroke-opacity="0.14" stroke-width="1"/><rect x="34.5" y="137" width="771" height="1" rx="0.5" fill="#ffffff" fill-opacity="0.14"/><circle cx="49" cy="153" r="4.5" fill="#3572A5"/><g transform="translate(64,146) scale(0.5)" ><rect x="5" y="10.5" width="14" height="9.5" rx="2.2" fill="#8a94bd"/><path d="M8 10.5V8a4 4 0 0 1 8 0v2.5" fill="none" stroke="#8a94bd" stroke-width="2"/></g><text x="82" y="157" fill="#c0caf5" font-size="13.5" font-family="-apple-system, BlinkMacSystemFont, 'Segoe UI', Helvetica, Arial, sans-serif" font-weight="700">semantic-tdd</text><text x="794" y="157" fill="#c0caf5" font-size="12.5" font-family="-apple-system, BlinkMacSystemFont, 'Segoe UI', Helvetica, Arial, sans-serif" font-weight="700" text-anchor="end">just now</text><text x="794" y="174" fill="#8a94bd" font-size="10.5" font-family="-apple-system, BlinkMacSystemFont, 'Segoe UI', Helvetica, Arial, sans-serif" text-anchor="end">Python</text><rect x="28" y="194" width="784" height="48" rx="13" fill="#232843" fill-opacity="0.55"/><rect x="28" y="194" width="784" height="48" rx="13" fill="url(#gk-tile)"/><rect x="28.5" y="194.5" width="783" height="47" rx="13" fill="none" stroke="#c0caf5" stroke-opacity="0.14" stroke-width="1"/><rect x="34.5" y="195" width="771" height="1" rx="0.5" fill="#ffffff" fill-opacity="0.14"/><circle cx="49" cy="211" r="4.5" fill="#3572A5"/><a href="https://github.com/jguida941/raspberry-pi-smart-thermostat"><text x="64" y="215" fill="#c0caf5" font-size="13.5" font-family="-apple-system, BlinkMacSystemFont, 'Segoe UI', Helvetica, Arial, sans-serif" font-weight="700">raspberry-pi-smart-thermostat</text></a><text x="64" y="232" fill="#a9b1d6" font-size="11.5" font-family="-apple-system, BlinkMacSystemFont, 'Segoe UI', Helvetica, Arial, sans-serif">Update README.md</text><text x="794" y="215" fill="#c0caf5" font-size="12.5" font-family="-apple-system, BlinkMacSystemFont, 'Segoe UI', Helvetica, Arial, sans-serif" font-weight="700" text-anchor="end">4h ago</text><text x="794" y="232" fill="#8a94bd" font-size="10.5" font-family="-apple-system, BlinkMacSystemFont, 'Segoe UI', Helvetica, Arial, sans-serif" text-anchor="end">Python</text><rect x="28" y="252" width="784" height="48" rx="13" fill="#232843" fill-opacity="0.55"/><rect x="28" y="252" width="784" height="48" rx="13" fill="url(#gk-tile)"/><rect x="28.5" y="252.5" width="783" height="47" rx="13" fill="none" stroke="#c0caf5" stroke-opacity="0.14" stroke-width="1"/><rect x="34.5" y="253" width="771" height="1" rx="0.5" fill="#ffffff" fill-opacity="0.14"/><circle cx="49" cy="269" r="4.5" fill="#3572A5"/><g transform="translate(64,262) scale(0.5)" ><rect x="5" y="10.5" width="14" height="9.5" rx="2.2" fill="#8a94bd"/><path d="M8 10.5V8a4 4 0 0 1 8 0v2.5" fill="none" stroke="#8a94bd" stroke-width="2"/></g><text x="82" y="273" fill="#c0caf5" font-size="13.5" font-family="-apple-system, BlinkMacSystemFont, 'Segoe UI', Helvetica, Arial, sans-serif" font-weight="700">pi_adapter</text><text x="794" y="273" fill="#c0caf5" font-size="12.5" font-family="-apple-system, BlinkMacSystemFont, 'Segoe UI', Helvetica, Arial, sans-serif" font-weight="700" text-anchor="end">19h ago</text><text x="794" y="290" fill="#8a94bd" font-size="10.5" font-family="-apple-system, BlinkMacSystemFont, 'Segoe UI', Helvetica, Arial, sans-serif" text-anchor="end">Python</text></svg>