<svg xmlns="http://www.w3.org/2000/svg" width="840" height="837" viewBox="0 0 840 837"><defs><linearGradient id="gk-sheen" x1="0" y1="0" x2="0" y2="1"><stop offset="0" stop-color="#ffffff" stop-opacity="0.20"/><stop offset="0.06" stop-color="#ffffff" stop-opacity="0.06"/><stop offset="0.5" stop-color="#ffffff" stop-opacity="0"/><stop offset="1" stop-color="#05060e" stop-opacity="0.10"/></linearGradient><linearGradient id="gk-tile" x1="0" y1="0" x2="0" y2="1"><stop offset="0" stop-color="#ffffff" stop-opacity="0.08"/><stop offset="1" stop-color="#05060e" stop-opacity="0.22"/></linearGradient><linearGradient id="gk-rim" x1="0" y1="0" x2="0" y2="1"><stop offset="0" stop-color="#ffffff" stop-opacity="0.45"/><stop offset="0.4" stop-color="#c0caf5" stop-opacity="0.12"/><stop offset="1" stop-color="#c0caf5" stop-opacity="0.05"/></linearGradient><filter id="gk-shadow" x="-40%" y="-40%" width="180%" height="180%"><feDropShadow dx="0" dy="10" stdDeviation="16" flood-color="#03040c" flood-opacity="0.55"/></filter><filter id="gk-blob" x="-80%" y="-80%" width="260%" height="260%"><feGaussianBlur stdDeviation="34"/></filter><filter id="gk-grain" x="0%" y="0%" width="100%" height="100%"><feTurbulence type="fractalNoise" baseFrequency="0.9" numOctaves="2" stitchTiles="stitch" result="n"/><feColorMatrix in="n" type="matrix" values="0 0 0 0 1  0 0 0 0 1  0 0 0 0 1  0 0 0 0.04 0"/></filter></defs><clipPath id="gk-clip"><rect x="12" y="12" width="816" height="813" rx="18"/></clipPath><rect x="12" y="12" width="816" height="813" rx="18" fill="#0c0e18" filter="url(#gk-shadow)"/><g clip-path="url(#gk-clip)" filter="url(#gk-blob)"><ellipse cx="77.28" cy="93.3" rx="504.06" ry="413.33" fill="#7aa2f7" fill-opacity="0.3"/><ellipse cx="795.36" cy="792.48" rx="569.1" ry="466.66" fill="#bb9af7" fill-opacity="0.26"/><ellipse cx="517.92" cy="-53.04" rx="365.85" ry="300" fill="#7dcfff" fill-opacity="0.2"/></g><rect x="12" y="12" width="816" height="813" rx="18" fill="#1b1e2e" fill-opacity="0.74"/><rect x="12" y="12" width="816" height="813" rx="18" fill="url(#gk-sheen)"/><g clip-path="url(#gk-clip)"><rect x="12" y="12" width="816" height="813" filter="url(#gk-grain)"/></g><rect x="12.5" y="12.5" width="815" height="812" rx="18" fill="none" stroke="url(#gk-rim)" stroke-width="1"/><rect x="30" y="13.5" width="780" height="1" fill="#ffffff" fill-opacity="0.0"/><text x="28" y="46" fill="#8a94bd" font-size="11" font-family="-apple-system, BlinkMacSystemFont, 'Segoe UI', Helvetica, Arial, sans-serif" font-weight="600" letter-spacing="1.2">ACTIVE DEVELOPMENT</text><text x="28" y="70" fill="#c0caf5" font-size="20" font-family="-apple-system, BlinkMacSystemFont, 'Segoe UI', Helvetica, Arial, sans-serif" font-weight="600">Currently Working On</text><text x="812" y="68" fill="#8a94bd" font-size="12" font-family="-apple-system, BlinkMacSystemFont, 'Segoe UI', Helvetica, Arial, sans-serif" font-weight="400" text-anchor="end">Last 7 days</text><rect x="28" y="82" width="784" height="1" fill="#c0caf5" fill-opacity="0.14"/><text x="28" y="141" fill="#c0caf5" font-size="46" font-family="-apple-system, BlinkMacSystemFont, 'Segoe UI', Helvetica, Arial, sans-serif" font-weight="600">13</text><text x="28" y="165" fill="#a9b1d6" font-size="14" font-family="-apple-system, BlinkMacSystemFont, 'Segoe UI', Helvetica, Arial, sans-serif" font-weight="400">active repos</text><text x="28" y="183" fill="#8a94bd" font-size="12" font-family="-apple-system, BlinkMacSystemFont, 'Segoe UI', Helvetica, Arial, sans-serif" font-weight="400">last 7 days</text><rect x="228" y="89" width="1" height="726" fill="#8a94bd" fill-opacity="0.16"/><rect x="252" y="87" width="560" height="50" rx="13" fill="#232843" fill-opacity="0.55"/><rect x="252" y="87" width="560" height="50" rx="13" fill="url(#gk-tile)"/><rect x="252.5" y="87.5" width="559" height="49" rx="13" fill="none" stroke="#c0caf5" stroke-opacity="0.14" stroke-width="1"/><rect x="258.5" y="88" width="547" height="1" rx="0.5" fill="#ffffff" fill-opacity="0.14"/><circle cx="270" cy="104" r="4.5" fill="#3572A5"/><g transform="translate(284,97) scale(0.5)" fill="none" stroke="#8a94bd" stroke-width="3" stroke-linecap="round" stroke-linejoin="round"><rect width="18" height="11" x="3" y="11" rx="2" ry="2"/><path d="M7 11V7a5 5 0 0 1 10 0v4"/></g><text x="301" y="108" fill="#c0caf5" font-size="14" font-family="-apple-system, BlinkMacSystemFont, 'Segoe UI', Helvetica, Arial, sans-serif" font-weight="400">semantic-tdd</text><text x="796" y="108" fill="#c0caf5" font-size="12" font-family="-apple-system, BlinkMacSystemFont, 'Segoe UI', Helvetica, Arial, sans-serif" font-weight="400" text-anchor="end">22h ago</text><text x="796" y="125" fill="#8a94bd" font-size="12" font-family="-apple-system, BlinkMacSystemFont, 'Segoe UI', Helvetica, Arial, sans-serif" font-weight="400" text-anchor="end">Python</text><rect x="252" y="143" width="560" height="50" rx="13" fill="#232843" fill-opacity="0.55"/><rect x="252" y="143" width="560" height="50" rx="13" fill="url(#gk-tile)"/><rect x="252.5" y="143.5" width="559" height="49" rx="13" fill="none" stroke="#c0caf5" stroke-opacity="0.14" stroke-width="1"/><rect x="258.5" y="144" width="547" height="1" rx="0.5" fill="#ffffff" fill-opacity="0.14"/><g transform="translate(284,153) scale(0.5)" fill="none" stroke="#8a94bd" stroke-width="3" stroke-linecap="round" stroke-linejoin="round"><rect width="18" height="11" x="3" y="11" rx="2" ry="2"/><path d="M7 11V7a5 5 0 0 1 10 0v4"/></g><text x="301" y="164" fill="#c0caf5" font-size="14" font-family="-apple-system, BlinkMacSystemFont, 'Segoe UI', Helvetica, Arial, sans-serif" font-weight="400">command-line-cheatsheat-odin</text><text x="796" y="164" fill="#c0caf5" font-size="12" font-family="-apple-system, BlinkMacSystemFont, 'Segoe UI', Helvetica, Arial, sans-serif" font-weight="400" text-anchor="end">1d ago</text><text x="796" y="181" fill="#8a94bd" font-size="12" font-family="-apple-system, BlinkMacSystemFont, 'Segoe UI', Helvetica, Arial, sans-serif" font-weight="400" text-anchor="end">—</text><rect x="252" y="199" width="560" height="50" rx="13" fill="#232843" fill-opacity="0.55"/><rect x="252" y="199" width="560" height="50" rx="13" fill="url(#gk-tile)"/><rect x="252.5" y="199.5" width="559" height="49" rx="13" fill="none" stroke="#c0caf5" stroke-opacity="0.14" stroke-width="1"/><rect x="258.5" y="200" width="547" height="1" rx="0.5" fill="#ffffff" fill-opacity="0.14"/><circle cx="270" cy="216" r="4.5" fill="#3572A5"/><g transform="translate(284,209) scale(0.5)" fill="none" stroke="#8a94bd" stroke-width="3" stroke-linecap="round" stroke-linejoin="round"><rect width="18" height="11" x="3" y="11" rx="2" ry="2"/><path d="M7 11V7a5 5 0 0 1 10 0v4"/></g><text x="301" y="220" fill="#c0caf5" font-size="14" font-family="-apple-system, BlinkMacSystemFont, 'Segoe UI', Helvetica, Arial, sans-serif" font-weight="400">translation-proof-adapter</text><text x="796" y="220" fill="#c0caf5" font-size="12" font-family="-apple-system, BlinkMacSystemFont, 'Segoe UI', Helvetica, Arial, sans-serif" font-weight="400" text-anchor="end">1d ago</text><text x="796" y="237" fill="#8a94bd" font-size="12" font-family="-apple-system, BlinkMacSystemFont, 'Segoe UI', Helvetica, Arial, sans-serif" font-weight="400" text-anchor="end">Python</text><rect x="252" y="255" width="560" height="50" rx="13" fill="#232843" fill-opacity="0.55"/><rect x="252" y="255" width="560" height="50" rx="13" fill="url(#gk-tile)"/><rect x="252.5" y="255.5" width="559" height="49" rx="13" fill="none" stroke="#c0caf5" stroke-opacity="0.14" stroke-width="1"/><rect x="258.5" y="256" width="547" height="1" rx="0.5" fill="#ffffff" fill-opacity="0.14"/><circle cx="270" cy="272" r="4.5" fill="#8b8b8b"/><g transform="translate(284,265) scale(0.5)" fill="none" stroke="#8a94bd" stroke-width="3" stroke-linecap="round" stroke-linejoin="round"><rect width="18" height="11" x="3" y="11" rx="2" ry="2"/><path d="M7 11V7a5 5 0 0 1 10 0v4"/></g><text x="301" y="276" fill="#c0caf5" font-size="14" font-family="-apple-system, BlinkMacSystemFont, 'Segoe UI', Helvetica, Arial, sans-serif" font-weight="400">tpa-orchestration</text><text x="796" y="276" fill="#c0caf5" font-size="12" font-family="-apple-system, BlinkMacSystemFont, 'Segoe UI', Helvetica, Arial, sans-serif" font-weight="400" text-anchor="end">2d ago</text><text x="796" y="293" fill="#8a94bd" font-size="12" font-family="-apple-system, BlinkMacSystemFont, 'Segoe UI', Helvetica, Arial, sans-serif" font-weight="400" text-anchor="end">Assembly</text><rect x="252" y="311" width="560" height="50" rx="13" fill="#232843" fill-opacity="0.55"/><rect x="252" y="311" width="560" height="50" rx="13" fill="url(#gk-tile)"/><rect x="252.5" y="311.5" width="559" height="49" rx="13" fill="none" stroke="#c0caf5" stroke-opacity="0.14" stroke-width="1"/><rect x="258.5" y="312" width="547" height="1" rx="0.5" fill="#ffffff" fill-opacity="0.14"/><circle cx="270" cy="328" r="4.5" fill="#3572A5"/><g transform="translate(284,321) scale(0.5)" fill="none" stroke="#8a94bd" stroke-width="3" stroke-linecap="round" stroke-linejoin="round"><rect width="18" height="11" x="3" y="11" rx="2" ry="2"/><path d="M7 11V7a5 5 0 0 1 10 0v4"/></g><text x="301" y="332" fill="#c0caf5" font-size="14" font-family="-apple-system, BlinkMacSystemFont, 'Segoe UI', Helvetica, Arial, sans-serif" font-weight="400">repo-onboarding-guard</text><text x="796" y="332" fill="#c0caf5" font-size="12" font-family="-apple-system, BlinkMacSystemFont, 'Segoe UI', Helvetica, Arial, sans-serif" font-weight="400" text-anchor="end">2d ago</text><text x="796" y="349" fill="#8a94bd" font-size="12" font-family="-apple-system, BlinkMacSystemFont, 'Segoe UI', Helvetica, Arial, sans-serif" font-weight="400" text-anchor="end">Python</text><rect x="252" y="367" width="560" height="50" rx="13" fill="#232843" fill-opacity="0.55"/><rect x="252" y="367" width="560" height="50" rx="13" fill="url(#gk-tile)"/><rect x="252.5" y="367.5" width="559" height="49" rx="13" fill="none" stroke="#c0caf5" stroke-opacity="0.14" stroke-width="1"/><rect x="258.5" y="368" width="547" height="1" rx="0.5" fill="#ffffff" fill-opacity="0.14"/><circle cx="270" cy="384" r="4.5" fill="#3572A5"/><g transform="translate(284,377) scale(0.5)" fill="none" stroke="#8a94bd" stroke-width="3" stroke-linecap="round" stroke-linejoin="round"><rect width="18" height="11" x="3" y="11" rx="2" ry="2"/><path d="M7 11V7a5 5 0 0 1 10 0v4"/></g><text x="301" y="388" fill="#c0caf5" font-size="14" font-family="-apple-system, BlinkMacSystemFont, 'Segoe UI', Helvetica, Arial, sans-serif" font-weight="400">ai-review-packager</text><text x="796" y="388" fill="#c0caf5" font-size="12" font-family="-apple-system, BlinkMacSystemFont, 'Segoe UI', Helvetica, Arial, sans-serif" font-weight="400" text-anchor="end">4d ago</text><text x="796" y="405" fill="#8a94bd" font-size="12" font-family="-apple-system, BlinkMacSystemFont, 'Segoe UI', Helvetica, Arial, sans-serif" font-weight="400" text-anchor="end">Python</text><rect x="252" y="423" width="560" height="50" rx="13" fill="#232843" fill-opacity="0.55"/><rect x="252" y="423" width="560" height="50" rx="13" fill="url(#gk-tile)"/><rect x="252.5" y="423.5" width="559" height="49" rx="13" fill="none" stroke="#c0caf5" stroke-opacity="0.14" stroke-width="1"/><rect x="258.5" y="424" width="547" height="1" rx="0.5" fill="#ffffff" fill-opacity="0.14"/><circle cx="270" cy="440" r="4.5" fill="#3572A5"/><g transform="translate(284,433) scale(0.5)" fill="none" stroke="#8a94bd" stroke-width="3" stroke-linecap="round" stroke-linejoin="round"><rect width="18" height="11" x="3" y="11" rx="2" ry="2"/><path d="M7 11V7a5 5 0 0 1 10 0v4"/></g><text x="301" y="444" fill="#c0caf5" font-size="14" font-family="-apple-system, BlinkMacSystemFont, 'Segoe UI', Helvetica, Arial, sans-serif" font-weight="400">guardir</text><text x="796" y="444" fill="#c0caf5" font-size="12" font-family="-apple-system, BlinkMacSystemFont, 'Segoe UI', Helvetica, Arial, sans-serif" font-weight="400" text-anchor="end">4d ago</text><text x="796" y="461" fill="#8a94bd" font-size="12" font-family="-apple-system, BlinkMacSystemFont, 'Segoe UI', Helvetica, Arial, sans-serif" font-weight="400" text-anchor="end">Python</text><rect x="252" y="479" width="560" height="50" rx="13" fill="#232843" fill-opacity="0.55"/><rect x="252" y="479" width="560" height="50" rx="13" fill="url(#gk-tile)"/><rect x="252.5" y="479.5" width="559" height="49" rx="13" fill="none" stroke="#c0caf5" stroke-opacity="0.14" stroke-width="1"/><rect x="258.5" y="480" width="547" height="1" rx="0.5" fill="#ffffff" fill-opacity="0.14"/><circle cx="270" cy="496" r="4.5" fill="#3572A5"/><g transform="translate(284,489) scale(0.5)" fill="none" stroke="#8a94bd" stroke-width="3" stroke-linecap="round" stroke-linejoin="round"><rect width="18" height="11" x="3" y="11" rx="2" ry="2"/><path d="M7 11V7a5 5 0 0 1 10 0v4"/></g><text x="301" y="500" fill="#c0caf5" font-size="14" font-family="-apple-system, BlinkMacSystemFont, 'Segoe UI', Helvetica, Arial, sans-serif" font-weight="400">repo-surface-scout</text><text x="796" y="500" fill="#c0caf5" font-size="12" font-family="-apple-system, BlinkMacSystemFont, 'Segoe UI', Helvetica, Arial, sans-serif" font-weight="400" text-anchor="end">4d ago</text><text x="796" y="517" fill="#8a94bd" font-size="12" font-family="-apple-system, BlinkMacSystemFont, 'Segoe UI', Helvetica, Arial, sans-serif" font-weight="400" text-anchor="end">Python</text><rect x="252" y="535" width="560" height="50" rx="13" fill="#232843" fill-opacity="0.55"/><rect x="252" y="535" width="560" height="50" rx="13" fill="url(#gk-tile)"/><rect x="252.5" y="535.5" width="559" height="49" rx="13" fill="none" stroke="#c0caf5" stroke-opacity="0.14" stroke-width="1"/><rect x="258.5" y="536" width="547" height="1" rx="0.5" fill="#ffffff" fill-opacity="0.14"/><circle cx="270" cy="552" r="4.5" fill="#701516"/><a href="https://github.com/jguida941/homebrew-voiceterm"><text x="284" y="556" fill="#c0caf5" font-size="14" font-family="-apple-system, BlinkMacSystemFont, 'Segoe UI', Helvetica, Arial, sans-serif" font-weight="400">homebrew-voiceterm</text></a><text x="284" y="573" fill="#a9b1d6" font-size="12" font-family="-apple-system, BlinkMacSystemFont, 'Segoe UI', Helvetica, Arial, sans-serif" font-weight="400">Update to v1.2.4</text><text x="796" y="556" fill="#c0caf5" font-size="12" font-family="-apple-system, BlinkMacSystemFont, 'Segoe UI', Helvetica, Arial, sans-serif" font-weight="400" text-anchor="end">4d ago</text><text x="796" y="573" fill="#8a94bd" font-size="12" font-family="-apple-system, BlinkMacSystemFont, 'Segoe UI', Helvetica, Arial, sans-serif" font-weight="400" text-anchor="end">Ruby</text><rect x="252" y="591" width="560" height="50" rx="13" fill="#232843" fill-opacity="0.55"/><rect x="252" y="591" width="560" height="50" rx="13" fill="url(#gk-tile)"/><rect x="252.5" y="591.5" width="559" height="49" rx="13" fill="none" stroke="#c0caf5" stroke-opacity="0.14" stroke-width="1"/><rect x="258.5" y="592" width="547" height="1" rx="0.5" fill="#ffffff" fill-opacity="0.14"/><circle cx="270" cy="608" r="4.5" fill="#dea584"/><a href="https://github.com/jguida941/voiceterm"><text x="284" y="612" fill="#c0caf5" font-size="14" font-family="-apple-system, BlinkMacSystemFont, 'Segoe UI', Helvetica, Arial, sans-serif" font-weight="400">voiceterm</text></a><text x="284" y="629" fill="#a9b1d6" font-size="12" font-family="-apple-system, BlinkMacSystemFont, 'Segoe UI', Helvetica, Arial, sans-serif" font-weight="400">release: v1.2.4 — whisper noise-artifact fixes</text><text x="796" y="612" fill="#c0caf5" font-size="12" font-family="-apple-system, BlinkMacSystemFont, 'Segoe UI', Helvetica, Arial, sans-serif" font-weight="400" text-anchor="end">4d ago</text><text x="796" y="629" fill="#8a94bd" font-size="12" font-family="-apple-system, BlinkMacSystemFont, 'Segoe UI', Helvetica, Arial, sans-serif" font-weight="400" text-anchor="end">Rust</text><rect x="252" y="647" width="560" height="50" rx="13" fill="#232843" fill-opacity="0.55"/><rect x="252" y="647" width="560" height="50" rx="13" fill="url(#gk-tile)"/><rect x="252.5" y="647.5" width="559" height="49" rx="13" fill="none" stroke="#c0caf5" stroke-opacity="0.14" stroke-width="1"/><rect x="258.5" y="648" width="547" height="1" rx="0.5" fill="#ffffff" fill-opacity="0.14"/><circle cx="270" cy="664" r="4.5" fill="#8b8b8b"/><a href="https://github.com/jguida941/assembly-notes"><text x="284" y="668" fill="#c0caf5" font-size="14" font-family="-apple-system, BlinkMacSystemFont, 'Segoe UI', Helvetica, Arial, sans-serif" font-weight="400">assembly-notes</text></a><text x="284" y="685" fill="#a9b1d6" font-size="12" font-family="-apple-system, BlinkMacSystemFont, 'Segoe UI', Helvetica, Arial, sans-serif" font-weight="400">Remove assignment2_2.cpp</text><text x="796" y="668" fill="#c0caf5" font-size="12" font-family="-apple-system, BlinkMacSystemFont, 'Segoe UI', Helvetica, Arial, sans-serif" font-weight="400" text-anchor="end">4d ago</text><text x="796" y="685" fill="#8a94bd" font-size="12" font-family="-apple-system, BlinkMacSystemFont, 'Segoe UI', Helvetica, Arial, sans-serif" font-weight="400" text-anchor="end">Assembly</text><rect x="252" y="703" width="560" height="50" rx="13" fill="#232843" fill-opacity="0.55"/><rect x="252" y="703" width="560" height="50" rx="13" fill="url(#gk-tile)"/><rect x="252.5" y="703.5" width="559" height="49" rx="13" fill="none" stroke="#c0caf5" stroke-opacity="0.14" stroke-width="1"/><rect x="258.5" y="704" width="547" height="1" rx="0.5" fill="#ffffff" fill-opacity="0.14"/><circle cx="270" cy="720" r="4.5" fill="#3572A5"/><g transform="translate(284,713) scale(0.5)" fill="none" stroke="#8a94bd" stroke-width="3" stroke-linecap="round" stroke-linejoin="round"><rect width="18" height="11" x="3" y="11" rx="2" ry="2"/><path d="M7 11V7a5 5 0 0 1 10 0v4"/></g><text x="301" y="724" fill="#c0caf5" font-size="14" font-family="-apple-system, BlinkMacSystemFont, 'Segoe UI', Helvetica, Arial, sans-serif" font-weight="400">pi_adapter</text><text x="796" y="724" fill="#c0caf5" font-size="12" font-family="-apple-system, BlinkMacSystemFont, 'Segoe UI', Helvetica, Arial, sans-serif" font-weight="400" text-anchor="end">6d ago</text><text x="796" y="741" fill="#8a94bd" font-size="12" font-family="-apple-system, BlinkMacSystemFont, 'Segoe UI', Helvetica, Arial, sans-serif" font-weight="400" text-anchor="end">Python</text><rect x="252" y="759" width="560" height="50" rx="13" fill="#232843" fill-opacity="0.55"/><rect x="252" y="759" width="560" height="50" rx="13" fill="url(#gk-tile)"/><rect x="252.5" y="759.5" width="559" height="49" rx="13" fill="none" stroke="#c0caf5" stroke-opacity="0.14" stroke-width="1"/><rect x="258.5" y="760" width="547" height="1" rx="0.5" fill="#ffffff" fill-opacity="0.14"/><circle cx="270" cy="776" r="4.5" fill="#3572A5"/><g transform="translate(284,769) scale(0.5)" fill="none" stroke="#8a94bd" stroke-width="3" stroke-linecap="round" stroke-linejoin="round"><rect width="18" height="11" x="3" y="11" rx="2" ry="2"/><path d="M7 11V7a5 5 0 0 1 10 0v4"/></g><text x="301" y="780" fill="#c0caf5" font-size="14" font-family="-apple-system, BlinkMacSystemFont, 'Segoe UI', Helvetica, Arial, sans-serif" font-weight="400">repo-evidence-ledger</text><text x="796" y="780" fill="#c0caf5" font-size="12" font-family="-apple-system, BlinkMacSystemFont, 'Segoe UI', Helvetica, Arial, sans-serif" font-weight="400" text-anchor="end">6d ago</text><text x="796" y="797" fill="#8a94bd" font-size="12" font-family="-apple-system, BlinkMacSystemFont, 'Segoe UI', Helvetica, Arial, sans-serif" font-weight="400" text-anchor="end">Python</text></svg>