<svg xmlns="http://www.w3.org/2000/svg" width="840" height="313" viewBox="0 0 840 313"><defs><linearGradient id="gk-sheen" x1="0" y1="0" x2="0" y2="1"><stop offset="0" stop-color="#ffffff" stop-opacity="0.20"/><stop offset="0.06" stop-color="#ffffff" stop-opacity="0.06"/><stop offset="0.5" stop-color="#ffffff" stop-opacity="0"/><stop offset="1" stop-color="#05060e" stop-opacity="0.10"/></linearGradient><linearGradient id="gk-tile" x1="0" y1="0" x2="0" y2="1"><stop offset="0" stop-color="#ffffff" stop-opacity="0.08"/><stop offset="1" stop-color="#05060e" stop-opacity="0.22"/></linearGradient><linearGradient id="gk-rim" x1="0" y1="0" x2="0" y2="1"><stop offset="0" stop-color="#ffffff" stop-opacity="0.45"/><stop offset="0.4" stop-color="#c0caf5" stop-opacity="0.12"/><stop offset="1" stop-color="#c0caf5" stop-opacity="0.05"/></linearGradient><filter id="gk-shadow" x="-40%" y="-40%" width="180%" height="180%"><feDropShadow dx="0" dy="10" stdDeviation="16" flood-color="#03040c" flood-opacity="0.55"/></filter><filter id="gk-blob" x="-80%" y="-80%" width="260%" height="260%"><feGaussianBlur stdDeviation="34"/></filter><filter id="gk-grain" x="0%" y="0%" width="100%" height="100%"><feTurbulence type="fractalNoise" baseFrequency="0.9" numOctaves="2" stitchTiles="stitch" result="n"/><feColorMatrix in="n" type="matrix" values="0 0 0 0 1  0 0 0 0 1  0 0 0 0 1  0 0 0 0.04 0"/></filter></defs><clipPath id="gk-clip"><rect x="12" y="12" width="816" height="289" rx="18"/></clipPath><rect x="12" y="12" width="816" height="289" rx="18" fill="#0c0e18" filter="url(#gk-shadow)"/><g clip-path="url(#gk-clip)" filter="url(#gk-blob)"><ellipse cx="77.28" cy="40.9" rx="179.18" ry="146.93" fill="#7aa2f7" fill-opacity="0.3"/><ellipse cx="795.36" cy="289.44" rx="202.3" ry="165.89" fill="#bb9af7" fill-opacity="0.26"/><ellipse cx="517.92" cy="-11.12" rx="130.05" ry="106.64" fill="#7dcfff" fill-opacity="0.2"/></g><rect x="12" y="12" width="816" height="289" rx="18" fill="#1b1e2e" fill-opacity="0.74"/><rect x="12" y="12" width="816" height="289" rx="18" fill="url(#gk-sheen)"/><g clip-path="url(#gk-clip)"><rect x="12" y="12" width="816" height="289" filter="url(#gk-grain)"/></g><rect x="12.5" y="12.5" width="815" height="288" rx="18" fill="none" stroke="url(#gk-rim)" stroke-width="1"/><rect x="30" y="13.5" width="780" height="1" fill="#ffffff" fill-opacity="0.0"/><text x="28" y="46" fill="#8a94bd" font-size="11" font-family="-apple-system, BlinkMacSystemFont, 'Segoe UI', Helvetica, Arial, sans-serif" font-weight="600" letter-spacing="1.2">WORKFLOW ANALYTICS</text><text x="28" y="70" fill="#c0caf5" font-size="20" font-family="-apple-system, BlinkMacSystemFont, 'Segoe UI', Helvetica, Arial, sans-serif" font-weight="600">Engineering Cadence</text><text x="812" y="68" fill="#8a94bd" font-size="12" font-family="-apple-system, BlinkMacSystemFont, 'Segoe UI', Helvetica, Arial, sans-serif" font-weight="400" text-anchor="end">automation-first</text><rect x="28" y="82" width="784" height="1" fill="#c0caf5" fill-opacity="0.14"/><text x="28" y="141" fill="#c0caf5" font-size="46" font-family="-apple-system, BlinkMacSystemFont, 'Segoe UI', Helvetica, Arial, sans-serif" font-weight="600">303</text><text x="28" y="165" fill="#a9b1d6" font-size="14" font-family="-apple-system, BlinkMacSystemFont, 'Segoe UI', Helvetica, Arial, sans-serif" font-weight="400">active days</text><text x="28" y="183" fill="#8a94bd" font-size="12" font-family="-apple-system, BlinkMacSystemFont, 'Segoe UI', Helvetica, Arial, sans-serif" font-weight="400">last 12 months</text><rect x="228" y="89" width="1" height="90" fill="#8a94bd" fill-opacity="0.16"/><text x="812" y="111" fill="#8a94bd" font-size="12" font-family="-apple-system, BlinkMacSystemFont, 'Segoe UI', Helvetica, Arial, sans-serif" font-weight="400" text-anchor="end">weekly commits</text><linearGradient id="eng-spark" x1="0" y1="0" x2="0" y2="1"><stop offset="0" stop-color="#7dcfff" stop-opacity="0.30"/><stop offset="1" stop-color="#7dcfff" stop-opacity="0"/></linearGradient><polygon points="252,165 252,131.73 302.91,117 353.82,161.06 404.73,155.81 455.64,159.86 506.55,157.24 557.45,161.12 608.36,163.17 659.27,142.28 710.18,145.37 761.09,151.02 812,165 812,165" fill="url(#eng-spark)"/><polyline points="252,131.73 302.91,117 353.82,161.06 404.73,155.81 455.64,159.86 506.55,157.24 557.45,161.12 608.36,163.17 659.27,142.28 710.18,145.37 761.09,151.02 812,165" fill="none" stroke="#7dcfff" stroke-width="1.8" stroke-linecap="round" stroke-linejoin="round"/><circle cx="812" cy="165" r="3.1" fill="#7dcfff"/><text x="812" y="181" fill="#8a94bd" font-size="12" font-family="-apple-system, BlinkMacSystemFont, 'Segoe UI', Helvetica, Arial, sans-serif" font-weight="400" text-anchor="end">peak 871 / wk</text><rect x="28" y="199" width="187" height="84" rx="13" fill="#232843" fill-opacity="0.55"/><rect x="28" y="199" width="187" height="84" rx="13" fill="url(#gk-tile)"/><rect x="28.5" y="199.5" width="186" height="83" rx="13" fill="none" stroke="#c0caf5" stroke-opacity="0.14" stroke-width="1"/><rect x="34.5" y="200" width="174" height="1" rx="0.5" fill="#ffffff" fill-opacity="0.14"/><circle cx="60" cy="241" r="24" fill="none" stroke="#c0caf5" stroke-opacity="0.16" stroke-width="6"/><circle cx="60" cy="241" r="24" fill="none" stroke="#7dcfff" stroke-width="6" stroke-linecap="round" stroke-dasharray="32.6 118.19" transform="rotate(-90 60 241)"/><text x="60" y="246" fill="#c0caf5" font-size="20" font-family="-apple-system, BlinkMacSystemFont, 'Segoe UI', Helvetica, Arial, sans-serif" font-weight="600" text-anchor="middle">22%</text><text x="92" y="239" fill="#a9b1d6" font-size="12" font-family="-apple-system, BlinkMacSystemFont, 'Segoe UI', Helvetica, Arial, sans-serif" font-weight="400">CI coverage</text><text x="92" y="255" fill="#8a94bd" font-size="12" font-family="-apple-system, BlinkMacSystemFont, 'Segoe UI', Helvetica, Arial, sans-serif" font-weight="400">16 repos automated</text><rect x="227" y="199" width="187" height="84" rx="13" fill="#232843" fill-opacity="0.55"/><rect x="227" y="199" width="187" height="84" rx="13" fill="url(#gk-tile)"/><rect x="227.5" y="199.5" width="186" height="83" rx="13" fill="none" stroke="#c0caf5" stroke-opacity="0.14" stroke-width="1"/><rect x="233.5" y="200" width="174" height="1" rx="0.5" fill="#ffffff" fill-opacity="0.14"/><g transform="translate(243,209) scale(0.667)" fill="none" stroke="#8a94bd" stroke-width="2.25" stroke-linecap="round" stroke-linejoin="round"><rect width="8" height="8" x="3" y="3" rx="2"/><path d="M7 11v4a2 2 0 0 0 2 2h4"/><rect width="8" height="8" x="13" y="13" rx="2"/></g><text x="265" y="222" fill="#8a94bd" font-size="12" font-family="-apple-system, BlinkMacSystemFont, 'Segoe UI', Helvetica, Arial, sans-serif" font-weight="400">CI pipelines</text><text x="243" y="255" fill="#c0caf5" font-size="26" font-family="-apple-system, BlinkMacSystemFont, 'Segoe UI', Helvetica, Arial, sans-serif" font-weight="600">78</text><text x="243" y="270" fill="#8a94bd" font-size="12" font-family="-apple-system, BlinkMacSystemFont, 'Segoe UI', Helvetica, Arial, sans-serif" font-weight="400">16 repos</text><rect x="426" y="199" width="187" height="84" rx="13" fill="#232843" fill-opacity="0.55"/><rect x="426" y="199" width="187" height="84" rx="13" fill="url(#gk-tile)"/><rect x="426.5" y="199.5" width="186" height="83" rx="13" fill="none" stroke="#c0caf5" stroke-opacity="0.14" stroke-width="1"/><rect x="432.5" y="200" width="174" height="1" rx="0.5" fill="#ffffff" fill-opacity="0.14"/><g transform="translate(442,209) scale(0.667)" fill="none" stroke="#8a94bd" stroke-width="2.25" stroke-linecap="round" stroke-linejoin="round"><circle cx="12" cy="12" r="10"/><path d="M12 2a14.5 14.5 0 0 0 0 20 14.5 14.5 0 0 0 0-20"/><path d="M2 12h20"/></g><text x="464" y="222" fill="#8a94bd" font-size="12" font-family="-apple-system, BlinkMacSystemFont, 'Segoe UI', Helvetica, Arial, sans-serif" font-weight="400">public repos</text><text x="442" y="255" fill="#c0caf5" font-size="26" font-family="-apple-system, BlinkMacSystemFont, 'Segoe UI', Helvetica, Arial, sans-serif" font-weight="600">74</text><text x="442" y="270" fill="#8a94bd" font-size="12" font-family="-apple-system, BlinkMacSystemFont, 'Segoe UI', Helvetica, Arial, sans-serif" font-weight="400">157 private</text><rect x="625" y="199" width="187" height="84" rx="13" fill="#232843" fill-opacity="0.55"/><rect x="625" y="199" width="187" height="84" rx="13" fill="url(#gk-tile)"/><rect x="625.5" y="199.5" width="186" height="83" rx="13" fill="none" stroke="#c0caf5" stroke-opacity="0.14" stroke-width="1"/><rect x="631.5" y="200" width="174" height="1" rx="0.5" fill="#ffffff" fill-opacity="0.14"/><g transform="translate(641,209) scale(0.667)" fill="none" stroke="#8a94bd" stroke-width="2.25" stroke-linecap="round" stroke-linejoin="round"><path d="m16 18 6-6-6-6"/><path d="m8 6-6 6 6 6"/></g><text x="663" y="222" fill="#8a94bd" font-size="12" font-family="-apple-system, BlinkMacSystemFont, 'Segoe UI', Helvetica, Arial, sans-serif" font-weight="400">Python</text><text x="641" y="255" fill="#c0caf5" font-size="26" font-family="-apple-system, BlinkMacSystemFont, 'Segoe UI', Helvetica, Arial, sans-serif" font-weight="600">46%</text><text x="641" y="270" fill="#8a94bd" font-size="12" font-family="-apple-system, BlinkMacSystemFont, 'Segoe UI', Helvetica, Arial, sans-serif" font-weight="400">share of code</text></svg>