<svg xmlns="http://www.w3.org/2000/svg" width="840" height="320" viewBox="0 0 840 320"><defs><linearGradient id="gk-sheen" x1="0" y1="0" x2="0" y2="1"><stop offset="0" stop-color="#ffffff" stop-opacity="0.20"/><stop offset="0.06" stop-color="#ffffff" stop-opacity="0.06"/><stop offset="0.5" stop-color="#ffffff" stop-opacity="0"/><stop offset="1" stop-color="#05060e" stop-opacity="0.10"/></linearGradient><linearGradient id="gk-tile" x1="0" y1="0" x2="0" y2="1"><stop offset="0" stop-color="#ffffff" stop-opacity="0.08"/><stop offset="1" stop-color="#05060e" stop-opacity="0.22"/></linearGradient><linearGradient id="gk-rim" x1="0" y1="0" x2="0" y2="1"><stop offset="0" stop-color="#ffffff" stop-opacity="0.45"/><stop offset="0.4" stop-color="#c0caf5" stop-opacity="0.12"/><stop offset="1" stop-color="#c0caf5" stop-opacity="0.05"/></linearGradient><filter id="gk-shadow" x="-40%" y="-40%" width="180%" height="180%"><feDropShadow dx="0" dy="10" stdDeviation="16" flood-color="#03040c" flood-opacity="0.55"/></filter><filter id="gk-blob" x="-80%" y="-80%" width="260%" height="260%"><feGaussianBlur stdDeviation="34"/></filter><filter id="gk-grain" x="0%" y="0%" width="100%" height="100%"><feTurbulence type="fractalNoise" baseFrequency="0.9" numOctaves="2" stitchTiles="stitch" result="n"/><feColorMatrix in="n" type="matrix" values="0 0 0 0 1  0 0 0 0 1  0 0 0 0 1  0 0 0 0.04 0"/></filter></defs><clipPath id="gk-clip"><rect x="12" y="12" width="816" height="296" rx="18"/></clipPath><rect x="12" y="12" width="816" height="296" rx="18" fill="#0c0e18" filter="url(#gk-shadow)"/><g clip-path="url(#gk-clip)" filter="url(#gk-blob)"><ellipse cx="77.28" cy="41.6" rx="183.52" ry="150.49" fill="#7aa2f7" fill-opacity="0.3"/><ellipse cx="795.36" cy="296.16" rx="207.2" ry="169.9" fill="#bb9af7" fill-opacity="0.26"/><ellipse cx="517.92" cy="-11.68" rx="133.2" ry="109.22" fill="#7dcfff" fill-opacity="0.2"/></g><rect x="12" y="12" width="816" height="296" rx="18" fill="#1b1e2e" fill-opacity="0.74"/><rect x="12" y="12" width="816" height="296" rx="18" fill="url(#gk-sheen)"/><g clip-path="url(#gk-clip)"><rect x="12" y="12" width="816" height="296" filter="url(#gk-grain)"/></g><rect x="12.5" y="12.5" width="815" height="295" rx="18" fill="none" stroke="url(#gk-rim)" stroke-width="1"/><rect x="30" y="13.5" width="780" height="1" fill="#ffffff" fill-opacity="0.0"/><text x="30" y="34" fill="#8a94bd" font-size="10" font-family="-apple-system, BlinkMacSystemFont, 'Segoe UI', Helvetica, Arial, sans-serif" font-weight="600" letter-spacing="1.2" text-transform="uppercase">WORKFLOW ANALYTICS</text><text x="30" y="56" fill="#c0caf5" font-size="18" font-family="-apple-system, BlinkMacSystemFont, 'Segoe UI', Helvetica, Arial, sans-serif" font-weight="700">Engineering Cadence</text><text x="810" y="56" fill="#8a94bd" font-size="11" font-family="-apple-system, BlinkMacSystemFont, 'Segoe UI', Helvetica, Arial, sans-serif" font-weight="400" text-anchor="end">automation-first · last 12 months</text><linearGradient id="gk-ribbon" x1="0" y1="0" x2="1" y2="0"><stop offset="0" stop-color="#7aa2f7" stop-opacity="0.95"/><stop offset="0.55" stop-color="#7dcfff" stop-opacity="0.85"/><stop offset="1" stop-color="#7dcfff" stop-opacity="0"/></linearGradient><rect x="30" y="66" width="780" height="2.5" rx="1.25" fill="url(#gk-ribbon)"/><rect x="30" y="80" width="478" height="124" rx="13" fill="#232843" fill-opacity="0.55"/><rect x="30" y="80" width="478" height="124" rx="13" fill="url(#gk-tile)"/><rect x="30.5" y="80.5" width="477" height="123" rx="13" fill="none" stroke="#c0caf5" stroke-opacity="0.14" stroke-width="1"/><rect x="36.5" y="81" width="465" height="1" rx="0.5" fill="#ffffff" fill-opacity="0.14"/><g transform="translate(46,94) scale(0.5)" fill="none" stroke="#7dcfff" stroke-width="2" stroke-linecap="round" stroke-linejoin="round"><path d="M3 17l6.5-6.5 3.5 3.5L21 6"/><path d="M15.5 6H21v5.5"/></g><text x="63" y="104" fill="#8a94bd" font-size="10" font-family="-apple-system, BlinkMacSystemFont, 'Segoe UI', Helvetica, Arial, sans-serif" font-weight="600" letter-spacing="1.2" text-transform="uppercase">WEEKLY CADENCE</text><text x="492" y="104" fill="#8a94bd" font-size="10" font-family="-apple-system, BlinkMacSystemFont, 'Segoe UI', Helvetica, Arial, sans-serif" font-weight="400" text-anchor="end" letter-spacing="0.4">12 weeks</text><text x="46" y="158" fill="#c0caf5" font-size="34" font-family="-apple-system, BlinkMacSystemFont, 'Segoe UI', Helvetica, Arial, sans-serif" font-weight="700">288</text><text x="46" y="176" fill="#a9b1d6" font-size="11" font-family="-apple-system, BlinkMacSystemFont, 'Segoe UI', Helvetica, Arial, sans-serif" font-weight="600">active days</text><text x="46" y="190" fill="#8a94bd" font-size="10" font-family="-apple-system, BlinkMacSystemFont, 'Segoe UI', Helvetica, Arial, sans-serif" font-weight="400">last 12 months</text><rect x="180" y="102" width="1" height="84" rx="0.5" fill="#c0caf5" fill-opacity="0.16"/><linearGradient id="eng-spark" x1="0" y1="0" x2="0" y2="1"><stop offset="0" stop-color="#7dcfff" stop-opacity="0.30"/><stop offset="1" stop-color="#7dcfff" stop-opacity="0"/></linearGradient><polygon points="198,176 198,145.12 224.73,142.5 251.45,142.38 278.18,135.5 304.91,120 331.64,168.62 358.36,169.5 385.09,174 411.82,173.62 438.55,171.75 465.27,175 492,176 492,176" fill="url(#eng-spark)"/><polyline points="198,145.12 224.73,142.5 251.45,142.38 278.18,135.5 304.91,120 331.64,168.62 358.36,169.5 385.09,174 411.82,173.62 438.55,171.75 465.27,175 492,176" fill="none" stroke="#7dcfff" stroke-width="1.8" stroke-linecap="round" stroke-linejoin="round"/><circle cx="492" cy="176" r="3.1" fill="#7dcfff"/><text x="492" y="192" fill="#8a94bd" font-size="9.5" font-family="-apple-system, BlinkMacSystemFont, 'Segoe UI', Helvetica, Arial, sans-serif" font-weight="400" text-anchor="end">peak 474 / wk</text><rect x="524" y="80" width="286" height="124" rx="13" fill="#232843" fill-opacity="0.55"/><rect x="524" y="80" width="286" height="124" rx="13" fill="url(#gk-tile)"/><rect x="524.5" y="80.5" width="285" height="123" rx="13" fill="none" stroke="#c0caf5" stroke-opacity="0.14" stroke-width="1"/><rect x="530.5" y="81" width="273" height="1" rx="0.5" fill="#ffffff" fill-opacity="0.14"/><g transform="translate(540,93) scale(0.54)" fill="none" stroke="#7dcfff" stroke-width="2" stroke-linecap="round" stroke-linejoin="round"><circle cx="12" cy="12" r="9"/><path d="M8 12.4l2.6 2.6L16.4 9"/></g><text x="558" y="104" fill="#8a94bd" font-size="10" font-family="-apple-system, BlinkMacSystemFont, 'Segoe UI', Helvetica, Arial, sans-serif" font-weight="600" letter-spacing="1.2" text-transform="uppercase">CI COVERAGE</text><circle cx="667" cy="144" r="36" fill="none" stroke="#c0caf5" stroke-opacity="0.16" stroke-width="8"/><circle cx="667" cy="144" r="36" fill="none" stroke="#7dcfff" stroke-width="8" stroke-linecap="round" stroke-dasharray="50.64 175.55" transform="rotate(-90 667 144)"/><text x="667" y="142" fill="#c0caf5" font-size="19" font-family="-apple-system, BlinkMacSystemFont, 'Segoe UI', Helvetica, Arial, sans-serif" font-weight="700" text-anchor="middle">22%</text><text x="667" y="157" fill="#8a94bd" font-size="8.5" font-family="-apple-system, BlinkMacSystemFont, 'Segoe UI', Helvetica, Arial, sans-serif" text-anchor="middle" letter-spacing="0.5">CI</text><text x="667" y="194" fill="#8a94bd" font-size="10" font-family="-apple-system, BlinkMacSystemFont, 'Segoe UI', Helvetica, Arial, sans-serif" font-weight="400" text-anchor="middle">15 / 67 repos automated</text><rect x="30" y="216" width="249.33" height="80" rx="13" fill="#232843" fill-opacity="0.55"/><rect x="30" y="216" width="249.33" height="80" rx="13" fill="url(#gk-tile)"/><rect x="30.5" y="216.5" width="248.33" height="79" rx="13" fill="none" stroke="#c0caf5" stroke-opacity="0.14" stroke-width="1"/><rect x="36.5" y="217" width="236.33" height="1" rx="0.5" fill="#ffffff" fill-opacity="0.14"/><g transform="translate(44,227) scale(0.5)" fill="none" stroke="#8a94bd" stroke-width="2" stroke-linecap="round" stroke-linejoin="round"><circle cx="12" cy="12" r="9"/><path d="M3 12h18M12 3c2.6 2.4 2.6 15.6 0 18M12 3c-2.6 2.4-2.6 15.6 0 18"/></g><text x="61" y="237" fill="#8a94bd" font-size="10" font-family="-apple-system, BlinkMacSystemFont, 'Segoe UI', Helvetica, Arial, sans-serif" font-weight="600" letter-spacing="1.2" text-transform="uppercase">REPOSITORIES</text><text x="44" y="264" fill="#7dcfff" font-size="20" font-family="-apple-system, BlinkMacSystemFont, 'Segoe UI', Helvetica, Arial, sans-serif" font-weight="700">67</text><text x="44" y="278" fill="#8a94bd" font-size="9.5" font-family="-apple-system, BlinkMacSystemFont, 'Segoe UI', Helvetica, Arial, sans-serif" font-weight="400" letter-spacing="0.3">public</text><text x="158.67" y="264" fill="#c0caf5" font-size="20" font-family="-apple-system, BlinkMacSystemFont, 'Segoe UI', Helvetica, Arial, sans-serif" font-weight="700">146</text><text x="158.67" y="278" fill="#8a94bd" font-size="9.5" font-family="-apple-system, BlinkMacSystemFont, 'Segoe UI', Helvetica, Arial, sans-serif" font-weight="400" letter-spacing="0.3">private</text><rect x="44" y="284" width="221.33" height="5" rx="2.5" fill="#c0caf5" fill-opacity="0.18"/><rect x="44" y="284" width="69.62" height="5" rx="2.5" fill="#7dcfff"/><rect x="295.33" y="216" width="249.33" height="80" rx="13" fill="#232843" fill-opacity="0.55"/><rect x="295.33" y="216" width="249.33" height="80" rx="13" fill="url(#gk-tile)"/><rect x="295.83" y="216.5" width="248.33" height="79" rx="13" fill="none" stroke="#c0caf5" stroke-opacity="0.14" stroke-width="1"/><rect x="301.83" y="217" width="236.33" height="1" rx="0.5" fill="#ffffff" fill-opacity="0.14"/><g transform="translate(309.33,227) scale(0.5)" fill="#7dcfff"><path d="M13 2L4 14h6.5L9 22l9.5-12.5H12L13 2z"/></g><text x="326.33" y="237" fill="#8a94bd" font-size="10" font-family="-apple-system, BlinkMacSystemFont, 'Segoe UI', Helvetica, Arial, sans-serif" font-weight="600" letter-spacing="1.2" text-transform="uppercase">CI PIPELINES</text><text x="309.33" y="267" fill="#c0caf5" font-size="26" font-family="-apple-system, BlinkMacSystemFont, 'Segoe UI', Helvetica, Arial, sans-serif" font-weight="700">74</text><text x="309.33" y="284" fill="#8a94bd" font-size="10" font-family="-apple-system, BlinkMacSystemFont, 'Segoe UI', Helvetica, Arial, sans-serif" font-weight="400">workflows · 15 repos</text><rect x="560.67" y="216" width="249.33" height="80" rx="13" fill="#232843" fill-opacity="0.55"/><rect x="560.67" y="216" width="249.33" height="80" rx="13" fill="url(#gk-tile)"/><rect x="561.17" y="216.5" width="248.33" height="79" rx="13" fill="none" stroke="#c0caf5" stroke-opacity="0.14" stroke-width="1"/><rect x="567.17" y="217" width="236.33" height="1" rx="0.5" fill="#ffffff" fill-opacity="0.14"/><g transform="translate(574.67,227) scale(0.5)" fill="none" stroke="#8a94bd" stroke-width="2" stroke-linecap="round" stroke-linejoin="round"><path d="M9 8l-4 4 4 4M15 8l4 4-4 4"/></g><text x="591.67" y="237" fill="#8a94bd" font-size="10" font-family="-apple-system, BlinkMacSystemFont, 'Segoe UI', Helvetica, Arial, sans-serif" font-weight="600" letter-spacing="1.2" text-transform="uppercase">LANGUAGE MIX</text><text x="574.67" y="262" fill="#c0caf5" font-size="22" font-family="-apple-system, BlinkMacSystemFont, 'Segoe UI', Helvetica, Arial, sans-serif" font-weight="700">49.9%</text><text x="574.67" y="277" fill="#8a94bd" font-size="10" font-family="-apple-system, BlinkMacSystemFont, 'Segoe UI', Helvetica, Arial, sans-serif" font-weight="400">primary lang · 5 over 5%</text><rect x="574.67" y="284" width="221.33" height="5" rx="2.5" fill="#c0caf5" fill-opacity="0.18"/><rect x="574.67" y="284" width="110.45" height="5" rx="2.5" fill="#7dcfff"/></svg>