<svg xmlns="http://www.w3.org/2000/svg" width="840" height="520" viewBox="0 0 840 520">
  <rect width="840" height="520" rx="12" fill="#24283b"/><rect x="4" y="4" width="832" height="512" rx="2" fill="none" stroke="#414868" stroke-width="2"/><rect x="10" y="10" width="820" height="500" rx="2" fill="none" stroke="#565f89" stroke-width="1" stroke-dasharray="4 2"/><line x1="0" y1="0" x2="840" y2="0" stroke="#1a1b27" stroke-width="1" opacity="0.1"/><line x1="0" y1="4" x2="840" y2="4" stroke="#1a1b27" stroke-width="1" opacity="0.1"/><line x1="0" y1="8" x2="840" y2="8" stroke="#1a1b27" stroke-width="1" opacity="0.1"/><line x1="0" y1="12" x2="840" y2="12" stroke="#1a1b27" stroke-width="1" opacity="0.1"/><line x1="0" y1="16" x2="840" y2="16" stroke="#1a1b27" stroke-width="1" opacity="0.1"/><line x1="0" y1="20" x2="840" y2="20" stroke="#1a1b27" stroke-width="1" opacity="0.1"/><line x1="0" y1="24" x2="840" y2="24" stroke="#1a1b27" stroke-width="1" opacity="0.1"/><line x1="0" y1="28" x2="840" y2="28" stroke="#1a1b27" stroke-width="1" opacity="0.1"/><line x1="0" y1="32" x2="840" y2="32" stroke="#1a1b27" stroke-width="1" opacity="0.1"/><line x1="0" y1="36" x2="840" y2="36" stroke="#1a1b27" stroke-width="1" opacity="0.1"/><line x1="0" y1="40" x2="840" y2="40" stroke="#1a1b27" stroke-width="1" opacity="0.1"/><line x1="0" y1="44" x2="840" y2="44" stroke="#1a1b27" stroke-width="1" opacity="0.1"/><line x1="0" y1="48" x2="840" y2="48" stroke="#1a1b27" stroke-width="1" opacity="0.1"/><line x1="0" y1="52" x2="840" y2="52" stroke="#1a1b27" stroke-width="1" opacity="0.1"/><line x1="0" y1="56" x2="840" y2="56" stroke="#1a1b27" stroke-width="1" opacity="0.1"/><line x1="0" y1="60" x2="840" y2="60" stroke="#1a1b27" stroke-width="1" opacity="0.1"/><line x1="0" y1="64" x2="840" y2="64" stroke="#1a1b27" stroke-width="1" opacity="0.1"/><line x1="0" y1="68" x2="840" y2="68" stroke="#1a1b27" stroke-width="1" opacity="0.1"/><line x1="0" y1="72" x2="840" y2="72" stroke="#1a1b27" stroke-width="1" opacity="0.1"/><line x1="0" y1="76" x2="840" y2="76" stroke="#1a1b27" stroke-width="1" opacity="0.1"/><line x1="0" y1="80" x2="840" y2="80" stroke="#1a1b27" stroke-width="1" opacity="0.1"/><line x1="0" y1="84" x2="840" y2="84" stroke="#1a1b27" stroke-width="1" opacity="0.1"/><line x1="0" y1="88" x2="840" y2="88" stroke="#1a1b27" stroke-width="1" opacity="0.1"/><line x1="0" y1="92" x2="840" y2="92" stroke="#1a1b27" stroke-width="1" opacity="0.1"/><line x1="0" y1="96" x2="840" y2="96" stroke="#1a1b27" stroke-width="1" opacity="0.1"/><line x1="0" y1="100" x2="840" y2="100" stroke="#1a1b27" stroke-width="1" opacity="0.1"/><line x1="0" y1="104" x2="840" y2="104" stroke="#1a1b27" stroke-width="1" opacity="0.1"/><line x1="0" y1="108" x2="840" y2="108" stroke="#1a1b27" stroke-width="1" opacity="0.1"/><line x1="0" y1="112" x2="840" y2="112" stroke="#1a1b27" stroke-width="1" opacity="0.1"/><line x1="0" y1="116" x2="840" y2="116" stroke="#1a1b27" stroke-width="1" opacity="0.1"/><line x1="0" y1="120" x2="840" y2="120" stroke="#1a1b27" stroke-width="1" opacity="0.1"/><line x1="0" y1="124" x2="840" y2="124" stroke="#1a1b27" stroke-width="1" opacity="0.1"/><line x1="0" y1="128" x2="840" y2="128" stroke="#1a1b27" stroke-width="1" opacity="0.1"/><line x1="0" y1="132" x2="840" y2="132" stroke="#1a1b27" stroke-width="1" opacity="0.1"/><line x1="0" y1="136" x2="840" y2="136" stroke="#1a1b27" stroke-width="1" opacity="0.1"/><line x1="0" y1="140" x2="840" y2="140" stroke="#1a1b27" stroke-width="1" opacity="0.1"/><line x1="0" y1="144" x2="840" y2="144" stroke="#1a1b27" stroke-width="1" opacity="0.1"/><line x1="0" y1="148" x2="840" y2="148" stroke="#1a1b27" stroke-width="1" opacity="0.1"/><line x1="0" y1="152" x2="840" y2="152" stroke="#1a1b27" stroke-width="1" opacity="0.1"/><line x1="0" y1="156" x2="840" y2="156" stroke="#1a1b27" stroke-width="1" opacity="0.1"/><line x1="0" y1="160" x2="840" y2="160" stroke="#1a1b27" stroke-width="1" opacity="0.1"/><line x1="0" y1="164" x2="840" y2="164" stroke="#1a1b27" stroke-width="1" opacity="0.1"/><line x1="0" y1="168" x2="840" y2="168" stroke="#1a1b27" stroke-width="1" opacity="0.1"/><line x1="0" y1="172" x2="840" y2="172" stroke="#1a1b27" stroke-width="1" opacity="0.1"/><line x1="0" y1="176" x2="840" y2="176" stroke="#1a1b27" stroke-width="1" opacity="0.1"/><line x1="0" y1="180" x2="840" y2="180" stroke="#1a1b27" stroke-width="1" opacity="0.1"/><line x1="0" y1="184" x2="840" y2="184" stroke="#1a1b27" stroke-width="1" opacity="0.1"/><line x1="0" y1="188" x2="840" y2="188" stroke="#1a1b27" stroke-width="1" opacity="0.1"/><line x1="0" y1="192" x2="840" y2="192" stroke="#1a1b27" stroke-width="1" opacity="0.1"/><line x1="0" y1="196" x2="840" y2="196" stroke="#1a1b27" stroke-width="1" opacity="0.1"/><line x1="0" y1="200" x2="840" y2="200" stroke="#1a1b27" stroke-width="1" opacity="0.1"/><line x1="0" y1="204" x2="840" y2="204" stroke="#1a1b27" stroke-width="1" opacity="0.1"/><line x1="0" y1="208" x2="840" y2="208" stroke="#1a1b27" stroke-width="1" opacity="0.1"/><line x1="0" y1="212" x2="840" y2="212" stroke="#1a1b27" stroke-width="1" opacity="0.1"/><line x1="0" y1="216" x2="840" y2="216" stroke="#1a1b27" stroke-width="1" opacity="0.1"/><line x1="0" y1="220" x2="840" y2="220" stroke="#1a1b27" stroke-width="1" opacity="0.1"/><line x1="0" y1="224" x2="840" y2="224" stroke="#1a1b27" stroke-width="1" opacity="0.1"/><line x1="0" y1="228" x2="840" y2="228" stroke="#1a1b27" stroke-width="1" opacity="0.1"/><line x1="0" y1="232" x2="840" y2="232" stroke="#1a1b27" stroke-width="1" opacity="0.1"/><line x1="0" y1="236" x2="840" y2="236" stroke="#1a1b27" stroke-width="1" opacity="0.1"/><line x1="0" y1="240" x2="840" y2="240" stroke="#1a1b27" stroke-width="1" opacity="0.1"/><line x1="0" y1="244" x2="840" y2="244" stroke="#1a1b27" stroke-width="1" opacity="0.1"/><line x1="0" y1="248" x2="840" y2="248" stroke="#1a1b27" stroke-width="1" opacity="0.1"/><line x1="0" y1="252" x2="840" y2="252" stroke="#1a1b27" stroke-width="1" opacity="0.1"/><line x1="0" y1="256" x2="840" y2="256" stroke="#1a1b27" stroke-width="1" opacity="0.1"/><line x1="0" y1="260" x2="840" y2="260" stroke="#1a1b27" stroke-width="1" opacity="0.1"/><line x1="0" y1="264" x2="840" y2="264" stroke="#1a1b27" stroke-width="1" opacity="0.1"/><line x1="0" y1="268" x2="840" y2="268" stroke="#1a1b27" stroke-width="1" opacity="0.1"/><line x1="0" y1="272" x2="840" y2="272" stroke="#1a1b27" stroke-width="1" opacity="0.1"/><line x1="0" y1="276" x2="840" y2="276" stroke="#1a1b27" stroke-width="1" opacity="0.1"/><line x1="0" y1="280" x2="840" y2="280" stroke="#1a1b27" stroke-width="1" opacity="0.1"/><line x1="0" y1="284" x2="840" y2="284" stroke="#1a1b27" stroke-width="1" opacity="0.1"/><line x1="0" y1="288" x2="840" y2="288" stroke="#1a1b27" stroke-width="1" opacity="0.1"/><line x1="0" y1="292" x2="840" y2="292" stroke="#1a1b27" stroke-width="1" opacity="0.1"/><line x1="0" y1="296" x2="840" y2="296" stroke="#1a1b27" stroke-width="1" opacity="0.1"/><line x1="0" y1="300" x2="840" y2="300" stroke="#1a1b27" stroke-width="1" opacity="0.1"/><line x1="0" y1="304" x2="840" y2="304" stroke="#1a1b27" stroke-width="1" opacity="0.1"/><line x1="0" y1="308" x2="840" y2="308" stroke="#1a1b27" stroke-width="1" opacity="0.1"/><line x1="0" y1="312" x2="840" y2="312" stroke="#1a1b27" stroke-width="1" opacity="0.1"/><line x1="0" y1="316" x2="840" y2="316" stroke="#1a1b27" stroke-width="1" opacity="0.1"/><line x1="0" y1="320" x2="840" y2="320" stroke="#1a1b27" stroke-width="1" opacity="0.1"/><line x1="0" y1="324" x2="840" y2="324" stroke="#1a1b27" stroke-width="1" opacity="0.1"/><line x1="0" y1="328" x2="840" y2="328" stroke="#1a1b27" stroke-width="1" opacity="0.1"/><line x1="0" y1="332" x2="840" y2="332" stroke="#1a1b27" stroke-width="1" opacity="0.1"/><line x1="0" y1="336" x2="840" y2="336" stroke="#1a1b27" stroke-width="1" opacity="0.1"/><line x1="0" y1="340" x2="840" y2="340" stroke="#1a1b27" stroke-width="1" opacity="0.1"/><line x1="0" y1="344" x2="840" y2="344" stroke="#1a1b27" stroke-width="1" opacity="0.1"/><line x1="0" y1="348" x2="840" y2="348" stroke="#1a1b27" stroke-width="1" opacity="0.1"/><line x1="0" y1="352" x2="840" y2="352" stroke="#1a1b27" stroke-width="1" opacity="0.1"/><line x1="0" y1="356" x2="840" y2="356" stroke="#1a1b27" stroke-width="1" opacity="0.1"/><line x1="0" y1="360" x2="840" y2="360" stroke="#1a1b27" stroke-width="1" opacity="0.1"/><line x1="0" y1="364" x2="840" y2="364" stroke="#1a1b27" stroke-width="1" opacity="0.1"/><line x1="0" y1="368" x2="840" y2="368" stroke="#1a1b27" stroke-width="1" opacity="0.1"/><line x1="0" y1="372" x2="840" y2="372" stroke="#1a1b27" stroke-width="1" opacity="0.1"/><line x1="0" y1="376" x2="840" y2="376" stroke="#1a1b27" stroke-width="1" opacity="0.1"/><line x1="0" y1="380" x2="840" y2="380" stroke="#1a1b27" stroke-width="1" opacity="0.1"/><line x1="0" y1="384" x2="840" y2="384" stroke="#1a1b27" stroke-width="1" opacity="0.1"/><line x1="0" y1="388" x2="840" y2="388" stroke="#1a1b27" stroke-width="1" opacity="0.1"/><line x1="0" y1="392" x2="840" y2="392" stroke="#1a1b27" stroke-width="1" opacity="0.1"/><line x1="0" y1="396" x2="840" y2="396" stroke="#1a1b27" stroke-width="1" opacity="0.1"/><line x1="0" y1="400" x2="840" y2="400" stroke="#1a1b27" stroke-width="1" opacity="0.1"/><line x1="0" y1="404" x2="840" y2="404" stroke="#1a1b27" stroke-width="1" opacity="0.1"/><line x1="0" y1="408" x2="840" y2="408" stroke="#1a1b27" stroke-width="1" opacity="0.1"/><line x1="0" y1="412" x2="840" y2="412" stroke="#1a1b27" stroke-width="1" opacity="0.1"/><line x1="0" y1="416" x2="840" y2="416" stroke="#1a1b27" stroke-width="1" opacity="0.1"/><line x1="0" y1="420" x2="840" y2="420" stroke="#1a1b27" stroke-width="1" opacity="0.1"/><line x1="0" y1="424" x2="840" y2="424" stroke="#1a1b27" stroke-width="1" opacity="0.1"/><line x1="0" y1="428" x2="840" y2="428" stroke="#1a1b27" stroke-width="1" opacity="0.1"/><line x1="0" y1="432" x2="840" y2="432" stroke="#1a1b27" stroke-width="1" opacity="0.1"/><line x1="0" y1="436" x2="840" y2="436" stroke="#1a1b27" stroke-width="1" opacity="0.1"/><line x1="0" y1="440" x2="840" y2="440" stroke="#1a1b27" stroke-width="1" opacity="0.1"/><line x1="0" y1="444" x2="840" y2="444" stroke="#1a1b27" stroke-width="1" opacity="0.1"/><line x1="0" y1="448" x2="840" y2="448" stroke="#1a1b27" stroke-width="1" opacity="0.1"/><line x1="0" y1="452" x2="840" y2="452" stroke="#1a1b27" stroke-width="1" opacity="0.1"/><line x1="0" y1="456" x2="840" y2="456" stroke="#1a1b27" stroke-width="1" opacity="0.1"/><line x1="0" y1="460" x2="840" y2="460" stroke="#1a1b27" stroke-width="1" opacity="0.1"/><line x1="0" y1="464" x2="840" y2="464" stroke="#1a1b27" stroke-width="1" opacity="0.1"/><line x1="0" y1="468" x2="840" y2="468" stroke="#1a1b27" stroke-width="1" opacity="0.1"/><line x1="0" y1="472" x2="840" y2="472" stroke="#1a1b27" stroke-width="1" opacity="0.1"/><line x1="0" y1="476" x2="840" y2="476" stroke="#1a1b27" stroke-width="1" opacity="0.1"/><line x1="0" y1="480" x2="840" y2="480" stroke="#1a1b27" stroke-width="1" opacity="0.1"/><line x1="0" y1="484" x2="840" y2="484" stroke="#1a1b27" stroke-width="1" opacity="0.1"/><line x1="0" y1="488" x2="840" y2="488" stroke="#1a1b27" stroke-width="1" opacity="0.1"/><line x1="0" y1="492" x2="840" y2="492" stroke="#1a1b27" stroke-width="1" opacity="0.1"/><line x1="0" y1="496" x2="840" y2="496" stroke="#1a1b27" stroke-width="1" opacity="0.1"/><line x1="0" y1="500" x2="840" y2="500" stroke="#1a1b27" stroke-width="1" opacity="0.1"/><line x1="0" y1="504" x2="840" y2="504" stroke="#1a1b27" stroke-width="1" opacity="0.1"/><line x1="0" y1="508" x2="840" y2="508" stroke="#1a1b27" stroke-width="1" opacity="0.1"/><line x1="0" y1="512" x2="840" y2="512" stroke="#1a1b27" stroke-width="1" opacity="0.1"/><line x1="0" y1="516" x2="840" y2="516" stroke="#1a1b27" stroke-width="1" opacity="0.1"/><rect x="20" y="20" width="800" height="40" rx="4" fill="#1a1b27" opacity="0.7"/><text x="420.0" y="46" fill="#e0af68" font-size="18" font-family="'Courier New', Courier, monospace" font-weight="700" text-anchor="middle" letter-spacing="4">DEVELOPER QUEST</text><text x="30" y="80" fill="#c0caf5" font-size="16" font-family="'Courier New', Courier, monospace" font-weight="700">jguida941</text><text x="30" y="100" fill="#7dcfff" font-size="12" font-family="'Courier New', Courier, monospace">Lv.10 Full-Stack Mage</text><text x="30" y="118" fill="#e0af68" font-size="11" font-family="'Courier New', Courier, monospace" opacity="0.8">&lt; Apprentice Builder &gt;</text><text x="30" y="132" fill="#565f89" font-size="10" font-family="'Courier New', Courier, monospace">EXP</text><rect x="60" y="122" width="250" height="12" rx="3" fill="#1a1b27"/><rect x="60" y="122" width="120.8" height="12" rx="3" fill="#ff9e64"/><text x="318" y="132" fill="#565f89" font-size="9" font-family="'Courier New', Courier, monospace">929/1922</text><g transform="translate(30, 170)">
  <text x="0" y="12" fill="#e0af68" font-size="10" font-family="'Courier New', Courier, monospace" font-weight="700">STR</text>
  <rect x="42" y="2" width="140" height="14" rx="3" fill="#1a1b27"/>
  <rect x="42" y="2" width="97.6" height="14" rx="3" fill="#f7768e" opacity="0.85"/>
  <text x="188" y="13" fill="#565f89" font-size="10" font-family="'Courier New', Courier, monospace">69</text>
</g><g transform="translate(30, 196)">
  <text x="0" y="12" fill="#e0af68" font-size="10" font-family="'Courier New', Courier, monospace" font-weight="700">DEX</text>
  <rect x="42" y="2" width="140" height="14" rx="3" fill="#1a1b27"/>
  <rect x="42" y="2" width="46.7" height="14" rx="3" fill="#9ece6a" opacity="0.85"/>
  <text x="188" y="13" fill="#565f89" font-size="10" font-family="'Courier New', Courier, monospace">33</text>
</g><g transform="translate(30, 222)">
  <text x="0" y="12" fill="#e0af68" font-size="10" font-family="'Courier New', Courier, monospace" font-weight="700">INT</text>
  <rect x="42" y="2" width="140" height="14" rx="3" fill="#1a1b27"/>
  <rect x="42" y="2" width="19.8" height="14" rx="3" fill="#7aa2f7" opacity="0.85"/>
  <text x="188" y="13" fill="#565f89" font-size="10" font-family="'Courier New', Courier, monospace">14</text>
</g><g transform="translate(30, 248)">
  <text x="0" y="12" fill="#e0af68" font-size="10" font-family="'Courier New', Courier, monospace" font-weight="700">WIS</text>
  <rect x="42" y="2" width="140" height="14" rx="3" fill="#1a1b27"/>
  <rect x="42" y="2" width="140.0" height="14" rx="3" fill="#bb9af7" opacity="0.85"/>
  <text x="188" y="13" fill="#565f89" font-size="10" font-family="'Courier New', Courier, monospace">99</text>
</g><g transform="translate(30, 274)">
  <text x="0" y="12" fill="#e0af68" font-size="10" font-family="'Courier New', Courier, monospace" font-weight="700">CHA</text>
  <rect x="42" y="2" width="140" height="14" rx="3" fill="#1a1b27"/>
  <rect x="42" y="2" width="9.9" height="14" rx="3" fill="#e0af68" opacity="0.85"/>
  <text x="188" y="13" fill="#565f89" font-size="10" font-family="'Courier New', Courier, monospace">7</text>
</g><g transform="translate(30, 300)">
  <text x="0" y="12" fill="#e0af68" font-size="10" font-family="'Courier New', Courier, monospace" font-weight="700">CON</text>
  <rect x="42" y="2" width="140" height="14" rx="3" fill="#1a1b27"/>
  <rect x="42" y="2" width="4.2" height="14" rx="3" fill="#7dcfff" opacity="0.85"/>
  <text x="188" y="13" fill="#565f89" font-size="10" font-family="'Courier New', Courier, monospace">3</text>
</g><text x="440" y="80" fill="#e0af68" font-size="13" font-family="'Courier New', Courier, monospace" font-weight="700" letter-spacing="2">INVENTORY</text><rect x="440" y="90" width="8" height="8" rx="2" fill="#3572A5"/><text x="454" y="99" fill="#a9b1d6" font-size="11" font-family="'Courier New', Courier, monospace">Python</text><rect x="440" y="112" width="8" height="8" rx="2" fill="#b07219"/><text x="454" y="121" fill="#a9b1d6" font-size="11" font-family="'Courier New', Courier, monospace">Java</text><rect x="440" y="134" width="8" height="8" rx="2" fill="#f34b7d"/><text x="454" y="143" fill="#a9b1d6" font-size="11" font-family="'Courier New', Courier, monospace">C++</text><rect x="440" y="156" width="8" height="8" rx="2" fill="#dea584"/><text x="454" y="165" fill="#a9b1d6" font-size="11" font-family="'Courier New', Courier, monospace">Rust</text><rect x="440" y="178" width="8" height="8" rx="2" fill="#701516"/><text x="454" y="187" fill="#a9b1d6" font-size="11" font-family="'Courier New', Courier, monospace">Ruby</text><text x="440" y="225" fill="#e0af68" font-size="13" font-family="'Courier New', Courier, monospace" font-weight="700" letter-spacing="2">QUESTS COMPLETED</text><text x="440" y="247" fill="#9ece6a" font-size="11" font-family="'Courier New', Courier, monospace">[x]</text><text x="468" y="247" fill="#a9b1d6" font-size="11" font-family="'Courier New', Courier, monospace">Repos Created</text><text x="640" y="247" fill="#565f89" font-size="11" font-family="'Courier New', Courier, monospace" text-anchor="end">203</text><text x="440" y="271" fill="#7aa2f7" font-size="11" font-family="'Courier New', Courier, monospace">[x]</text><text x="468" y="271" fill="#a9b1d6" font-size="11" font-family="'Courier New', Courier, monospace">PRs Merged</text><text x="640" y="271" fill="#565f89" font-size="11" font-family="'Courier New', Courier, monospace" text-anchor="end">25</text><text x="440" y="295" fill="#bb9af7" font-size="11" font-family="'Courier New', Courier, monospace">[x]</text><text x="468" y="295" fill="#a9b1d6" font-size="11" font-family="'Courier New', Courier, monospace">Releases Shipped</text><text x="640" y="295" fill="#565f89" font-size="11" font-family="'Courier New', Courier, monospace" text-anchor="end">15</text><text x="440" y="319" fill="#ff9e64" font-size="11" font-family="'Courier New', Courier, monospace">[x]</text><text x="468" y="319" fill="#a9b1d6" font-size="11" font-family="'Courier New', Courier, monospace">CI Pipelines</text><text x="640" y="319" fill="#565f89" font-size="11" font-family="'Courier New', Courier, monospace" text-anchor="end">45</text><rect x="20" y="470" width="800" height="30" rx="4" fill="#1a1b27" opacity="0.5"/><text x="420.0" y="490" fill="#565f89" font-size="11" font-family="'Courier New', Courier, monospace" text-anchor="middle" letter-spacing="1">TOTAL XP: 4,670  |  COMMITS: 3,500  |  REPOS: 203  |  STARS: 8</text><rect x="16" y="16" width="4" height="4" fill="#e0af68" opacity="0.5"/><rect x="820" y="16" width="4" height="4" fill="#e0af68" opacity="0.5"/><rect x="16" y="500" width="4" height="4" fill="#e0af68" opacity="0.5"/><rect x="820" y="500" width="4" height="4" fill="#e0af68" opacity="0.5"/>
</svg>