<svg xmlns="http://www.w3.org/2000/svg" width="840" height="335" viewBox="0 0 840 335"><defs><linearGradient id="gk-sheen" x1="0" y1="0" x2="0" y2="1"><stop offset="0" stop-color="#ffffff" stop-opacity="0.20"/><stop offset="0.06" stop-color="#ffffff" stop-opacity="0.06"/><stop offset="0.5" stop-color="#ffffff" stop-opacity="0"/><stop offset="1" stop-color="#05060e" stop-opacity="0.10"/></linearGradient><linearGradient id="gk-tile" x1="0" y1="0" x2="0" y2="1"><stop offset="0" stop-color="#ffffff" stop-opacity="0.08"/><stop offset="1" stop-color="#05060e" stop-opacity="0.22"/></linearGradient><linearGradient id="gk-rim" x1="0" y1="0" x2="0" y2="1"><stop offset="0" stop-color="#ffffff" stop-opacity="0.45"/><stop offset="0.4" stop-color="#c0caf5" stop-opacity="0.12"/><stop offset="1" stop-color="#c0caf5" stop-opacity="0.05"/></linearGradient><filter id="gk-shadow" x="-40%" y="-40%" width="180%" height="180%"><feDropShadow dx="0" dy="10" stdDeviation="16" flood-color="#03040c" flood-opacity="0.55"/></filter><filter id="gk-blob" x="-80%" y="-80%" width="260%" height="260%"><feGaussianBlur stdDeviation="34"/></filter><filter id="gk-grain" x="0%" y="0%" width="100%" height="100%"><feTurbulence type="fractalNoise" baseFrequency="0.9" numOctaves="2" stitchTiles="stitch" result="n"/><feColorMatrix in="n" type="matrix" values="0 0 0 0 1  0 0 0 0 1  0 0 0 0 1  0 0 0 0.04 0"/></filter></defs><clipPath id="gk-clip"><rect x="12" y="12" width="816" height="311" rx="18"/></clipPath><rect x="12" y="12" width="816" height="311" rx="18" fill="#0c0e18" filter="url(#gk-shadow)"/><g clip-path="url(#gk-clip)" filter="url(#gk-blob)"><ellipse cx="77.28" cy="43.1" rx="192.82" ry="158.11" fill="#7aa2f7" fill-opacity="0.3"/><ellipse cx="795.36" cy="310.56" rx="217.7" ry="178.51" fill="#bb9af7" fill-opacity="0.26"/><ellipse cx="517.92" cy="-12.88" rx="139.95" ry="114.76" fill="#7dcfff" fill-opacity="0.2"/></g><rect x="12" y="12" width="816" height="311" rx="18" fill="#1b1e2e" fill-opacity="0.74"/><rect x="12" y="12" width="816" height="311" rx="18" fill="url(#gk-sheen)"/><g clip-path="url(#gk-clip)"><rect x="12" y="12" width="816" height="311" filter="url(#gk-grain)"/></g><rect x="12.5" y="12.5" width="815" height="310" rx="18" fill="none" stroke="url(#gk-rim)" stroke-width="1"/><rect x="30" y="13.5" width="780" height="1" fill="#ffffff" fill-opacity="0.0"/><text x="28" y="46" fill="#8a94bd" font-size="11" font-family="-apple-system, BlinkMacSystemFont, 'Segoe UI', Helvetica, Arial, sans-serif" font-weight="600" letter-spacing="1.2">REPOSITORY COMPOSITION</text><text x="28" y="70" fill="#c0caf5" font-size="20" font-family="-apple-system, BlinkMacSystemFont, 'Segoe UI', Helvetica, Arial, sans-serif" font-weight="600">Language Breakdown</text><rect x="28" y="82" width="784" height="1" fill="#c0caf5" fill-opacity="0.14"/><text x="28" y="141" fill="#c0caf5" font-size="46" font-family="-apple-system, BlinkMacSystemFont, 'Segoe UI', Helvetica, Arial, sans-serif" font-weight="600">46%</text><text x="28" y="165" fill="#a9b1d6" font-size="14" font-family="-apple-system, BlinkMacSystemFont, 'Segoe UI', Helvetica, Arial, sans-serif" font-weight="400">Python</text><text x="28" y="183" fill="#8a94bd" font-size="12" font-family="-apple-system, BlinkMacSystemFont, 'Segoe UI', Helvetica, Arial, sans-serif" font-weight="400">26 languages · 24.3 MB</text><rect x="28" y="207" width="784" height="16" rx="6" fill="#c0caf5" fill-opacity="0.10"/><clipPath id="langbar"><rect x="28" y="207" width="784" height="16" rx="6"/></clipPath><g clip-path="url(#langbar)"><rect x="28" y="207" width="357.71" height="16" fill="#3572A5"/><rect x="384.96" y="207" width="1.5" height="16" fill="#05060e" fill-opacity="0.5"/><rect x="385.71" y="207" width="126.91" height="16" fill="#427819"/><rect x="511.87" y="207" width="1.5" height="16" fill="#05060e" fill-opacity="0.5"/><rect x="512.62" y="207" width="117.01" height="16" fill="#dea584"/><rect x="628.88" y="207" width="1.5" height="16" fill="#05060e" fill-opacity="0.5"/><rect x="629.63" y="207" width="59.08" height="16" fill="#f34b7d"/><rect x="687.96" y="207" width="1.5" height="16" fill="#05060e" fill-opacity="0.5"/><rect x="688.71" y="207" width="51.1" height="16" fill="#b07219"/><rect x="739.06" y="207" width="1.5" height="16" fill="#05060e" fill-opacity="0.5"/><rect x="739.81" y="207" width="13.33" height="16" fill="#e34c26"/><rect x="752.39" y="207" width="1.5" height="16" fill="#05060e" fill-opacity="0.5"/><rect x="753.14" y="207" width="58.86" height="16" fill="#8b8b8b"/></g><rect x="28.5" y="207.5" width="783" height="15" rx="6" fill="none" stroke="#c0caf5" stroke-opacity="0.18" stroke-width="1"/><circle cx="33" cy="247" r="5" fill="#3572A5"/><text x="46" y="251" fill="#a9b1d6" font-size="12" font-family="-apple-system, BlinkMacSystemFont, 'Segoe UI', Helvetica, Arial, sans-serif" font-weight="400">Python</text><text x="273.33" y="251" fill="#c0caf5" font-size="12" font-family="-apple-system, BlinkMacSystemFont, 'Segoe UI', Helvetica, Arial, sans-serif" font-weight="400" text-anchor="end">45.6%</text><circle cx="294.33" cy="247" r="5" fill="#427819"/><text x="307.33" y="251" fill="#a9b1d6" font-size="12" font-family="-apple-system, BlinkMacSystemFont, 'Segoe UI', Helvetica, Arial, sans-serif" font-weight="400">Makefile</text><text x="534.67" y="251" fill="#c0caf5" font-size="12" font-family="-apple-system, BlinkMacSystemFont, 'Segoe UI', Helvetica, Arial, sans-serif" font-weight="400" text-anchor="end">16.2%</text><circle cx="555.67" cy="247" r="5" fill="#dea584"/><text x="568.67" y="251" fill="#a9b1d6" font-size="12" font-family="-apple-system, BlinkMacSystemFont, 'Segoe UI', Helvetica, Arial, sans-serif" font-weight="400">Rust</text><text x="796" y="251" fill="#c0caf5" font-size="12" font-family="-apple-system, BlinkMacSystemFont, 'Segoe UI', Helvetica, Arial, sans-serif" font-weight="400" text-anchor="end">14.9%</text><circle cx="33" cy="275" r="5" fill="#f34b7d"/><text x="46" y="279" fill="#a9b1d6" font-size="12" font-family="-apple-system, BlinkMacSystemFont, 'Segoe UI', Helvetica, Arial, sans-serif" font-weight="400">C++</text><text x="273.33" y="279" fill="#c0caf5" font-size="12" font-family="-apple-system, BlinkMacSystemFont, 'Segoe UI', Helvetica, Arial, sans-serif" font-weight="400" text-anchor="end">7.5%</text><circle cx="294.33" cy="275" r="5" fill="#b07219"/><text x="307.33" y="279" fill="#a9b1d6" font-size="12" font-family="-apple-system, BlinkMacSystemFont, 'Segoe UI', Helvetica, Arial, sans-serif" font-weight="400">Java</text><text x="534.67" y="279" fill="#c0caf5" font-size="12" font-family="-apple-system, BlinkMacSystemFont, 'Segoe UI', Helvetica, Arial, sans-serif" font-weight="400" text-anchor="end">6.5%</text><circle cx="555.67" cy="275" r="5" fill="#e34c26"/><text x="568.67" y="279" fill="#a9b1d6" font-size="12" font-family="-apple-system, BlinkMacSystemFont, 'Segoe UI', Helvetica, Arial, sans-serif" font-weight="400">HTML</text><text x="796" y="279" fill="#c0caf5" font-size="12" font-family="-apple-system, BlinkMacSystemFont, 'Segoe UI', Helvetica, Arial, sans-serif" font-weight="400" text-anchor="end">1.7%</text><circle cx="33" cy="303" r="5" fill="#8b8b8b"/><text x="46" y="307" fill="#a9b1d6" font-size="12" font-family="-apple-system, BlinkMacSystemFont, 'Segoe UI', Helvetica, Arial, sans-serif" font-weight="400">Other</text><text x="273.33" y="307" fill="#c0caf5" font-size="12" font-family="-apple-system, BlinkMacSystemFont, 'Segoe UI', Helvetica, Arial, sans-serif" font-weight="400" text-anchor="end">7.5%</text></svg>