<svg xmlns="http://www.w3.org/2000/svg" width="840" height="234" viewBox="0 0 840 234"><defs><linearGradient id="gk-sheen" x1="0" y1="0" x2="0" y2="1"><stop offset="0" stop-color="#ffffff" stop-opacity="0.20"/><stop offset="0.06" stop-color="#ffffff" stop-opacity="0.06"/><stop offset="0.5" stop-color="#ffffff" stop-opacity="0"/><stop offset="1" stop-color="#05060e" stop-opacity="0.10"/></linearGradient><linearGradient id="gk-tile" x1="0" y1="0" x2="0" y2="1"><stop offset="0" stop-color="#ffffff" stop-opacity="0.08"/><stop offset="1" stop-color="#05060e" stop-opacity="0.22"/></linearGradient><linearGradient id="gk-rim" x1="0" y1="0" x2="0" y2="1"><stop offset="0" stop-color="#ffffff" stop-opacity="0.45"/><stop offset="0.4" stop-color="#c0caf5" stop-opacity="0.12"/><stop offset="1" stop-color="#c0caf5" stop-opacity="0.05"/></linearGradient><filter id="gk-shadow" x="-40%" y="-40%" width="180%" height="180%"><feDropShadow dx="0" dy="10" stdDeviation="16" flood-color="#03040c" flood-opacity="0.55"/></filter><filter id="gk-blob" x="-80%" y="-80%" width="260%" height="260%"><feGaussianBlur stdDeviation="34"/></filter><filter id="gk-grain" x="0%" y="0%" width="100%" height="100%"><feTurbulence type="fractalNoise" baseFrequency="0.9" numOctaves="2" stitchTiles="stitch" result="n"/><feColorMatrix in="n" type="matrix" values="0 0 0 0 1  0 0 0 0 1  0 0 0 0 1  0 0 0 0.04 0"/></filter></defs><clipPath id="gk-clip"><rect x="12" y="12" width="816" height="210" rx="18"/></clipPath><rect x="12" y="12" width="816" height="210" rx="18" fill="#0c0e18" filter="url(#gk-shadow)"/><g clip-path="url(#gk-clip)" filter="url(#gk-blob)"><ellipse cx="77.28" cy="33" rx="130.2" ry="106.76" fill="#7aa2f7" fill-opacity="0.3"/><ellipse cx="795.36" cy="213.6" rx="147" ry="120.54" fill="#bb9af7" fill-opacity="0.26"/><ellipse cx="517.92" cy="-4.8" rx="94.5" ry="77.49" fill="#7dcfff" fill-opacity="0.2"/></g><rect x="12" y="12" width="816" height="210" rx="18" fill="#1b1e2e" fill-opacity="0.74"/><rect x="12" y="12" width="816" height="210" rx="18" fill="url(#gk-sheen)"/><g clip-path="url(#gk-clip)"><rect x="12" y="12" width="816" height="210" filter="url(#gk-grain)"/></g><rect x="12.5" y="12.5" width="815" height="209" rx="18" fill="none" stroke="url(#gk-rim)" stroke-width="1"/><rect x="30" y="13.5" width="780" height="1" fill="#ffffff" fill-opacity="0.0"/><defs><clipPath id="langBarClip"><rect x="34" y="70" width="772" height="34" rx="10"/></clipPath><linearGradient id="langBarSheen" x1="0" y1="0" x2="0" y2="1"><stop offset="0" stop-color="#ffffff" stop-opacity="0.26"/><stop offset="0.45" stop-color="#ffffff" stop-opacity="0.04"/><stop offset="0.55" stop-color="#05060e" stop-opacity="0"/><stop offset="1" stop-color="#05060e" stop-opacity="0.28"/></linearGradient></defs><text x="34" y="30" fill="#8a94bd" font-size="10" font-family="-apple-system, BlinkMacSystemFont, 'Segoe UI', Helvetica, Arial, sans-serif" font-weight="600" letter-spacing="1.2" text-transform="uppercase">REPOSITORY COMPOSITION</text><text x="34" y="52" fill="#c0caf5" font-size="16" font-family="-apple-system, BlinkMacSystemFont, 'Segoe UI', Helvetica, Arial, sans-serif" font-weight="700">Language Breakdown</text><text x="806" y="52" fill="#8a94bd" font-size="11.5" font-family="-apple-system, BlinkMacSystemFont, 'Segoe UI', Helvetica, Arial, sans-serif" text-anchor="end">24 languages · 24.6 MB</text><g clip-path="url(#langBarClip)"><rect x="34" y="70" width="772" height="34" rx="10" fill="#05060e" fill-opacity="0.45"/><rect x="34.00" y="70" width="385.09" height="34" fill="#3572A5"><title>Python: 49.9%</title></rect><rect x="418.34" y="70" width="1.5" height="34" fill="#05060e" fill-opacity="0.55"/><rect x="419.09" y="70" width="123.44" height="34" fill="#427819"><title>Makefile: 16.0%</title></rect><rect x="541.78" y="70" width="1.5" height="34" fill="#05060e" fill-opacity="0.55"/><rect x="542.53" y="70" width="94.29" height="34" fill="#dea584"><title>Rust: 12.2%</title></rect><rect x="636.07" y="70" width="1.5" height="34" fill="#05060e" fill-opacity="0.55"/><rect x="636.82" y="70" width="57.30" height="34" fill="#f34b7d"><title>C++: 7.4%</title></rect><rect x="693.37" y="70" width="1.5" height="34" fill="#05060e" fill-opacity="0.55"/><rect x="694.12" y="70" width="49.71" height="34" fill="#b07219"><title>Java: 6.4%</title></rect><rect x="743.08" y="70" width="1.5" height="34" fill="#05060e" fill-opacity="0.55"/><rect x="743.83" y="70" width="12.93" height="34" fill="#8b8b8b"><title>TypeScript: 1.7%</title></rect><rect x="756.01" y="70" width="1.5" height="34" fill="#05060e" fill-opacity="0.55"/><rect x="756.76" y="70" width="8.90" height="34" fill="#89e051"><title>Shell: 1.2%</title></rect><rect x="764.91" y="70" width="1.5" height="34" fill="#05060e" fill-opacity="0.55"/><rect x="765.66" y="70" width="8.43" height="34" fill="#555555"><title>C: 1.1%</title></rect><rect x="773.35" y="70" width="1.5" height="34" fill="#05060e" fill-opacity="0.55"/><rect x="774.10" y="70" width="31.90" height="34" fill="#8b8b8b"><title>Other: 4.1%</title></rect><rect x="34" y="70" width="772" height="34" fill="url(#langBarSheen)"/></g><rect x="34.5" y="70.5" width="771" height="33" rx="10" fill="none" stroke="#c0caf5" stroke-opacity="0.18" stroke-width="1"/><circle cx="40.0" cy="136.0" r="5" fill="#3572A5"/><circle cx="40.0" cy="136.0" r="5" fill="none" stroke="#ffffff" stroke-opacity="0.22" stroke-width="1"/><text x="53.0" y="140.0" fill="#a9b1d6" font-size="12.5" font-family="-apple-system, BlinkMacSystemFont, 'Segoe UI', Helvetica, Arial, sans-serif" font-weight="500">Python</text><text x="275.3" y="140.0" fill="#c0caf5" font-size="12.5" font-family="-apple-system, BlinkMacSystemFont, 'Segoe UI', Helvetica, Arial, sans-serif" font-weight="700" text-anchor="end">49.9%</text><circle cx="297.3" cy="136.0" r="5" fill="#427819"/><circle cx="297.3" cy="136.0" r="5" fill="none" stroke="#ffffff" stroke-opacity="0.22" stroke-width="1"/><text x="310.3" y="140.0" fill="#a9b1d6" font-size="12.5" font-family="-apple-system, BlinkMacSystemFont, 'Segoe UI', Helvetica, Arial, sans-serif" font-weight="500">Makefile</text><text x="532.7" y="140.0" fill="#c0caf5" font-size="12.5" font-family="-apple-system, BlinkMacSystemFont, 'Segoe UI', Helvetica, Arial, sans-serif" font-weight="700" text-anchor="end">16.0%</text><circle cx="554.7" cy="136.0" r="5" fill="#dea584"/><circle cx="554.7" cy="136.0" r="5" fill="none" stroke="#ffffff" stroke-opacity="0.22" stroke-width="1"/><text x="567.7" y="140.0" fill="#a9b1d6" font-size="12.5" font-family="-apple-system, BlinkMacSystemFont, 'Segoe UI', Helvetica, Arial, sans-serif" font-weight="500">Rust</text><text x="790.0" y="140.0" fill="#c0caf5" font-size="12.5" font-family="-apple-system, BlinkMacSystemFont, 'Segoe UI', Helvetica, Arial, sans-serif" font-weight="700" text-anchor="end">12.2%</text><circle cx="40.0" cy="166.0" r="5" fill="#f34b7d"/><circle cx="40.0" cy="166.0" r="5" fill="none" stroke="#ffffff" stroke-opacity="0.22" stroke-width="1"/><text x="53.0" y="170.0" fill="#a9b1d6" font-size="12.5" font-family="-apple-system, BlinkMacSystemFont, 'Segoe UI', Helvetica, Arial, sans-serif" font-weight="500">C++</text><text x="275.3" y="170.0" fill="#c0caf5" font-size="12.5" font-family="-apple-system, BlinkMacSystemFont, 'Segoe UI', Helvetica, Arial, sans-serif" font-weight="700" text-anchor="end">7.4%</text><circle cx="297.3" cy="166.0" r="5" fill="#b07219"/><circle cx="297.3" cy="166.0" r="5" fill="none" stroke="#ffffff" stroke-opacity="0.22" stroke-width="1"/><text x="310.3" y="170.0" fill="#a9b1d6" font-size="12.5" font-family="-apple-system, BlinkMacSystemFont, 'Segoe UI', Helvetica, Arial, sans-serif" font-weight="500">Java</text><text x="532.7" y="170.0" fill="#c0caf5" font-size="12.5" font-family="-apple-system, BlinkMacSystemFont, 'Segoe UI', Helvetica, Arial, sans-serif" font-weight="700" text-anchor="end">6.4%</text><circle cx="554.7" cy="166.0" r="5" fill="#8b8b8b"/><circle cx="554.7" cy="166.0" r="5" fill="none" stroke="#ffffff" stroke-opacity="0.22" stroke-width="1"/><text x="567.7" y="170.0" fill="#a9b1d6" font-size="12.5" font-family="-apple-system, BlinkMacSystemFont, 'Segoe UI', Helvetica, Arial, sans-serif" font-weight="500">TypeScript</text><text x="790.0" y="170.0" fill="#c0caf5" font-size="12.5" font-family="-apple-system, BlinkMacSystemFont, 'Segoe UI', Helvetica, Arial, sans-serif" font-weight="700" text-anchor="end">1.7%</text><circle cx="40.0" cy="196.0" r="5" fill="#89e051"/><circle cx="40.0" cy="196.0" r="5" fill="none" stroke="#ffffff" stroke-opacity="0.22" stroke-width="1"/><text x="53.0" y="200.0" fill="#a9b1d6" font-size="12.5" font-family="-apple-system, BlinkMacSystemFont, 'Segoe UI', Helvetica, Arial, sans-serif" font-weight="500">Shell</text><text x="275.3" y="200.0" fill="#c0caf5" font-size="12.5" font-family="-apple-system, BlinkMacSystemFont, 'Segoe UI', Helvetica, Arial, sans-serif" font-weight="700" text-anchor="end">1.2%</text><circle cx="297.3" cy="196.0" r="5" fill="#555555"/><circle cx="297.3" cy="196.0" r="5" fill="none" stroke="#ffffff" stroke-opacity="0.22" stroke-width="1"/><text x="310.3" y="200.0" fill="#a9b1d6" font-size="12.5" font-family="-apple-system, BlinkMacSystemFont, 'Segoe UI', Helvetica, Arial, sans-serif" font-weight="500">C</text><text x="532.7" y="200.0" fill="#c0caf5" font-size="12.5" font-family="-apple-system, BlinkMacSystemFont, 'Segoe UI', Helvetica, Arial, sans-serif" font-weight="700" text-anchor="end">1.1%</text><circle cx="554.7" cy="196.0" r="5" fill="#8b8b8b"/><circle cx="554.7" cy="196.0" r="5" fill="none" stroke="#ffffff" stroke-opacity="0.22" stroke-width="1"/><text x="567.7" y="200.0" fill="#a9b1d6" font-size="12.5" font-family="-apple-system, BlinkMacSystemFont, 'Segoe UI', Helvetica, Arial, sans-serif" font-weight="500">Other</text><text x="790.0" y="200.0" fill="#c0caf5" font-size="12.5" font-family="-apple-system, BlinkMacSystemFont, 'Segoe UI', Helvetica, Arial, sans-serif" font-weight="700" text-anchor="end">4.1%</text></svg>