<svg xmlns="http://www.w3.org/2000/svg" width="840" height="174" viewBox="0 0 840 174"><defs><linearGradient id="gk-sheen" x1="0" y1="0" x2="0" y2="1"><stop offset="0" stop-color="#ffffff" stop-opacity="0.20"/><stop offset="0.06" stop-color="#ffffff" stop-opacity="0.06"/><stop offset="0.5" stop-color="#ffffff" stop-opacity="0"/><stop offset="1" stop-color="#05060e" stop-opacity="0.10"/></linearGradient><linearGradient id="gk-tile" x1="0" y1="0" x2="0" y2="1"><stop offset="0" stop-color="#ffffff" stop-opacity="0.08"/><stop offset="1" stop-color="#05060e" stop-opacity="0.22"/></linearGradient><linearGradient id="gk-rim" x1="0" y1="0" x2="0" y2="1"><stop offset="0" stop-color="#ffffff" stop-opacity="0.45"/><stop offset="0.4" stop-color="#c0caf5" stop-opacity="0.12"/><stop offset="1" stop-color="#c0caf5" stop-opacity="0.05"/></linearGradient><filter id="gk-shadow" x="-40%" y="-40%" width="180%" height="180%"><feDropShadow dx="0" dy="10" stdDeviation="16" flood-color="#03040c" flood-opacity="0.55"/></filter><filter id="gk-blob" x="-80%" y="-80%" width="260%" height="260%"><feGaussianBlur stdDeviation="34"/></filter><filter id="gk-grain" x="0%" y="0%" width="100%" height="100%"><feTurbulence type="fractalNoise" baseFrequency="0.9" numOctaves="2" stitchTiles="stitch" result="n"/><feColorMatrix in="n" type="matrix" values="0 0 0 0 1  0 0 0 0 1  0 0 0 0 1  0 0 0 0.04 0"/></filter></defs><clipPath id="gk-clip"><rect x="12" y="12" width="816" height="150" rx="18"/></clipPath><rect x="12" y="12" width="816" height="150" rx="18" fill="#0c0e18" filter="url(#gk-shadow)"/><g clip-path="url(#gk-clip)" filter="url(#gk-blob)"><ellipse cx="77.28" cy="27" rx="93" ry="76.26" fill="#7aa2f7" fill-opacity="0.3"/><ellipse cx="795.36" cy="156" rx="105" ry="86.1" fill="#bb9af7" fill-opacity="0.26"/><ellipse cx="517.92" cy="0" rx="67.5" ry="55.35" fill="#7dcfff" fill-opacity="0.2"/></g><rect x="12" y="12" width="816" height="150" rx="18" fill="#1b1e2e" fill-opacity="0.74"/><rect x="12" y="12" width="816" height="150" rx="18" fill="url(#gk-sheen)"/><g clip-path="url(#gk-clip)"><rect x="12" y="12" width="816" height="150" filter="url(#gk-grain)"/></g><rect x="12.5" y="12.5" width="815" height="149" rx="18" fill="none" stroke="url(#gk-rim)" stroke-width="1"/><rect x="30" y="13.5" width="780" height="1" fill="#ffffff" fill-opacity="0.0"/><defs><clipPath id="langBarClip"><rect x="34" y="70" width="772" height="34" rx="10"/></clipPath><linearGradient id="langBarSheen" x1="0" y1="0" x2="0" y2="1"><stop offset="0" stop-color="#ffffff" stop-opacity="0.26"/><stop offset="0.45" stop-color="#ffffff" stop-opacity="0.04"/><stop offset="0.55" stop-color="#05060e" stop-opacity="0"/><stop offset="1" stop-color="#05060e" stop-opacity="0.28"/></linearGradient></defs><text x="34" y="30" fill="#8a94bd" font-size="10" font-family="-apple-system, BlinkMacSystemFont, 'Segoe UI', Helvetica, Arial, sans-serif" font-weight="600" letter-spacing="1.2" text-transform="uppercase">REPOSITORY COMPOSITION</text><text x="34" y="52" fill="#c0caf5" font-size="16" font-family="-apple-system, BlinkMacSystemFont, 'Segoe UI', Helvetica, Arial, sans-serif" font-weight="700">Language Breakdown</text><text x="806" y="52" fill="#8a94bd" font-size="11.5" font-family="-apple-system, BlinkMacSystemFont, 'Segoe UI', Helvetica, Arial, sans-serif" text-anchor="end">2 languages · 15.0 KB</text><g clip-path="url(#langBarClip)"><rect x="34" y="70" width="772" height="34" rx="10" fill="#05060e" fill-opacity="0.45"/><rect x="34.00" y="70" width="514.67" height="34" fill="#3572A5"><title>Python: 66.7%</title></rect><rect x="547.92" y="70" width="1.5" height="34" fill="#05060e" fill-opacity="0.55"/><rect x="548.67" y="70" width="257.33" height="34" fill="#dea584"><title>Rust: 33.3%</title></rect><rect x="34" y="70" width="772" height="34" fill="url(#langBarSheen)"/></g><rect x="34.5" y="70.5" width="771" height="33" rx="10" fill="none" stroke="#c0caf5" stroke-opacity="0.18" stroke-width="1"/><circle cx="40.0" cy="136.0" r="5" fill="#3572A5"/><circle cx="40.0" cy="136.0" r="5" fill="none" stroke="#ffffff" stroke-opacity="0.22" stroke-width="1"/><text x="53.0" y="140.0" fill="#a9b1d6" font-size="12.5" font-family="-apple-system, BlinkMacSystemFont, 'Segoe UI', Helvetica, Arial, sans-serif" font-weight="500">Python</text><text x="275.3" y="140.0" fill="#c0caf5" font-size="12.5" font-family="-apple-system, BlinkMacSystemFont, 'Segoe UI', Helvetica, Arial, sans-serif" font-weight="700" text-anchor="end">66.7%</text><circle cx="297.3" cy="136.0" r="5" fill="#dea584"/><circle cx="297.3" cy="136.0" r="5" fill="none" stroke="#ffffff" stroke-opacity="0.22" stroke-width="1"/><text x="310.3" y="140.0" fill="#a9b1d6" font-size="12.5" font-family="-apple-system, BlinkMacSystemFont, 'Segoe UI', Helvetica, Arial, sans-serif" font-weight="500">Rust</text><text x="532.7" y="140.0" fill="#c0caf5" font-size="12.5" font-family="-apple-system, BlinkMacSystemFont, 'Segoe UI', Helvetica, Arial, sans-serif" font-weight="700" text-anchor="end">33.3%</text></svg>