<svg xmlns="http://www.w3.org/2000/svg" width="840" height="280" viewBox="0 0 840 280"><defs><linearGradient id="gk-sheen" x1="0" y1="0" x2="0" y2="1"><stop offset="0" stop-color="#ffffff" stop-opacity="0.20"/><stop offset="0.06" stop-color="#ffffff" stop-opacity="0.06"/><stop offset="0.5" stop-color="#ffffff" stop-opacity="0"/><stop offset="1" stop-color="#05060e" stop-opacity="0.10"/></linearGradient><linearGradient id="gk-tile" x1="0" y1="0" x2="0" y2="1"><stop offset="0" stop-color="#ffffff" stop-opacity="0.08"/><stop offset="1" stop-color="#05060e" stop-opacity="0.22"/></linearGradient><linearGradient id="gk-rim" x1="0" y1="0" x2="0" y2="1"><stop offset="0" stop-color="#ffffff" stop-opacity="0.45"/><stop offset="0.4" stop-color="#c0caf5" stop-opacity="0.12"/><stop offset="1" stop-color="#c0caf5" stop-opacity="0.05"/></linearGradient><filter id="gk-shadow" x="-40%" y="-40%" width="180%" height="180%"><feDropShadow dx="0" dy="10" stdDeviation="16" flood-color="#03040c" flood-opacity="0.55"/></filter><filter id="gk-blob" x="-80%" y="-80%" width="260%" height="260%"><feGaussianBlur stdDeviation="34"/></filter><filter id="gk-grain" x="0%" y="0%" width="100%" height="100%"><feTurbulence type="fractalNoise" baseFrequency="0.9" numOctaves="2" stitchTiles="stitch" result="n"/><feColorMatrix in="n" type="matrix" values="0 0 0 0 1  0 0 0 0 1  0 0 0 0 1  0 0 0 0.04 0"/></filter></defs><clipPath id="gk-clip"><rect x="12" y="12" width="816" height="256" rx="18"/></clipPath><rect x="12" y="12" width="816" height="256" rx="18" fill="#0c0e18" filter="url(#gk-shadow)"/><g clip-path="url(#gk-clip)" filter="url(#gk-blob)"><ellipse cx="77.28" cy="37.6" rx="158.72" ry="130.15" fill="#7aa2f7" fill-opacity="0.3"/><ellipse cx="795.36" cy="257.76" rx="179.2" ry="146.94" fill="#bb9af7" fill-opacity="0.26"/><ellipse cx="517.92" cy="-8.48" rx="115.2" ry="94.46" fill="#7dcfff" fill-opacity="0.2"/></g><rect x="12" y="12" width="816" height="256" rx="18" fill="#1b1e2e" fill-opacity="0.74"/><rect x="12" y="12" width="816" height="256" rx="18" fill="url(#gk-sheen)"/><g clip-path="url(#gk-clip)"><rect x="12" y="12" width="816" height="256" filter="url(#gk-grain)"/></g><rect x="12.5" y="12.5" width="815" height="255" rx="18" fill="none" stroke="url(#gk-rim)" stroke-width="1"/><rect x="30" y="13.5" width="780" height="1" fill="#ffffff" fill-opacity="0.0"/><text x="24" y="34" fill="#c0caf5" font-size="16" font-family="-apple-system, BlinkMacSystemFont, 'Segoe UI', Helvetica, Arial, sans-serif" font-weight="700">Current Focus</text><text x="816" y="34" fill="#8a94bd" font-size="11" font-family="-apple-system, BlinkMacSystemFont, 'Segoe UI', Helvetica, Arial, sans-serif" text-anchor="end" letter-spacing="0.4">now &#47; next &#47; shipped</text><linearGradient id="gk-ribbon" x1="0" y1="0" x2="1" y2="0"><stop offset="0" stop-color="#7aa2f7" stop-opacity="0.95"/><stop offset="0.55" stop-color="#7dcfff" stop-opacity="0.85"/><stop offset="1" stop-color="#7dcfff" stop-opacity="0"/></linearGradient><rect x="24" y="46" width="792" height="3" rx="1.5" fill="url(#gk-ribbon)"/><rect x="24" y="64" width="254.67" height="188" rx="13" fill="#232843" fill-opacity="0.55"/><rect x="24" y="64" width="254.67" height="188" rx="13" fill="url(#gk-tile)"/><rect x="24.5" y="64.5" width="253.67" height="187" rx="13" fill="none" stroke="#c0caf5" stroke-opacity="0.14" stroke-width="1"/><rect x="30.5" y="65" width="241.67" height="1" rx="0.5" fill="#ffffff" fill-opacity="0.14"/><circle cx="42" cy="84" r="4" fill="#7dcfff"/><text x="52.00" y="89" fill="#7dcfff" font-size="12" font-family="-apple-system, BlinkMacSystemFont, 'Segoe UI', Helvetica, Arial, sans-serif" font-weight="700" letter-spacing="1.2">NOW</text><rect x="237.85" y="73" width="28.82" height="22" rx="7" fill="#8a94bd" fill-opacity="0.16"/><text x="247.85" y="87.74" fill="#a9b1d6" font-size="11" font-family="-apple-system, BlinkMacSystemFont, 'Segoe UI', Helvetica, Arial, sans-serif" font-weight="500">3</text><rect x="38.00" y="102" width="226.67" height="1" fill="#c0caf5" fill-opacity="0.14"/><g transform="translate(36,117) scale(0.54)" ><rect x="5" y="10.5" width="14" height="9.5" rx="2.2" fill="#7dcfff"/><path d="M8 10.5V8a4 4 0 0 1 8 0v2.5" fill="none" stroke="#7dcfff" stroke-width="2"/></g><text x="56.00" y="128" fill="#c0caf5" font-size="12" font-family="-apple-system, BlinkMacSystemFont, 'Segoe UI', Helvetica, Arial, sans-serif" font-weight="600">repo-surface-scout</text><text x="56.00" y="145" fill="#8a94bd" font-size="10.5" font-family="-apple-system, BlinkMacSystemFont, 'Segoe UI', Helvetica, Arial, sans-serif">Python · pushed today</text><g transform="translate(36,161) scale(0.54)" ><rect x="5" y="10.5" width="14" height="9.5" rx="2.2" fill="#7dcfff"/><path d="M8 10.5V8a4 4 0 0 1 8 0v2.5" fill="none" stroke="#7dcfff" stroke-width="2"/></g><text x="56.00" y="172" fill="#c0caf5" font-size="12" font-family="-apple-system, BlinkMacSystemFont, 'Segoe UI', Helvetica, Arial, sans-serif" font-weight="600">semantic-tdd</text><text x="56.00" y="189" fill="#8a94bd" font-size="10.5" font-family="-apple-system, BlinkMacSystemFont, 'Segoe UI', Helvetica, Arial, sans-serif">Python · pushed 2 hours ago</text><circle cx="40.5" cy="212" r="3.5" fill="#7dcfff"/><a href="https://github.com/jguida941/raspberry-pi-smart-thermostat"><text x="56.00" y="216" fill="#c0caf5" font-size="12" font-family="-apple-system, BlinkMacSystemFont, 'Segoe UI', Helvetica, Arial, sans-serif" font-weight="600">raspberry-pi-smart-thermostat</text></a><text x="56.00" y="233" fill="#8a94bd" font-size="10.5" font-family="-apple-system, BlinkMacSystemFont, 'Segoe UI', Helvetica, Arial, sans-serif">Python · pushed 5 hours ago</text><rect x="292.67" y="64" width="254.67" height="188" rx="13" fill="#232843" fill-opacity="0.55"/><rect x="292.67" y="64" width="254.67" height="188" rx="13" fill="url(#gk-tile)"/><rect x="293.17" y="64.5" width="253.67" height="187" rx="13" fill="none" stroke="#c0caf5" stroke-opacity="0.14" stroke-width="1"/><rect x="299.17" y="65" width="241.67" height="1" rx="0.5" fill="#ffffff" fill-opacity="0.14"/><circle cx="310.67" cy="84" r="4" fill="#ff9e64"/><text x="320.67" y="89" fill="#ff9e64" font-size="12" font-family="-apple-system, BlinkMacSystemFont, 'Segoe UI', Helvetica, Arial, sans-serif" font-weight="700" letter-spacing="1.2">NEXT</text><rect x="506.51" y="73" width="28.82" height="22" rx="7" fill="#8a94bd" fill-opacity="0.16"/><text x="516.51" y="87.74" fill="#a9b1d6" font-size="11" font-family="-apple-system, BlinkMacSystemFont, 'Segoe UI', Helvetica, Arial, sans-serif" font-weight="500">1</text><rect x="306.67" y="102" width="226.67" height="1" fill="#c0caf5" fill-opacity="0.14"/><circle cx="309.17" cy="124" r="3.5" fill="#ff9e64"/><a href="https://github.com/jguida941/semantic-tdd/pull/1"><text x="324.67" y="128" fill="#c0caf5" font-size="12" font-family="-apple-system, BlinkMacSystemFont, 'Segoe UI', Helvetica, Arial, sans-serif" font-weight="600">PR #1</text></a><text x="324.67" y="145" fill="#8a94bd" font-size="10.5" font-family="-apple-system, BlinkMacSystemFont, 'Segoe UI', Helvetica, Arial, sans-serif">semantic-tdd · open · 1 week ago</text><rect x="561.33" y="64" width="254.67" height="188" rx="13" fill="#232843" fill-opacity="0.55"/><rect x="561.33" y="64" width="254.67" height="188" rx="13" fill="url(#gk-tile)"/><rect x="561.83" y="64.5" width="253.67" height="187" rx="13" fill="none" stroke="#c0caf5" stroke-opacity="0.14" stroke-width="1"/><rect x="567.83" y="65" width="241.67" height="1" rx="0.5" fill="#ffffff" fill-opacity="0.14"/><circle cx="579.33" cy="84" r="4" fill="#9ece6a"/><text x="589.33" y="89" fill="#9ece6a" font-size="12" font-family="-apple-system, BlinkMacSystemFont, 'Segoe UI', Helvetica, Arial, sans-serif" font-weight="700" letter-spacing="1.2">SHIPPED</text><rect x="775.18" y="73" width="28.82" height="22" rx="7" fill="#8a94bd" fill-opacity="0.16"/><text x="785.18" y="87.74" fill="#a9b1d6" font-size="11" font-family="-apple-system, BlinkMacSystemFont, 'Segoe UI', Helvetica, Arial, sans-serif" font-weight="500">0</text><rect x="575.33" y="102" width="226.67" height="1" fill="#c0caf5" fill-opacity="0.14"/><text x="688.67" y="182" fill="#8a94bd" font-size="11" font-family="-apple-system, BlinkMacSystemFont, 'Segoe UI', Helvetica, Arial, sans-serif" text-anchor="middle">No items in this lane.</text></svg>