<svg xmlns="http://www.w3.org/2000/svg" width="840" height="307" viewBox="0 0 840 307"><defs><linearGradient id="gk-sheen" x1="0" y1="0" x2="0" y2="1"><stop offset="0" stop-color="#ffffff" stop-opacity="0.20"/><stop offset="0.06" stop-color="#ffffff" stop-opacity="0.06"/><stop offset="0.5" stop-color="#ffffff" stop-opacity="0"/><stop offset="1" stop-color="#05060e" stop-opacity="0.10"/></linearGradient><linearGradient id="gk-tile" x1="0" y1="0" x2="0" y2="1"><stop offset="0" stop-color="#ffffff" stop-opacity="0.08"/><stop offset="1" stop-color="#05060e" stop-opacity="0.22"/></linearGradient><linearGradient id="gk-rim" x1="0" y1="0" x2="0" y2="1"><stop offset="0" stop-color="#ffffff" stop-opacity="0.45"/><stop offset="0.4" stop-color="#c0caf5" stop-opacity="0.12"/><stop offset="1" stop-color="#c0caf5" stop-opacity="0.05"/></linearGradient><filter id="gk-shadow" x="-40%" y="-40%" width="180%" height="180%"><feDropShadow dx="0" dy="10" stdDeviation="16" flood-color="#03040c" flood-opacity="0.55"/></filter><filter id="gk-blob" x="-80%" y="-80%" width="260%" height="260%"><feGaussianBlur stdDeviation="34"/></filter><filter id="gk-grain" x="0%" y="0%" width="100%" height="100%"><feTurbulence type="fractalNoise" baseFrequency="0.9" numOctaves="2" stitchTiles="stitch" result="n"/><feColorMatrix in="n" type="matrix" values="0 0 0 0 1  0 0 0 0 1  0 0 0 0 1  0 0 0 0.04 0"/></filter></defs><clipPath id="gk-clip"><rect x="12" y="12" width="816" height="283" rx="18"/></clipPath><rect x="12" y="12" width="816" height="283" rx="18" fill="#0c0e18" filter="url(#gk-shadow)"/><g clip-path="url(#gk-clip)" filter="url(#gk-blob)"><ellipse cx="77.28" cy="40.3" rx="175.46" ry="143.88" fill="#7aa2f7" fill-opacity="0.3"/><ellipse cx="795.36" cy="283.68" rx="198.1" ry="162.44" fill="#bb9af7" fill-opacity="0.26"/><ellipse cx="517.92" cy="-10.64" rx="127.35" ry="104.43" fill="#7dcfff" fill-opacity="0.2"/></g><rect x="12" y="12" width="816" height="283" rx="18" fill="#1b1e2e" fill-opacity="0.74"/><rect x="12" y="12" width="816" height="283" rx="18" fill="url(#gk-sheen)"/><g clip-path="url(#gk-clip)"><rect x="12" y="12" width="816" height="283" filter="url(#gk-grain)"/></g><rect x="12.5" y="12.5" width="815" height="282" rx="18" fill="none" stroke="url(#gk-rim)" stroke-width="1"/><rect x="30" y="13.5" width="780" height="1" fill="#ffffff" fill-opacity="0.0"/><text x="28" y="46" fill="#8a94bd" font-size="11" font-family="-apple-system, BlinkMacSystemFont, 'Segoe UI', Helvetica, Arial, sans-serif" font-weight="600" letter-spacing="1.2">ACTIVE FOCUS</text><text x="28" y="70" fill="#c0caf5" font-size="20" font-family="-apple-system, BlinkMacSystemFont, 'Segoe UI', Helvetica, Arial, sans-serif" font-weight="600">Current Focus</text><text x="812" y="68" fill="#8a94bd" font-size="12" font-family="-apple-system, BlinkMacSystemFont, 'Segoe UI', Helvetica, Arial, sans-serif" font-weight="400" text-anchor="end">now · next · shipped</text><rect x="28" y="82" width="784" height="1" fill="#c0caf5" fill-opacity="0.14"/><rect x="28" y="91" width="253.33" height="194" rx="13" fill="#232843" fill-opacity="0.55"/><rect x="28" y="91" width="253.33" height="194" rx="13" fill="url(#gk-tile)"/><rect x="28.5" y="91.5" width="252.33" height="193" rx="13" fill="none" stroke="#c0caf5" stroke-opacity="0.14" stroke-width="1"/><rect x="34.5" y="92" width="240.33" height="1" rx="0.5" fill="#ffffff" fill-opacity="0.14"/><text x="40" y="113" fill="#8a94bd" font-size="11" font-family="-apple-system, BlinkMacSystemFont, 'Segoe UI', Helvetica, Arial, sans-serif" font-weight="600" letter-spacing="1.2">NOW</text><text x="269.33" y="114" fill="#8a94bd" font-size="12" font-family="-apple-system, BlinkMacSystemFont, 'Segoe UI', Helvetica, Arial, sans-serif" font-weight="400" text-anchor="end">3</text><rect x="40" y="123" width="229.333" height="1" fill="#8a94bd" fill-opacity="0.16"/><g transform="translate(40,135) scale(0.583)" fill="none" stroke="#8a94bd" stroke-width="2.571" stroke-linecap="round" stroke-linejoin="round"><rect width="18" height="11" x="3" y="11" rx="2" ry="2"/><path d="M7 11V7a5 5 0 0 1 10 0v4"/></g><text x="59" y="147" fill="#c0caf5" font-size="14" font-family="-apple-system, BlinkMacSystemFont, 'Segoe UI', Helvetica, Arial, sans-serif" font-weight="400">semantic-tdd</text><text x="40" y="163" fill="#8a94bd" font-size="12" font-family="-apple-system, BlinkMacSystemFont, 'Segoe UI', Helvetica, Arial, sans-serif" font-weight="400">Python · pushed 5 hours ago</text><g transform="translate(40,181) scale(0.583)" fill="none" stroke="#8a94bd" stroke-width="2.571" stroke-linecap="round" stroke-linejoin="round"><rect width="18" height="11" x="3" y="11" rx="2" ry="2"/><path d="M7 11V7a5 5 0 0 1 10 0v4"/></g><text x="59" y="193" fill="#c0caf5" font-size="14" font-family="-apple-system, BlinkMacSystemFont, 'Segoe UI', Helvetica, Arial, sans-serif" font-weight="400">translation-proof-adapter</text><text x="40" y="209" fill="#8a94bd" font-size="12" font-family="-apple-system, BlinkMacSystemFont, 'Segoe UI', Helvetica, Arial, sans-serif" font-weight="400">Python · pushed 17 hours ago</text><g transform="translate(40,227) scale(0.583)" fill="none" stroke="#8a94bd" stroke-width="2.571" stroke-linecap="round" stroke-linejoin="round"><rect width="18" height="11" x="3" y="11" rx="2" ry="2"/><path d="M7 11V7a5 5 0 0 1 10 0v4"/></g><text x="59" y="239" fill="#c0caf5" font-size="14" font-family="-apple-system, BlinkMacSystemFont, 'Segoe UI', Helvetica, Arial, sans-serif" font-weight="400">LAYLA</text><text x="40" y="255" fill="#8a94bd" font-size="12" font-family="-apple-system, BlinkMacSystemFont, 'Segoe UI', Helvetica, Arial, sans-serif" font-weight="400">GDScript · pushed 17 hours ago</text><rect x="293.33" y="91" width="253.33" height="194" rx="13" fill="#232843" fill-opacity="0.55"/><rect x="293.33" y="91" width="253.33" height="194" rx="13" fill="url(#gk-tile)"/><rect x="293.83" y="91.5" width="252.33" height="193" rx="13" fill="none" stroke="#c0caf5" stroke-opacity="0.14" stroke-width="1"/><rect x="299.83" y="92" width="240.33" height="1" rx="0.5" fill="#ffffff" fill-opacity="0.14"/><text x="305.33" y="113" fill="#8a94bd" font-size="11" font-family="-apple-system, BlinkMacSystemFont, 'Segoe UI', Helvetica, Arial, sans-serif" font-weight="600" letter-spacing="1.2">NEXT</text><text x="534.67" y="114" fill="#8a94bd" font-size="12" font-family="-apple-system, BlinkMacSystemFont, 'Segoe UI', Helvetica, Arial, sans-serif" font-weight="400" text-anchor="end">1</text><rect x="305.333" y="123" width="229.333" height="1" fill="#8a94bd" fill-opacity="0.16"/><a href="https://github.com/jguida941/semantic-tdd/pull/1"><text x="305.33" y="147" fill="#c0caf5" font-size="14" font-family="-apple-system, BlinkMacSystemFont, 'Segoe UI', Helvetica, Arial, sans-serif" font-weight="400">PR #1</text></a><text x="305.33" y="163" fill="#8a94bd" font-size="12" font-family="-apple-system, BlinkMacSystemFont, 'Segoe UI', Helvetica, Arial, sans-serif" font-weight="400">semantic-tdd · open · 2 weeks...</text><rect x="558.67" y="91" width="253.33" height="194" rx="13" fill="#232843" fill-opacity="0.55"/><rect x="558.67" y="91" width="253.33" height="194" rx="13" fill="url(#gk-tile)"/><rect x="559.17" y="91.5" width="252.33" height="193" rx="13" fill="none" stroke="#c0caf5" stroke-opacity="0.14" stroke-width="1"/><rect x="565.17" y="92" width="240.33" height="1" rx="0.5" fill="#ffffff" fill-opacity="0.14"/><text x="570.67" y="113" fill="#8a94bd" font-size="11" font-family="-apple-system, BlinkMacSystemFont, 'Segoe UI', Helvetica, Arial, sans-serif" font-weight="600" letter-spacing="1.2">SHIPPED</text><text x="800" y="114" fill="#8a94bd" font-size="12" font-family="-apple-system, BlinkMacSystemFont, 'Segoe UI', Helvetica, Arial, sans-serif" font-weight="400" text-anchor="end">2</text><rect x="570.667" y="123" width="229.333" height="1" fill="#8a94bd" fill-opacity="0.16"/><a href="https://github.com/jguida941/cpp-to-assembly"><text x="570.67" y="147" fill="#c0caf5" font-size="14" font-family="-apple-system, BlinkMacSystemFont, 'Segoe UI', Helvetica, Arial, sans-serif" font-weight="400">Add C++ to assembly activity</text></a><text x="570.67" y="163" fill="#8a94bd" font-size="12" font-family="-apple-system, BlinkMacSystemFont, 'Segoe UI', Helvetica, Arial, sans-serif" font-weight="400">cpp-to-assembly · 1 day ago</text><a href="https://github.com/jguida941/CS-350-Emerging-Systems-Architectures"><text x="570.67" y="193" fill="#c0caf5" font-size="14" font-family="-apple-system, BlinkMacSystemFont, 'Segoe UI', Helvetica, Arial, sans-serif" font-weight="400">Update Module Eight Journal</text></a><text x="570.67" y="209" fill="#8a94bd" font-size="12" font-family="-apple-system, BlinkMacSystemFont, 'Segoe UI', Helvetica, Arial, sans-serif" font-weight="400">CS-350-Emerging-Systems-Archi...</text></svg>