<svg xmlns="http://www.w3.org/2000/svg" width="840" height="265" viewBox="0 0 840 265"><defs><linearGradient id="gk-sheen" x1="0" y1="0" x2="0" y2="1"><stop offset="0" stop-color="#ffffff" stop-opacity="0.20"/><stop offset="0.06" stop-color="#ffffff" stop-opacity="0.06"/><stop offset="0.5" stop-color="#ffffff" stop-opacity="0"/><stop offset="1" stop-color="#05060e" stop-opacity="0.10"/></linearGradient><linearGradient id="gk-tile" x1="0" y1="0" x2="0" y2="1"><stop offset="0" stop-color="#ffffff" stop-opacity="0.08"/><stop offset="1" stop-color="#05060e" stop-opacity="0.22"/></linearGradient><linearGradient id="gk-rim" x1="0" y1="0" x2="0" y2="1"><stop offset="0" stop-color="#ffffff" stop-opacity="0.45"/><stop offset="0.4" stop-color="#c0caf5" stop-opacity="0.12"/><stop offset="1" stop-color="#c0caf5" stop-opacity="0.05"/></linearGradient><filter id="gk-shadow" x="-40%" y="-40%" width="180%" height="180%"><feDropShadow dx="0" dy="10" stdDeviation="16" flood-color="#03040c" flood-opacity="0.55"/></filter><filter id="gk-blob" x="-80%" y="-80%" width="260%" height="260%"><feGaussianBlur stdDeviation="34"/></filter><filter id="gk-grain" x="0%" y="0%" width="100%" height="100%"><feTurbulence type="fractalNoise" baseFrequency="0.9" numOctaves="2" stitchTiles="stitch" result="n"/><feColorMatrix in="n" type="matrix" values="0 0 0 0 1  0 0 0 0 1  0 0 0 0 1  0 0 0 0.04 0"/></filter></defs><clipPath id="gk-clip"><rect x="12" y="12" width="816" height="241" rx="18"/></clipPath><rect x="12" y="12" width="816" height="241" rx="18" fill="#0c0e18" filter="url(#gk-shadow)"/><g clip-path="url(#gk-clip)" filter="url(#gk-blob)"><ellipse cx="77.28" cy="36.1" rx="149.42" ry="122.52" fill="#7aa2f7" fill-opacity="0.3"/><ellipse cx="795.36" cy="243.36" rx="168.7" ry="138.33" fill="#bb9af7" fill-opacity="0.26"/><ellipse cx="517.92" cy="-7.28" rx="108.45" ry="88.93" fill="#7dcfff" fill-opacity="0.2"/></g><rect x="12" y="12" width="816" height="241" rx="18" fill="#1b1e2e" fill-opacity="0.74"/><rect x="12" y="12" width="816" height="241" rx="18" fill="url(#gk-sheen)"/><g clip-path="url(#gk-clip)"><rect x="12" y="12" width="816" height="241" filter="url(#gk-grain)"/></g><rect x="12.5" y="12.5" width="815" height="240" rx="18" fill="none" stroke="url(#gk-rim)" stroke-width="1"/><rect x="30" y="13.5" width="780" height="1" fill="#ffffff" fill-opacity="0.0"/><text x="28" y="46" fill="#8a94bd" font-size="11" font-family="-apple-system, BlinkMacSystemFont, 'Segoe UI', Helvetica, Arial, sans-serif" font-weight="600" letter-spacing="1.2">CANONICAL CLI SNAPSHOT</text><text x="28" y="70" fill="#c0caf5" font-size="20" font-family="-apple-system, BlinkMacSystemFont, 'Segoe UI', Helvetica, Arial, sans-serif" font-weight="700">Raw Data Snapshot</text><rect x="28" y="82" width="784" height="1" fill="#c0caf5" fill-opacity="0.14"/><text x="28" y="141" fill="#c0caf5" font-size="46" font-family="-apple-system, BlinkMacSystemFont, 'Segoe UI', Helvetica, Arial, sans-serif" font-weight="700">8,130</text><text x="28" y="165" fill="#a9b1d6" font-size="14" font-family="-apple-system, BlinkMacSystemFont, 'Segoe UI', Helvetica, Arial, sans-serif" font-weight="400">Last 12 Months Contributions</text><text x="28" y="183" fill="#8a94bd" font-size="12" font-family="-apple-system, BlinkMacSystemFont, 'Segoe UI', Helvetica, Arial, sans-serif" font-weight="400">canonical CLI pull</text><rect x="272" y="89" width="1" height="84" fill="#8a94bd" fill-opacity="0.16"/><rect x="296" y="107" width="120" height="66" rx="13" fill="#232843" fill-opacity="0.55"/><rect x="296" y="107" width="120" height="66" rx="13" fill="url(#gk-tile)"/><rect x="296.5" y="107.5" width="119" height="65" rx="13" fill="none" stroke="#c0caf5" stroke-opacity="0.14" stroke-width="1"/><rect x="302.5" y="108" width="107" height="1" rx="0.5" fill="#ffffff" fill-opacity="0.14"/><g transform="translate(312,120) scale(0.62)" fill="none" stroke="#8a94bd" stroke-width="2" stroke-linecap="round" stroke-linejoin="round"><circle cx="12" cy="12" r="3.4"/><path d="M2 12h5.2M16.8 12H22"/></g><text x="312" y="149" fill="#c0caf5" font-size="22" font-family="-apple-system, BlinkMacSystemFont, 'Segoe UI', Helvetica, Arial, sans-serif" font-weight="700">4,282</text><text x="312" y="164" fill="#8a94bd" font-size="12" font-family="-apple-system, BlinkMacSystemFont, 'Segoe UI', Helvetica, Arial, sans-serif" font-weight="400">Public Repo C...</text><rect x="428" y="107" width="120" height="66" rx="13" fill="#232843" fill-opacity="0.55"/><rect x="428" y="107" width="120" height="66" rx="13" fill="url(#gk-tile)"/><rect x="428.5" y="107.5" width="119" height="65" rx="13" fill="none" stroke="#c0caf5" stroke-opacity="0.14" stroke-width="1"/><rect x="434.5" y="108" width="107" height="1" rx="0.5" fill="#ffffff" fill-opacity="0.14"/><g transform="translate(444,120) scale(0.62)" fill="none" stroke="#8a94bd" stroke-width="2" stroke-linecap="round" stroke-linejoin="round"><path d="M9 8l-4 4 4 4M15 8l4 4-4 4"/></g><text x="444" y="149" fill="#c0caf5" font-size="22" font-family="-apple-system, BlinkMacSystemFont, 'Segoe UI', Helvetica, Arial, sans-serif" font-weight="700">67</text><text x="444" y="164" fill="#8a94bd" font-size="12" font-family="-apple-system, BlinkMacSystemFont, 'Segoe UI', Helvetica, Arial, sans-serif" font-weight="400">Public Non-Fo...</text><rect x="560" y="107" width="120" height="66" rx="13" fill="#232843" fill-opacity="0.55"/><rect x="560" y="107" width="120" height="66" rx="13" fill="url(#gk-tile)"/><rect x="560.5" y="107.5" width="119" height="65" rx="13" fill="none" stroke="#c0caf5" stroke-opacity="0.14" stroke-width="1"/><rect x="566.5" y="108" width="107" height="1" rx="0.5" fill="#ffffff" fill-opacity="0.14"/><g transform="translate(576,120) scale(0.62)" ><rect x="5" y="10.5" width="14" height="9.5" rx="2.2" fill="#8a94bd"/><path d="M8 10.5V8a4 4 0 0 1 8 0v2.5" fill="none" stroke="#8a94bd" stroke-width="2"/></g><text x="576" y="149" fill="#c0caf5" font-size="22" font-family="-apple-system, BlinkMacSystemFont, 'Segoe UI', Helvetica, Arial, sans-serif" font-weight="700">146</text><text x="576" y="164" fill="#8a94bd" font-size="12" font-family="-apple-system, BlinkMacSystemFont, 'Segoe UI', Helvetica, Arial, sans-serif" font-weight="400">Private Owned...</text><rect x="692" y="107" width="120" height="66" rx="13" fill="#232843" fill-opacity="0.55"/><rect x="692" y="107" width="120" height="66" rx="13" fill="url(#gk-tile)"/><rect x="692.5" y="107.5" width="119" height="65" rx="13" fill="none" stroke="#c0caf5" stroke-opacity="0.14" stroke-width="1"/><rect x="698.5" y="108" width="107" height="1" rx="0.5" fill="#ffffff" fill-opacity="0.14"/><g transform="translate(708,120) scale(0.62)" fill="#8a94bd"><path d="M12 17.3 18.2 21l-1.6-7 5.4-4.7-7.2-.6L12 2 9.2 8.7 2 9.3l5.5 4.7L5.8 21z"/></g><text x="708" y="149" fill="#c0caf5" font-size="22" font-family="-apple-system, BlinkMacSystemFont, 'Segoe UI', Helvetica, Arial, sans-serif" font-weight="700">78</text><text x="708" y="164" fill="#8a94bd" font-size="12" font-family="-apple-system, BlinkMacSystemFont, 'Segoe UI', Helvetica, Arial, sans-serif" font-weight="400">Repo Stargaze...</text><text x="28" y="207" fill="#8a94bd" font-size="11" font-family="-apple-system, BlinkMacSystemFont, 'Segoe UI', Helvetica, Arial, sans-serif" font-weight="600" letter-spacing="1.2">PIPELINE STATUS</text><rect x="28" y="219" width="84.74" height="24" rx="7" fill="#9ece6a" fill-opacity="0.14"/><g transform="translate(37,225) scale(0.5)" fill="none" stroke="#9ece6a" stroke-width="2" stroke-linecap="round" stroke-linejoin="round"><path d="M20 6 9 17l-5-5"/></g><text x="53" y="234.74" fill="#9ece6a" font-size="11" font-family="-apple-system, BlinkMacSystemFont, 'Segoe UI', Helvetica, Arial, sans-serif" font-weight="500">CI · OK</text><rect x="124.74" y="219" width="118.84" height="24" rx="7" fill="#9ece6a" fill-opacity="0.14"/><g transform="translate(133.74,225) scale(0.5)" fill="none" stroke="#9ece6a" stroke-width="2" stroke-linecap="round" stroke-linejoin="round"><path d="M20 6 9 17l-5-5"/></g><text x="149.74" y="234.74" fill="#9ece6a" font-size="11" font-family="-apple-system, BlinkMacSystemFont, 'Segoe UI', Helvetica, Arial, sans-serif" font-weight="500">Commits · OK</text><rect x="255.58" y="219" width="125.66" height="24" rx="7" fill="#9ece6a" fill-opacity="0.14"/><g transform="translate(264.58,225) scale(0.5)" fill="none" stroke="#9ece6a" stroke-width="2" stroke-linecap="round" stroke-linejoin="round"><path d="M20 6 9 17l-5-5"/></g><text x="280.58" y="234.74" fill="#9ece6a" font-size="11" font-family="-apple-system, BlinkMacSystemFont, 'Segoe UI', Helvetica, Arial, sans-serif" font-weight="500">Releases · OK</text><rect x="393.24" y="219" width="112.02" height="24" rx="7" fill="#9ece6a" fill-opacity="0.14"/><g transform="translate(402.24,225) scale(0.5)" fill="none" stroke="#9ece6a" stroke-width="2" stroke-linecap="round" stroke-linejoin="round"><path d="M20 6 9 17l-5-5"/></g><text x="418.24" y="234.74" fill="#9ece6a" font-size="11" font-family="-apple-system, BlinkMacSystemFont, 'Segoe UI', Helvetica, Arial, sans-serif" font-weight="500">Events · OK</text></svg>