<svg xmlns="http://www.w3.org/2000/svg" width="840" height="550" viewBox="0 0 840 550"><rect width="840" height="550" rx="14" fill="#24283b" stroke="#414868" stroke-width="1"/><text x="20" y="20" fill="#565f89" font-size="10" font-family="-apple-system, BlinkMacSystemFont, 'Segoe UI', Helvetica, Arial, sans-serif">Python pull from GitHub API</text><rect x="20.0" y="30" width="393.0" height="62" rx="11" fill="#292e42" stroke="#414868" stroke-width="1"/><rect x="29.0" y="40" width="4" height="42" rx="2" fill="#7aa2f7"/><text x="40.0" y="54" fill="#565f89" font-size="11" font-family="-apple-system, BlinkMacSystemFont, 'Segoe UI', Helvetica, Arial, sans-serif">Last 12 Months Contributions</text><text x="40.0" y="79" fill="#c0caf5" font-size="24" font-family="-apple-system, BlinkMacSystemFont, 'Segoe UI', Helvetica, Arial, sans-serif" font-weight="700">4,325</text><rect x="427.0" y="30" width="393.0" height="62" rx="11" fill="#292e42" stroke="#414868" stroke-width="1"/><rect x="436.0" y="40" width="4" height="42" rx="2" fill="#7dcfff"/><text x="447.0" y="54" fill="#565f89" font-size="11" font-family="-apple-system, BlinkMacSystemFont, 'Segoe UI', Helvetica, Arial, sans-serif">Public Repo Commits (Owned Non-Fork)</text><text x="447.0" y="79" fill="#c0caf5" font-size="24" font-family="-apple-system, BlinkMacSystemFont, 'Segoe UI', Helvetica, Arial, sans-serif" font-weight="700">2,956</text><rect x="20.0" y="102" width="393.0" height="62" rx="11" fill="#292e42" stroke="#414868" stroke-width="1"/><rect x="29.0" y="112" width="4" height="42" rx="2" fill="#7aa2f7"/><text x="40.0" y="126" fill="#565f89" font-size="11" font-family="-apple-system, BlinkMacSystemFont, 'Segoe UI', Helvetica, Arial, sans-serif">Public Non-Fork Repos</text><text x="40.0" y="151" fill="#c0caf5" font-size="24" font-family="-apple-system, BlinkMacSystemFont, 'Segoe UI', Helvetica, Arial, sans-serif" font-weight="700">66</text><rect x="427.0" y="102" width="393.0" height="62" rx="11" fill="#292e42" stroke="#414868" stroke-width="1"/><rect x="436.0" y="112" width="4" height="42" rx="2" fill="#7dcfff"/><text x="447.0" y="126" fill="#565f89" font-size="11" font-family="-apple-system, BlinkMacSystemFont, 'Segoe UI', Helvetica, Arial, sans-serif">Public Fork Repos</text><text x="447.0" y="151" fill="#c0caf5" font-size="24" font-family="-apple-system, BlinkMacSystemFont, 'Segoe UI', Helvetica, Arial, sans-serif" font-weight="700">0</text><rect x="20.0" y="174" width="393.0" height="62" rx="11" fill="#292e42" stroke="#414868" stroke-width="1"/><rect x="29.0" y="184" width="4" height="42" rx="2" fill="#7aa2f7"/><text x="40.0" y="198" fill="#565f89" font-size="11" font-family="-apple-system, BlinkMacSystemFont, 'Segoe UI', Helvetica, Arial, sans-serif">Private Owned Repos</text><text x="40.0" y="223" fill="#c0caf5" font-size="24" font-family="-apple-system, BlinkMacSystemFont, 'Segoe UI', Helvetica, Arial, sans-serif" font-weight="700">140</text><rect x="427.0" y="174" width="393.0" height="62" rx="11" fill="#292e42" stroke="#414868" stroke-width="1"/><rect x="436.0" y="184" width="4" height="42" rx="2" fill="#7dcfff"/><text x="447.0" y="198" fill="#565f89" font-size="11" font-family="-apple-system, BlinkMacSystemFont, 'Segoe UI', Helvetica, Arial, sans-serif">Total Stars</text><text x="447.0" y="223" fill="#c0caf5" font-size="24" font-family="-apple-system, BlinkMacSystemFont, 'Segoe UI', Helvetica, Arial, sans-serif" font-weight="700">73</text><rect x="20.0" y="246" width="393.0" height="62" rx="11" fill="#292e42" stroke="#414868" stroke-width="1"/><rect x="29.0" y="256" width="4" height="42" rx="2" fill="#7aa2f7"/><text x="40.0" y="270" fill="#565f89" font-size="11" font-family="-apple-system, BlinkMacSystemFont, 'Segoe UI', Helvetica, Arial, sans-serif">Languages Detected</text><text x="40.0" y="295" fill="#c0caf5" font-size="24" font-family="-apple-system, BlinkMacSystemFont, 'Segoe UI', Helvetica, Arial, sans-serif" font-weight="700">24</text><rect x="427.0" y="246" width="393.0" height="62" rx="11" fill="#292e42" stroke="#414868" stroke-width="1"/><rect x="436.0" y="256" width="4" height="42" rx="2" fill="#7dcfff"/><text x="447.0" y="270" fill="#565f89" font-size="11" font-family="-apple-system, BlinkMacSystemFont, 'Segoe UI', Helvetica, Arial, sans-serif">PRs Merged (Last 12 Months)</text><text x="447.0" y="295" fill="#c0caf5" font-size="24" font-family="-apple-system, BlinkMacSystemFont, 'Segoe UI', Helvetica, Arial, sans-serif" font-weight="700">11</text><rect x="20.0" y="318" width="393.0" height="62" rx="11" fill="#292e42" stroke="#414868" stroke-width="1"/><rect x="29.0" y="328" width="4" height="42" rx="2" fill="#7aa2f7"/><text x="40.0" y="342" fill="#565f89" font-size="11" font-family="-apple-system, BlinkMacSystemFont, 'Segoe UI', Helvetica, Arial, sans-serif">Releases (30 Days)</text><text x="40.0" y="367" fill="#c0caf5" font-size="24" font-family="-apple-system, BlinkMacSystemFont, 'Segoe UI', Helvetica, Arial, sans-serif" font-weight="700">51</text><rect x="427.0" y="318" width="393.0" height="62" rx="11" fill="#292e42" stroke="#414868" stroke-width="1"/><rect x="436.0" y="328" width="4" height="42" rx="2" fill="#7dcfff"/><text x="447.0" y="342" fill="#565f89" font-size="11" font-family="-apple-system, BlinkMacSystemFont, 'Segoe UI', Helvetica, Arial, sans-serif">Repos With CI/CD</text><text x="447.0" y="367" fill="#c0caf5" font-size="24" font-family="-apple-system, BlinkMacSystemFont, 'Segoe UI', Helvetica, Arial, sans-serif" font-weight="700">16</text><rect x="20.0" y="390" width="393.0" height="62" rx="11" fill="#292e42" stroke="#414868" stroke-width="1"/><rect x="29.0" y="400" width="4" height="42" rx="2" fill="#7aa2f7"/><text x="40.0" y="414" fill="#565f89" font-size="11" font-family="-apple-system, BlinkMacSystemFont, 'Segoe UI', Helvetica, Arial, sans-serif">Current Streak Days</text><text x="40.0" y="439" fill="#c0caf5" font-size="24" font-family="-apple-system, BlinkMacSystemFont, 'Segoe UI', Helvetica, Arial, sans-serif" font-weight="700">23</text><rect x="20.0" y="466" width="258.6666666666667" height="30" rx="10" fill="#292e42" stroke="#414868" stroke-width="1"/><circle cx="34.0" cy="481" r="4" fill="#9ece6a"/><text x="44.0" y="485" fill="#a9b1d6" font-size="11" font-family="-apple-system, BlinkMacSystemFont, 'Segoe UI', Helvetica, Arial, sans-serif" font-weight="600">CI: ok</text><rect x="290.6666666666667" y="466" width="258.6666666666667" height="30" rx="10" fill="#292e42" stroke="#414868" stroke-width="1"/><circle cx="304.6666666666667" cy="481" r="4" fill="#9ece6a"/><text x="314.6666666666667" y="485" fill="#a9b1d6" font-size="11" font-family="-apple-system, BlinkMacSystemFont, 'Segoe UI', Helvetica, Arial, sans-serif" font-weight="600">Commits: ok</text><rect x="561.3333333333334" y="466" width="258.6666666666667" height="30" rx="10" fill="#292e42" stroke="#414868" stroke-width="1"/><circle cx="575.3333333333334" cy="481" r="4" fill="#9ece6a"/><text x="585.3333333333334" y="485" fill="#a9b1d6" font-size="11" font-family="-apple-system, BlinkMacSystemFont, 'Segoe UI', Helvetica, Arial, sans-serif" font-weight="600">Events: ok</text><text x="20" y="512" fill="#565f89" font-size="10" font-family="-apple-system, BlinkMacSystemFont, 'Segoe UI', Helvetica, Arial, sans-serif">Scope: public owned non-forks=66 | forks=0 | private owned=140</text><text x="20" y="526" fill="#7dcfff" font-size="10" font-family="-apple-system, BlinkMacSystemFont, 'Segoe UI', Helvetica, Arial, sans-serif">CI workflow detection complete. | Public-scope commit aggregation complete.</text></svg>