<svg xmlns="http://www.w3.org/2000/svg" width="840" height="689" viewBox="0 0 840 689"><defs><linearGradient id="gk-sheen" x1="0" y1="0" x2="0" y2="1"><stop offset="0" stop-color="#ffffff" stop-opacity="0.20"/><stop offset="0.06" stop-color="#ffffff" stop-opacity="0.06"/><stop offset="0.5" stop-color="#ffffff" stop-opacity="0"/><stop offset="1" stop-color="#05060e" stop-opacity="0.10"/></linearGradient><linearGradient id="gk-tile" x1="0" y1="0" x2="0" y2="1"><stop offset="0" stop-color="#ffffff" stop-opacity="0.08"/><stop offset="1" stop-color="#05060e" stop-opacity="0.22"/></linearGradient><linearGradient id="gk-rim" x1="0" y1="0" x2="0" y2="1"><stop offset="0" stop-color="#ffffff" stop-opacity="0.45"/><stop offset="0.4" stop-color="#c0caf5" stop-opacity="0.12"/><stop offset="1" stop-color="#c0caf5" stop-opacity="0.05"/></linearGradient><filter id="gk-shadow" x="-40%" y="-40%" width="180%" height="180%"><feDropShadow dx="0" dy="10" stdDeviation="16" flood-color="#03040c" flood-opacity="0.55"/></filter><filter id="gk-blob" x="-80%" y="-80%" width="260%" height="260%"><feGaussianBlur stdDeviation="34"/></filter><filter id="gk-grain" x="0%" y="0%" width="100%" height="100%"><feTurbulence type="fractalNoise" baseFrequency="0.9" numOctaves="2" stitchTiles="stitch" result="n"/><feColorMatrix in="n" type="matrix" values="0 0 0 0 1  0 0 0 0 1  0 0 0 0 1  0 0 0 0.04 0"/></filter></defs><clipPath id="gk-clip"><rect x="12" y="12" width="816" height="665" rx="18"/></clipPath><rect x="12" y="12" width="816" height="665" rx="18" fill="#0c0e18" filter="url(#gk-shadow)"/><g clip-path="url(#gk-clip)" filter="url(#gk-blob)"><ellipse cx="77.28" cy="78.5" rx="412.3" ry="338.09" fill="#7aa2f7" fill-opacity="0.3"/><ellipse cx="795.36" cy="650.4" rx="465.5" ry="381.71" fill="#bb9af7" fill-opacity="0.26"/><ellipse cx="517.92" cy="-41.2" rx="299.25" ry="245.38" fill="#7dcfff" fill-opacity="0.2"/></g><rect x="12" y="12" width="816" height="665" rx="18" fill="#1b1e2e" fill-opacity="0.74"/><rect x="12" y="12" width="816" height="665" rx="18" fill="url(#gk-sheen)"/><g clip-path="url(#gk-clip)"><rect x="12" y="12" width="816" height="665" filter="url(#gk-grain)"/></g><rect x="12.5" y="12.5" width="815" height="664" rx="18" fill="none" stroke="url(#gk-rim)" stroke-width="1"/><rect x="30" y="13.5" width="780" height="1" fill="#ffffff" fill-opacity="0.0"/><text x="30" y="36" fill="#8a94bd" font-size="10" font-family="-apple-system, BlinkMacSystemFont, 'Segoe UI', Helvetica, Arial, sans-serif" font-weight="600" letter-spacing="1.2" text-transform="uppercase">CANONICAL CLI SNAPSHOT</text><text x="30" y="58" fill="#c0caf5" font-size="17" font-family="-apple-system, BlinkMacSystemFont, 'Segoe UI', Helvetica, Arial, sans-serif" font-weight="700">Raw Data Snapshot (Python Pull)</text><linearGradient id="gk-ribbon" x1="0" y1="0" x2="1" y2="0"><stop offset="0" stop-color="#7aa2f7" stop-opacity="0.95"/><stop offset="0.55" stop-color="#7dcfff" stop-opacity="0.85"/><stop offset="1" stop-color="#7dcfff" stop-opacity="0"/></linearGradient><rect x="30" y="70" width="780" height="3" rx="1.5" fill="url(#gk-ribbon)"/><rect x="677.52" y="39" width="132.48" height="22" rx="11" fill="#7aa2f7" fill-opacity="0.16"/><rect x="678.02" y="39.5" width="131.48" height="21" rx="11" fill="none" stroke="#7aa2f7" stroke-opacity="0.45" stroke-width="1"/><g transform="translate(685.52,44.5) scale(0.46)" ><rect x="5" y="10.5" width="14" height="9.5" rx="2.2" fill="#7aa2f7"/><path d="M8 10.5V8a4 4 0 0 1 8 0v2.5" fill="none" stroke="#7aa2f7" stroke-width="2"/></g><text x="703.52" y="53.96" fill="#7aa2f7" font-size="11" font-family="-apple-system, BlinkMacSystemFont, 'Segoe UI', Helvetica, Arial, sans-serif" font-weight="600">Personal token</text><rect x="30" y="94" width="382" height="66" rx="13" fill="#232843" fill-opacity="0.55"/><rect x="30" y="94" width="382" height="66" rx="13" fill="url(#gk-tile)"/><rect x="30.5" y="94.5" width="381" height="65" rx="13" fill="none" stroke="#c0caf5" stroke-opacity="0.14" stroke-width="1"/><rect x="36.5" y="95" width="369" height="1" rx="0.5" fill="#ffffff" fill-opacity="0.14"/><g transform="translate(48,108) scale(0.58)" fill="none" stroke="#7dcfff" stroke-width="2" stroke-linecap="round" stroke-linejoin="round"><rect x="3.5" y="5" width="17" height="15.5" rx="2.2"/><path d="M3.5 9.5h17M8 3v4M16 3v4"/></g><text x="70.0" y="119" fill="#a9b1d6" font-size="11.5" font-family="-apple-system, BlinkMacSystemFont, 'Segoe UI', Helvetica, Arial, sans-serif" font-weight="500">Last 12 Months Contributions</text><text x="48.0" y="147" fill="#c0caf5" font-size="25" font-family="-apple-system, BlinkMacSystemFont, 'Segoe UI', Helvetica, Arial, sans-serif" font-weight="700">8,100</text><rect x="428" y="94" width="382" height="66" rx="13" fill="#232843" fill-opacity="0.55"/><rect x="428" y="94" width="382" height="66" rx="13" fill="url(#gk-tile)"/><rect x="428.5" y="94.5" width="381" height="65" rx="13" fill="none" stroke="#c0caf5" stroke-opacity="0.14" stroke-width="1"/><rect x="434.5" y="95" width="369" height="1" rx="0.5" fill="#ffffff" fill-opacity="0.14"/><g transform="translate(446,108) scale(0.58)" fill="none" stroke="#7dcfff" stroke-width="2" stroke-linecap="round" stroke-linejoin="round"><circle cx="12" cy="12" r="3.4"/><path d="M2 12h5.2M16.8 12H22"/></g><text x="468.0" y="119" fill="#a9b1d6" font-size="11.5" font-family="-apple-system, BlinkMacSystemFont, 'Segoe UI', Helvetica, Arial, sans-serif" font-weight="500">Public Repo Commits (Owned Non-Fork)</text><text x="446.0" y="147" fill="#c0caf5" font-size="25" font-family="-apple-system, BlinkMacSystemFont, 'Segoe UI', Helvetica, Arial, sans-serif" font-weight="700">4,261</text><rect x="30" y="172" width="382" height="66" rx="13" fill="#232843" fill-opacity="0.55"/><rect x="30" y="172" width="382" height="66" rx="13" fill="url(#gk-tile)"/><rect x="30.5" y="172.5" width="381" height="65" rx="13" fill="none" stroke="#c0caf5" stroke-opacity="0.14" stroke-width="1"/><rect x="36.5" y="173" width="369" height="1" rx="0.5" fill="#ffffff" fill-opacity="0.14"/><g transform="translate(48,186) scale(0.58)" fill="none" stroke="#7dcfff" stroke-width="2" stroke-linecap="round" stroke-linejoin="round"><path d="M9 8l-4 4 4 4M15 8l4 4-4 4"/></g><text x="70.0" y="197" fill="#a9b1d6" font-size="11.5" font-family="-apple-system, BlinkMacSystemFont, 'Segoe UI', Helvetica, Arial, sans-serif" font-weight="500">Public Non-Fork Repos</text><text x="48.0" y="225" fill="#c0caf5" font-size="25" font-family="-apple-system, BlinkMacSystemFont, 'Segoe UI', Helvetica, Arial, sans-serif" font-weight="700">67</text><rect x="428" y="172" width="382" height="66" rx="13" fill="#232843" fill-opacity="0.55"/><rect x="428" y="172" width="382" height="66" rx="13" fill="url(#gk-tile)"/><rect x="428.5" y="172.5" width="381" height="65" rx="13" fill="none" stroke="#c0caf5" stroke-opacity="0.14" stroke-width="1"/><rect x="434.5" y="173" width="369" height="1" rx="0.5" fill="#ffffff" fill-opacity="0.14"/><g transform="translate(446,186) scale(0.58)" ><circle cx="6" cy="5" r="2.4" fill="#7dcfff"/><circle cx="18" cy="5" r="2.4" fill="#7dcfff"/><circle cx="12" cy="19" r="2.4" fill="#7dcfff"/><path d="M6 7.4V10a2 2 0 0 0 2 2h8a2 2 0 0 0 2-2V7.4M12 12v4.6" fill="none" stroke="#7dcfff" stroke-width="2" stroke-linecap="round"/></g><text x="468.0" y="197" fill="#a9b1d6" font-size="11.5" font-family="-apple-system, BlinkMacSystemFont, 'Segoe UI', Helvetica, Arial, sans-serif" font-weight="500">Public Fork Repos</text><text x="446.0" y="225" fill="#c0caf5" font-size="25" font-family="-apple-system, BlinkMacSystemFont, 'Segoe UI', Helvetica, Arial, sans-serif" font-weight="700">0</text><rect x="30" y="250" width="382" height="66" rx="13" fill="#232843" fill-opacity="0.55"/><rect x="30" y="250" width="382" height="66" rx="13" fill="url(#gk-tile)"/><rect x="30.5" y="250.5" width="381" height="65" rx="13" fill="none" stroke="#c0caf5" stroke-opacity="0.14" stroke-width="1"/><rect x="36.5" y="251" width="369" height="1" rx="0.5" fill="#ffffff" fill-opacity="0.14"/><g transform="translate(48,264) scale(0.58)" ><rect x="5" y="10.5" width="14" height="9.5" rx="2.2" fill="#7dcfff"/><path d="M8 10.5V8a4 4 0 0 1 8 0v2.5" fill="none" stroke="#7dcfff" stroke-width="2"/></g><text x="70.0" y="275" fill="#a9b1d6" font-size="11.5" font-family="-apple-system, BlinkMacSystemFont, 'Segoe UI', Helvetica, Arial, sans-serif" font-weight="500">Private Owned Repos</text><text x="48.0" y="303" fill="#c0caf5" font-size="25" font-family="-apple-system, BlinkMacSystemFont, 'Segoe UI', Helvetica, Arial, sans-serif" font-weight="700">146</text><rect x="428" y="250" width="382" height="66" rx="13" fill="#232843" fill-opacity="0.55"/><rect x="428" y="250" width="382" height="66" rx="13" fill="url(#gk-tile)"/><rect x="428.5" y="250.5" width="381" height="65" rx="13" fill="none" stroke="#c0caf5" stroke-opacity="0.14" stroke-width="1"/><rect x="434.5" y="251" width="369" height="1" rx="0.5" fill="#ffffff" fill-opacity="0.14"/><g transform="translate(446,264) scale(0.58)" fill="#7dcfff"><path d="M12 17.3 18.2 21l-1.6-7 5.4-4.7-7.2-.6L12 2 9.2 8.7 2 9.3l5.5 4.7L5.8 21z"/></g><text x="468.0" y="275" fill="#a9b1d6" font-size="11.5" font-family="-apple-system, BlinkMacSystemFont, 'Segoe UI', Helvetica, Arial, sans-serif" font-weight="500">Repo Stargazers (Received)</text><text x="446.0" y="303" fill="#c0caf5" font-size="25" font-family="-apple-system, BlinkMacSystemFont, 'Segoe UI', Helvetica, Arial, sans-serif" font-weight="700">78</text><rect x="30" y="328" width="382" height="66" rx="13" fill="#232843" fill-opacity="0.55"/><rect x="30" y="328" width="382" height="66" rx="13" fill="url(#gk-tile)"/><rect x="30.5" y="328.5" width="381" height="65" rx="13" fill="none" stroke="#c0caf5" stroke-opacity="0.14" stroke-width="1"/><rect x="36.5" y="329" width="369" height="1" rx="0.5" fill="#ffffff" fill-opacity="0.14"/><g transform="translate(48,342) scale(0.58)" fill="none" stroke="#7dcfff" stroke-width="2" stroke-linecap="round" stroke-linejoin="round"><circle cx="12" cy="12" r="9"/><path d="M3 12h18M12 3c2.6 2.4 2.6 15.6 0 18M12 3c-2.6 2.4-2.6 15.6 0 18"/></g><text x="70.0" y="353" fill="#a9b1d6" font-size="11.5" font-family="-apple-system, BlinkMacSystemFont, 'Segoe UI', Helvetica, Arial, sans-serif" font-weight="500">Languages Detected</text><text x="48.0" y="381" fill="#c0caf5" font-size="25" font-family="-apple-system, BlinkMacSystemFont, 'Segoe UI', Helvetica, Arial, sans-serif" font-weight="700">24</text><rect x="428" y="328" width="382" height="66" rx="13" fill="#232843" fill-opacity="0.55"/><rect x="428" y="328" width="382" height="66" rx="13" fill="url(#gk-tile)"/><rect x="428.5" y="328.5" width="381" height="65" rx="13" fill="none" stroke="#c0caf5" stroke-opacity="0.14" stroke-width="1"/><rect x="434.5" y="329" width="369" height="1" rx="0.5" fill="#ffffff" fill-opacity="0.14"/><g transform="translate(446,342) scale(0.58)" fill="none" stroke="#7dcfff" stroke-width="2" stroke-linecap="round" stroke-linejoin="round"><circle cx="7" cy="6" r="2.4"/><circle cx="7" cy="18" r="2.4"/><circle cx="18" cy="14" r="2.4"/><path d="M7 8.4v7.2M7 9a8 8 0 0 0 8.6 7"/></g><text x="468.0" y="353" fill="#a9b1d6" font-size="11.5" font-family="-apple-system, BlinkMacSystemFont, 'Segoe UI', Helvetica, Arial, sans-serif" font-weight="500">PRs Merged (Last 12 Months)</text><text x="446.0" y="381" fill="#c0caf5" font-size="25" font-family="-apple-system, BlinkMacSystemFont, 'Segoe UI', Helvetica, Arial, sans-serif" font-weight="700">35</text><rect x="30" y="406" width="382" height="66" rx="13" fill="#232843" fill-opacity="0.55"/><rect x="30" y="406" width="382" height="66" rx="13" fill="url(#gk-tile)"/><rect x="30.5" y="406.5" width="381" height="65" rx="13" fill="none" stroke="#c0caf5" stroke-opacity="0.14" stroke-width="1"/><rect x="36.5" y="407" width="369" height="1" rx="0.5" fill="#ffffff" fill-opacity="0.14"/><g transform="translate(48,420) scale(0.58)" ><path d="M3.5 11.5V4.5a1 1 0 0 1 1-1h7l8.5 8.5a1.4 1.4 0 0 1 0 2l-6.5 6.5a1.4 1.4 0 0 1-2 0l-8-8z" fill="none" stroke="#7dcfff" stroke-width="2" stroke-linejoin="round"/><circle cx="7.5" cy="7.5" r="1.5" fill="#7dcfff"/></g><text x="70.0" y="431" fill="#a9b1d6" font-size="11.5" font-family="-apple-system, BlinkMacSystemFont, 'Segoe UI', Helvetica, Arial, sans-serif" font-weight="500">Releases (30 Days)</text><text x="48.0" y="459" fill="#c0caf5" font-size="25" font-family="-apple-system, BlinkMacSystemFont, 'Segoe UI', Helvetica, Arial, sans-serif" font-weight="700">0</text><rect x="428" y="406" width="382" height="66" rx="13" fill="#232843" fill-opacity="0.55"/><rect x="428" y="406" width="382" height="66" rx="13" fill="url(#gk-tile)"/><rect x="428.5" y="406.5" width="381" height="65" rx="13" fill="none" stroke="#c0caf5" stroke-opacity="0.14" stroke-width="1"/><rect x="434.5" y="407" width="369" height="1" rx="0.5" fill="#ffffff" fill-opacity="0.14"/><g transform="translate(446,420) scale(0.58)" fill="none" stroke="#7dcfff" stroke-width="2" stroke-linecap="round" stroke-linejoin="round"><circle cx="12" cy="12" r="9"/><path d="M8 12.4l2.6 2.6L16.4 9"/></g><text x="468.0" y="431" fill="#a9b1d6" font-size="11.5" font-family="-apple-system, BlinkMacSystemFont, 'Segoe UI', Helvetica, Arial, sans-serif" font-weight="500">Repos With CI/CD</text><text x="446.0" y="459" fill="#c0caf5" font-size="25" font-family="-apple-system, BlinkMacSystemFont, 'Segoe UI', Helvetica, Arial, sans-serif" font-weight="700">16</text><rect x="30" y="484" width="780" height="66" rx="13" fill="#232843" fill-opacity="0.55"/><rect x="30" y="484" width="780" height="66" rx="13" fill="url(#gk-tile)"/><rect x="30.5" y="484.5" width="779" height="65" rx="13" fill="none" stroke="#c0caf5" stroke-opacity="0.14" stroke-width="1"/><rect x="36.5" y="485" width="767" height="1" rx="0.5" fill="#ffffff" fill-opacity="0.14"/><g transform="translate(48,510) scale(0.58)" fill="#7dcfff"><path d="M12.5 2c.6 2.8 3.5 4 3.5 7.5a4 4 0 0 1-8 .3c0-1.4.5-2.4 1.2-3.2.1 1 .7 1.7 1.5 1.8-.7-2.3.6-4.6 1.8-6.4z"/></g><text x="70.0" y="521.0" fill="#a9b1d6" font-size="11.5" font-family="-apple-system, BlinkMacSystemFont, 'Segoe UI', Helvetica, Arial, sans-serif" font-weight="500">Current Streak Days</text><text x="788.0" y="525.5" fill="#c0caf5" font-size="25" font-family="-apple-system, BlinkMacSystemFont, 'Segoe UI', Helvetica, Arial, sans-serif" font-weight="700" text-anchor="end">2</text><text x="30" y="580" fill="#8a94bd" font-size="10" font-family="-apple-system, BlinkMacSystemFont, 'Segoe UI', Helvetica, Arial, sans-serif" font-weight="600" letter-spacing="1.2" text-transform="uppercase">PIPELINE STATUS</text><rect x="30" y="592" width="77.92" height="26" rx="13" fill="#9ece6a" fill-opacity="0.16"/><rect x="30.5" y="592.5" width="76.92" height="25" rx="13" fill="none" stroke="#9ece6a" stroke-opacity="0.45" stroke-width="1"/><g transform="translate(38,599.5) scale(0.46)" fill="none" stroke="#9ece6a" stroke-width="2" stroke-linecap="round" stroke-linejoin="round"><circle cx="12" cy="12" r="9"/><path d="M8 12.4l2.6 2.6L16.4 9"/></g><text x="56" y="608.96" fill="#9ece6a" font-size="11" font-family="-apple-system, BlinkMacSystemFont, 'Segoe UI', Helvetica, Arial, sans-serif" font-weight="600">CI  OK</text><rect x="119.92" y="592" width="112.02" height="26" rx="13" fill="#9ece6a" fill-opacity="0.16"/><rect x="120.42" y="592.5" width="111.02" height="25" rx="13" fill="none" stroke="#9ece6a" stroke-opacity="0.45" stroke-width="1"/><g transform="translate(127.92,599.5) scale(0.46)" fill="none" stroke="#9ece6a" stroke-width="2" stroke-linecap="round" stroke-linejoin="round"><circle cx="12" cy="12" r="3.4"/><path d="M2 12h5.2M16.8 12H22"/></g><text x="145.92" y="608.96" fill="#9ece6a" font-size="11" font-family="-apple-system, BlinkMacSystemFont, 'Segoe UI', Helvetica, Arial, sans-serif" font-weight="600">Commits  OK</text><rect x="243.94" y="592" width="118.84" height="26" rx="13" fill="#9ece6a" fill-opacity="0.16"/><rect x="244.44" y="592.5" width="117.84" height="25" rx="13" fill="none" stroke="#9ece6a" stroke-opacity="0.45" stroke-width="1"/><g transform="translate(251.94,599.5) scale(0.46)" ><path d="M3.5 11.5V4.5a1 1 0 0 1 1-1h7l8.5 8.5a1.4 1.4 0 0 1 0 2l-6.5 6.5a1.4 1.4 0 0 1-2 0l-8-8z" fill="none" stroke="#9ece6a" stroke-width="2" stroke-linejoin="round"/><circle cx="7.5" cy="7.5" r="1.5" fill="#9ece6a"/></g><text x="269.94" y="608.96" fill="#9ece6a" font-size="11" font-family="-apple-system, BlinkMacSystemFont, 'Segoe UI', Helvetica, Arial, sans-serif" font-weight="600">Releases  OK</text><rect x="374.78" y="592" width="105.2" height="26" rx="13" fill="#9ece6a" fill-opacity="0.16"/><rect x="375.28" y="592.5" width="104.2" height="25" rx="13" fill="none" stroke="#9ece6a" stroke-opacity="0.45" stroke-width="1"/><g transform="translate(382.78,599.5) scale(0.46)" fill="#9ece6a"><path d="M13 2L4 14h6.5L9 22l9.5-12.5H12L13 2z"/></g><text x="400.78" y="608.96" fill="#9ece6a" font-size="11" font-family="-apple-system, BlinkMacSystemFont, 'Segoe UI', Helvetica, Arial, sans-serif" font-weight="600">Events  OK</text><text x="30" y="648" fill="#a9b1d6" font-size="10.5" font-family="-apple-system, BlinkMacSystemFont, 'Segoe UI', Helvetica, Arial, sans-serif" letter-spacing="0.2">Public owned non-forks 67  ·  forks 0  ·  private owned 146</text><text x="30" y="665" fill="#8a94bd" font-size="10.5" font-family="-apple-system, BlinkMacSystemFont, 'Segoe UI', Helvetica, Arial, sans-serif" letter-spacing="0.2">CI workflow detection complete. · Public-scope commit aggregation complete. · Release aggregation complete.</text></svg>