<svg xmlns="http://www.w3.org/2000/svg" width="840" height="514" viewBox="0 0 840 514"><defs><linearGradient id="gk-sheen" x1="0" y1="0" x2="0" y2="1"><stop offset="0" stop-color="#ffffff" stop-opacity="0.20"/><stop offset="0.06" stop-color="#ffffff" stop-opacity="0.06"/><stop offset="0.5" stop-color="#ffffff" stop-opacity="0"/><stop offset="1" stop-color="#05060e" stop-opacity="0.10"/></linearGradient><linearGradient id="gk-tile" x1="0" y1="0" x2="0" y2="1"><stop offset="0" stop-color="#ffffff" stop-opacity="0.08"/><stop offset="1" stop-color="#05060e" stop-opacity="0.22"/></linearGradient><linearGradient id="gk-rim" x1="0" y1="0" x2="0" y2="1"><stop offset="0" stop-color="#ffffff" stop-opacity="0.45"/><stop offset="0.4" stop-color="#c0caf5" stop-opacity="0.12"/><stop offset="1" stop-color="#c0caf5" stop-opacity="0.05"/></linearGradient><filter id="gk-shadow" x="-40%" y="-40%" width="180%" height="180%"><feDropShadow dx="0" dy="10" stdDeviation="16" flood-color="#03040c" flood-opacity="0.55"/></filter><filter id="gk-blob" x="-80%" y="-80%" width="260%" height="260%"><feGaussianBlur stdDeviation="34"/></filter><filter id="gk-grain" x="0%" y="0%" width="100%" height="100%"><feTurbulence type="fractalNoise" baseFrequency="0.9" numOctaves="2" stitchTiles="stitch" result="n"/><feColorMatrix in="n" type="matrix" values="0 0 0 0 1  0 0 0 0 1  0 0 0 0 1  0 0 0 0.04 0"/></filter></defs><clipPath id="gk-clip"><rect x="12" y="12" width="816" height="490" rx="18"/></clipPath><rect x="12" y="12" width="816" height="490" rx="18" fill="#0c0e18" filter="url(#gk-shadow)"/><g clip-path="url(#gk-clip)" filter="url(#gk-blob)"><ellipse cx="77.28" cy="61" rx="303.8" ry="249.12" fill="#7aa2f7" fill-opacity="0.3"/><ellipse cx="795.36" cy="482.4" rx="343" ry="281.26" fill="#bb9af7" fill-opacity="0.26"/><ellipse cx="517.92" cy="-27.2" rx="220.5" ry="180.81" fill="#7dcfff" fill-opacity="0.2"/></g><rect x="12" y="12" width="816" height="490" rx="18" fill="#1b1e2e" fill-opacity="0.74"/><rect x="12" y="12" width="816" height="490" rx="18" fill="url(#gk-sheen)"/><g clip-path="url(#gk-clip)"><rect x="12" y="12" width="816" height="490" filter="url(#gk-grain)"/></g><rect x="12.5" y="12.5" width="815" height="489" rx="18" fill="none" stroke="url(#gk-rim)" stroke-width="1"/><rect x="30" y="13.5" width="780" height="1" fill="#ffffff" fill-opacity="0.0"/><text x="28" y="34" fill="#8a94bd" font-size="10" font-family="-apple-system, BlinkMacSystemFont, 'Segoe UI', Helvetica, Arial, sans-serif" font-weight="600" letter-spacing="1.2" text-transform="uppercase">SHOWCASE · BEST WORK</text><text x="28" y="58" fill="#c0caf5" font-size="18" font-family="-apple-system, BlinkMacSystemFont, 'Segoe UI', Helvetica, Arial, sans-serif" font-weight="700">Flagship Projects</text><text x="812" y="58" fill="#a9b1d6" font-size="11" font-family="-apple-system, BlinkMacSystemFont, 'Segoe UI', Helvetica, Arial, sans-serif" text-anchor="end">3 repositories</text><linearGradient id="gk-ribbon" x1="0" y1="0" x2="1" y2="0"><stop offset="0" stop-color="#7aa2f7" stop-opacity="0.95"/><stop offset="0.55" stop-color="#7dcfff" stop-opacity="0.85"/><stop offset="1" stop-color="#7dcfff" stop-opacity="0"/></linearGradient><rect x="28" y="70" width="784" height="3" rx="1.5" fill="url(#gk-ribbon)"/><rect x="28" y="88" width="383" height="190" rx="13" fill="#232843" fill-opacity="0.55"/><rect x="28" y="88" width="383" height="190" rx="13" fill="url(#gk-tile)"/><rect x="28.5" y="88.5" width="382" height="189" rx="13" fill="none" stroke="#c0caf5" stroke-opacity="0.14" stroke-width="1"/><rect x="34.5" y="89" width="370" height="1" rx="0.5" fill="#ffffff" fill-opacity="0.14"/><a href="https://github.com/jguida941/ci-cd-hub"><text x="44" y="120" fill="#c0caf5" font-size="15" font-family="-apple-system, BlinkMacSystemFont, 'Segoe UI', Helvetica, Arial, sans-serif" font-weight="700">ci-cd-hub</text></a><g transform="translate(44,131.5) scale(0.54)" fill="none" stroke="#8a94bd" stroke-width="2" stroke-linecap="round" stroke-linejoin="round"><circle cx="12" cy="12" r="9"/><path d="M12 7v5.2l3.4 1.8"/></g><text x="62" y="142" fill="#8a94bd" font-size="12" font-family="-apple-system, BlinkMacSystemFont, 'Segoe UI', Helvetica, Arial, sans-serif" font-weight="400">Updated 2 months ago</text><g transform="translate(341,131.5) scale(0.54)" fill="none" stroke="#9ece6a" stroke-width="2" stroke-linecap="round" stroke-linejoin="round"><circle cx="12" cy="12" r="9"/><path d="M8 12.4l2.6 2.6L16.4 9"/></g><text x="359" y="142" fill="#8a94bd" font-size="12" font-family="-apple-system, BlinkMacSystemFont, 'Segoe UI', Helvetica, Arial, sans-serif" font-weight="400">CI/CD</text><text x="44" y="178" fill="#a9b1d6" font-size="11" font-family="-apple-system, BlinkMacSystemFont, 'Segoe UI', Helvetica, Arial, sans-serif">Stop writing YAML. CLI wizard configures 40+ CI tools</text><text x="44" y="196" fill="#a9b1d6" font-size="11" font-family="-apple-system, BlinkMacSystemFont, 'Segoe UI', Helvetica, Arial, sans-serif">(security, quality, mutation) for Java/Python in…</text><circle cx="48.5" cy="221.97" r="4.5" fill="#3572A5"/><text x="59" y="226" fill="#a9b1d6" font-size="11.5" font-family="-apple-system, BlinkMacSystemFont, 'Segoe UI', Helvetica, Arial, sans-serif">Python</text><g transform="translate(122.4,215.47) scale(0.54)" fill="#8a94bd"><path d="M12 17.3 18.2 21l-1.6-7 5.4-4.7-7.2-.6L12 2 9.2 8.7 2 9.3l5.5 4.7L5.8 21z"/></g><text x="139.4" y="226" fill="#c0caf5" font-size="11.5" font-family="-apple-system, BlinkMacSystemFont, 'Segoe UI', Helvetica, Arial, sans-serif" font-weight="600">3</text><g transform="translate(168.3,215.47) scale(0.54)" ><circle cx="6" cy="5" r="2.4" fill="#8a94bd"/><circle cx="18" cy="5" r="2.4" fill="#8a94bd"/><circle cx="12" cy="19" r="2.4" fill="#8a94bd"/><path d="M6 7.4V10a2 2 0 0 0 2 2h8a2 2 0 0 0 2-2V7.4M12 12v4.6" fill="none" stroke="#8a94bd" stroke-width="2" stroke-linecap="round"/></g><text x="185.3" y="226" fill="#c0caf5" font-size="11.5" font-family="-apple-system, BlinkMacSystemFont, 'Segoe UI', Helvetica, Arial, sans-serif" font-weight="600">0</text><rect x="429" y="88" width="383" height="190" rx="13" fill="#232843" fill-opacity="0.55"/><rect x="429" y="88" width="383" height="190" rx="13" fill="url(#gk-tile)"/><rect x="429.5" y="88.5" width="382" height="189" rx="13" fill="none" stroke="#c0caf5" stroke-opacity="0.14" stroke-width="1"/><rect x="435.5" y="89" width="370" height="1" rx="0.5" fill="#ffffff" fill-opacity="0.14"/><a href="https://github.com/jguida941/voiceterm"><text x="445" y="120" fill="#c0caf5" font-size="15" font-family="-apple-system, BlinkMacSystemFont, 'Segoe UI', Helvetica, Arial, sans-serif" font-weight="700">voiceterm</text></a><g transform="translate(445,131.5) scale(0.54)" fill="none" stroke="#8a94bd" stroke-width="2" stroke-linecap="round" stroke-linejoin="round"><circle cx="12" cy="12" r="9"/><path d="M12 7v5.2l3.4 1.8"/></g><text x="463" y="142" fill="#8a94bd" font-size="12" font-family="-apple-system, BlinkMacSystemFont, 'Segoe UI', Helvetica, Arial, sans-serif" font-weight="400">Updated 1 month ago</text><g transform="translate(742,131.5) scale(0.54)" fill="none" stroke="#9ece6a" stroke-width="2" stroke-linecap="round" stroke-linejoin="round"><circle cx="12" cy="12" r="9"/><path d="M8 12.4l2.6 2.6L16.4 9"/></g><text x="760" y="142" fill="#8a94bd" font-size="12" font-family="-apple-system, BlinkMacSystemFont, 'Segoe UI', Helvetica, Arial, sans-serif" font-weight="400">CI/CD</text><text x="445" y="178" fill="#a9b1d6" font-size="11" font-family="-apple-system, BlinkMacSystemFont, 'Segoe UI', Helvetica, Arial, sans-serif">Low-latency Rust terminal overlay for Codex and Claude</text><text x="445" y="196" fill="#a9b1d6" font-size="11" font-family="-apple-system, BlinkMacSystemFont, 'Segoe UI', Helvetica, Arial, sans-serif">Code with local Whisper STT, PTY passthrough, wake…</text><circle cx="449.5" cy="221.97" r="4.5" fill="#dea584"/><text x="460" y="226" fill="#a9b1d6" font-size="11.5" font-family="-apple-system, BlinkMacSystemFont, 'Segoe UI', Helvetica, Arial, sans-serif">Rust</text><g transform="translate(509.6,215.47) scale(0.54)" fill="#8a94bd"><path d="M12 17.3 18.2 21l-1.6-7 5.4-4.7-7.2-.6L12 2 9.2 8.7 2 9.3l5.5 4.7L5.8 21z"/></g><text x="526.6" y="226" fill="#c0caf5" font-size="11.5" font-family="-apple-system, BlinkMacSystemFont, 'Segoe UI', Helvetica, Arial, sans-serif" font-weight="600">12</text><g transform="translate(562.4,215.47) scale(0.54)" ><circle cx="6" cy="5" r="2.4" fill="#8a94bd"/><circle cx="18" cy="5" r="2.4" fill="#8a94bd"/><circle cx="12" cy="19" r="2.4" fill="#8a94bd"/><path d="M6 7.4V10a2 2 0 0 0 2 2h8a2 2 0 0 0 2-2V7.4M12 12v4.6" fill="none" stroke="#8a94bd" stroke-width="2" stroke-linecap="round"/></g><text x="579.4" y="226" fill="#c0caf5" font-size="11.5" font-family="-apple-system, BlinkMacSystemFont, 'Segoe UI', Helvetica, Arial, sans-serif" font-weight="600">0</text><rect x="28" y="296" width="383" height="190" rx="13" fill="#232843" fill-opacity="0.55"/><rect x="28" y="296" width="383" height="190" rx="13" fill="url(#gk-tile)"/><rect x="28.5" y="296.5" width="382" height="189" rx="13" fill="none" stroke="#c0caf5" stroke-opacity="0.14" stroke-width="1"/><rect x="34.5" y="297" width="370" height="1" rx="0.5" fill="#ffffff" fill-opacity="0.14"/><a href="https://github.com/jguida941/contact-suite-spring-react"><text x="44" y="328" fill="#c0caf5" font-size="15" font-family="-apple-system, BlinkMacSystemFont, 'Segoe UI', Helvetica, Arial, sans-serif" font-weight="700">contact-suite-spring-react</text></a><g transform="translate(44,339.5) scale(0.54)" fill="none" stroke="#8a94bd" stroke-width="2" stroke-linecap="round" stroke-linejoin="round"><circle cx="12" cy="12" r="9"/><path d="M12 7v5.2l3.4 1.8"/></g><text x="62" y="350" fill="#8a94bd" font-size="12" font-family="-apple-system, BlinkMacSystemFont, 'Segoe UI', Helvetica, Arial, sans-serif" font-weight="400">Updated 2 months ago</text><g transform="translate(341,339.5) scale(0.54)" fill="none" stroke="#9ece6a" stroke-width="2" stroke-linecap="round" stroke-linejoin="round"><circle cx="12" cy="12" r="9"/><path d="M8 12.4l2.6 2.6L16.4 9"/></g><text x="359" y="350" fill="#8a94bd" font-size="12" font-family="-apple-system, BlinkMacSystemFont, 'Segoe UI', Helvetica, Arial, sans-serif" font-weight="400">CI/CD</text><text x="44" y="386" fill="#a9b1d6" font-size="11" font-family="-apple-system, BlinkMacSystemFont, 'Segoe UI', Helvetica, Arial, sans-serif">Full-stack contact, task, and appointment suite (Spring</text><text x="44" y="404" fill="#a9b1d6" font-size="11" font-family="-apple-system, BlinkMacSystemFont, 'Segoe UI', Helvetica, Arial, sans-serif">Boot 4.0.0 + React UI) with strict validation, defensiv…</text><circle cx="48.5" cy="429.98" r="4.5" fill="#b07219"/><text x="59" y="434" fill="#a9b1d6" font-size="11.5" font-family="-apple-system, BlinkMacSystemFont, 'Segoe UI', Helvetica, Arial, sans-serif">Java</text><g transform="translate(108.6,423.48) scale(0.54)" fill="#8a94bd"><path d="M12 17.3 18.2 21l-1.6-7 5.4-4.7-7.2-.6L12 2 9.2 8.7 2 9.3l5.5 4.7L5.8 21z"/></g><text x="125.6" y="434" fill="#c0caf5" font-size="11.5" font-family="-apple-system, BlinkMacSystemFont, 'Segoe UI', Helvetica, Arial, sans-serif" font-weight="600">2</text><g transform="translate(154.5,423.48) scale(0.54)" ><circle cx="6" cy="5" r="2.4" fill="#8a94bd"/><circle cx="18" cy="5" r="2.4" fill="#8a94bd"/><circle cx="12" cy="19" r="2.4" fill="#8a94bd"/><path d="M6 7.4V10a2 2 0 0 0 2 2h8a2 2 0 0 0 2-2V7.4M12 12v4.6" fill="none" stroke="#8a94bd" stroke-width="2" stroke-linecap="round"/></g><text x="171.5" y="434" fill="#c0caf5" font-size="11.5" font-family="-apple-system, BlinkMacSystemFont, 'Segoe UI', Helvetica, Arial, sans-serif" font-weight="600">1</text></svg>