<svg xmlns="http://www.w3.org/2000/svg" width="840" height="420" viewBox="0 0 840 420">
  <rect width="840" height="420" rx="12" fill="#24283b" stroke="#414868" stroke-width="1"/>
  <text x="30" y="28" fill="#a9b1d6" font-size="14" font-family="-apple-system, BlinkMacSystemFont, 'Segoe UI', Helvetica, Arial, sans-serif" font-weight="700">Featured Projects</text><rect x="20.0" y="40" width="390.0" height="160" rx="10" fill="#292e42" stroke="#414868" stroke-width="1"/><text x="36.0" y="68" fill="#7aa2f7" font-size="14" font-family="-apple-system, BlinkMacSystemFont, 'Segoe UI', Helvetica, Arial, sans-serif" font-weight="700">ci-cd-hub</text><rect x="350.0" y="54" width="44" height="18" rx="9" fill="#9ece6a" opacity="0.2"/><text x="372.0" y="67" fill="#9ece6a" font-size="9" font-family="-apple-system, BlinkMacSystemFont, 'Segoe UI', Helvetica, Arial, sans-serif" font-weight="600" text-anchor="middle">CI/CD</text><text x="36.0" y="88" fill="#565f89" font-size="11" font-family="-apple-system, BlinkMacSystemFont, 'Segoe UI', Helvetica, Arial, sans-serif">Stop writing YAML. CLI wizard configures 40+ CI tools (security, qu...</text><circle cx="42.0" cy="110" r="4" fill="#3572A5"/><text x="52.0" y="114" fill="#a9b1d6" font-size="11" font-family="-apple-system, BlinkMacSystemFont, 'Segoe UI', Helvetica, Arial, sans-serif">Python</text><text x="140.0" y="114" fill="#565f89" font-size="11" font-family="-apple-system, BlinkMacSystemFont, 'Segoe UI', Helvetica, Arial, sans-serif">★ 2  Forks: 0</text><rect x="36.0" y="130" width="358.0" height="50" rx="4" fill="#24283b" opacity="0.5"/><polyline points="40.0,176.0 71.8,159.0 103.6,143.3 135.5,134.0 167.3,144.2 199.1,158.7 230.9,144.7 262.7,171.1 294.5,176.0 326.4,176.0 358.2,176.0 390.0,176.0" fill="none" stroke="#7dcfff" stroke-width="1.5" stroke-linecap="round"/><text x="390.0" y="192" fill="#565f89" font-size="9" font-family="-apple-system, BlinkMacSystemFont, 'Segoe UI', Helvetica, Arial, sans-serif" text-anchor="end">12 weeks</text><rect x="430.0" y="40" width="390.0" height="160" rx="10" fill="#292e42" stroke="#414868" stroke-width="1"/><text x="446.0" y="68" fill="#7aa2f7" font-size="14" font-family="-apple-system, BlinkMacSystemFont, 'Segoe UI', Helvetica, Arial, sans-serif" font-weight="700">voiceterm</text><rect x="760.0" y="54" width="44" height="18" rx="9" fill="#9ece6a" opacity="0.2"/><text x="782.0" y="67" fill="#9ece6a" font-size="9" font-family="-apple-system, BlinkMacSystemFont, 'Segoe UI', Helvetica, Arial, sans-serif" font-weight="600" text-anchor="middle">CI/CD</text><text x="446.0" y="88" fill="#565f89" font-size="11" font-family="-apple-system, BlinkMacSystemFont, 'Segoe UI', Helvetica, Arial, sans-serif">VoiceTerm brings real-time voice chat and a HUD overlay to Claude/C...</text><circle cx="452.0" cy="110" r="4" fill="#dea584"/><text x="462.0" y="114" fill="#a9b1d6" font-size="11" font-family="-apple-system, BlinkMacSystemFont, 'Segoe UI', Helvetica, Arial, sans-serif">Rust</text><text x="550.0" y="114" fill="#565f89" font-size="11" font-family="-apple-system, BlinkMacSystemFont, 'Segoe UI', Helvetica, Arial, sans-serif">★ 7  Forks: 0</text><rect x="446.0" y="130" width="358.0" height="50" rx="4" fill="#24283b" opacity="0.5"/><polyline points="450.0,175.3 481.8,176.0 513.6,176.0 545.5,176.0 577.3,176.0 609.1,172.6 640.9,176.0 672.7,162.7 704.5,154.4 736.4,167.9 768.2,134.0 800.0,134.2" fill="none" stroke="#7dcfff" stroke-width="1.5" stroke-linecap="round"/><text x="800.0" y="192" fill="#565f89" font-size="9" font-family="-apple-system, BlinkMacSystemFont, 'Segoe UI', Helvetica, Arial, sans-serif" text-anchor="end">12 weeks</text><rect x="20.0" y="220" width="390.0" height="160" rx="10" fill="#292e42" stroke="#414868" stroke-width="1"/><text x="36.0" y="248" fill="#7aa2f7" font-size="14" font-family="-apple-system, BlinkMacSystemFont, 'Segoe UI', Helvetica, Arial, sans-serif" font-weight="700">lighting-opengl</text><text x="36.0" y="268" fill="#565f89" font-size="11" font-family="-apple-system, BlinkMacSystemFont, 'Segoe UI', Helvetica, Arial, sans-serif">No description</text><circle cx="42.0" cy="290" r="4" fill="#f34b7d"/><text x="52.0" y="294" fill="#a9b1d6" font-size="11" font-family="-apple-system, BlinkMacSystemFont, 'Segoe UI', Helvetica, Arial, sans-serif">C++</text><text x="140.0" y="294" fill="#565f89" font-size="11" font-family="-apple-system, BlinkMacSystemFont, 'Segoe UI', Helvetica, Arial, sans-serif">★ 0  Forks: 0</text><rect x="36.0" y="310" width="358.0" height="50" rx="4" fill="#24283b" opacity="0.5"/><polyline points="40.0,356.0 71.8,356.0 103.6,356.0 135.5,356.0 167.3,356.0 199.1,356.0 230.9,356.0 262.7,356.0 294.5,356.0 326.4,356.0 358.2,314.0 390.0,356.0" fill="none" stroke="#7dcfff" stroke-width="1.5" stroke-linecap="round"/><text x="390.0" y="372" fill="#565f89" font-size="9" font-family="-apple-system, BlinkMacSystemFont, 'Segoe UI', Helvetica, Arial, sans-serif" text-anchor="end">12 weeks</text><rect x="430.0" y="220" width="390.0" height="160" rx="10" fill="#292e42" stroke="#414868" stroke-width="1"/><text x="446.0" y="248" fill="#7aa2f7" font-size="14" font-family="-apple-system, BlinkMacSystemFont, 'Segoe UI', Helvetica, Arial, sans-serif" font-weight="700">contact-suite-spring-react</text><rect x="760.0" y="234" width="44" height="18" rx="9" fill="#9ece6a" opacity="0.2"/><text x="782.0" y="247" fill="#9ece6a" font-size="9" font-family="-apple-system, BlinkMacSystemFont, 'Segoe UI', Helvetica, Arial, sans-serif" font-weight="600" text-anchor="middle">CI/CD</text><text x="446.0" y="268" fill="#565f89" font-size="11" font-family="-apple-system, BlinkMacSystemFont, 'Segoe UI', Helvetica, Arial, sans-serif">Full-stack contact, task, and appointment suite (Spring Boot 4.0.0 ...</text><circle cx="452.0" cy="290" r="4" fill="#b07219"/><text x="462.0" y="294" fill="#a9b1d6" font-size="11" font-family="-apple-system, BlinkMacSystemFont, 'Segoe UI', Helvetica, Arial, sans-serif">Java</text><text x="550.0" y="294" fill="#565f89" font-size="11" font-family="-apple-system, BlinkMacSystemFont, 'Segoe UI', Helvetica, Arial, sans-serif">★ 2  Forks: 1</text><rect x="446.0" y="310" width="358.0" height="50" rx="4" fill="#24283b" opacity="0.5"/><polyline points="450.0,314.0 481.8,340.7 513.6,356.0 545.5,333.1 577.3,356.0 609.1,356.0 640.9,356.0 672.7,352.2 704.5,356.0 736.4,356.0 768.2,356.0 800.0,356.0" fill="none" stroke="#7dcfff" stroke-width="1.5" stroke-linecap="round"/><text x="800.0" y="372" fill="#565f89" font-size="9" font-family="-apple-system, BlinkMacSystemFont, 'Segoe UI', Helvetica, Arial, sans-serif" text-anchor="end">12 weeks</text>
</svg>