<svg xmlns="http://www.w3.org/2000/svg" width="840" height="393" viewBox="0 0 840 393"><defs><linearGradient id="gk-sheen" x1="0" y1="0" x2="0" y2="1"><stop offset="0" stop-color="#ffffff" stop-opacity="0.20"/><stop offset="0.06" stop-color="#ffffff" stop-opacity="0.06"/><stop offset="0.5" stop-color="#ffffff" stop-opacity="0"/><stop offset="1" stop-color="#05060e" stop-opacity="0.10"/></linearGradient><linearGradient id="gk-tile" x1="0" y1="0" x2="0" y2="1"><stop offset="0" stop-color="#ffffff" stop-opacity="0.08"/><stop offset="1" stop-color="#05060e" stop-opacity="0.22"/></linearGradient><linearGradient id="gk-rim" x1="0" y1="0" x2="0" y2="1"><stop offset="0" stop-color="#ffffff" stop-opacity="0.45"/><stop offset="0.4" stop-color="#c0caf5" stop-opacity="0.12"/><stop offset="1" stop-color="#c0caf5" stop-opacity="0.05"/></linearGradient><filter id="gk-shadow" x="-40%" y="-40%" width="180%" height="180%"><feDropShadow dx="0" dy="10" stdDeviation="16" flood-color="#03040c" flood-opacity="0.55"/></filter><filter id="gk-blob" x="-80%" y="-80%" width="260%" height="260%"><feGaussianBlur stdDeviation="34"/></filter><filter id="gk-grain" x="0%" y="0%" width="100%" height="100%"><feTurbulence type="fractalNoise" baseFrequency="0.9" numOctaves="2" stitchTiles="stitch" result="n"/><feColorMatrix in="n" type="matrix" values="0 0 0 0 1  0 0 0 0 1  0 0 0 0 1  0 0 0 0.04 0"/></filter></defs><clipPath id="gk-clip"><rect x="12" y="12" width="816" height="369" rx="18"/></clipPath><rect x="12" y="12" width="816" height="369" rx="18" fill="#0c0e18" filter="url(#gk-shadow)"/><g clip-path="url(#gk-clip)" filter="url(#gk-blob)"><ellipse cx="77.28" cy="48.9" rx="228.78" ry="187.6" fill="#7aa2f7" fill-opacity="0.3"/><ellipse cx="795.36" cy="366.24" rx="258.3" ry="211.81" fill="#bb9af7" fill-opacity="0.26"/><ellipse cx="517.92" cy="-17.52" rx="166.05" ry="136.16" fill="#7dcfff" fill-opacity="0.2"/></g><rect x="12" y="12" width="816" height="369" rx="18" fill="#1b1e2e" fill-opacity="0.74"/><rect x="12" y="12" width="816" height="369" rx="18" fill="url(#gk-sheen)"/><g clip-path="url(#gk-clip)"><rect x="12" y="12" width="816" height="369" filter="url(#gk-grain)"/></g><rect x="12.5" y="12.5" width="815" height="368" rx="18" fill="none" stroke="url(#gk-rim)" stroke-width="1"/><rect x="30" y="13.5" width="780" height="1" fill="#ffffff" fill-opacity="0.0"/><text x="28" y="46" fill="#8a94bd" font-size="11" font-family="-apple-system, BlinkMacSystemFont, 'Segoe UI', Helvetica, Arial, sans-serif" font-weight="600" letter-spacing="1.2">SHOWCASE · BEST WORK</text><text x="28" y="70" fill="#c0caf5" font-size="20" font-family="-apple-system, BlinkMacSystemFont, 'Segoe UI', Helvetica, Arial, sans-serif" font-weight="600">Flagship Projects</text><text x="812" y="68" fill="#8a94bd" font-size="12" font-family="-apple-system, BlinkMacSystemFont, 'Segoe UI', Helvetica, Arial, sans-serif" font-weight="400" text-anchor="end">3 repositories</text><rect x="28" y="82" width="784" height="1" fill="#c0caf5" fill-opacity="0.14"/><rect x="28" y="89" width="784" height="86" rx="13" fill="#232843" fill-opacity="0.55"/><rect x="28" y="89" width="784" height="86" rx="13" fill="url(#gk-tile)"/><rect x="28.5" y="89.5" width="783" height="85" rx="13" fill="none" stroke="#c0caf5" stroke-opacity="0.14" stroke-width="1"/><rect x="34.5" y="90" width="771" height="1" rx="0.5" fill="#ffffff" fill-opacity="0.14"/><a href="https://github.com/jguida941/ci-cd-hub"><text x="44" y="115" fill="#c0caf5" font-size="14" font-family="-apple-system, BlinkMacSystemFont, 'Segoe UI', Helvetica, Arial, sans-serif" font-weight="400">ci-cd-hub</text></a><rect x="690.8" y="101" width="105.2" height="22" rx="7" fill="#8a94bd" fill-opacity="0.14"/><circle cx="705.8" cy="112" r="3.6" fill="#8a94bd"/><text x="715.8" y="115.74" fill="#8a94bd" font-size="11" font-family="-apple-system, BlinkMacSystemFont, 'Segoe UI', Helvetica, Arial, sans-serif" font-weight="500">Maintained</text><text x="44" y="137" fill="#8a94bd" font-size="12" font-family="-apple-system, BlinkMacSystemFont, 'Segoe UI', Helvetica, Arial, sans-serif" font-weight="400">Stop writing YAML. CLI wizard configures 40+ CI tools (security, qual...</text><circle cx="48" cy="157" r="4.5" fill="#3572A5"/><text x="59" y="161" fill="#a9b1d6" font-size="12" font-family="-apple-system, BlinkMacSystemFont, 'Segoe UI', Helvetica, Arial, sans-serif" font-weight="400">Python</text><g transform="translate(123,149) scale(0.625)" fill="none" stroke="#8a94bd" stroke-width="2.4" stroke-linecap="round" stroke-linejoin="round"><polygon points="12 2 15.09 8.26 22 9.27 17 14.14 18.18 21.02 12 17.77 5.82 21.02 7 14.14 2 9.27 8.91 8.26 12 2"/></g><text x="143" y="161" fill="#a9b1d6" font-size="12" font-family="-apple-system, BlinkMacSystemFont, 'Segoe UI', Helvetica, Arial, sans-serif" font-weight="400">3</text><g transform="translate(172,149) scale(0.625)" fill="none" stroke="#8a94bd" stroke-width="2.4" stroke-linecap="round" stroke-linejoin="round"><circle cx="12" cy="18" r="3"/><circle cx="6" cy="6" r="3"/><circle cx="18" cy="6" r="3"/><path d="M18 9v2c0 .6-.4 1-1 1H7c-.6 0-1-.4-1-1V9"/><path d="M12 12v3"/></g><text x="192" y="161" fill="#a9b1d6" font-size="12" font-family="-apple-system, BlinkMacSystemFont, 'Segoe UI', Helvetica, Arial, sans-serif" font-weight="400">0</text><rect x="28" y="187" width="784" height="86" rx="13" fill="#232843" fill-opacity="0.55"/><rect x="28" y="187" width="784" height="86" rx="13" fill="url(#gk-tile)"/><rect x="28.5" y="187.5" width="783" height="85" rx="13" fill="none" stroke="#c0caf5" stroke-opacity="0.14" stroke-width="1"/><rect x="34.5" y="188" width="771" height="1" rx="0.5" fill="#ffffff" fill-opacity="0.14"/><a href="https://github.com/jguida941/voiceterm"><text x="44" y="213" fill="#c0caf5" font-size="14" font-family="-apple-system, BlinkMacSystemFont, 'Segoe UI', Helvetica, Arial, sans-serif" font-weight="400">voiceterm</text></a><rect x="718.08" y="199" width="77.92" height="22" rx="7" fill="#9ece6a" fill-opacity="0.14"/><g transform="translate(727.08,204) scale(0.5)" fill="none" stroke="#9ece6a" stroke-width="3" stroke-linecap="round" stroke-linejoin="round"><path d="M20 6 9 17l-5-5"/></g><text x="743.08" y="213.74" fill="#9ece6a" font-size="11" font-family="-apple-system, BlinkMacSystemFont, 'Segoe UI', Helvetica, Arial, sans-serif" font-weight="500">Active</text><text x="44" y="235" fill="#8a94bd" font-size="12" font-family="-apple-system, BlinkMacSystemFont, 'Segoe UI', Helvetica, Arial, sans-serif" font-weight="400">Low-latency Rust terminal overlay for Codex and Claude Code with loca...</text><circle cx="48" cy="255" r="4.5" fill="#dea584"/><text x="59" y="259" fill="#a9b1d6" font-size="12" font-family="-apple-system, BlinkMacSystemFont, 'Segoe UI', Helvetica, Arial, sans-serif" font-weight="400">Rust</text><g transform="translate(109,247) scale(0.625)" fill="none" stroke="#8a94bd" stroke-width="2.4" stroke-linecap="round" stroke-linejoin="round"><polygon points="12 2 15.09 8.26 22 9.27 17 14.14 18.18 21.02 12 17.77 5.82 21.02 7 14.14 2 9.27 8.91 8.26 12 2"/></g><text x="129" y="259" fill="#a9b1d6" font-size="12" font-family="-apple-system, BlinkMacSystemFont, 'Segoe UI', Helvetica, Arial, sans-serif" font-weight="400">15</text><g transform="translate(165,247) scale(0.625)" fill="none" stroke="#8a94bd" stroke-width="2.4" stroke-linecap="round" stroke-linejoin="round"><circle cx="12" cy="18" r="3"/><circle cx="6" cy="6" r="3"/><circle cx="18" cy="6" r="3"/><path d="M18 9v2c0 .6-.4 1-1 1H7c-.6 0-1-.4-1-1V9"/><path d="M12 12v3"/></g><text x="185" y="259" fill="#a9b1d6" font-size="12" font-family="-apple-system, BlinkMacSystemFont, 'Segoe UI', Helvetica, Arial, sans-serif" font-weight="400">0</text><rect x="28" y="285" width="784" height="86" rx="13" fill="#232843" fill-opacity="0.55"/><rect x="28" y="285" width="784" height="86" rx="13" fill="url(#gk-tile)"/><rect x="28.5" y="285.5" width="783" height="85" rx="13" fill="none" stroke="#c0caf5" stroke-opacity="0.14" stroke-width="1"/><rect x="34.5" y="286" width="771" height="1" rx="0.5" fill="#ffffff" fill-opacity="0.14"/><a href="https://github.com/jguida941/contact-suite-spring-react"><text x="44" y="311" fill="#c0caf5" font-size="14" font-family="-apple-system, BlinkMacSystemFont, 'Segoe UI', Helvetica, Arial, sans-serif" font-weight="400">contact-suite-spring-react</text></a><rect x="690.8" y="297" width="105.2" height="22" rx="7" fill="#8a94bd" fill-opacity="0.14"/><circle cx="705.8" cy="308" r="3.6" fill="#8a94bd"/><text x="715.8" y="311.74" fill="#8a94bd" font-size="11" font-family="-apple-system, BlinkMacSystemFont, 'Segoe UI', Helvetica, Arial, sans-serif" font-weight="500">Maintained</text><text x="44" y="333" fill="#8a94bd" font-size="12" font-family="-apple-system, BlinkMacSystemFont, 'Segoe UI', Helvetica, Arial, sans-serif" font-weight="400">Full-stack contact, task, and appointment suite (Spring Boot 4.0.0 + ...</text><circle cx="48" cy="353" r="4.5" fill="#b07219"/><text x="59" y="357" fill="#a9b1d6" font-size="12" font-family="-apple-system, BlinkMacSystemFont, 'Segoe UI', Helvetica, Arial, sans-serif" font-weight="400">Java</text><g transform="translate(109,345) scale(0.625)" fill="none" stroke="#8a94bd" stroke-width="2.4" stroke-linecap="round" stroke-linejoin="round"><polygon points="12 2 15.09 8.26 22 9.27 17 14.14 18.18 21.02 12 17.77 5.82 21.02 7 14.14 2 9.27 8.91 8.26 12 2"/></g><text x="129" y="357" fill="#a9b1d6" font-size="12" font-family="-apple-system, BlinkMacSystemFont, 'Segoe UI', Helvetica, Arial, sans-serif" font-weight="400">3</text><g transform="translate(158,345) scale(0.625)" fill="none" stroke="#8a94bd" stroke-width="2.4" stroke-linecap="round" stroke-linejoin="round"><circle cx="12" cy="18" r="3"/><circle cx="6" cy="6" r="3"/><circle cx="18" cy="6" r="3"/><path d="M18 9v2c0 .6-.4 1-1 1H7c-.6 0-1-.4-1-1V9"/><path d="M12 12v3"/></g><text x="178" y="357" fill="#a9b1d6" font-size="12" font-family="-apple-system, BlinkMacSystemFont, 'Segoe UI', Helvetica, Arial, sans-serif" font-weight="400">1</text></svg>